<?xml version="1.0" standalone="no"?>
  <!DOCTYPE svg PUBLIC "-//W3C//DTD SVG 1.1//EN" "http://www.w3.org/Graphics/SVG/1.1/DTD/svg11.dtd" >
  <svg>
  <metadata>
  Created by font-carrier
  </metadata>
  <defs>
  <font id="ProximaNovaExCn-RegularIt" horiz-adv-x="842" vert-adv-y="842" >
    <font-face
      
      font-family="Proxima Nova ExCn Rg"
      
      font-weight="400"
      
      font-stretch="normal"
      
      units-per-em="1000"
      
      ascent="920"
      
      descent="-298"
      
    />
      <missing-glyph />

      

      
      <glyph glyph-name="uni21" unicode="&#x21;" d="M128 183L72 183L164 667L250 667L128 183M63-10Q44-10 30.50 3.50Q17 17 17 37Q17 60 33.50 76.50Q50 93 73 93Q93 93 106.50 79.50Q120 66 120 46Q120 22 103.50 6Q87-10 63-10Z"  horiz-adv-x="227" vert-adv-y="1000"  />

      
      <glyph glyph-name="uni22" unicode="&#x22;" d="M151 417L117 417Q138 619 138 625Q140 649 153.50 663Q167 677 188 677Q204 677 215 665.50Q226 654 226 638Q226 636 221 616L151 417M293 417L259 417Q280 619 280 625Q282 648 295.50 662.50Q309 677 330 677Q346 677 357 665.50Q368 654 368 638Q368 626 363 616L293 417Z"  horiz-adv-x="336" vert-adv-y="1000"  />

      
      <glyph glyph-name="uni23" unicode="&#x23;" d="M171 0L114 0L199 183L127 183L45 0L-12 0L71 183L3 183L25 232L94 232L186 435L117 435L137 484L207 484L290 667L347 667L264 484L335 484L417 667L473 667L391 484L459 484L438 435L369 435L276 232L347 232L325 183L254 183L171 0M219 232L312 435L242 435L150 232L219 232Z"  horiz-adv-x="423" vert-adv-y="1000"  />

      
      <glyph glyph-name="uni24" unicode="&#x24;" d="M78-100L98-10Q20 1-17 57L32 112Q59 64 112 56L169 313Q142 347 129.50 364.50Q117 382 103.50 416.50Q90 451 90 485Q90 561 137.50 616Q185 671 251 677L271 768L327 768L306 673Q358 662 389 623L346 567Q324 597 291 606L237 365Q259 336 272 316Q285 296 296.50 263.50Q308 231 308 199Q308 118 265 60Q222 2 154-9L134-100L78-100M169 496Q169 463 194 423L234 604Q204 593 186.50 563Q169 533 169 496M230 188Q230 219 212 252L171 69Q230 105 230 188Z"  horiz-adv-x="343" vert-adv-y="1000"  />

      
      <glyph glyph-name="uni25" unicode="&#x25;" d="M115 0L74 0L494 667L536 667L115 0M378-12Q327-12 300.50 22.50Q274 57 274 109Q274 194 319 255Q364 316 422 316Q473 316 499 281.50Q525 247 525 195Q525 110 479.50 49Q434-12 378-12M380 35Q414 35 443 81Q472 127 472 191Q472 270 419 270Q385 270 356 223.50Q327 177 327 113Q327 35 380 35M187 349Q136 349 110 383.50Q84 418 84 470Q84 555 129 616Q174 677 231 677Q281 677 307.50 642.50Q334 608 334 556Q334 471 289 410Q244 349 187 349M190 395Q224 395 252.50 441.50Q281 488 281 552Q281 630 228 630Q194 630 165.50 584Q137 538 137 474Q137 395 190 395Z"  horiz-adv-x="570" vert-adv-y="1000"  />

      
      <glyph glyph-name="uni26" unicode="&#x26;" d="M332 0L261 0Q259 6 252 22.50Q245 39 242 49Q183-12 123-12Q73-12 42.50 21Q12 54 12 113Q12 201 49.50 258.50Q87 316 155 370Q148 416 148 466Q148 550 190 613.50Q232 677 286 677Q325 677 348 652Q371 627 371 574Q371 548 366.50 525Q362 502 348 480Q334 458 325.50 444.50Q317 431 292.50 409Q268 387 260.50 380Q253 373 223 349Q236 284 266 175Q293 221 332 314L384 287Q336 176 289 107Q299 79 332 0M136 46Q177 46 222 107Q190 207 168 302Q85 221 85 120Q85 86 99 66Q113 46 136 46M212 456Q212 430 213 417Q260 455 284.50 491Q309 527 309 576Q309 604 301.50 613.50Q294 623 279 623Q253 623 232.50 570Q212 517 212 456Z"  horiz-adv-x="399" vert-adv-y="1000"  />

      
      <glyph glyph-name="uni27" unicode="&#x27;" d="M151 417L117 417Q138 619 138 625Q140 649 153.50 663Q167 677 188 677Q204 677 215 665.50Q226 654 226 638Q226 636 221 616L151 417Z"  horiz-adv-x="195" vert-adv-y="1000"  />

      
      <glyph glyph-name="uni28" unicode="&#x28;" d="M96-183L45-199Q19-98 19 9Q19 366 240 685L283 660Q197 510 143 325.50Q89 141 89-33Q89-119 96-183Z"  horiz-adv-x="209" vert-adv-y="1000"  />

      
      <glyph glyph-name="uni29" unicode="&#x29;" d="M112 669L163 685Q189 584 189 477Q189 120-32-199L-75-174Q11-24 65 160.50Q119 345 119 519Q119 605 112 669Z"  horiz-adv-x="209" vert-adv-y="1000"  />

      
      <glyph glyph-name="uni2a" unicode="&#x2a;" d="M205 392L162 392L193 510L82 459L70 498L184 538L94 601L123 635L205 563L225 677L269 677L237 559L347 611L360 572L247 531L337 469L307 434L225 506L205 392Z"  horiz-adv-x="303" vert-adv-y="1000"  />

      
      <glyph glyph-name="uni2b" unicode="&#x2b;" d="M364 312L231 312L196 158L143 158L177 312L44 312L55 362L188 362L221 510L274 510L242 362L375 362L364 312Z"  horiz-adv-x="378" vert-adv-y="1000"  />

      
      <glyph glyph-name="uni2c" unicode="&#x2c;" d="M123 38Q123-6 90-51Q57-96 11-119L-18-88Q10-74 33.50-51Q57-28 64-4Q61-5 56-5Q40-5 28.50 7Q17 19 17 37Q17 60 33.50 76.50Q50 93 73 93Q94 93 108.50 78.50Q123 64 123 38Z"  horiz-adv-x="227" vert-adv-y="1000"  />

      
      <glyph glyph-name="uni2d" unicode="&#x2d;" d="M198 211L22 211L36 272L210 272L198 211Z"  horiz-adv-x="235" vert-adv-y="1000"  />

      
      <glyph glyph-name="uni2e" unicode="&#x2e;" d="M63-10Q44-10 30.50 3.50Q17 17 17 37Q17 60 33.50 76.50Q50 93 73 93Q93 93 106.50 79.50Q120 66 120 46Q120 22 103.50 6Q87-10 63-10Z"  horiz-adv-x="227" vert-adv-y="1000"  />

      
      <glyph glyph-name="uni2f" unicode="&#x2f;" d="M-5-20L-59-20L244 687L299 687L-5-20Z"  horiz-adv-x="200" vert-adv-y="1000"  />

      
      <glyph glyph-name="uni30" unicode="&#x30;" d="M165-12Q107-12 73 33.50Q39 79 39 171Q39 277 69 392.50Q99 508 157.50 592.50Q216 677 285 677Q343 677 377.50 631.50Q412 586 412 494Q412 388 382 273Q352 158 293.50 73Q235-12 165-12M172 56Q218 56 258 143Q298 230 317.50 332.50Q337 435 337 507Q337 609 278 609Q232 609 192 522.50Q152 436 132.50 333.50Q113 231 113 158Q113 56 172 56Z"  horiz-adv-x="412" vert-adv-y="1000"  />

      
      <glyph glyph-name="uni31" unicode="&#x31;" d="M175 0L99 0L224 567L102 460L67 508L255 667L322 667L175 0Z"  horiz-adv-x="292" vert-adv-y="1000"  />

      
      <glyph glyph-name="uni32" unicode="&#x32;" d="M293 0L-2 0L15 78Q38 105 79 155Q236 343 282.50 410.50Q329 478 329 533Q329 568 311 588.50Q293 609 262 609Q203 609 155 537L110 584Q180 677 268 677Q331 677 370.50 641.50Q410 606 410 543Q410 467 352.50 380.50Q295 294 107 67L308 67L293 0Z"  horiz-adv-x="391" vert-adv-y="1000"  />

      
      <glyph glyph-name="uni33" unicode="&#x33;" d="M155-12Q96-12 53 22.50Q10 57-4 122L61 156Q79 56 155 56Q204 56 233.50 109.50Q263 163 263 228Q263 268 241.50 288.50Q220 309 189 309Q166 309 158 307L174 377Q181 376 220 376Q269 376 297 423.50Q325 471 325 533Q325 609 254 609Q194 609 154 538L108 581Q171 677 266 677Q329 677 367 642.50Q405 608 405 544Q405 474 366 413.50Q327 353 267 340Q338 313 338 216Q338 127 285.50 57.50Q233-12 155-12Z"  horiz-adv-x="390" vert-adv-y="1000"  />

      
      <glyph glyph-name="uni34" unicode="&#x34;" d="M245 0L170 0L208 173L-3 173L13 247L299 667L392 667L297 240L351 240L336 173L283 173L245 0M222 240L296 568L78 240L222 240Z"  horiz-adv-x="366" vert-adv-y="1000"  />

      
      <glyph glyph-name="uni35" unicode="&#x35;" d="M156-12Q35-12 5 121L70 153Q82 56 156 56Q203 56 240 125Q277 194 277 273Q277 354 215 354Q169 354 123 300L71 324L148 667L420 667L405 600L208 600L158 370Q196 417 251 417Q299 417 327.50 380.50Q356 344 356 281Q356 168 298 78Q240-12 156-12Z"  horiz-adv-x="393" vert-adv-y="1000"  />

      
      <glyph glyph-name="uni36" unicode="&#x36;" d="M165-12Q98-12 67 36Q36 84 36 163Q36 218 51 298Q66 378 94.50 466Q123 554 177.50 615.50Q232 677 299 677Q344 677 378 649Q412 621 422 574L366 530Q362 567 343.50 588Q325 609 295 609Q197 609 136 346Q135 343 134.50 339.50Q134 336 134 334.50Q134 333 133.50 330Q133 327 132 324Q185 416 252 416Q300 416 329.50 381Q359 346 359 281Q359 217 337.50 151.50Q316 86 270 37Q224-12 165-12M170 56Q205 56 231.50 96.50Q258 137 269.50 185Q281 233 281 273Q281 308 266.50 330Q252 352 222 352Q167 352 118 248Q108 198 108 155Q108 56 170 56Z"  horiz-adv-x="393" vert-adv-y="1000"  />

      
      <glyph glyph-name="uni37" unicode="&#x37;" d="M104 0L21 0L302 600L100 600L114 667L402 667L390 615L104 0Z"  horiz-adv-x="330" vert-adv-y="1000"  />

      
      <glyph glyph-name="uni38" unicode="&#x38;" d="M161-12Q13-12 13 122Q13 192 52 254Q91 316 166 350Q138 371 119 408.50Q100 446 100 486Q100 560 150.50 618.50Q201 677 272 677Q330 677 370 644.50Q410 612 410 544Q410 468 368 415Q326 362 268 339Q301 314 319.50 274.50Q338 235 338 193Q338 105 287 46.50Q236-12 161-12M223 370Q266 387 299 428.50Q332 470 332 536Q332 571 315 590Q298 609 267 609Q229 609 202.50 568.50Q176 528 176 471Q176 440 190 412Q204 384 223 370M160 56Q199 56 230.50 100Q262 144 262 205Q262 247 245.50 277Q229 307 211 317Q165 300 129 251Q93 202 93 137Q93 96 111.50 76Q130 56 160 56Z"  horiz-adv-x="391" vert-adv-y="1000"  />

      
      <glyph glyph-name="uni39" unicode="&#x39;" d="M266 678Q333 678 364 630.50Q395 583 395 503Q395 448 380 368Q365 288 336.50 200Q308 112 253.50 50.50Q199-11 132-11Q88-11 53.50 17Q19 45 9 92L65 136Q69 99 87.50 78Q106 57 136 57Q234 57 295 320Q296 326 297.50 332Q299 338 300 342Q246 250 179 250Q132 250 102.50 285Q73 320 73 385Q73 449 94 514.50Q115 580 161 629Q207 678 266 678M262 610Q227 610 200.50 569.50Q174 529 162.50 481Q151 433 151 393Q151 314 209 314Q265 314 314 418Q323 474 323 511Q323 610 262 610Z"  horiz-adv-x="393" vert-adv-y="1000"  />

      
      <glyph glyph-name="uni3a" unicode="&#x3a;" d="M64-10Q44-10 30.50 3.50Q17 17 17 37Q17 60 33.50 76.50Q50 93 73 93Q93 93 106.50 79.50Q120 66 120 46Q120 22 103.50 6Q87-10 64-10M152 387Q132 387 118 400.50Q104 414 104 434Q104 457 121 473.50Q138 490 161 490Q180 490 194 476Q208 462 208 443Q208 419 191.50 403Q175 387 152 387Z"  horiz-adv-x="227" vert-adv-y="1000"  />

      
      <glyph glyph-name="uni3b" unicode="&#x3b;" d="M123 38Q123-6 90-51Q57-96 11-119L-18-88Q10-74 33.50-51Q57-28 64-4Q61-5 56-5Q40-5 28.50 7Q17 19 17 37Q17 60 33.50 76.50Q50 93 73 93Q94 93 108.50 78.50Q123 64 123 38M152 387Q132 387 118 400.50Q104 414 104 434Q104 457 121 473.50Q138 490 161 490Q180 490 194 476Q208 462 208 443Q208 419 191.50 403Q175 387 152 387Z"  horiz-adv-x="227" vert-adv-y="1000"  />

      
      <glyph glyph-name="uni3c" unicode="&#x3c;" d="M330 161L43 310L54 359L407 508L393 446L109 331L342 217L330 161Z"  horiz-adv-x="378" vert-adv-y="1000"  />

      
      <glyph glyph-name="uni3d" unicode="&#x3d;" d="M385 407L65 407L76 456L395 456L385 407M341 212L21 212L32 261L353 261L341 212Z"  horiz-adv-x="378" vert-adv-y="1000"  />

      
      <glyph glyph-name="uni3e" unicode="&#x3e;" d="M363 310L10 161L24 223L309 337L75 452L87 508L374 359L363 310Z"  horiz-adv-x="378" vert-adv-y="1000"  />

      
      <glyph glyph-name="uni3f" unicode="&#x3f;" d="M184 208L121 183Q109 210 109 245Q109 292 135.50 333.50Q162 375 193 401Q224 427 250.50 464Q277 501 277 541Q277 570 259.50 591.50Q242 613 212 613Q175 613 145 587L121 640Q172 678 230 678Q286 678 320.50 643Q355 608 355 559Q355 517 336.50 480Q318 443 292 415.50Q266 388 239.50 363Q213 338 194.50 310Q176 282 176 254Q176 224 184 208M110-10Q90-10 76.50 4Q63 18 63 37Q63 60 79.50 76.50Q96 93 119 93Q139 93 153 79.50Q167 66 167 46Q167 22 150.50 6Q134-10 110-10Z"  horiz-adv-x="313" vert-adv-y="1000"  />

      
      <glyph glyph-name="uni40" unicode="&#x40;" d="M283-70Q179-70 117 7Q55 84 55 215Q55 379 154 509Q253 639 385 639Q475 639 530 573.50Q585 508 585 394Q585 266 539 175.50Q493 85 436 85Q404 85 384 104.50Q364 124 362 155L361 162Q314 85 253 85Q215 85 188.50 114Q162 143 162 208Q162 277 184 343Q206 409 249 454Q292 499 345 499Q401 499 417 427L428 483L491 483L432 205Q429 190 429 177Q429 135 458 135Q470 135 485 152.50Q500 170 515 201Q530 232 540 283.50Q550 335 550 394Q550 495 504.50 550Q459 605 384 605Q307 605 238.50 548Q170 491 130.50 401Q91 311 91 216Q91 100 144 31.50Q197-37 287-37Q358-37 424 19L441-7Q365-70 283-70M277 137Q297 137 316.50 151Q336 165 345.50 178.50Q355 192 371 217L406 379Q394 447 353 447Q298 447 263 371Q228 295 228 216Q228 137 277 137Z"  horiz-adv-x="600" vert-adv-y="1000"  />

      
      <glyph glyph-name="uni41" unicode="&#x41;" d="M303 0L228 0L235 153L92 153L32 0L-47 0L231 667L318 667L303 0M240 220L257 577L116 220L240 220Z"  horiz-adv-x="364" vert-adv-y="1000"  />

      
      <glyph glyph-name="uni42" unicode="&#x42;" d="M172 0L9 0L156 667L273 667Q337 667 372.50 629.50Q408 592 408 533Q408 464 373.50 406Q339 348 282 337Q315 327 331.50 293.50Q348 260 348 220Q348 134 301 67Q254 0 172 0M229 375Q275 375 301.50 422.50Q328 470 328 521Q328 560 308 580Q288 600 253 600L217 600L167 375L229 375M163 67Q209 67 240 115Q271 163 271 225Q271 308 194 308L152 308L99 67L163 67Z"  horiz-adv-x="403" vert-adv-y="1000"  />

      
      <glyph glyph-name="uni43" unicode="&#x43;" d="M175-12Q110-12 74.50 36Q39 84 39 177Q39 238 54 318Q69 398 98 481.50Q127 565 179 621.50Q231 678 296 678Q358 678 389 635.50Q420 593 426 524L355 510Q347 610 290 610Q250 610 215.50 558.50Q181 507 160.50 434Q140 361 128.50 290.50Q117 220 117 174Q117 111 132.50 83.50Q148 56 180 56Q227 56 274 141L334 113Q268-12 175-12Z"  horiz-adv-x="390" vert-adv-y="1000"  />

      
      <glyph glyph-name="uni44" unicode="&#x44;" d="M137 0L9 0L156 667L280 667Q338 667 379 617Q420 567 420 467Q420 430 412.50 377.50Q405 325 385 257Q365 189 335 133.50Q305 78 253 39Q201 0 137 0M99 67L149 67Q199 67 239 117Q279 167 300 237.50Q321 308 331.50 368.50Q342 429 342 466Q342 534 320.50 567Q299 600 266 600L217 600L99 67Z"  horiz-adv-x="427" vert-adv-y="1000"  />

      
      <glyph glyph-name="uni45" unicode="&#x45;" d="M257 0L9 0L156 667L404 667L389 600L217 600L167 375L332 375L317 308L152 308L99 67L271 67L257 0Z"  horiz-adv-x="352" vert-adv-y="1000"  />

      
      <glyph glyph-name="uni46" unicode="&#x46;" d="M84 0L9 0L156 667L404 667L389 600L217 600L167 375L332 375L317 308L152 308L84 0Z"  horiz-adv-x="351" vert-adv-y="1000"  />

      
      <glyph glyph-name="uni47" unicode="&#x47;" d="M175-12Q110-12 74.50 35.50Q39 83 39 177Q39 242 55 323.50Q71 405 100.50 486.50Q130 568 181.50 623Q233 678 296 678Q359 678 389.50 635.50Q420 593 423 531L357 516Q350 610 290 610Q251 610 217 560Q183 510 162 439Q141 368 129 296.50Q117 225 117 174Q117 110 132.50 83Q148 56 180 56Q218 56 260 112L294 273L205 273L220 340L378 340L322 85Q258-12 175-12Z"  horiz-adv-x="411" vert-adv-y="1000"  />

      
      <glyph glyph-name="uni48" unicode="&#x48;" d="M319 0L244 0L312 309L152 309L84 0L9 0L156 667L231 667L167 377L327 377L391 667L466 667L319 0Z"  horiz-adv-x="436" vert-adv-y="1000"  />

      
      <glyph glyph-name="uni49" unicode="&#x49;" d="M84 0L9 0L156 667L231 667L84 0Z"  horiz-adv-x="201" vert-adv-y="1000"  />

      
      <glyph glyph-name="uni4a" unicode="&#x4a;" d="M76-12Q-1-12-36 38L1 96Q24 56 71 56Q108 56 129.50 77Q151 98 161 145L277 667L352 667L236 142Q218 62 180 25Q142-12 76-12Z"  horiz-adv-x="321" vert-adv-y="1000"  />

      
      <glyph glyph-name="uni4b" unicode="&#x4b;" d="M353 0L272 0L193 292L129 203L84 0L9 0L156 667L231 667L158 332L397 667L487 667L249 350L353 0Z"  horiz-adv-x="418" vert-adv-y="1000"  />

      
      <glyph glyph-name="uni4c" unicode="&#x4c;" d="M257 0L9 0L156 667L231 667L99 67L271 67L257 0Z"  horiz-adv-x="333" vert-adv-y="1000"  />

      
      <glyph glyph-name="uni4d" unicode="&#x4d;" d="M441 0L367 0L480 511L240 0L210 0L198 511L84 0L9 0L156 667L256 667L269 208L486 667L588 667L441 0Z"  horiz-adv-x="558" vert-adv-y="1000"  />

      
      <glyph glyph-name="uni4e" unicode="&#x4e;" d="M319 0L247 0L189 477L84 0L9 0L156 667L231 667L287 201L391 667L466 667L319 0Z"  horiz-adv-x="436" vert-adv-y="1000"  />

      
      <glyph glyph-name="uni4f" unicode="&#x4f;" d="M175-12Q106-12 72.50 40.50Q39 93 39 177Q39 223 48 284Q57 345 77.50 415Q98 485 126.50 543Q155 601 199.50 639.50Q244 678 296 678Q365 678 399 624.50Q433 571 433 487Q433 428 417.50 348Q402 268 373 185Q344 102 291.50 45Q239-12 175-12M180 56Q218 56 252.50 106Q287 156 308 227Q329 298 341.50 369Q354 440 354 490Q354 610 290 610Q251 610 217 560Q183 510 162 438.50Q141 367 129 295.50Q117 224 117 174Q117 56 180 56Z"  horiz-adv-x="434" vert-adv-y="1000"  />

      
      <glyph glyph-name="uni50" unicode="&#x50;" d="M84 0L9 0L156 667L281 667Q339 667 375.50 625Q412 583 412 515Q412 418 356.50 343.50Q301 269 203 269L143 269L84 0M158 336L210 336Q267 336 299.50 389Q332 442 332 510Q332 554 313.50 577Q295 600 264 600L217 600L158 336Z"  horiz-adv-x="387" vert-adv-y="1000"  />

      
      <glyph glyph-name="uni51" unicode="&#x51;" d="M175-12Q106-12 72.50 40.50Q39 93 39 177Q39 223 48 284Q57 345 77.50 415Q98 485 126.50 543Q155 601 199.50 639.50Q244 678 296 678Q365 678 399 624.50Q433 571 433 487Q433 378 389.50 232Q346 86 268 23L276-25L217-35L212-6Q194-12 175-12M180 56Q193 56 202 60L178 209L238 219L255 109Q299 174 326.50 292Q354 410 354 490Q354 610 290 610Q251 610 217 560Q183 510 162 438.50Q141 367 129 295.50Q117 224 117 174Q117 56 180 56Z"  horiz-adv-x="434" vert-adv-y="1000"  />

      
      <glyph glyph-name="uni52" unicode="&#x52;" d="M311 0L233 0L206 269L143 269L84 0L9 0L156 667L279 667Q338 667 375.50 624.50Q413 582 413 517Q413 432 372.50 365.50Q332 299 276 282L311 0M158 336L211 336Q268 336 300.50 389.50Q333 443 333 512Q333 556 315 578Q297 600 266 600L217 600L158 336Z"  horiz-adv-x="409" vert-adv-y="1000"  />

      
      <glyph glyph-name="uni53" unicode="&#x53;" d="M125-12Q81-12 42 7Q3 26-17 57L32 112Q46 87 72 71.50Q98 56 125 56Q167 56 198.50 92Q230 128 230 188Q230 223 208 260Q186 297 160 325Q134 353 112 396Q90 439 90 485Q90 566 142.50 622Q195 678 266 678Q346 678 389 623L346 567Q316 610 265 610Q223 610 196 576Q169 542 169 496Q169 470 183.50 442.50Q198 415 218.50 389.50Q239 364 259 336.50Q279 309 293.50 273Q308 237 308 199Q308 109 255.50 48.50Q203-12 125-12Z"  horiz-adv-x="354" vert-adv-y="1000"  />

      
      <glyph glyph-name="uni54" unicode="&#x54;" d="M145 0L69 0L202 600L97 600L111 667L397 667L383 600L277 600L145 0Z"  horiz-adv-x="322" vert-adv-y="1000"  />

      
      <glyph glyph-name="uni55" unicode="&#x55;" d="M181-12Q120-12 81 25.50Q42 63 42 128Q42 152 47 174L156 667L231 667L121 169Q117 141 117 133Q117 95 136.50 75Q156 55 187 55Q223 55 246 81.50Q269 108 282 169L392 667L467 667L358 172Q317-12 181-12Z"  horiz-adv-x="437" vert-adv-y="1000"  />

      
      <glyph glyph-name="uni56" unicode="&#x56;" d="M171 0L84 0L100 667L175 667L148 100L370 667L450 667L171 0Z"  horiz-adv-x="364" vert-adv-y="1000"  />

      
      <glyph glyph-name="uni57" unicode="&#x57;" d="M370 0L290 0L334 514L150 0L71 0L111 667L188 667L141 136L334 667L398 667L356 136L544 667L623 667L370 0Z"  horiz-adv-x="548" vert-adv-y="1000"  />

      
      <glyph glyph-name="uni58" unicode="&#x58;" d="M311 0L231 0L190 265L37 0L-50 0L164 343L104 667L184 667L219 413L362 667L450 667L246 336L311 0Z"  horiz-adv-x="368" vert-adv-y="1000"  />

      
      <glyph glyph-name="uni59" unicode="&#x59;" d="M170 0L95 0L157 283L92 667L170 667L208 360L382 667L466 667L232 283L170 0Z"  horiz-adv-x="372" vert-adv-y="1000"  />

      
      <glyph glyph-name="uni5a" unicode="&#x5a;" d="M253 0L-21 0L-7 66L291 600L112 600L126 667L393 667L379 604L79 67L268 67L253 0Z"  horiz-adv-x="340" vert-adv-y="1000"  />

      
      <glyph glyph-name="uni5b" unicode="&#x5b;" d="M67-190L-61-190L131 678L260 678L249 626L173 626L3-138L79-138L67-190Z"  horiz-adv-x="182" vert-adv-y="1000"  />

      
      <glyph glyph-name="uni5c" unicode="&#x5c;" d="M89-20L89 687L142 687L142-20L89-20Z"  horiz-adv-x="200" vert-adv-y="1000"  />

      
      <glyph glyph-name="uni5d" unicode="&#x5d;" d="M50-190L-79-190L-67-138L8-138L177 626L102 626L113 678L243 678L50-190Z"  horiz-adv-x="182" vert-adv-y="1000"  />

      
      <glyph glyph-name="uni5e" unicode="&#x5e;" d="M330 333L277 333L247 608L95 333L38 333L232 667L284 667L330 333Z"  horiz-adv-x="330" vert-adv-y="1000"  />

      
      <glyph glyph-name="uni5f" unicode="&#x5f;" d="M207-92L-77-92L-65-40L219-40L207-92Z"  horiz-adv-x="279" vert-adv-y="1000"  />

      
      <glyph glyph-name="uni60" unicode="&#x60;" d="M215 556L169 556L101 700L168 700L215 556Z"  horiz-adv-x="146" vert-adv-y="1000"  />

      
      <glyph glyph-name="uni61" unicode="&#x61;" d="M210 495Q240 495 264 474.50Q288 454 298 414L313 483L381 483L274 0L206 0L220 62Q176-12 119-12Q73-12 48 25Q23 62 23 131Q23 179 35 238.50Q47 298 69 357Q91 416 128.50 455.50Q166 495 210 495M221 434Q182 434 151.50 376Q121 318 107.50 251.50Q94 185 94 136Q94 49 149 49Q172 49 196 72.50Q220 96 235 129L285 353Q282 387 263.50 410.50Q245 434 221 434Z"  horiz-adv-x="384" vert-adv-y="1000"  />

      
      <glyph glyph-name="uni62" unicode="&#x62;" d="M173-12Q107-12 85 69L70 0L3 0L149 667L217 667L163 421Q207 495 264 495Q310 495 335 457.50Q360 420 360 352Q360 304 348 244.50Q336 185 314.50 126Q293 67 255.50 27.50Q218-12 173-12M162 49Q201 49 231.50 107Q262 165 275.50 231.50Q289 298 289 347Q289 434 234 434Q211 434 187 410.50Q163 387 148 354L98 130Q101 96 119.50 72.50Q138 49 162 49Z"  horiz-adv-x="384" vert-adv-y="1000"  />

      
      <glyph glyph-name="uni63" unicode="&#x63;" d="M158-12Q95-12 60 29.50Q25 71 25 154Q25 206 39 263.50Q53 321 78 373.50Q103 426 145 460.50Q187 495 236 495Q302 495 336 446L298 396Q278 434 238 434Q194 434 160.50 383Q127 332 112 270Q97 208 97 155Q97 49 170 49Q204 49 232 80L251 27Q209-12 158-12Z"  horiz-adv-x="317" vert-adv-y="1000"  />

      
      <glyph glyph-name="uni64" unicode="&#x64;" d="M210 495Q240 495 264 474.50Q288 454 298 414L354 667L422 667L274 0L206 0L220 62Q176-12 119-12Q73-12 48 25Q23 62 23 131Q23 179 35 238.50Q47 298 69 357Q91 416 128.50 455.50Q166 495 210 495M221 434Q182 434 151.50 376Q121 318 107.50 251.50Q94 185 94 136Q94 49 149 49Q172 49 196 72.50Q220 96 235 129L285 353Q282 387 263.50 410.50Q245 434 221 434Z"  horiz-adv-x="384" vert-adv-y="1000"  />

      
      <glyph glyph-name="uni65" unicode="&#x65;" d="M164-12Q98-12 61 30Q24 72 24 154Q24 194 35.50 248.50Q47 303 70 360Q93 417 135 456Q177 495 229 495Q352 495 352 346Q352 291 334 219L98 219Q90 187 90 151Q90 103 110.50 74Q131 45 173 45Q218 45 260 99L291 56Q235-12 164-12M108 270L278 270Q288 313 288 345Q288 385 271.50 411.50Q255 438 224 438Q179 438 149 386Q119 334 108 270Z"  horiz-adv-x="373" vert-adv-y="1000"  />

      
      <glyph glyph-name="uni66" unicode="&#x66;" d="M85 0L16 0L110 423L62 423L76 483L123 483L140 564Q164 677 257 677Q309 677 330 648L296 596Q284 616 262 616Q220 616 209 564L192 483L257 483L244 423L178 423L85 0Z"  horiz-adv-x="224" vert-adv-y="1000"  />

      
      <glyph glyph-name="uni67" unicode="&#x67;" d="M99-196Q12-196-33-140L8-86Q38-135 99-135Q175-135 201-19L223 70Q180-4 121-4Q76-4 49.50 30.50Q23 65 23 135Q23 182 34.50 240.50Q46 299 67 357.50Q88 416 126 455.50Q164 495 211 495Q239 495 265.50 473Q292 451 299 414L314 483L381 483L271-12Q249-111 206-153.50Q163-196 99-196M150 56Q174 56 197.50 79.50Q221 103 236 137L285 353Q282 384 263.50 409Q245 434 220 434Q191 434 166 402Q141 370 126 323Q111 276 102.50 228Q94 180 94 144Q94 56 150 56Z"  horiz-adv-x="384" vert-adv-y="1000"  />

      
      <glyph glyph-name="uni68" unicode="&#x68;" d="M268 0L200 0L282 371Q285 386 285 395Q285 434 247 434Q222 434 194.50 410Q167 386 147 352L70 0L2 0L149 667L217 667L163 419Q217 495 280 495Q318 495 338 474.50Q358 454 358 421Q358 410 354 390L268 0Z"  horiz-adv-x="378" vert-adv-y="1000"  />

      
      <glyph glyph-name="uni69" unicode="&#x69;" d="M163 554Q145 554 132.50 566Q120 578 120 595Q120 618 137 633.50Q154 649 174 649Q192 649 204.50 636.50Q217 624 217 607Q217 584 200 569Q183 554 163 554M70 0L2 0L109 483L177 483L70 0Z"  horiz-adv-x="180" vert-adv-y="1000"  />

      
      <glyph glyph-name="uni6a" unicode="&#x6a;" d="M-57-196Q-106-196-122-162L-85-116Q-80-135-59-135Q-28-135-15-71L109 483L177 483L54-71Q38-139 13-167.50Q-12-196-57-196M163 554Q145 554 132.50 566Q120 578 120 595Q120 618 137 633.50Q154 649 174 649Q192 649 204.50 636.50Q217 624 217 607Q217 584 200 569Q183 554 163 554Z"  horiz-adv-x="180" vert-adv-y="1000"  />

      
      <glyph glyph-name="uni6b" unicode="&#x6b;" d="M291 0L219 0L175 222L97 123L70 0L2 0L149 667L217 667L119 221L323 483L399 483L228 267L291 0Z"  horiz-adv-x="361" vert-adv-y="1000"  />

      
      <glyph glyph-name="uni6c" unicode="&#x6c;" d="M70 0L2 0L149 667L217 667L70 0Z"  horiz-adv-x="180" vert-adv-y="1000"  />

      
      <glyph glyph-name="uni6d" unicode="&#x6d;" d="M466 0L397 0L479 371Q483 387 483 395Q483 434 445 434Q419 434 391.50 409.50Q364 385 345 352L268 0L200 0L282 371Q285 395 285 397Q285 434 247 434Q221 434 194 410Q167 386 147 352L70 0L2 0L109 483L177 483L163 419Q216 495 280 495Q316 495 337 475.50Q358 456 358 427Q358 421 357 415Q413 495 477 495Q514 495 535 476Q556 457 556 423Q556 412 551 390L466 0Z"  horiz-adv-x="576" vert-adv-y="1000"  />

      
      <glyph glyph-name="uni6e" unicode="&#x6e;" d="M268 0L200 0L282 371Q285 389 285 395Q285 434 247 434Q222 434 194.50 410Q167 386 147 352L70 0L2 0L109 483L177 483L163 419Q217 495 280 495Q317 495 337.50 475.50Q358 456 358 421Q358 402 354 390L268 0Z"  horiz-adv-x="378" vert-adv-y="1000"  />

      
      <glyph glyph-name="uni6f" unicode="&#x6f;" d="M150-12Q90-12 57 27.50Q24 67 24 145Q24 219 46 297Q68 375 117.50 435Q167 495 231 495Q291 495 323.50 456Q356 417 356 338Q356 264 334 186Q312 108 263 48Q214-12 150-12M154 49Q193 49 225 103.50Q257 158 271.50 223Q286 288 286 338Q286 434 227 434Q188 434 155.50 379Q123 324 108.50 259Q94 194 94 144Q94 49 154 49Z"  horiz-adv-x="382" vert-adv-y="1000"  />

      
      <glyph glyph-name="uni70" unicode="&#x70;" d="M173-12Q107-12 85 69L29-184L-38-184L109 483L177 483L163 421Q207 495 264 495Q310 495 335 457.50Q360 420 360 352Q360 304 348 244.50Q336 185 314.50 126Q293 67 255.50 27.50Q218-12 173-12M162 49Q201 49 231.50 107Q262 165 275.50 231.50Q289 298 289 347Q289 434 234 434Q211 434 187 410.50Q163 387 148 354L98 130Q101 96 119.50 72.50Q138 49 162 49Z"  horiz-adv-x="384" vert-adv-y="1000"  />

      
      <glyph glyph-name="uni71" unicode="&#x71;" d="M210 495Q240 495 264 474.50Q288 454 298 414L313 483L381 483L233-184L165-184L220 62Q176-12 119-12Q73-12 48 25Q23 62 23 131Q23 179 35 238.50Q47 298 69 357Q91 416 128.50 455.50Q166 495 210 495M221 434Q182 434 151.50 376Q121 318 107.50 251.50Q94 185 94 136Q94 49 149 49Q172 49 196 72.50Q220 96 235 129L285 353Q282 387 263.50 410.50Q245 434 221 434Z"  horiz-adv-x="384" vert-adv-y="1000"  />

      
      <glyph glyph-name="uni72" unicode="&#x72;" d="M70 0L2 0L109 483L177 483L163 415Q209 493 292 493L276 423Q267 426 253 426Q192 426 146 344L70 0Z"  horiz-adv-x="252" vert-adv-y="1000"  />

      
      <glyph glyph-name="uni73" unicode="&#x73;" d="M110-12Q67-12 33 6Q-1 24-17 55L25 99Q54 44 113 44Q146 44 169 69Q192 94 192 128Q192 156 171.50 183Q151 210 126 229.50Q101 249 80.50 281.50Q60 314 60 352Q60 411 98.50 453Q137 495 201 495Q277 495 317 436L276 393Q266 414 244.50 426.50Q223 439 199 439Q167 439 147 418Q127 397 127 365Q127 340 148 313.50Q169 287 194 267.50Q219 248 240 214Q261 180 261 142Q261 78 218 33Q175-12 110-12Z"  horiz-adv-x="309" vert-adv-y="1000"  />

      
      <glyph glyph-name="uni74" unicode="&#x74;" d="M114-12Q32-12 32 59Q32 75 36 95L110 423L61 423L74 483L123 483L152 615L221 615L192 483L257 483L244 423L178 423L107 104Q103 86 103 77Q103 49 132 49Q150 49 163 62L173 9Q148-12 114-12Z"  horiz-adv-x="233" vert-adv-y="1000"  />

      
      <glyph glyph-name="uni75" unicode="&#x75;" d="M109 483L177 483L95 112Q92 98 92 88Q92 49 130 49Q155 49 181 71Q207 93 227 126L307 483L375 483L268 0L200 0L214 64Q160-12 97-12Q60-12 39.50 7.50Q19 27 19 62Q19 81 23 93L109 483Z"  horiz-adv-x="378" vert-adv-y="1000"  />

      
      <glyph glyph-name="uni76" unicode="&#x76;" d="M146 0L71 0L62 483L133 483L125 84L295 483L369 483L146 0Z"  horiz-adv-x="326" vert-adv-y="1000"  />

      
      <glyph glyph-name="uni77" unicode="&#x77;" d="M369 0L298 0L302 389L135 0L64 0L66 483L136 483L122 96L286 483L355 483L348 96L507 483L581 483L369 0Z"  horiz-adv-x="541" vert-adv-y="1000"  />

      
      <glyph glyph-name="uni78" unicode="&#x78;" d="M259 0L188 0L153 191L34 0L-42 0L121 244L71 483L142 483L172 299L286 483L360 483L204 244L259 0Z"  horiz-adv-x="326" vert-adv-y="1000"  />

      
      <glyph glyph-name="uni79" unicode="&#x79;" d="M-61-186L-38-129Q-32-135-15-135Q0-135 10.50-125Q21-115 33-90L70-13L62 483L133 483L125 87L295 483L369 483L95-106Q70-157 46-176.50Q22-196-12-196Q-41-196-61-186Z"  horiz-adv-x="326" vert-adv-y="1000"  />

      
      <glyph glyph-name="uni7a" unicode="&#x7a;" d="M214 0L-20 0L-9 54L223 423L74 423L87 483L317 483L306 431L75 60L227 60L214 0Z"  horiz-adv-x="303" vert-adv-y="1000"  />

      
      <glyph glyph-name="uni7b" unicode="&#x7b;" d="M88-190L64-190Q31-190 6.50-168Q-18-146-19-109Q-19-102-15-82L37 151Q39 161 39 171Q39 221 0 221L11 267Q62 267 78 337L130 573Q155 678 251 678L281 678L269 626L239 626Q197 626 184 573L130 326Q122 291 107.50 270Q93 249 65 238Q94 224 94 183Q94 165 90 149L39-82Q37-94 37-99Q37-118 46.50-128.50Q56-139 70-139L100-139L88-190Z"  horiz-adv-x="202" vert-adv-y="1000"  />

      
      <glyph glyph-name="uni7c" unicode="&#x7c;" d="M134-20L83-20L83 687L134 687L134-20Z"  horiz-adv-x="177" vert-adv-y="1000"  />

      
      <glyph glyph-name="uni7d" unicode="&#x7d;" d="M113 678L137 678Q170 678 195 655.50Q220 633 220 596Q220 590 216 570L164 337Q162 327 162 316Q162 267 201 267L190 221Q139 221 123 151L71-85Q46-190-50-190L-80-190L-68-138L-38-138Q4-138 17-85L71 162Q79 197 93.50 218Q108 239 136 250Q107 264 107 305Q107 323 111 339L162 570Q164 582 164 587Q164 606 154.50 616.50Q145 627 131 627L101 627L113 678Z"  horiz-adv-x="202" vert-adv-y="1000"  />

      
      <glyph glyph-name="uni7e" unicode="&#x7e;" d="M408 667L460 662Q407 425 307 425Q269 425 253.50 455Q238 485 240 520.50Q242 556 236.50 586Q231 616 212 616Q164 616 119 423L68 429Q119 666 220 666Q251 666 266.50 646Q282 626 284.50 598Q287 570 287 541.50Q287 513 292.50 493Q298 473 315 473Q363 473 408 667Z"  horiz-adv-x="395" vert-adv-y="1000"  />

      
      <glyph glyph-name="unia1" unicode="&#xa1;" d="M98 300L154 300L62-184L-24-184L98 300M162 493Q182 493 195.50 479.50Q209 466 209 446Q209 423 192.50 406.50Q176 390 153 390Q133 390 119 403.50Q105 417 105 437Q105 461 121.50 477Q138 493 162 493Z"  horiz-adv-x="227" vert-adv-y="1000"  />

      
      <glyph glyph-name="unia2" unicode="&#xa2;" d="M94-100L114-6Q25 20 25 154Q25 204 38 260.50Q51 317 75 368.50Q99 420 139 455.50Q179 491 226 494L242 565L297 565L279 488Q316 474 336 446L298 396Q287 417 266 428L181 50Q208 54 232 80L251 27Q212-9 168-12L149-100L94-100M97 155Q97 85 130 61L212 429Q159 409 128 321Q97 233 97 155Z"  horiz-adv-x="317" vert-adv-y="1000"  />

      
      <glyph glyph-name="unia3" unicode="&#xa3;" d="M36 271L46 321L117 321Q116 327 110.50 346Q105 365 102.50 374.50Q100 384 97.50 401.50Q95 419 95 436Q95 534 152 605.50Q209 677 283 677Q338 677 374.50 645Q411 613 414 557L348 535Q341 613 283 613Q242 613 208.50 559.50Q175 506 175 429Q175 410 178.50 392.50Q182 375 188.50 352.50Q195 330 197 321L272 321L261 271L202 271Q199 212 168.50 158.50Q138 105 99 77Q118 87 134 87Q157 87 189 71.50Q221 56 237 56Q276 56 306 90L318 30Q281-12 223-12Q187-12 151 8.50Q115 29 94 29Q62 29 15-7L0 48Q52 78 90 136.50Q128 195 128 253Q128 256 127.50 262Q127 268 127 271L36 271Z"  horiz-adv-x="380" vert-adv-y="1000"  />

      
      <glyph glyph-name="unia4" unicode="&#xa4;" d="M184 100Q127 100 95 135L15 69L-24 118L64 190Q55 218 55 257Q55 399 125 492L70 564L119 605L171 538Q209 565 253 565Q306 565 341 532L423 599L462 550L372 477Q382 447 382 408Q382 343 363 279.50Q344 216 311 172L367 100L317 59L265 127Q227 100 184 100M123 258Q123 164 191 164Q227 164 256 204.50Q285 245 299.50 300Q314 355 314 406Q314 501 247 501Q210 501 180.50 459.50Q151 418 137 363.50Q123 309 123 258Z"  horiz-adv-x="391" vert-adv-y="1000"  />

      
      <glyph glyph-name="unia5" unicode="&#xa5;" d="M172 0L97 0L124 124L-6 124L5 173L135 173L159 283L30 283L40 332L150 332L94 667L172 667L210 360L384 667L468 667L264 332L368 332L358 283L234 283L210 173L333 173L322 124L199 124L172 0Z"  horiz-adv-x="372" vert-adv-y="1000"  />

      
      <glyph glyph-name="unia6" unicode="&#xa6;" d="M134-20L83-20L83 296L134 296L134-20M134 371L83 371L83 687L134 687L134 371Z"  horiz-adv-x="177" vert-adv-y="1000"  />

      
      <glyph glyph-name="unia7" unicode="&#xa7;" d="M298 324Q298 217 197 181Q243 137 243 79Q243 13 202-34Q161-81 98-81Q1-81-38-18L5 26Q34-28 94-28Q128-28 152 0.50Q176 29 176 69Q176 92 162.50 112.50Q149 133 130 149.50Q111 166 92.50 184Q74 202 60.50 228.50Q47 255 47 287Q47 338 77 375Q107 412 159 421Q102 470 102 534Q102 596 142 636.50Q182 677 237 677Q321 677 361 619L320 580Q294 625 240 625Q209 625 188.50 600.50Q168 576 168 542Q168 514 188.50 487.50Q209 461 233 442.50Q257 424 277.50 392.50Q298 361 298 324M233 309Q233 354 198 391Q111 380 111 299Q111 250 161 209Q233 236 233 309Z"  horiz-adv-x="310" vert-adv-y="1000"  />

      
      <glyph glyph-name="unia8" unicode="&#xa8;" d="M325 608Q325 589 310.50 574.50Q296 560 276 560Q260 560 249 571Q238 582 238 599Q238 618 252.50 632Q267 646 287 646Q303 646 314 635Q325 624 325 608M185 608Q185 589 170.50 574.50Q156 560 136 560Q119 560 108 571Q97 582 97 599Q97 618 111.50 632Q126 646 146 646Q163 646 174 635Q185 624 185 608Z"  horiz-adv-x="264" vert-adv-y="1000"  />

      
      <glyph glyph-name="unia9" unicode="&#xa9;" d="M652.50 577.50Q652.50 577.50 703.25 526.75Q754 476 754 334Q754 192 652.50 90.50Q551-11 408-11Q266-11 165 90Q64 191 64 334Q64 477 165 578Q266 679 408 679Q551 679 652.50 577.50M631 111.50Q631 111.50 677.50 157.75Q724 204 724 334Q724 464 631 556.50Q538 649 408 649Q278 649 186 556.50Q94 464 94 334Q94 204 186 111.50Q278 19 408 19Q538 19 631 111.50M505 200L524 173Q464 121 390 121Q302 121 250 174Q198 227 198 307Q198 407 270 477.50Q342 548 434 548Q540 548 589 468L560 447Q523 516 433 516Q358 516 295.50 455.50Q233 395 233 308Q233 243 276.50 198Q320 153 390 153Q458 153 505 200Z"  horiz-adv-x="778" vert-adv-y="1000"  />

      
      <glyph glyph-name="uniaa" unicode="&#xaa;" d="M217 605Q180 605 155 544.50Q130 484 130 427Q130 361 171 361Q186 361 203 377Q220 393 231 415L261 556Q259 576 246.50 590.50Q234 605 217 605M280 640L333 640L264 326L211 326L220 369Q188 318 147 318Q75 318 75 424Q75 471 89.50 521Q104 571 135 609.50Q166 648 206 648Q226 648 244.50 634.50Q263 621 271 598L280 640Z"  horiz-adv-x="292" vert-adv-y="1000"  />

      
      <glyph glyph-name="uniab" unicode="&#xab;" d="M135 63L79 63L29 243L159 420L219 420L86 239L135 63M252 63L195 63L145 243L275 420L336 420L203 239L252 63Z"  horiz-adv-x="325" vert-adv-y="1000"  />

      
      <glyph glyph-name="uniac" unicode="&#xac;" d="M395 456L341 212L290 212L333 407L65 407L76 456L395 456Z"  horiz-adv-x="378" vert-adv-y="1000"  />

      
      <glyph glyph-name="uniad" unicode="&#xad;" d="M198 211L22 211L36 272L210 272L198 211Z"  horiz-adv-x="235" vert-adv-y="1000"  />

      
      <glyph glyph-name="uniae" unicode="&#xae;" d="M508 465Q508 377 445.50 315Q383 253 295 253Q207 253 145.50 315Q84 377 84 465Q84 553 146 615Q208 677 296 677Q384 677 446 615.50Q508 554 508 465M480 465Q480 542 426 595.50Q372 649 295 649Q218 649 165 595.50Q112 542 112 465Q112 389 165.50 335Q219 281 295 281Q371 281 425.50 335Q480 389 480 465M367 343L329 343L287 439L241 439L220 343L188 343L241 586L333 586Q363 586 383 568.50Q403 551 403 522Q403 487 378.50 463.50Q354 440 323 440L367 343M369 518Q369 537 357.50 547.50Q346 558 328 558L267 558L247 468L315 468Q337 468 353 482.50Q369 497 369 518Z"  horiz-adv-x="494" vert-adv-y="1000"  />

      
      <glyph glyph-name="uniaf" unicode="&#xaf;" d="M320 573L73 573L82 618L330 618L320 573Z"  horiz-adv-x="248" vert-adv-y="1000"  />

      
      <glyph glyph-name="unib0" unicode="&#xb0;" d="M333 556Q333 507 297.50 472Q262 437 212 437Q162 437 127.50 471.50Q93 506 93 556Q93 606 128 641.50Q163 677 212 677Q262 677 297.50 641.50Q333 606 333 556M288 556Q288 587 265.50 609Q243 631 212 631Q181 631 159.50 609Q138 587 138 556Q138 525 159 503.50Q180 482 211 482Q242 482 265 504Q288 526 288 556Z"  horiz-adv-x="288" vert-adv-y="1000"  />

      
      <glyph glyph-name="unib1" unicode="&#xb1;" d="M364 312L231 312L196 158L143 158L177 312L44 312L55 362L188 362L221 510L274 510L242 362L375 362L364 312M305 44L-16 44L-5 94L315 94L305 44Z"  horiz-adv-x="378" vert-adv-y="1000"  />

      
      <glyph glyph-name="unib2" unicode="&#xb2;" d="M280 421L70 421L80 465Q211 596 250.50 645Q290 694 290 732Q290 755 276.50 768Q263 781 242 781Q200 781 166 732L135 768Q184 827 245 827Q288 827 317.50 803Q347 779 347 736Q347 689 309 640.50Q271 592 161 481Q158 478 156 476Q154 474 151.50 471.50Q149 469 147 467L290 467L280 421Z"  horiz-adv-x="265" vert-adv-y="1000"  />

      
      <glyph glyph-name="unib3" unicode="&#xb3;" d="M307 543Q307 496 274 455Q241 414 186 414Q146 414 116.50 433Q87 452 76 484L120 514Q135 460 184 460Q217 460 234.50 489.50Q252 519 252 554Q252 579 238.50 591.50Q225 604 205 604Q183 604 178 603L188 649Q193 648 218 648Q247 648 268 671.50Q289 695 289 732Q289 754 276 767.50Q263 781 240 781Q201 781 166 736L136 767Q181 827 245 827Q291 827 318 803.50Q345 780 345 738Q345 700 321 665Q297 630 257 623Q307 608 307 543Z"  horiz-adv-x="265" vert-adv-y="1000"  />

      
      <glyph glyph-name="unib4" unicode="&#xb4;" d="M247 700L115 556L67 556L178 700L247 700Z"  horiz-adv-x="146" vert-adv-y="1000"  />

      
      <glyph glyph-name="unib5" unicode="&#xb5;" d="M73 11L30-184L-38-184L109 483L177 483L95 111Q81 47 130 47Q181 47 228 126L307 483L375 483L290 99Q284 74 288 61.50Q292 49 309 49Q318 49 324 50L316-8Q302-12 282-12Q243-12 229.50 8Q216 28 221 72Q201 34 173.50 11Q146-12 117-12Q88-12 73 11Z"  horiz-adv-x="387" vert-adv-y="1000"  />

      
      <glyph glyph-name="unib6" unicode="&#xb6;" d="M298-100L255-100L416 624L326 624L165-100L122-100L216 323Q159 323 119 367.50Q79 412 79 479Q79 552 135.50 609.50Q192 667 273 667L468 667L298-100Z"  horiz-adv-x="449" vert-adv-y="1000"  />

      
      <glyph glyph-name="unib7" unicode="&#xb7;" d="M108 193Q88 193 74.50 206.50Q61 220 61 240Q61 263 78 279.50Q95 296 118 296Q138 296 151.50 282Q165 268 165 249Q165 225 148.50 209Q132 193 108 193Z"  horiz-adv-x="227" vert-adv-y="1000"  />

      
      <glyph glyph-name="unib8" unicode="&#xb8;" d="M-7-191Q-58-191-89-154L-65-121Q-42-153-6-153Q16-153 30-138Q44-123 44-103Q44-76 19-76Q3-76-9-90L-36-73L14 11L57 11L15-56Q25-46 39-46Q61-46 74-61.50Q87-77 87-101Q87-138 59.50-164.50Q32-191-7-191Z"  horiz-adv-x="165" vert-adv-y="1000"  />

      
      <glyph glyph-name="unib9" unicode="&#xb9;" d="M201 421L146 421L216 745L147 685L120 719L241 821L289 821L201 421Z"  horiz-adv-x="215" vert-adv-y="1000"  />

      
      <glyph glyph-name="uniba" unicode="&#xba;" d="M173 318Q78 318 78 430Q78 474 92.50 522Q107 570 141 609Q175 648 221 648Q316 648 316 536Q316 493 301.50 444.50Q287 396 252.50 357Q218 318 173 318M175 363Q215 363 238.50 425.50Q262 488 262 538Q262 602 218 602Q178 602 154.50 539.50Q131 477 131 427Q131 363 175 363Z"  horiz-adv-x="289" vert-adv-y="1000"  />

      
      <glyph glyph-name="unibb" unicode="&#xbb;" d="M73 420L129 420L179 240L49 63L-11 63L122 244L73 420M189 420L246 420L296 240L166 63L105 63L238 244L189 420Z"  horiz-adv-x="325" vert-adv-y="1000"  />

      
      <glyph glyph-name="unibc" unicode="&#xbc;" d="M167 267L112 267L182 591L113 531L86 565L207 667L255 667L167 267M529 102L492 102L470 0L415 0L437 102L297 102L306 148L490 400L558 400L502 147L538 147L529 102M447 147L488 332L355 147L447 147M537 667L116 0L75 0L495 667L537 667Z"  horiz-adv-x="576" vert-adv-y="1000"  />

      
      <glyph glyph-name="unibd" unicode="&#xbd;" d="M167 267L112 267L182 591L113 531L86 565L207 667L255 667L167 267M531 0L321 0L331 44Q462 175 501.50 224Q541 273 541 311Q541 334 527.50 347Q514 360 493 360Q451 360 417 311L386 347Q435 406 496 406Q539 406 568.50 382Q598 358 598 315Q598 268 560 219.50Q522 171 412 60Q403 51 398 46L541 46L531 0M537 667L116 0L75 0L495 667L537 667Z"  horiz-adv-x="608" vert-adv-y="1000"  />

      
      <glyph glyph-name="unibe" unicode="&#xbe;" d="M565 102L528 102L506 0L451 0L473 102L333 102L342 148L526 400L594 400L538 147L574 147L565 102M483 147L524 332L391 147L483 147M573 667L152 0L111 0L531 667L573 667M273 389Q273 342 240 301Q207 260 152 260Q112 260 82.50 279Q53 298 42 330L86 360Q101 306 150 306Q183 306 200.50 335.50Q218 365 218 400Q218 425 204.50 437.50Q191 450 171 450Q149 450 144 449L154 495Q159 494 184 494Q213 494 234 517.50Q255 541 255 578Q255 600 242 613.50Q229 627 206 627Q167 627 132 582L102 613Q147 673 211 673Q257 673 284 649.50Q311 626 311 584Q311 546 287 511Q263 476 223 469Q273 454 273 389Z"  horiz-adv-x="612" vert-adv-y="1000"  />

      
      <glyph glyph-name="unibf" unicode="&#xbf;" d="M127 275L191 300Q202 272 202 238Q202 199 184.50 165.50Q167 132 142.50 107Q118 82 93.50 58Q69 34 51.50 4.50Q34-25 34-58Q34-88 51-109Q68-130 99-130Q135-130 166-105L189-157Q142-195 82-195Q25-195-9.50-160Q-44-125-44-76Q-44-34-25.50 3Q-7 40 19 67.50Q45 95 71.50 120Q98 145 116.50 173Q135 201 135 229Q135 258 127 275M201 493Q221 493 234.50 479Q248 465 248 445Q248 422 231.50 406Q215 390 192 390Q172 390 158 403.50Q144 417 144 437Q144 460 161 476.50Q178 493 201 493Z"  horiz-adv-x="270" vert-adv-y="1000"  />

      
      <glyph glyph-name="unic0" unicode="&#xc0;" d="M303 0L228 0L235 153L92 153L32 0L-47 0L231 667L318 667L303 0M240 220L257 577L116 220L240 220M324 723L278 723L210 867L277 867L324 723Z"  horiz-adv-x="364" vert-adv-y="1000"  />

      
      <glyph glyph-name="unic1" unicode="&#xc1;" d="M303 0L228 0L235 153L92 153L32 0L-47 0L231 667L318 667L303 0M240 220L257 577L116 220L240 220M429 867L297 723L249 723L360 867L429 867Z"  horiz-adv-x="364" vert-adv-y="1000"  />

      
      <glyph glyph-name="unic2" unicode="&#xc2;" d="M387 723L348 723L310 828L231 723L187 723L285 867L351 867L387 723M303 0L228 0L235 153L92 153L32 0L-47 0L231 667L318 667L303 0M240 220L257 577L116 220L240 220Z"  horiz-adv-x="364" vert-adv-y="1000"  />

      
      <glyph glyph-name="unic3" unicode="&#xc3;" d="M303 0L228 0L235 153L92 153L32 0L-47 0L231 667L318 667L303 0M240 220L257 577L116 220L240 220M335 721Q314 721 303 736Q292 751 290 768.50Q288 786 282 801Q276 816 264 816Q235 816 216 727L176 727Q207 861 271 861Q292 861 303 846Q314 831 316 813.50Q318 796 324 781Q330 766 342 766Q370 766 390 855L430 855Q401 721 335 721Z"  horiz-adv-x="364" vert-adv-y="1000"  />

      
      <glyph glyph-name="unic4" unicode="&#xc4;" d="M411 775Q411 756 396.50 741.50Q382 727 362 727Q346 727 335 738Q324 749 324 766Q324 785 338.50 799Q353 813 373 813Q389 813 400 802Q411 791 411 775M271 775Q271 756 256.50 741.50Q242 727 222 727Q205 727 194 738Q183 749 183 766Q183 785 197.50 799Q212 813 232 813Q249 813 260 802Q271 791 271 775M303 0L228 0L235 153L92 153L32 0L-47 0L231 667L318 667L303 0M240 220L257 577L116 220L240 220Z"  horiz-adv-x="364" vert-adv-y="1000"  />

      
      <glyph glyph-name="unic5" unicode="&#xc5;" d="M303 0L228 0L235 153L92 153L32 0L-47 0L231 667L318 667L303 0M240 220L257 577L116 220L240 220M290 692Q257 692 236.50 713.50Q216 735 216 768Q216 805 243.50 832.50Q271 860 308 860Q340 860 361 838.50Q382 817 382 784Q382 747 354.50 719.50Q327 692 290 692M292 728Q314 728 330 743.50Q346 759 346 781Q346 799 334.50 811.50Q323 824 306 824Q284 824 268 808.50Q252 793 252 771Q252 753 263 740.50Q274 728 292 728Z"  horiz-adv-x="364" vert-adv-y="1000"  />

      
      <glyph glyph-name="unic6" unicode="&#xc6;" d="M457 0L209 0L243 153L120 153L40 0L-40 0L324 667L604 667L590 600L418 600L368 375L533 375L518 308L352 308L300 67L472 67L457 0M258 220L335 568L154 220L258 220Z"  horiz-adv-x="554" vert-adv-y="1000"  />

      
      <glyph glyph-name="unic7" unicode="&#xc7;" d="M128-191Q77-191 46-154L70-121Q93-153 129-153Q151-153 165-138Q179-123 179-103Q179-76 154-76Q138-76 126-90L99-73L138-7Q39 18 39 177Q39 238 54 318Q69 398 98 481.50Q127 565 179 621.50Q231 678 296 678Q358 678 389 635.50Q420 593 426 524L355 510Q347 610 290 610Q250 610 215.50 558.50Q181 507 160.50 434Q140 361 128.50 290.50Q117 220 117 174Q117 111 132.50 83.50Q148 56 180 56Q227 56 274 141L334 113Q268-11 177-12L150-56Q160-46 174-46Q196-46 209-61.50Q222-77 222-101Q222-138 194.50-164.50Q167-191 128-191Z"  horiz-adv-x="390" vert-adv-y="1000"  />

      
      <glyph glyph-name="unic8" unicode="&#xc8;" d="M257 0L9 0L156 667L404 667L389 600L217 600L167 375L332 375L317 308L152 308L99 67L271 67L257 0M328 723L282 723L214 867L281 867L328 723Z"  horiz-adv-x="352" vert-adv-y="1000"  />

      
      <glyph glyph-name="unic9" unicode="&#xc9;" d="M433 867L301 723L253 723L364 867L433 867M257 0L9 0L156 667L404 667L389 600L217 600L167 375L332 375L317 308L152 308L99 67L271 67L257 0Z"  horiz-adv-x="352" vert-adv-y="1000"  />

      
      <glyph glyph-name="unica" unicode="&#xca;" d="M393 723L354 723L316 828L237 723L193 723L291 867L357 867L393 723M257 0L9 0L156 667L404 667L389 600L217 600L167 375L332 375L317 308L152 308L99 67L271 67L257 0Z"  horiz-adv-x="352" vert-adv-y="1000"  />

      
      <glyph glyph-name="unicb" unicode="&#xcb;" d="M416 775Q416 756 401.50 741.50Q387 727 367 727Q351 727 340 738Q329 749 329 766Q329 785 343.50 799Q358 813 378 813Q394 813 405 802Q416 791 416 775M276 775Q276 756 261.50 741.50Q247 727 227 727Q210 727 199 738Q188 749 188 766Q188 785 202.50 799Q217 813 237 813Q254 813 265 802Q276 791 276 775M257 0L9 0L156 667L404 667L389 600L217 600L167 375L332 375L317 308L152 308L99 67L271 67L257 0Z"  horiz-adv-x="352" vert-adv-y="1000"  />

      
      <glyph glyph-name="unicc" unicode="&#xcc;" d="M84 0L9 0L156 667L231 667L84 0M242 723L196 723L128 867L195 867L242 723Z"  horiz-adv-x="201" vert-adv-y="1000"  />

      
      <glyph glyph-name="unicd" unicode="&#xcd;" d="M84 0L9 0L156 667L231 667L84 0M347 867L215 723L167 723L278 867L347 867Z"  horiz-adv-x="201" vert-adv-y="1000"  />

      
      <glyph glyph-name="unice" unicode="&#xce;" d="M307 723L268 723L230 828L151 723L107 723L205 867L271 867L307 723M84 0L9 0L156 667L231 667L84 0Z"  horiz-adv-x="201" vert-adv-y="1000"  />

      
      <glyph glyph-name="unicf" unicode="&#xcf;" d="M330 775Q330 756 315.50 741.50Q301 727 281 727Q265 727 254 738Q243 749 243 766Q243 785 257.50 799Q272 813 292 813Q308 813 319 802Q330 791 330 775M190 775Q190 756 175.50 741.50Q161 727 141 727Q124 727 113 738Q102 749 102 766Q102 785 116.50 799Q131 813 151 813Q168 813 179 802Q190 791 190 775M84 0L9 0L156 667L231 667L84 0Z"  horiz-adv-x="201" vert-adv-y="1000"  />

      
      <glyph glyph-name="unid0" unicode="&#xd0;" d="M156 0L28 0L94 302L34 302L48 365L108 365L175 667L299 667Q357 667 398 617Q439 567 439 467Q439 430 431.50 377.50Q424 325 404 257Q384 189 354 133.50Q324 78 272 39Q220 0 156 0M254 302L170 302L118 67L168 67Q218 67 258 117Q298 167 319 237.50Q340 308 350.50 368.50Q361 429 361 466Q361 534 339.50 567Q318 600 285 600L236 600L184 365L268 365L254 302Z"  horiz-adv-x="446" vert-adv-y="1000"  />

      
      <glyph glyph-name="unid1" unicode="&#xd1;" d="M372 721Q351 721 340 736Q329 751 327 768.50Q325 786 319 801Q313 816 301 816Q272 816 253 727L213 727Q244 861 308 861Q329 861 340 846Q351 831 353 813.50Q355 796 361 781Q367 766 379 766Q407 766 427 855L467 855Q438 721 372 721M319 0L247 0L189 477L84 0L9 0L156 667L231 667L287 201L391 667L466 667L319 0Z"  horiz-adv-x="436" vert-adv-y="1000"  />

      
      <glyph glyph-name="unid2" unicode="&#xd2;" d="M358 723L312 723L244 867L311 867L358 723M175-12Q106-12 72.50 40.50Q39 93 39 177Q39 223 48 284Q57 345 77.50 415Q98 485 126.50 543Q155 601 199.50 639.50Q244 678 296 678Q365 678 399 624.50Q433 571 433 487Q433 428 417.50 348Q402 268 373 185Q344 102 291.50 45Q239-12 175-12M180 56Q218 56 252.50 106Q287 156 308 227Q329 298 341.50 369Q354 440 354 490Q354 610 290 610Q251 610 217 560Q183 510 162 438.50Q141 367 129 295.50Q117 224 117 174Q117 56 180 56Z"  horiz-adv-x="434" vert-adv-y="1000"  />

      
      <glyph glyph-name="unid3" unicode="&#xd3;" d="M465 867L333 723L285 723L396 867L465 867M175-12Q106-12 72.50 40.50Q39 93 39 177Q39 223 48 284Q57 345 77.50 415Q98 485 126.50 543Q155 601 199.50 639.50Q244 678 296 678Q365 678 399 624.50Q433 571 433 487Q433 428 417.50 348Q402 268 373 185Q344 102 291.50 45Q239-12 175-12M180 56Q218 56 252.50 106Q287 156 308 227Q329 298 341.50 369Q354 440 354 490Q354 610 290 610Q251 610 217 560Q183 510 162 438.50Q141 367 129 295.50Q117 224 117 174Q117 56 180 56Z"  horiz-adv-x="434" vert-adv-y="1000"  />

      
      <glyph glyph-name="unid4" unicode="&#xd4;" d="M423 723L384 723L346 828L267 723L223 723L321 867L387 867L423 723M175-12Q106-12 72.50 40.50Q39 93 39 177Q39 223 48 284Q57 345 77.50 415Q98 485 126.50 543Q155 601 199.50 639.50Q244 678 296 678Q365 678 399 624.50Q433 571 433 487Q433 428 417.50 348Q402 268 373 185Q344 102 291.50 45Q239-12 175-12M180 56Q218 56 252.50 106Q287 156 308 227Q329 298 341.50 369Q354 440 354 490Q354 610 290 610Q251 610 217 560Q183 510 162 438.50Q141 367 129 295.50Q117 224 117 174Q117 56 180 56Z"  horiz-adv-x="434" vert-adv-y="1000"  />

      
      <glyph glyph-name="unid5" unicode="&#xd5;" d="M175-12Q106-12 72.50 40.50Q39 93 39 177Q39 223 48 284Q57 345 77.50 415Q98 485 126.50 543Q155 601 199.50 639.50Q244 678 296 678Q365 678 399 624.50Q433 571 433 487Q433 428 417.50 348Q402 268 373 185Q344 102 291.50 45Q239-12 175-12M180 56Q218 56 252.50 106Q287 156 308 227Q329 298 341.50 369Q354 440 354 490Q354 610 290 610Q251 610 217 560Q183 510 162 438.50Q141 367 129 295.50Q117 224 117 174Q117 56 180 56M370 721Q349 721 338 736Q327 751 325 768.50Q323 786 317 801Q311 816 299 816Q270 816 251 727L211 727Q242 861 306 861Q327 861 338 846Q349 831 351 813.50Q353 796 359 781Q365 766 377 766Q405 766 425 855L465 855Q436 721 370 721Z"  horiz-adv-x="434" vert-adv-y="1000"  />

      
      <glyph glyph-name="unid6" unicode="&#xd6;" d="M446 775Q446 756 431.50 741.50Q417 727 397 727Q381 727 370 738Q359 749 359 766Q359 785 373.50 799Q388 813 408 813Q424 813 435 802Q446 791 446 775M306 775Q306 756 291.50 741.50Q277 727 257 727Q240 727 229 738Q218 749 218 766Q218 785 232.50 799Q247 813 267 813Q284 813 295 802Q306 791 306 775M175-12Q106-12 72.50 40.50Q39 93 39 177Q39 223 48 284Q57 345 77.50 415Q98 485 126.50 543Q155 601 199.50 639.50Q244 678 296 678Q365 678 399 624.50Q433 571 433 487Q433 428 417.50 348Q402 268 373 185Q344 102 291.50 45Q239-12 175-12M180 56Q218 56 252.50 106Q287 156 308 227Q329 298 341.50 369Q354 440 354 490Q354 610 290 610Q251 610 217 560Q183 510 162 438.50Q141 367 129 295.50Q117 224 117 174Q117 56 180 56Z"  horiz-adv-x="434" vert-adv-y="1000"  />

      
      <glyph glyph-name="unid7" unicode="&#xd7;" d="M286 194L204 299L72 191L42 229L175 337L92 442L131 474L213 369L345 477L376 439L244 331L325 226L286 194Z"  horiz-adv-x="378" vert-adv-y="1000"  />

      
      <glyph glyph-name="unid8" unicode="&#xd8;" d="M175-12Q109-12 74 37L51 0L-1 0L52 83Q39 123 39 177Q39 223 48 284Q57 345 77.50 415Q98 485 126.50 543Q155 601 199.50 639.50Q244 678 296 678Q361 678 397 627L423 667L474 667L419 581Q433 537 433 487Q433 428 417.50 348Q402 268 373 185Q344 102 291.50 45Q239-12 175-12M290 610Q252 610 218.50 563Q185 516 164 447Q143 378 130.50 308.50Q118 239 117 186L348 550Q335 610 290 610M180 56Q229 56 270 135.50Q311 215 331.50 309Q352 403 354 477L122 113Q135 56 180 56Z"  horiz-adv-x="434" vert-adv-y="1000"  />

      
      <glyph glyph-name="unid9" unicode="&#xd9;" d="M181-12Q120-12 81 25.50Q42 63 42 128Q42 152 47 174L156 667L231 667L121 169Q117 141 117 133Q117 95 136.50 75Q156 55 187 55Q223 55 246 81.50Q269 108 282 169L392 667L467 667L358 172Q317-12 181-12M359 723L313 723L245 867L312 867L359 723Z"  horiz-adv-x="437" vert-adv-y="1000"  />

      
      <glyph glyph-name="unida" unicode="&#xda;" d="M465 867L333 723L285 723L396 867L465 867M181-12Q120-12 81 25.50Q42 63 42 128Q42 152 47 174L156 667L231 667L121 169Q117 141 117 133Q117 95 136.50 75Q156 55 187 55Q223 55 246 81.50Q269 108 282 169L392 667L467 667L358 172Q317-12 181-12Z"  horiz-adv-x="437" vert-adv-y="1000"  />

      
      <glyph glyph-name="unidb" unicode="&#xdb;" d="M424 723L385 723L347 828L268 723L224 723L322 867L388 867L424 723M181-12Q120-12 81 25.50Q42 63 42 128Q42 152 47 174L156 667L231 667L121 169Q117 141 117 133Q117 95 136.50 75Q156 55 187 55Q223 55 246 81.50Q269 108 282 169L392 667L467 667L358 172Q317-12 181-12Z"  horiz-adv-x="437" vert-adv-y="1000"  />

      
      <glyph glyph-name="unidc" unicode="&#xdc;" d="M447 775Q447 756 432.50 741.50Q418 727 398 727Q382 727 371 738Q360 749 360 766Q360 785 374.50 799Q389 813 409 813Q425 813 436 802Q447 791 447 775M307 775Q307 756 292.50 741.50Q278 727 258 727Q241 727 230 738Q219 749 219 766Q219 785 233.50 799Q248 813 268 813Q285 813 296 802Q307 791 307 775M181-12Q120-12 81 25.50Q42 63 42 128Q42 152 47 174L156 667L231 667L121 169Q117 141 117 133Q117 95 136.50 75Q156 55 187 55Q223 55 246 81.50Q269 108 282 169L392 667L467 667L358 172Q317-12 181-12Z"  horiz-adv-x="437" vert-adv-y="1000"  />

      
      <glyph glyph-name="unidd" unicode="&#xdd;" d="M170 0L95 0L157 283L92 667L170 667L208 360L382 667L466 667L232 283L170 0M434 867L302 723L254 723L365 867L434 867Z"  horiz-adv-x="372" vert-adv-y="1000"  />

      
      <glyph glyph-name="unide" unicode="&#xde;" d="M84 0L9 0L156 667L231 667L205 546L254 546Q313 546 349 504Q385 462 385 395Q385 337 364.50 283Q344 229 295 188.50Q246 148 176 148L117 148L84 0M183 215Q239 215 272 268Q305 321 305 389Q305 431 287 455Q269 479 236 479L190 479L132 215L183 215Z"  horiz-adv-x="387" vert-adv-y="1000"  />

      
      <glyph glyph-name="unidf" unicode="&#xdf;" d="M413 140Q413 81 372 34.50Q331-12 267-12Q181-12 138 53L179 98Q211 44 261 44Q292 44 315.50 69Q339 94 339 132Q339 153 326.50 172Q314 191 296 207Q278 223 260.50 240.50Q243 258 230.50 283Q218 308 218 338Q218 373 232.50 400Q247 427 268 443.50Q289 460 310.50 475Q332 490 346.50 509.50Q361 529 361 553Q361 582 342 599Q323 616 289 616Q216 616 194 519L80 0L12 0L126 519Q143 593 187.50 635Q232 677 295 677Q354 677 392.50 644.50Q431 612 431 560Q431 526 416.50 500Q402 474 381 458Q360 442 338.50 427Q317 412 302.50 393Q288 374 288 350Q288 324 307.50 300Q327 276 350.50 258.50Q374 241 393.50 209.50Q413 178 413 140Z"  horiz-adv-x="452" vert-adv-y="1000"  />

      
      <glyph glyph-name="unie0" unicode="&#xe0;" d="M210 495Q240 495 264 474.50Q288 454 298 414L313 483L381 483L274 0L206 0L220 62Q176-12 119-12Q73-12 48 25Q23 62 23 131Q23 179 35 238.50Q47 298 69 357Q91 416 128.50 455.50Q166 495 210 495M221 434Q182 434 151.50 376Q121 318 107.50 251.50Q94 185 94 136Q94 49 149 49Q172 49 196 72.50Q220 96 235 129L285 353Q282 387 263.50 410.50Q245 434 221 434M293 556L247 556L179 700L246 700L293 556Z"  horiz-adv-x="384" vert-adv-y="1000"  />

      
      <glyph glyph-name="unie1" unicode="&#xe1;" d="M210 495Q240 495 264 474.50Q288 454 298 414L313 483L381 483L274 0L206 0L220 62Q176-12 119-12Q73-12 48 25Q23 62 23 131Q23 179 35 238.50Q47 298 69 357Q91 416 128.50 455.50Q166 495 210 495M221 434Q182 434 151.50 376Q121 318 107.50 251.50Q94 185 94 136Q94 49 149 49Q172 49 196 72.50Q220 96 235 129L285 353Q282 387 263.50 410.50Q245 434 221 434M398 700L266 556L218 556L329 700L398 700Z"  horiz-adv-x="384" vert-adv-y="1000"  />

      
      <glyph glyph-name="unie2" unicode="&#xe2;" d="M210 495Q240 495 264 474.50Q288 454 298 414L313 483L381 483L274 0L206 0L220 62Q176-12 119-12Q73-12 48 25Q23 62 23 131Q23 179 35 238.50Q47 298 69 357Q91 416 128.50 455.50Q166 495 210 495M221 434Q182 434 151.50 376Q121 318 107.50 251.50Q94 185 94 136Q94 49 149 49Q172 49 196 72.50Q220 96 235 129L285 353Q282 387 263.50 410.50Q245 434 221 434M357 556L318 556L280 661L201 556L157 556L255 700L321 700L357 556Z"  horiz-adv-x="384" vert-adv-y="1000"  />

      
      <glyph glyph-name="unie3" unicode="&#xe3;" d="M210 495Q240 495 264 474.50Q288 454 298 414L313 483L381 483L274 0L206 0L220 62Q176-12 119-12Q73-12 48 25Q23 62 23 131Q23 179 35 238.50Q47 298 69 357Q91 416 128.50 455.50Q166 495 210 495M221 434Q182 434 151.50 376Q121 318 107.50 251.50Q94 185 94 136Q94 49 149 49Q172 49 196 72.50Q220 96 235 129L285 353Q282 387 263.50 410.50Q245 434 221 434M304 554Q283 554 272 569Q261 584 259 601.50Q257 619 251 634Q245 649 233 649Q204 649 185 560L145 560Q176 694 240 694Q261 694 272 679Q283 664 285 646.50Q287 629 293 614Q299 599 311 599Q339 599 359 688L399 688Q370 554 304 554Z"  horiz-adv-x="384" vert-adv-y="1000"  />

      
      <glyph glyph-name="unie4" unicode="&#xe4;" d="M210 495Q240 495 264 474.50Q288 454 298 414L313 483L381 483L274 0L206 0L220 62Q176-12 119-12Q73-12 48 25Q23 62 23 131Q23 179 35 238.50Q47 298 69 357Q91 416 128.50 455.50Q166 495 210 495M221 434Q182 434 151.50 376Q121 318 107.50 251.50Q94 185 94 136Q94 49 149 49Q172 49 196 72.50Q220 96 235 129L285 353Q282 387 263.50 410.50Q245 434 221 434M381 608Q381 589 366.50 574.50Q352 560 332 560Q316 560 305 571Q294 582 294 599Q294 618 308.50 632Q323 646 343 646Q359 646 370 635Q381 624 381 608M241 608Q241 589 226.50 574.50Q212 560 192 560Q175 560 164 571Q153 582 153 599Q153 618 167.50 632Q182 646 202 646Q219 646 230 635Q241 624 241 608Z"  horiz-adv-x="384" vert-adv-y="1000"  />

      
      <glyph glyph-name="unie5" unicode="&#xe5;" d="M210 495Q240 495 264 474.50Q288 454 298 414L313 483L381 483L274 0L206 0L220 62Q176-12 119-12Q73-12 48 25Q23 62 23 131Q23 179 35 238.50Q47 298 69 357Q91 416 128.50 455.50Q166 495 210 495M221 434Q182 434 151.50 376Q121 318 107.50 251.50Q94 185 94 136Q94 49 149 49Q172 49 196 72.50Q220 96 235 129L285 353Q282 387 263.50 410.50Q245 434 221 434M263 538Q230 538 209.50 559.50Q189 581 189 614Q189 651 216.50 678.50Q244 706 281 706Q313 706 334 684.50Q355 663 355 630Q355 593 327.50 565.50Q300 538 263 538M265 574Q287 574 303 589.50Q319 605 319 627Q319 645 307.50 657.50Q296 670 279 670Q257 670 241 654.50Q225 639 225 617Q225 599 236 586.50Q247 574 265 574Z"  horiz-adv-x="384" vert-adv-y="1000"  />

      
      <glyph glyph-name="unie6" unicode="&#xe6;" d="M221 434Q182 434 151.50 376Q121 318 107.50 251.50Q94 185 94 136Q94 49 149 49Q172 49 196 72.50Q220 96 235 129L285 353Q282 387 263.50 410.50Q245 434 221 434M296 97L274 0L206 0L220 62Q176-12 119-12Q73-12 48 25Q23 62 23 131Q23 179 35 238.50Q47 298 69 357Q91 416 128.50 455.50Q166 495 210 495Q240 495 264 474.50Q288 454 298 414L313 483L381 483L366 416Q411 495 474 495Q576 493 576 350Q576 289 558 219L324 219Q317 191 317 151Q317 104 338 75Q359 46 401 46Q444 46 486 100L516 53Q463-12 402-12Q309-12 296 97M334 270L502 270Q512 313 512 345Q512 386 497 412Q482 438 452 438Q407 438 376 385.50Q345 333 334 270Z"  horiz-adv-x="597" vert-adv-y="1000"  />

      
      <glyph glyph-name="unie7" unicode="&#xe7;" d="M110-191Q59-191 28-154L52-121Q75-153 111-153Q133-153 147-138Q161-123 161-103Q161-76 136-76Q120-76 108-90L81-73L120-7Q25 16 25 154Q25 206 39 263.50Q53 321 78 373.50Q103 426 145 460.50Q187 495 236 495Q302 495 336 446L298 396Q278 434 238 434Q194 434 160.50 383Q127 332 112 270Q97 208 97 155Q97 49 170 49Q204 49 232 80L251 27Q209-11 159-12L132-56Q142-46 156-46Q178-46 191-61.50Q204-77 204-101Q204-138 176.50-164.50Q149-191 110-191Z"  horiz-adv-x="317" vert-adv-y="1000"  />

      
      <glyph glyph-name="unie8" unicode="&#xe8;" d="M164-12Q98-12 61 30Q24 72 24 154Q24 194 35.50 248.50Q47 303 70 360Q93 417 135 456Q177 495 229 495Q352 495 352 346Q352 291 334 219L98 219Q90 187 90 151Q90 103 110.50 74Q131 45 173 45Q218 45 260 99L291 56Q235-12 164-12M108 270L278 270Q288 313 288 345Q288 385 271.50 411.50Q255 438 224 438Q179 438 149 386Q119 334 108 270M301 556L255 556L187 700L254 700L301 556Z"  horiz-adv-x="373" vert-adv-y="1000"  />

      
      <glyph glyph-name="unie9" unicode="&#xe9;" d="M406 700L274 556L226 556L337 700L406 700M164-12Q98-12 61 30Q24 72 24 154Q24 194 35.50 248.50Q47 303 70 360Q93 417 135 456Q177 495 229 495Q352 495 352 346Q352 291 334 219L98 219Q90 187 90 151Q90 103 110.50 74Q131 45 173 45Q218 45 260 99L291 56Q235-12 164-12M108 270L278 270Q288 313 288 345Q288 385 271.50 411.50Q255 438 224 438Q179 438 149 386Q119 334 108 270Z"  horiz-adv-x="373" vert-adv-y="1000"  />

      
      <glyph glyph-name="uniea" unicode="&#xea;" d="M364 556L325 556L287 661L208 556L164 556L262 700L328 700L364 556M164-12Q98-12 61 30Q24 72 24 154Q24 194 35.50 248.50Q47 303 70 360Q93 417 135 456Q177 495 229 495Q352 495 352 346Q352 291 334 219L98 219Q90 187 90 151Q90 103 110.50 74Q131 45 173 45Q218 45 260 99L291 56Q235-12 164-12M108 270L278 270Q288 313 288 345Q288 385 271.50 411.50Q255 438 224 438Q179 438 149 386Q119 334 108 270Z"  horiz-adv-x="373" vert-adv-y="1000"  />

      
      <glyph glyph-name="unieb" unicode="&#xeb;" d="M388 608Q388 589 373.50 574.50Q359 560 339 560Q323 560 312 571Q301 582 301 599Q301 618 315.50 632Q330 646 350 646Q366 646 377 635Q388 624 388 608M248 608Q248 589 233.50 574.50Q219 560 199 560Q182 560 171 571Q160 582 160 599Q160 618 174.50 632Q189 646 209 646Q226 646 237 635Q248 624 248 608M164-12Q98-12 61 30Q24 72 24 154Q24 194 35.50 248.50Q47 303 70 360Q93 417 135 456Q177 495 229 495Q352 495 352 346Q352 291 334 219L98 219Q90 187 90 151Q90 103 110.50 74Q131 45 173 45Q218 45 260 99L291 56Q235-12 164-12M108 270L278 270Q288 313 288 345Q288 385 271.50 411.50Q255 438 224 438Q179 438 149 386Q119 334 108 270Z"  horiz-adv-x="373" vert-adv-y="1000"  />

      
      <glyph glyph-name="uniec" unicode="&#xec;" d="M70 0L2 0L109 483L177 483L70 0M195 556L149 556L81 700L148 700L195 556Z"  horiz-adv-x="180" vert-adv-y="1000"  />

      
      <glyph glyph-name="unied" unicode="&#xed;" d="M300 700L168 556L120 556L231 700L300 700M70 0L2 0L109 483L177 483L70 0Z"  horiz-adv-x="180" vert-adv-y="1000"  />

      
      <glyph glyph-name="uniee" unicode="&#xee;" d="M260 556L221 556L183 661L104 556L60 556L158 700L224 700L260 556M70 0L2 0L109 483L177 483L70 0Z"  horiz-adv-x="180" vert-adv-y="1000"  />

      
      <glyph glyph-name="unief" unicode="&#xef;" d="M283 608Q283 589 268.50 574.50Q254 560 234 560Q218 560 207 571Q196 582 196 599Q196 618 210.50 632Q225 646 245 646Q261 646 272 635Q283 624 283 608M143 608Q143 589 128.50 574.50Q114 560 94 560Q77 560 66 571Q55 582 55 599Q55 618 69.50 632Q84 646 104 646Q121 646 132 635Q143 624 143 608M70 0L2 0L109 483L177 483L70 0Z"  horiz-adv-x="180" vert-adv-y="1000"  />

      
      <glyph glyph-name="unif0" unicode="&#xf0;" d="M178 516L169 555L277 587Q266 635 254 667L323 689Q341 630 346 608L419 630L428 592L354 569Q366 505 366 416Q366 351 354 280.50Q342 210 318.50 142.50Q295 75 252 31.50Q209-12 154-12Q24-12 24 148Q24 216 45.50 291Q67 366 112.50 423.50Q158 481 215 481Q246 481 268.50 462Q291 443 298 409Q296 482 284 548L178 516M155 49Q194 49 225 103Q256 157 270 219.50Q284 282 284 329Q284 365 269 393Q254 421 223 421Q193 421 167.50 389Q142 357 127 311.50Q112 266 103.50 221Q95 176 95 145Q95 49 155 49Z"  horiz-adv-x="382" vert-adv-y="1000"  />

      
      <glyph glyph-name="unif1" unicode="&#xf1;" d="M268 0L200 0L282 371Q285 389 285 395Q285 434 247 434Q222 434 194.50 410Q167 386 147 352L70 0L2 0L109 483L177 483L163 419Q217 495 280 495Q317 495 337.50 475.50Q358 456 358 421Q358 402 354 390L268 0M306 554Q285 554 274 569Q263 584 261 601.50Q259 619 253 634Q247 649 235 649Q206 649 187 560L147 560Q178 694 242 694Q263 694 274 679Q285 664 287 646.50Q289 629 295 614Q301 599 313 599Q341 599 361 688L401 688Q372 554 306 554Z"  horiz-adv-x="378" vert-adv-y="1000"  />

      
      <glyph glyph-name="unif2" unicode="&#xf2;" d="M150-12Q90-12 57 27.50Q24 67 24 145Q24 219 46 297Q68 375 117.50 435Q167 495 231 495Q291 495 323.50 456Q356 417 356 338Q356 264 334 186Q312 108 263 48Q214-12 150-12M154 49Q193 49 225 103.50Q257 158 271.50 223Q286 288 286 338Q286 434 227 434Q188 434 155.50 379Q123 324 108.50 259Q94 194 94 144Q94 49 154 49M297 556L251 556L183 700L250 700L297 556Z"  horiz-adv-x="382" vert-adv-y="1000"  />

      
      <glyph glyph-name="unif3" unicode="&#xf3;" d="M402 700L270 556L222 556L333 700L402 700M150-12Q90-12 57 27.50Q24 67 24 145Q24 219 46 297Q68 375 117.50 435Q167 495 231 495Q291 495 323.50 456Q356 417 356 338Q356 264 334 186Q312 108 263 48Q214-12 150-12M154 49Q193 49 225 103.50Q257 158 271.50 223Q286 288 286 338Q286 434 227 434Q188 434 155.50 379Q123 324 108.50 259Q94 194 94 144Q94 49 154 49Z"  horiz-adv-x="382" vert-adv-y="1000"  />

      
      <glyph glyph-name="unif4" unicode="&#xf4;" d="M361 556L322 556L284 661L205 556L161 556L259 700L325 700L361 556M150-12Q90-12 57 27.50Q24 67 24 145Q24 219 46 297Q68 375 117.50 435Q167 495 231 495Q291 495 323.50 456Q356 417 356 338Q356 264 334 186Q312 108 263 48Q214-12 150-12M154 49Q193 49 225 103.50Q257 158 271.50 223Q286 288 286 338Q286 434 227 434Q188 434 155.50 379Q123 324 108.50 259Q94 194 94 144Q94 49 154 49Z"  horiz-adv-x="382" vert-adv-y="1000"  />

      
      <glyph glyph-name="unif5" unicode="&#xf5;" d="M150-12Q90-12 57 27.50Q24 67 24 145Q24 219 46 297Q68 375 117.50 435Q167 495 231 495Q291 495 323.50 456Q356 417 356 338Q356 264 334 186Q312 108 263 48Q214-12 150-12M154 49Q193 49 225 103.50Q257 158 271.50 223Q286 288 286 338Q286 434 227 434Q188 434 155.50 379Q123 324 108.50 259Q94 194 94 144Q94 49 154 49M308 554Q287 554 276 569Q265 584 263 601.50Q261 619 255 634Q249 649 237 649Q208 649 189 560L149 560Q180 694 244 694Q265 694 276 679Q287 664 289 646.50Q291 629 297 614Q303 599 315 599Q343 599 363 688L403 688Q374 554 308 554Z"  horiz-adv-x="382" vert-adv-y="1000"  />

      
      <glyph glyph-name="unif6" unicode="&#xf6;" d="M385 608Q385 589 370.50 574.50Q356 560 336 560Q320 560 309 571Q298 582 298 599Q298 618 312.50 632Q327 646 347 646Q363 646 374 635Q385 624 385 608M245 608Q245 589 230.50 574.50Q216 560 196 560Q179 560 168 571Q157 582 157 599Q157 618 171.50 632Q186 646 206 646Q223 646 234 635Q245 624 245 608M150-12Q90-12 57 27.50Q24 67 24 145Q24 219 46 297Q68 375 117.50 435Q167 495 231 495Q291 495 323.50 456Q356 417 356 338Q356 264 334 186Q312 108 263 48Q214-12 150-12M154 49Q193 49 225 103.50Q257 158 271.50 223Q286 288 286 338Q286 434 227 434Q188 434 155.50 379Q123 324 108.50 259Q94 194 94 144Q94 49 154 49Z"  horiz-adv-x="382" vert-adv-y="1000"  />

      
      <glyph glyph-name="unif7" unicode="&#xf7;" d="M360 312L44 312L55 362L371 362L360 312M172 149Q155 149 143.50 160.50Q132 172 132 189Q132 208 146 222Q160 236 180 236Q196 236 208 224Q220 212 220 196Q220 176 206 162.50Q192 149 172 149M236 435Q219 435 207.50 446.50Q196 458 196 475Q196 494 210 508Q224 522 244 522Q261 522 272.50 510.50Q284 499 284 482Q284 462 270 448.50Q256 435 236 435Z"  horiz-adv-x="374" vert-adv-y="1000"  />

      
      <glyph glyph-name="unif8" unicode="&#xf8;" d="M38 0L-9 0L37 63Q24 95 24 145Q24 219 46 297Q68 375 117.50 435Q167 495 231 495Q292 495 323 456L343 483L390 483L343 419Q356 383 356 338Q356 264 334 186Q312 108 263 48Q214-12 150-12Q90-12 57 27L38 0M94 144L94 141L279 395Q266 434 227 434Q188 434 155.50 379Q123 324 108.50 259Q94 194 94 144M101 87Q115 49 154 49Q193 49 225 103.50Q257 158 271.50 223Q286 288 286 338L286 340L101 87Z"  horiz-adv-x="382" vert-adv-y="1000"  />

      
      <glyph glyph-name="unif9" unicode="&#xf9;" d="M109 483L177 483L95 112Q92 98 92 88Q92 49 130 49Q155 49 181 71Q207 93 227 126L307 483L375 483L268 0L200 0L214 64Q160-12 97-12Q60-12 39.50 7.50Q19 27 19 62Q19 81 23 93L109 483M296 556L250 556L182 700L249 700L296 556Z"  horiz-adv-x="378" vert-adv-y="1000"  />

      
      <glyph glyph-name="unifa" unicode="&#xfa;" d="M400 700L268 556L220 556L331 700L400 700M109 483L177 483L95 112Q92 98 92 88Q92 49 130 49Q155 49 181 71Q207 93 227 126L307 483L375 483L268 0L200 0L214 64Q160-12 97-12Q60-12 39.50 7.50Q19 27 19 62Q19 81 23 93L109 483Z"  horiz-adv-x="378" vert-adv-y="1000"  />

      
      <glyph glyph-name="unifb" unicode="&#xfb;" d="M359 556L320 556L282 661L203 556L159 556L257 700L323 700L359 556M109 483L177 483L95 112Q92 98 92 88Q92 49 130 49Q155 49 181 71Q207 93 227 126L307 483L375 483L268 0L200 0L214 64Q160-12 97-12Q60-12 39.50 7.50Q19 27 19 62Q19 81 23 93L109 483Z"  horiz-adv-x="378" vert-adv-y="1000"  />

      
      <glyph glyph-name="unifc" unicode="&#xfc;" d="M383 608Q383 589 368.50 574.50Q354 560 334 560Q318 560 307 571Q296 582 296 599Q296 618 310.50 632Q325 646 345 646Q361 646 372 635Q383 624 383 608M243 608Q243 589 228.50 574.50Q214 560 194 560Q177 560 166 571Q155 582 155 599Q155 618 169.50 632Q184 646 204 646Q221 646 232 635Q243 624 243 608M109 483L177 483L95 112Q92 98 92 88Q92 49 130 49Q155 49 181 71Q207 93 227 126L307 483L375 483L268 0L200 0L214 64Q160-12 97-12Q60-12 39.50 7.50Q19 27 19 62Q19 81 23 93L109 483Z"  horiz-adv-x="378" vert-adv-y="1000"  />

      
      <glyph glyph-name="unifd" unicode="&#xfd;" d="M-61-186L-38-129Q-32-135-15-135Q0-135 10.50-125Q21-115 33-90L70-13L62 483L133 483L125 87L295 483L369 483L95-106Q70-157 46-176.50Q22-196-12-196Q-41-196-61-186M370 700L238 556L190 556L301 700L370 700Z"  horiz-adv-x="326" vert-adv-y="1000"  />

      
      <glyph glyph-name="unife" unicode="&#xfe;" d="M173-12Q107-12 85 69L29-184L-38-184L149 667L217 667L163 421Q207 495 264 495Q310 495 335 457.50Q360 420 360 352Q360 304 348 244.50Q336 185 314.50 126Q293 67 255.50 27.50Q218-12 173-12M162 49Q201 49 231.50 107Q262 165 275.50 231.50Q289 298 289 347Q289 434 234 434Q211 434 187 410.50Q163 387 148 354L98 130Q101 96 119.50 72.50Q138 49 162 49Z"  horiz-adv-x="384" vert-adv-y="1000"  />

      
      <glyph glyph-name="uniff" unicode="&#xff;" d="M-61-186L-38-129Q-32-135-15-135Q0-135 10.50-125Q21-115 33-90L70-13L62 483L133 483L125 87L295 483L369 483L95-106Q70-157 46-176.50Q22-196-12-196Q-41-196-61-186M353 608Q353 589 338.50 574.50Q324 560 304 560Q288 560 277 571Q266 582 266 599Q266 618 280.50 632Q295 646 315 646Q331 646 342 635Q353 624 353 608M213 608Q213 589 198.50 574.50Q184 560 164 560Q147 560 136 571Q125 582 125 599Q125 618 139.50 632Q154 646 174 646Q191 646 202 635Q213 624 213 608Z"  horiz-adv-x="326" vert-adv-y="1000"  />

      
      <glyph glyph-name="uni0100" unicode="&#x0100;" d="M303 0L228 0L235 153L92 153L32 0L-47 0L231 667L318 667L303 0M240 220L257 577L116 220L240 220M416 740L169 740L178 785L426 785L416 740Z"  horiz-adv-x="364" vert-adv-y="1000"  />

      
      <glyph glyph-name="uni0101" unicode="&#x0101;" d="M210 495Q240 495 264 474.50Q288 454 298 414L313 483L381 483L274 0L206 0L220 62Q176-12 119-12Q73-12 48 25Q23 62 23 131Q23 179 35 238.50Q47 298 69 357Q91 416 128.50 455.50Q166 495 210 495M221 434Q182 434 151.50 376Q121 318 107.50 251.50Q94 185 94 136Q94 49 149 49Q172 49 196 72.50Q220 96 235 129L285 353Q282 387 263.50 410.50Q245 434 221 434M384 573L137 573L146 618L394 618L384 573Z"  horiz-adv-x="384" vert-adv-y="1000"  />

      
      <glyph glyph-name="uni0102" unicode="&#x0102;" d="M303 0L228 0L235 153L92 153L32 0L-47 0L231 667L318 667L303 0M240 220L257 577L116 220L240 220M415 780Q357 719 283 719Q208 719 177 780L216 808Q225 788 245.50 776Q266 764 290 764Q345 764 382 808L415 780Z"  horiz-adv-x="364" vert-adv-y="1000"  />

      
      <glyph glyph-name="uni0103" unicode="&#x0103;" d="M210 495Q240 495 264 474.50Q288 454 298 414L313 483L381 483L274 0L206 0L220 62Q176-12 119-12Q73-12 48 25Q23 62 23 131Q23 179 35 238.50Q47 298 69 357Q91 416 128.50 455.50Q166 495 210 495M221 434Q182 434 151.50 376Q121 318 107.50 251.50Q94 185 94 136Q94 49 149 49Q172 49 196 72.50Q220 96 235 129L285 353Q282 387 263.50 410.50Q245 434 221 434M385 613Q327 552 253 552Q178 552 147 613L186 641Q195 621 215.50 609Q236 597 260 597Q315 597 352 641L385 613Z"  horiz-adv-x="384" vert-adv-y="1000"  />

      
      <glyph glyph-name="uni0104" unicode="&#x0104;" d="M272-116L303-138Q277-186 231-186Q203-186 186-171Q169-156 169-128Q169-59 243 0L228 0L235 153L92 153L32 0L-47 0L231 667L318 667L303 0Q210-56 210-123Q210-149 236-149Q262-149 272-116M240 220L257 577L116 220L240 220Z"  horiz-adv-x="364" vert-adv-y="1000"  />

      
      <glyph glyph-name="uni0105" unicode="&#x0105;" d="M243-116L274-138Q248-186 202-186Q174-186 157-171Q140-156 140-128Q140-59 214 0L206 0L220 62Q176-12 119-12Q73-12 48 25Q23 62 23 131Q23 179 35 238.50Q47 298 69 357Q91 416 128.50 455.50Q166 495 210 495Q240 495 264 474.50Q288 454 298 414L313 483L381 483L274 0Q181-56 181-123Q181-149 207-149Q233-149 243-116M221 434Q182 434 151.50 376Q121 318 107.50 251.50Q94 185 94 136Q94 49 149 49Q172 49 196 72.50Q220 96 235 129L285 353Q282 387 263.50 410.50Q245 434 221 434Z"  horiz-adv-x="384" vert-adv-y="1000"  />

      
      <glyph glyph-name="uni0106" unicode="&#x0106;" d="M464 872L332 728L284 728L395 872L464 872M175-12Q110-12 74.50 36Q39 84 39 177Q39 238 54 318Q69 398 98 481.50Q127 565 179 621.50Q231 678 296 678Q358 678 389 635.50Q420 593 426 524L355 510Q347 610 290 610Q250 610 215.50 558.50Q181 507 160.50 434Q140 361 128.50 290.50Q117 220 117 174Q117 111 132.50 83.50Q148 56 180 56Q227 56 274 141L334 113Q268-12 175-12Z"  horiz-adv-x="390" vert-adv-y="1000"  />

      
      <glyph glyph-name="uni0107" unicode="&#x0107;" d="M408 700L276 556L228 556L339 700L408 700M158-12Q95-12 60 29.50Q25 71 25 154Q25 206 39 263.50Q53 321 78 373.50Q103 426 145 460.50Q187 495 236 495Q302 495 336 446L298 396Q278 434 238 434Q194 434 160.50 383Q127 332 112 270Q97 208 97 155Q97 49 170 49Q204 49 232 80L251 27Q209-12 158-12Z"  horiz-adv-x="317" vert-adv-y="1000"  />

      
      <glyph glyph-name="uni0108" unicode="&#x0108;" d="M423 723L384 723L346 828L267 723L223 723L321 867L387 867L423 723M175-12Q110-12 74.50 36Q39 84 39 177Q39 238 54 318Q69 398 98 481.50Q127 565 179 621.50Q231 678 296 678Q358 678 389 635.50Q420 593 426 524L355 510Q347 610 290 610Q250 610 215.50 558.50Q181 507 160.50 434Q140 361 128.50 290.50Q117 220 117 174Q117 111 132.50 83.50Q148 56 180 56Q227 56 274 141L334 113Q268-12 175-12Z"  horiz-adv-x="390" vert-adv-y="1000"  />

      
      <glyph glyph-name="uni0109" unicode="&#x0109;" d="M367 556L328 556L290 661L211 556L167 556L265 700L331 700L367 556M158-12Q95-12 60 29.50Q25 71 25 154Q25 206 39 263.50Q53 321 78 373.50Q103 426 145 460.50Q187 495 236 495Q302 495 336 446L298 396Q278 434 238 434Q194 434 160.50 383Q127 332 112 270Q97 208 97 155Q97 49 170 49Q204 49 232 80L251 27Q209-12 158-12Z"  horiz-adv-x="317" vert-adv-y="1000"  />

      
      <glyph glyph-name="uni010A" unicode="&#x010A;" d="M175-12Q110-12 74.50 36Q39 84 39 177Q39 238 54 318Q69 398 98 481.50Q127 565 179 621.50Q231 678 296 678Q358 678 389 635.50Q420 593 426 524L355 510Q347 610 290 610Q250 610 215.50 558.50Q181 507 160.50 434Q140 361 128.50 290.50Q117 220 117 174Q117 111 132.50 83.50Q148 56 180 56Q227 56 274 141L334 113Q268-12 175-12M376 773Q376 753 361 738.50Q346 724 326 724Q309 724 297.50 735.50Q286 747 286 764Q286 784 301 798.50Q316 813 336 813Q353 813 364.50 801.50Q376 790 376 773Z"  horiz-adv-x="390" vert-adv-y="1000"  />

      
      <glyph glyph-name="uni010B" unicode="&#x010B;" d="M158-12Q95-12 60 29.50Q25 71 25 154Q25 206 39 263.50Q53 321 78 373.50Q103 426 145 460.50Q187 495 236 495Q302 495 336 446L298 396Q278 434 238 434Q194 434 160.50 383Q127 332 112 270Q97 208 97 155Q97 49 170 49Q204 49 232 80L251 27Q209-12 158-12M322 606Q322 586 307 571.50Q292 557 272 557Q255 557 243.50 568.50Q232 580 232 597Q232 617 247 631.50Q262 646 282 646Q299 646 310.50 634.50Q322 623 322 606Z"  horiz-adv-x="317" vert-adv-y="1000"  />

      
      <glyph glyph-name="uni010C" unicode="&#x010C;" d="M359 723L293 723L256 867L296 867L332 762L413 867L456 867L359 723M175-12Q110-12 74.50 36Q39 84 39 177Q39 238 54 318Q69 398 98 481.50Q127 565 179 621.50Q231 678 296 678Q358 678 389 635.50Q420 593 426 524L355 510Q347 610 290 610Q250 610 215.50 558.50Q181 507 160.50 434Q140 361 128.50 290.50Q117 220 117 174Q117 111 132.50 83.50Q148 56 180 56Q227 56 274 141L334 113Q268-12 175-12Z"  horiz-adv-x="390" vert-adv-y="1000"  />

      
      <glyph glyph-name="uni010D" unicode="&#x010D;" d="M301 556L235 556L198 700L238 700L274 595L355 700L398 700L301 556M158-12Q95-12 60 29.50Q25 71 25 154Q25 206 39 263.50Q53 321 78 373.50Q103 426 145 460.50Q187 495 236 495Q302 495 336 446L298 396Q278 434 238 434Q194 434 160.50 383Q127 332 112 270Q97 208 97 155Q97 49 170 49Q204 49 232 80L251 27Q209-12 158-12Z"  horiz-adv-x="317" vert-adv-y="1000"  />

      
      <glyph glyph-name="uni010E" unicode="&#x010E;" d="M363 723L297 723L260 867L300 867L336 762L417 867L460 867L363 723M137 0L9 0L156 667L280 667Q338 667 379 617Q420 567 420 467Q420 430 412.50 377.50Q405 325 385 257Q365 189 335 133.50Q305 78 253 39Q201 0 137 0M99 67L149 67Q199 67 239 117Q279 167 300 237.50Q321 308 331.50 368.50Q342 429 342 466Q342 534 320.50 567Q299 600 266 600L217 600L99 67Z"  horiz-adv-x="427" vert-adv-y="1000"  />

      
      <glyph glyph-name="uni010F" unicode="&#x010F;" d="M552 631Q552 590 522.50 550Q493 510 452 488L427 515Q453 529 474 550.50Q495 572 502 594Q500 593 495 593Q481 593 471 603.50Q461 614 461 630Q461 650 475.50 664.50Q490 679 509 679Q528 679 540 666.50Q552 654 552 631M210 495Q240 495 264 474.50Q288 454 298 414L354 667L422 667L274 0L206 0L220 62Q176-12 119-12Q73-12 48 25Q23 62 23 131Q23 179 35 238.50Q47 298 69 357Q91 416 128.50 455.50Q166 495 210 495M221 434Q182 434 151.50 376Q121 318 107.50 251.50Q94 185 94 136Q94 49 149 49Q172 49 196 72.50Q220 96 235 129L285 353Q282 387 263.50 410.50Q245 434 221 434Z"  horiz-adv-x="466" vert-adv-y="1000"  />

      
      <glyph glyph-name="uni0110" unicode="&#x0110;" d="M156 0L28 0L94 302L34 302L48 365L108 365L175 667L299 667Q357 667 398 617Q439 567 439 467Q439 430 431.50 377.50Q424 325 404 257Q384 189 354 133.50Q324 78 272 39Q220 0 156 0M254 302L170 302L118 67L168 67Q218 67 258 117Q298 167 319 237.50Q340 308 350.50 368.50Q361 429 361 466Q361 534 339.50 567Q318 600 285 600L236 600L184 365L268 365L254 302Z"  horiz-adv-x="446" vert-adv-y="1000"  />

      
      <glyph glyph-name="uni0111" unicode="&#x0111;" d="M210 495Q240 495 264 474.50Q288 454 298 414L325 536L201 536L209 581L335 581L354 667L422 667L403 581L443 581L433 536L393 536L274 0L206 0L220 62Q176-12 119-12Q73-12 48 25Q23 62 23 131Q23 179 35 238.50Q47 298 69 357Q91 416 128.50 455.50Q166 495 210 495M221 434Q182 434 151.50 376Q121 318 107.50 251.50Q94 185 94 136Q94 49 149 49Q172 49 196 72.50Q220 96 235 129L285 353Q282 387 263.50 410.50Q245 434 221 434Z"  horiz-adv-x="390" vert-adv-y="1000"  />

      
      <glyph glyph-name="uni0112" unicode="&#x0112;" d="M257 0L9 0L156 667L404 667L389 600L217 600L167 375L332 375L317 308L152 308L99 67L271 67L257 0M419 740L172 740L181 785L429 785L419 740Z"  horiz-adv-x="352" vert-adv-y="1000"  />

      
      <glyph glyph-name="uni0113" unicode="&#x0113;" d="M164-12Q98-12 61 30Q24 72 24 154Q24 194 35.50 248.50Q47 303 70 360Q93 417 135 456Q177 495 229 495Q352 495 352 346Q352 291 334 219L98 219Q90 187 90 151Q90 103 110.50 74Q131 45 173 45Q218 45 260 99L291 56Q235-12 164-12M108 270L278 270Q288 313 288 345Q288 385 271.50 411.50Q255 438 224 438Q179 438 149 386Q119 334 108 270M393 573L146 573L155 618L403 618L393 573Z"  horiz-adv-x="373" vert-adv-y="1000"  />

      
      <glyph glyph-name="uni0114" unicode="&#x0114;" d="M257 0L9 0L156 667L404 667L389 600L217 600L167 375L332 375L317 308L152 308L99 67L271 67L257 0M420 780Q362 719 288 719Q213 719 182 780L221 808Q230 788 250.50 776Q271 764 295 764Q350 764 387 808L420 780Z"  horiz-adv-x="352" vert-adv-y="1000"  />

      
      <glyph glyph-name="uni0115" unicode="&#x0115;" d="M164-12Q98-12 61 30Q24 72 24 154Q24 194 35.50 248.50Q47 303 70 360Q93 417 135 456Q177 495 229 495Q352 495 352 346Q352 291 334 219L98 219Q90 187 90 151Q90 103 110.50 74Q131 45 173 45Q218 45 260 99L291 56Q235-12 164-12M108 270L278 270Q288 313 288 345Q288 385 271.50 411.50Q255 438 224 438Q179 438 149 386Q119 334 108 270M393 613Q335 552 261 552Q186 552 155 613L194 641Q203 621 223.50 609Q244 597 268 597Q323 597 360 641L393 613Z"  horiz-adv-x="373" vert-adv-y="1000"  />

      
      <glyph glyph-name="uni0116" unicode="&#x0116;" d="M257 0L9 0L156 667L404 667L389 600L217 600L167 375L332 375L317 308L152 308L99 67L271 67L257 0M347 775Q347 755 332 740.50Q317 726 297 726Q280 726 268.50 737.50Q257 749 257 766Q257 786 272 800.50Q287 815 307 815Q324 815 335.50 803.50Q347 792 347 775Z"  horiz-adv-x="352" vert-adv-y="1000"  />

      
      <glyph glyph-name="uni0117" unicode="&#x0117;" d="M164-12Q98-12 61 30Q24 72 24 154Q24 194 35.50 248.50Q47 303 70 360Q93 417 135 456Q177 495 229 495Q352 495 352 346Q352 291 334 219L98 219Q90 187 90 151Q90 103 110.50 74Q131 45 173 45Q218 45 260 99L291 56Q235-12 164-12M108 270L278 270Q288 313 288 345Q288 385 271.50 411.50Q255 438 224 438Q179 438 149 386Q119 334 108 270M320 606Q320 586 305 571.50Q290 557 270 557Q253 557 241.50 568.50Q230 580 230 597Q230 617 245 631.50Q260 646 280 646Q297 646 308.50 634.50Q320 623 320 606Z"  horiz-adv-x="373" vert-adv-y="1000"  />

      
      <glyph glyph-name="uni0118" unicode="&#x0118;" d="M257 0Q164-56 164-123Q164-149 190-149Q216-149 226-116L257-138Q231-186 185-186Q157-186 140-171Q123-156 123-128Q123-59 197 0L9 0L156 667L404 667L389 600L217 600L167 375L332 375L317 308L152 308L99 67L271 67L257 0Z"  horiz-adv-x="352" vert-adv-y="1000"  />

      
      <glyph glyph-name="uni0119" unicode="&#x0119;" d="M189-116L220-138Q194-186 148-186Q120-186 103-171Q86-156 86-128Q86-64 147-11Q89-6 56.50 36Q24 78 24 154Q24 194 35.50 248.50Q47 303 70 360Q93 417 135 456Q177 495 229 495Q352 495 352 346Q352 291 334 219L98 219Q90 187 90 151Q90 103 110.50 74Q131 45 173 45Q218 45 260 99L291 56Q258 17 220 0Q127-56 127-123Q127-149 153-149Q179-149 189-116M108 270L278 270Q288 313 288 345Q288 385 271.50 411.50Q255 438 224 438Q179 438 149 386Q119 334 108 270Z"  horiz-adv-x="373" vert-adv-y="1000"  />

      
      <glyph glyph-name="uni011A" unicode="&#x011A;" d="M327 723L261 723L224 867L264 867L300 762L381 867L424 867L327 723M257 0L9 0L156 667L404 667L389 600L217 600L167 375L332 375L317 308L152 308L99 67L271 67L257 0Z"  horiz-adv-x="352" vert-adv-y="1000"  />

      
      <glyph glyph-name="uni011B" unicode="&#x011B;" d="M300 556L234 556L197 700L237 700L273 595L354 700L397 700L300 556M164-12Q98-12 61 30Q24 72 24 154Q24 194 35.50 248.50Q47 303 70 360Q93 417 135 456Q177 495 229 495Q352 495 352 346Q352 291 334 219L98 219Q90 187 90 151Q90 103 110.50 74Q131 45 173 45Q218 45 260 99L291 56Q235-12 164-12M108 270L278 270Q288 313 288 345Q288 385 271.50 411.50Q255 438 224 438Q179 438 149 386Q119 334 108 270Z"  horiz-adv-x="373" vert-adv-y="1000"  />

      
      <glyph glyph-name="uni011C" unicode="&#x011C;" d="M423 723L384 723L346 828L267 723L223 723L321 867L387 867L423 723M175-12Q110-12 74.50 35.50Q39 83 39 177Q39 242 55 323.50Q71 405 100.50 486.50Q130 568 181.50 623Q233 678 296 678Q359 678 389.50 635.50Q420 593 423 531L357 516Q350 610 290 610Q251 610 217 560Q183 510 162 439Q141 368 129 296.50Q117 225 117 174Q117 110 132.50 83Q148 56 180 56Q218 56 260 112L294 273L205 273L220 340L378 340L322 85Q258-12 175-12Z"  horiz-adv-x="411" vert-adv-y="1000"  />

      
      <glyph glyph-name="uni011D" unicode="&#x011D;" d="M352 550L313 550L275 655L196 550L152 550L250 694L316 694L352 550M99-196Q12-196-33-140L8-86Q38-135 99-135Q175-135 201-19L223 70Q180-4 121-4Q76-4 49.50 30.50Q23 65 23 135Q23 182 34.50 240.50Q46 299 67 357.50Q88 416 126 455.50Q164 495 211 495Q239 495 265.50 473Q292 451 299 414L314 483L381 483L271-12Q249-111 206-153.50Q163-196 99-196M150 56Q174 56 197.50 79.50Q221 103 236 137L285 353Q282 384 263.50 409Q245 434 220 434Q191 434 166 402Q141 370 126 323Q111 276 102.50 228Q94 180 94 144Q94 56 150 56Z"  horiz-adv-x="384" vert-adv-y="1000"  />

      
      <glyph glyph-name="uni011E" unicode="&#x011E;" d="M175-12Q110-12 74.50 35.50Q39 83 39 177Q39 242 55 323.50Q71 405 100.50 486.50Q130 568 181.50 623Q233 678 296 678Q359 678 389.50 635.50Q420 593 423 531L357 516Q350 610 290 610Q251 610 217 560Q183 510 162 439Q141 368 129 296.50Q117 225 117 174Q117 110 132.50 83Q148 56 180 56Q218 56 260 112L294 273L205 273L220 340L378 340L322 85Q258-12 175-12M450 780Q392 719 318 719Q243 719 212 780L251 808Q260 788 280.50 776Q301 764 325 764Q380 764 417 808L450 780Z"  horiz-adv-x="411" vert-adv-y="1000"  />

      
      <glyph glyph-name="uni011F" unicode="&#x011F;" d="M99-196Q12-196-33-140L8-86Q38-135 99-135Q175-135 201-19L223 70Q180-4 121-4Q76-4 49.50 30.50Q23 65 23 135Q23 182 34.50 240.50Q46 299 67 357.50Q88 416 126 455.50Q164 495 211 495Q239 495 265.50 473Q292 451 299 414L314 483L381 483L271-12Q249-111 206-153.50Q163-196 99-196M150 56Q174 56 197.50 79.50Q221 103 236 137L285 353Q282 384 263.50 409Q245 434 220 434Q191 434 166 402Q141 370 126 323Q111 276 102.50 228Q94 180 94 144Q94 56 150 56M383 613Q325 552 251 552Q176 552 145 613L184 641Q193 621 213.50 609Q234 597 258 597Q313 597 350 641L383 613Z"  horiz-adv-x="384" vert-adv-y="1000"  />

      
      <glyph glyph-name="uni0120" unicode="&#x0120;" d="M175-12Q110-12 74.50 35.50Q39 83 39 177Q39 242 55 323.50Q71 405 100.50 486.50Q130 568 181.50 623Q233 678 296 678Q359 678 389.50 635.50Q420 593 423 531L357 516Q350 610 290 610Q251 610 217 560Q183 510 162 439Q141 368 129 296.50Q117 225 117 174Q117 110 132.50 83Q148 56 180 56Q218 56 260 112L294 273L205 273L220 340L378 340L322 85Q258-12 175-12M376 773Q376 753 361 738.50Q346 724 326 724Q309 724 297.50 735.50Q286 747 286 764Q286 784 301 798.50Q316 813 336 813Q353 813 364.50 801.50Q376 790 376 773Z"  horiz-adv-x="411" vert-adv-y="1000"  />

      
      <glyph glyph-name="uni0121" unicode="&#x0121;" d="M99-196Q12-196-33-140L8-86Q38-135 99-135Q175-135 201-19L223 70Q180-4 121-4Q76-4 49.50 30.50Q23 65 23 135Q23 182 34.50 240.50Q46 299 67 357.50Q88 416 126 455.50Q164 495 211 495Q239 495 265.50 473Q292 451 299 414L314 483L381 483L271-12Q249-111 206-153.50Q163-196 99-196M150 56Q174 56 197.50 79.50Q221 103 236 137L285 353Q282 384 263.50 409Q245 434 220 434Q191 434 166 402Q141 370 126 323Q111 276 102.50 228Q94 180 94 144Q94 56 150 56M310 606Q310 586 295 571.50Q280 557 260 557Q243 557 231.50 568.50Q220 580 220 597Q220 617 235 631.50Q250 646 270 646Q287 646 298.50 634.50Q310 623 310 606Z"  horiz-adv-x="384" vert-adv-y="1000"  />

      
      <glyph glyph-name="uni0122" unicode="&#x0122;" d="M179-121Q179-162 149.50-202Q120-242 79-264L54-237Q80-223 101-201.50Q122-180 129-158Q127-159 122-159Q108-159 98-148.50Q88-138 88-122Q88-102 102.50-87.50Q117-73 136-73Q155-73 167-85.50Q179-98 179-121M175-12Q110-12 74.50 35.50Q39 83 39 177Q39 242 55 323.50Q71 405 100.50 486.50Q130 568 181.50 623Q233 678 296 678Q359 678 389.50 635.50Q420 593 423 531L357 516Q350 610 290 610Q251 610 217 560Q183 510 162 439Q141 368 129 296.50Q117 225 117 174Q117 110 132.50 83Q148 56 180 56Q218 56 260 112L294 273L205 273L220 340L378 340L322 85Q258-12 175-12Z"  horiz-adv-x="411" vert-adv-y="1000"  />

      
      <glyph glyph-name="uni0123" unicode="&#x0123;" d="M220 606Q220 646 250 687Q280 728 321 749L345 722Q319 709 298 687Q277 665 270 644L277 644Q291 644 301.50 633Q312 622 312 606Q312 586 297.50 571.50Q283 557 263 557Q244 557 232 570Q220 583 220 606M99-196Q12-196-33-140L8-86Q38-135 99-135Q175-135 201-19L223 70Q180-4 121-4Q76-4 49.50 30.50Q23 65 23 135Q23 182 34.50 240.50Q46 299 67 357.50Q88 416 126 455.50Q164 495 211 495Q239 495 265.50 473Q292 451 299 414L314 483L381 483L271-12Q249-111 206-153.50Q163-196 99-196M150 56Q174 56 197.50 79.50Q221 103 236 137L285 353Q282 384 263.50 409Q245 434 220 434Q191 434 166 402Q141 370 126 323Q111 276 102.50 228Q94 180 94 144Q94 56 150 56Z"  horiz-adv-x="384" vert-adv-y="1000"  />

      
      <glyph glyph-name="uni0124" unicode="&#x0124;" d="M424 723L385 723L347 828L268 723L224 723L322 867L388 867L424 723M319 0L244 0L312 309L152 309L84 0L9 0L156 667L231 667L167 377L327 377L391 667L466 667L319 0Z"  horiz-adv-x="436" vert-adv-y="1000"  />

      
      <glyph glyph-name="uni0125" unicode="&#x0125;" d="M396 723L357 723L319 828L240 723L196 723L294 867L360 867L396 723M268 0L200 0L282 371Q285 386 285 395Q285 434 247 434Q222 434 194.50 410Q167 386 147 352L70 0L2 0L149 667L217 667L163 419Q217 495 280 495Q318 495 338 474.50Q358 454 358 421Q358 410 354 390L268 0Z"  horiz-adv-x="378" vert-adv-y="1000"  />

      
      <glyph glyph-name="uni0126" unicode="&#x0126;" d="M340 0L265 0L333 309L173 309L105 0L30 0L140 501L78 501L88 546L150 546L177 667L252 667L225 546L385 546L412 667L487 667L460 546L521 546L511 501L450 501L340 0M188 377L348 377L375 501L215 501L188 377Z"  horiz-adv-x="478" vert-adv-y="1000"  />

      
      <glyph glyph-name="uni0127" unicode="&#x0127;" d="M274 0L206 0L288 371Q291 386 291 395Q291 434 253 434Q228 434 200.50 410Q173 386 153 352L76 0L8 0L126 536L78 536L88 581L136 581L155 667L223 667L204 581L322 581L313 536L194 536L169 419Q223 495 286 495Q324 495 344 474.50Q364 454 364 421Q364 410 360 390L274 0Z"  horiz-adv-x="384" vert-adv-y="1000"  />

      
      <glyph glyph-name="uni0128" unicode="&#x0128;" d="M84 0L9 0L156 667L231 667L84 0M254 721Q233 721 222 736Q211 751 209 768.50Q207 786 201 801Q195 816 183 816Q154 816 135 727L95 727Q126 861 190 861Q211 861 222 846Q233 831 235 813.50Q237 796 243 781Q249 766 261 766Q289 766 309 855L349 855Q320 721 254 721Z"  horiz-adv-x="201" vert-adv-y="1000"  />

      
      <glyph glyph-name="uni0129" unicode="&#x0129;" d="M70 0L2 0L109 483L177 483L70 0M207 554Q186 554 175 569Q164 584 162 601.50Q160 619 154 634Q148 649 136 649Q107 649 88 560L48 560Q79 694 143 694Q164 694 175 679Q186 664 188 646.50Q190 629 196 614Q202 599 214 599Q242 599 262 688L302 688Q273 554 207 554Z"  horiz-adv-x="180" vert-adv-y="1000"  />

      
      <glyph glyph-name="uni012A" unicode="&#x012A;" d="M84 0L9 0L156 667L231 667L84 0M334 740L87 740L96 785L344 785L334 740Z"  horiz-adv-x="201" vert-adv-y="1000"  />

      
      <glyph glyph-name="uni012B" unicode="&#x012B;" d="M70 0L2 0L109 483L177 483L70 0M287 573L40 573L49 618L297 618L287 573Z"  horiz-adv-x="180" vert-adv-y="1000"  />

      
      <glyph glyph-name="uni012C" unicode="&#x012C;" d="M84 0L9 0L156 667L231 667L84 0M334 780Q276 719 202 719Q127 719 96 780L135 808Q144 788 164.50 776Q185 764 209 764Q264 764 301 808L334 780Z"  horiz-adv-x="201" vert-adv-y="1000"  />

      
      <glyph glyph-name="uni012D" unicode="&#x012D;" d="M70 0L2 0L109 483L177 483L70 0M287 613Q229 552 155 552Q80 552 49 613L88 641Q97 621 117.50 609Q138 597 162 597Q217 597 254 641L287 613Z"  horiz-adv-x="180" vert-adv-y="1000"  />

      
      <glyph glyph-name="uni012E" unicode="&#x012E;" d="M54-116L85-138Q59-186 13-186Q-15-186-32-171Q-49-156-49-128Q-49-59 25 0L9 0L156 667L231 667L84 0L85 0Q-8-56-8-123Q-8-149 18-149Q44-149 54-116Z"  horiz-adv-x="201" vert-adv-y="1000"  />

      
      <glyph glyph-name="uni012F" unicode="&#x012F;" d="M39-116L70-138Q44-186-2-186Q-30-186-47-171Q-64-156-64-128Q-64-59 10 0L2 0L109 483L177 483L70 0Q-23-56-23-123Q-23-149 3-149Q29-149 39-116M163 554Q145 554 132.50 566Q120 578 120 595Q120 618 137 633.50Q154 649 174 649Q192 649 204.50 636.50Q217 624 217 607Q217 584 200 569Q183 554 163 554Z"  horiz-adv-x="180" vert-adv-y="1000"  />

      
      <glyph glyph-name="uni0130" unicode="&#x0130;" d="M84 0L9 0L156 667L231 667L84 0M261 773Q261 753 246 738.50Q231 724 211 724Q194 724 182.50 735.50Q171 747 171 764Q171 784 186 798.50Q201 813 221 813Q238 813 249.50 801.50Q261 790 261 773Z"  horiz-adv-x="201" vert-adv-y="1000"  />

      
      <glyph glyph-name="uni0131" unicode="&#x0131;" d="M70 0L2 0L109 483L177 483L70 0Z"  horiz-adv-x="180" vert-adv-y="1000"  />

      
      <glyph glyph-name="uni0132" unicode="&#x0132;" d="M84 0L9 0L156 667L231 667L84 0M277-12Q200-12 165 38L202 96Q225 56 272 56Q309 56 330.50 77Q352 98 362 145L478 667L553 667L437 142Q419 62 381 25Q343-12 277-12Z"  horiz-adv-x="522" vert-adv-y="1000"  />

      
      <glyph glyph-name="uni0133" unicode="&#x0133;" d="M163 554Q145 554 132.50 566Q120 578 120 595Q120 618 137 633.50Q154 649 174 649Q192 649 204.50 636.50Q217 624 217 607Q217 584 200 569Q183 554 163 554M70 0L2 0L109 483L177 483L70 0M123-196Q74-196 58-162L95-116Q100-135 121-135Q152-135 165-71L289 483L357 483L234-71Q218-139 193-167.50Q168-196 123-196M343 554Q325 554 312.50 566Q300 578 300 595Q300 618 317 633.50Q334 649 354 649Q372 649 384.50 636.50Q397 624 397 607Q397 584 380 569Q363 554 343 554Z"  horiz-adv-x="361" vert-adv-y="1000"  />

      
      <glyph glyph-name="uni0134" unicode="&#x0134;" d="M427 723L388 723L350 828L271 723L227 723L325 867L391 867L427 723M76-12Q-1-12-36 38L1 96Q24 56 71 56Q108 56 129.50 77Q151 98 161 145L277 667L352 667L236 142Q218 62 180 25Q142-12 76-12Z"  horiz-adv-x="321" vert-adv-y="1000"  />

      
      <glyph glyph-name="uni0135" unicode="&#x0135;" d="M261 556L222 556L184 661L105 556L61 556L159 700L225 700L261 556M-57-196Q-106-196-122-162L-85-116Q-80-135-59-135Q-28-135-15-71L109 483L177 483L54-71Q38-139 13-167.50Q-12-196-57-196Z"  horiz-adv-x="180" vert-adv-y="1000"  />

      
      <glyph glyph-name="uni0136" unicode="&#x0136;" d="M193-121Q193-162 163.50-202Q134-242 93-264L68-237Q94-223 115-201.50Q136-180 143-158Q141-159 136-159Q122-159 112-148.50Q102-138 102-122Q102-102 116.50-87.50Q131-73 150-73Q169-73 181-85.50Q193-98 193-121M353 0L272 0L193 292L129 203L84 0L9 0L156 667L231 667L158 332L397 667L487 667L249 350L353 0Z"  horiz-adv-x="418" vert-adv-y="1000"  />

      
      <glyph glyph-name="uni0137" unicode="&#x0137;" d="M159-121Q159-162 129.50-202Q100-242 59-264L34-237Q60-223 81-201.50Q102-180 109-158Q107-159 102-159Q88-159 78-148.50Q68-138 68-122Q68-102 82.50-87.50Q97-73 116-73Q135-73 147-85.50Q159-98 159-121M291 0L219 0L175 222L97 123L70 0L2 0L149 667L217 667L119 221L323 483L399 483L228 267L291 0Z"  horiz-adv-x="361" vert-adv-y="1000"  />

      
      <glyph glyph-name="uni0138" unicode="&#x0138;" d="M291 0L219 0L175 222L97 123L70 0L2 0L109 483L177 483L119 221L323 483L399 483L228 267L291 0Z"  horiz-adv-x="361" vert-adv-y="1000"  />

      
      <glyph glyph-name="uni0139" unicode="&#x0139;" d="M435 867L303 723L255 723L366 867L435 867M257 0L9 0L156 667L231 667L99 67L271 67L257 0Z"  horiz-adv-x="333" vert-adv-y="1000"  />

      
      <glyph glyph-name="uni013A" unicode="&#x013A;" d="M337 867L205 723L157 723L268 867L337 867M70 0L2 0L149 667L217 667L70 0Z"  horiz-adv-x="180" vert-adv-y="1000"  />

      
      <glyph glyph-name="uni013B" unicode="&#x013B;" d="M159-121Q159-162 129.50-202Q100-242 59-264L34-237Q60-223 81-201.50Q102-180 109-158Q107-159 102-159Q88-159 78-148.50Q68-138 68-122Q68-102 82.50-87.50Q97-73 116-73Q135-73 147-85.50Q159-98 159-121M257 0L9 0L156 667L231 667L99 67L271 67L257 0Z"  horiz-adv-x="333" vert-adv-y="1000"  />

      
      <glyph glyph-name="uni013C" unicode="&#x013C;" d="M53-121Q53-162 23.50-202Q-6-242-47-264L-72-237Q-46-223-25-201.50Q-4-180 3-158Q1-159-4-159Q-18-159-28-148.50Q-38-138-38-122Q-38-102-23.50-87.50Q-9-73 10-73Q29-73 41-85.50Q53-98 53-121M70 0L2 0L149 667L217 667L70 0Z"  horiz-adv-x="180" vert-adv-y="1000"  />

      
      <glyph glyph-name="uni013D" unicode="&#x013D;" d="M369 632Q369 591 339.50 551Q310 511 269 489L244 516Q270 530 291 551.50Q312 573 319 595Q317 594 312 594Q298 594 288 604.50Q278 615 278 631Q278 651 292.50 665.50Q307 680 326 680Q345 680 357 667.50Q369 655 369 632M257 0L9 0L156 667L231 667L99 67L271 67L257 0Z"  horiz-adv-x="333" vert-adv-y="1000"  />

      
      <glyph glyph-name="uni013E" unicode="&#x013E;" d="M363 632Q363 591 333.50 551Q304 511 263 489L238 516Q264 530 285 551.50Q306 573 313 595Q311 594 306 594Q292 594 282 604.50Q272 615 272 631Q272 651 286.50 665.50Q301 680 320 680Q339 680 351 667.50Q363 655 363 632M70 0L2 0L149 667L217 667L70 0Z"  horiz-adv-x="261" vert-adv-y="1000"  />

      
      <glyph glyph-name="uni013F" unicode="&#x013F;" d="M257 0L9 0L156 667L231 667L99 67L271 67L257 0M297 290Q278 290 264 304Q250 318 250 337Q250 360 267 376.50Q284 393 307 393Q326 393 340 379.50Q354 366 354 346Q354 322 337.50 306Q321 290 297 290Z"  horiz-adv-x="362" vert-adv-y="1000"  />

      
      <glyph glyph-name="uni0140" unicode="&#x0140;" d="M70 0L2 0L149 667L217 667L70 0M229 193Q210 193 196 206.50Q182 220 182 240Q182 263 199 279.50Q216 296 239 296Q258 296 272 282Q286 268 286 249Q286 225 269.50 209Q253 193 229 193Z"  horiz-adv-x="287" vert-adv-y="1000"  />

      
      <glyph glyph-name="uni0141" unicode="&#x0141;" d="M22 247L36 314L98 346L169 667L244 667L182 389L251 424L237 358L168 322L112 67L284 67L270 0L22 0L83 278L22 247Z"  horiz-adv-x="346" vert-adv-y="1000"  />

      
      <glyph glyph-name="uni0142" unicode="&#x0142;" d="M25 262L37 318L100 350L170 667L238 667L176 388L240 420L227 365L164 333L91 0L23 0L88 294L25 262Z"  horiz-adv-x="222" vert-adv-y="1000"  />

      
      <glyph glyph-name="uni0143" unicode="&#x0143;" d="M466 867L334 723L286 723L397 867L466 867M319 0L247 0L189 477L84 0L9 0L156 667L231 667L287 201L391 667L466 667L319 0Z"  horiz-adv-x="436" vert-adv-y="1000"  />

      
      <glyph glyph-name="uni0144" unicode="&#x0144;" d="M400 700L268 556L220 556L331 700L400 700M268 0L200 0L282 371Q285 389 285 395Q285 434 247 434Q222 434 194.50 410Q167 386 147 352L70 0L2 0L109 483L177 483L163 419Q217 495 280 495Q317 495 337.50 475.50Q358 456 358 421Q358 402 354 390L268 0Z"  horiz-adv-x="378" vert-adv-y="1000"  />

      
      <glyph glyph-name="uni0145" unicode="&#x0145;" d="M184-121Q184-162 154.50-202Q125-242 84-264L59-237Q85-223 106-201.50Q127-180 134-158Q132-159 127-159Q113-159 103-148.50Q93-138 93-122Q93-102 107.50-87.50Q122-73 141-73Q160-73 172-85.50Q184-98 184-121M319 0L247 0L189 477L84 0L9 0L156 667L231 667L287 201L391 667L466 667L319 0Z"  horiz-adv-x="436" vert-adv-y="1000"  />

      
      <glyph glyph-name="uni0146" unicode="&#x0146;" d="M154-121Q154-162 124.50-202Q95-242 54-264L29-237Q55-223 76-201.50Q97-180 104-158Q102-159 97-159Q83-159 73-148.50Q63-138 63-122Q63-102 77.50-87.50Q92-73 111-73Q130-73 142-85.50Q154-98 154-121M268 0L200 0L282 371Q285 389 285 395Q285 434 247 434Q222 434 194.50 410Q167 386 147 352L70 0L2 0L109 483L177 483L163 419Q217 495 280 495Q317 495 337.50 475.50Q358 456 358 421Q358 402 354 390L268 0Z"  horiz-adv-x="378" vert-adv-y="1000"  />

      
      <glyph glyph-name="uni0147" unicode="&#x0147;" d="M360 723L294 723L257 867L297 867L333 762L414 867L457 867L360 723M319 0L247 0L189 477L84 0L9 0L156 667L231 667L287 201L391 667L466 667L319 0Z"  horiz-adv-x="436" vert-adv-y="1000"  />

      
      <glyph glyph-name="uni0148" unicode="&#x0148;" d="M293 556L227 556L190 700L230 700L266 595L347 700L390 700L293 556M268 0L200 0L282 371Q285 389 285 395Q285 434 247 434Q222 434 194.50 410Q167 386 147 352L70 0L2 0L109 483L177 483L163 419Q217 495 280 495Q317 495 337.50 475.50Q358 456 358 421Q358 402 354 390L268 0Z"  horiz-adv-x="378" vert-adv-y="1000"  />

      
      <glyph glyph-name="uni0149" unicode="&#x0149;" d="M232 693Q232 652 202.50 612Q173 572 132 550L107 577Q133 591 154 612.50Q175 634 182 656Q180 655 175 655Q161 655 151 665.50Q141 676 141 692Q141 712 155.50 726.50Q170 741 189 741Q208 741 220 728.50Q232 716 232 693M268 0L200 0L282 371Q285 389 285 395Q285 434 247 434Q222 434 194.50 410Q167 386 147 352L70 0L2 0L109 483L177 483L163 419Q217 495 280 495Q317 495 337.50 475.50Q358 456 358 421Q358 402 354 390L268 0Z"  horiz-adv-x="378" vert-adv-y="1000"  />

      
      <glyph glyph-name="uni014A" unicode="&#x014A;" d="M150-196Q75-196 38-146L74-91Q97-129 145-129Q182-129 203-108Q224-87 235-40L246 10L189 477L84 0L9 0L156 667L231 667L287 201L391 667L466 667L310-42Q292-123 254-159.50Q216-196 150-196Z"  horiz-adv-x="436" vert-adv-y="1000"  />

      
      <glyph glyph-name="uni014B" unicode="&#x014B;" d="M354 390L252-70Q236-140 210-168Q184-196 140-196Q95-196 76-162L113-116Q118-135 138-135Q154-135 164.50-120.50Q175-106 184-70L282 371Q285 392 285 396Q285 434 247 434Q222 434 194.50 410Q167 386 147 352L70 0L2 0L109 483L177 483L162 415Q217 495 280 495Q316 495 337 476Q358 457 358 421Q358 408 354 390Z"  horiz-adv-x="378" vert-adv-y="1000"  />

      
      <glyph glyph-name="uni014C" unicode="&#x014C;" d="M450 740L203 740L212 785L460 785L450 740M175-12Q106-12 72.50 40.50Q39 93 39 177Q39 223 48 284Q57 345 77.50 415Q98 485 126.50 543Q155 601 199.50 639.50Q244 678 296 678Q365 678 399 624.50Q433 571 433 487Q433 428 417.50 348Q402 268 373 185Q344 102 291.50 45Q239-12 175-12M180 56Q218 56 252.50 106Q287 156 308 227Q329 298 341.50 369Q354 440 354 490Q354 610 290 610Q251 610 217 560Q183 510 162 438.50Q141 367 129 295.50Q117 224 117 174Q117 56 180 56Z"  horiz-adv-x="434" vert-adv-y="1000"  />

      
      <glyph glyph-name="uni014D" unicode="&#x014D;" d="M388 573L141 573L150 618L398 618L388 573M150-12Q90-12 57 27.50Q24 67 24 145Q24 219 46 297Q68 375 117.50 435Q167 495 231 495Q291 495 323.50 456Q356 417 356 338Q356 264 334 186Q312 108 263 48Q214-12 150-12M154 49Q193 49 225 103.50Q257 158 271.50 223Q286 288 286 338Q286 434 227 434Q188 434 155.50 379Q123 324 108.50 259Q94 194 94 144Q94 49 154 49Z"  horiz-adv-x="382" vert-adv-y="1000"  />

      
      </font>
</defs>
</svg>
