<?xml version="1.0" standalone="no"?>
  <!DOCTYPE svg PUBLIC "-//W3C//DTD SVG 1.1//EN" "http://www.w3.org/Graphics/SVG/1.1/DTD/svg11.dtd" >
  <svg>
  <metadata>
  Created by font-carrier
  </metadata>
  <defs>
  <font id="ProximaNovaExCn-Semibold" horiz-adv-x="855" vert-adv-y="855" >
    <font-face
      
      font-family="Proxima Nova ExCn Lt"
      
      font-weight="400"
      
      font-stretch="normal"
      
      units-per-em="1000"
      
      ascent="920"
      
      descent="-298"
      
    />
      <missing-glyph />

      

      
      <glyph glyph-name="uni21" unicode="&#x21;" d="M160 198L80 198L62 667L177 667L160 198M119-11Q93-11 74 8.50Q55 28 55 54Q55 80 74 99Q93 118 119 118Q146 118 165 99Q184 80 184 54Q184 28 165 8.50Q146-11 119-11Z"  horiz-adv-x="239" vert-adv-y="1000"  />

      
      <glyph glyph-name="uni22" unicode="&#x22;" d="M126 399L82 399Q50 607 50 623Q50 645 66 661Q82 677 104 677Q126 677 142 661Q158 645 158 623L126 399M284 399L240 399Q208 607 208 623Q208 646 224 661.50Q240 677 262 677Q284 677 300 661.50Q316 646 316 623L284 399Z"  horiz-adv-x="366" vert-adv-y="1000"  />

      
      <glyph glyph-name="uni23" unicode="&#x23;" d="M248 0L175 0L218 177L151 177L110 0L38 0L79 177L16 177L30 240L94 240L137 427L73 427L86 489L151 489L193 667L265 667L224 489L290 489L331 667L403 667L362 489L425 489L412 427L347 427L304 240L370 240L356 177L289 177L248 0M231 240L275 427L209 427L167 240L231 240Z"  horiz-adv-x="441" vert-adv-y="1000"  />

      
      <glyph glyph-name="uni24" unicode="&#x24;" d="M158-100L158-11Q68-6 16 52L63 134Q104 81 169 81Q202 81 223 105Q244 129 244 167Q244 203 222.50 233Q201 263 170 286.50Q139 310 108 336Q77 362 55.50 404.50Q34 447 34 501Q34 564 67 610.50Q100 657 158 672L158 768L231 768L231 676Q296 668 340 627L298 547Q261 585 209 585Q179 585 159.50 563Q140 541 140 506Q140 475 161.50 447.50Q183 420 214 396Q245 372 276 344Q307 316 328.50 272Q350 228 350 173Q350 108 318 60.50Q286 13 231-4L231-100L158-100Z"  horiz-adv-x="369" vert-adv-y="1000"  />

      
      <glyph glyph-name="uni25" unicode="&#x25;" d="M241.50 393.50Q241.50 393.50 224.25 370.25Q207 347 150 347Q93 347 58.50 393.50Q24 440 24 511Q24 583 58.50 630Q93 677 150 677Q207 677 241.50 630Q276 583 276 511Q276 440 241.50 393.50M175 0L129 0L405 667L452 667L175 0M521.50 34.50Q521.50 34.50 504.25 11.25Q487-12 430-12Q373-12 338.50 34.50Q304 81 304 152Q304 224 338.50 271Q373 318 430 318Q487 318 521.50 271Q556 224 556 152Q556 81 521.50 34.50M106 436Q106 436 114 421.50Q122 407 150 407Q178 407 194 436Q210 465 210 511Q210 558 194 587Q178 616 150 616Q122 616 106 587Q90 558 90 511Q90 465 106 436M386 77.50Q386 77.50 394 63.25Q402 49 430 49Q458 49 474 77.50Q490 106 490 152Q490 199 474 228.50Q458 258 430 258Q402 258 386 228.50Q370 199 370 152Q370 106 386 77.50Z"  horiz-adv-x="580" vert-adv-y="1000"  />

      
      <glyph glyph-name="uni26" unicode="&#x26;" d="M426 0L325 0L295 49Q240-12 172-12Q110-12 70.50 36.50Q31 85 31 169Q31 237 57 283Q83 329 129 369Q93 457 93 513Q93 586 127 631.50Q161 677 215 677Q263 677 297 638Q331 599 331 541Q331 507 323 479.50Q315 452 295 426.50Q275 401 263.50 389Q252 377 223 350Q238 316 261 273Q269 258 296 208Q310 251 328 332L404 298Q380 197 344 125Q352 112 426 0M190 64Q224 64 256 116Q222 174 204 211Q187 242 164 289Q126 235 126 174Q126 125 144 94.50Q162 64 190 64M177 513Q177 476 193 426Q250 481 250 538Q250 571 240 589Q230 607 215 607Q177 607 177 513Z"  horiz-adv-x="426" vert-adv-y="1000"  />

      
      <glyph glyph-name="uni27" unicode="&#x27;" d="M126 399L82 399Q50 607 50 623Q50 645 66 661Q82 677 104 677Q126 677 142 661Q158 645 158 623L126 399Z"  horiz-adv-x="208" vert-adv-y="1000"  />

      
      <glyph glyph-name="uni28" unicode="&#x28;" d="M217-169L149-199Q47 8 47 243Q47 478 149 685L217 656Q150 452 150 243Q150 34 217-169Z"  horiz-adv-x="237" vert-adv-y="1000"  />

      
      <glyph glyph-name="uni29" unicode="&#x29;" d="M87-199L20-169Q87 34 87 243Q87 452 20 656L87 685Q190 479 190 243Q190 7 87-199Z"  horiz-adv-x="237" vert-adv-y="1000"  />

      
      <glyph glyph-name="uni2a" unicode="&#x2a;" d="M182 381L131 381L136 494L41 433L15 478L115 529L15 580L41 625L136 564L131 677L182 677L177 564L272 625L298 580L197 529L298 478L272 433L177 494L182 381Z"  horiz-adv-x="313" vert-adv-y="1000"  />

      
      <glyph glyph-name="uni2b" unicode="&#x2b;" d="M352 306L224 306L224 157L157 157L157 306L29 306L29 368L157 368L157 511L224 511L224 368L352 368L352 306Z"  horiz-adv-x="381" vert-adv-y="1000"  />

      
      <glyph glyph-name="uni2c" unicode="&#x2c;" d="M189 32Q189-16 164.50-59Q140-102 100-130L57-95Q82-80 102-53Q122-26 126-1Q122-3 111-3Q87-3 71 13.50Q55 30 55 55Q55 81 73.50 99.50Q92 118 118 118Q148 118 168.50 95Q189 72 189 32Z"  horiz-adv-x="239" vert-adv-y="1000"  />

      
      <glyph glyph-name="uni2d" unicode="&#x2d;" d="M208 201L30 201L30 282L208 282L208 201Z"  horiz-adv-x="238" vert-adv-y="1000"  />

      
      <glyph glyph-name="uni2e" unicode="&#x2e;" d="M165 9Q165 9 155.50-0.50Q146-10 120-10Q94-10 74.50 9Q55 28 55 54Q55 80 74.50 99Q94 118 120 118Q146 118 165 99Q184 80 184 54Q184 28 165 9Z"  horiz-adv-x="239" vert-adv-y="1000"  />

      
      <glyph glyph-name="uni2f" unicode="&#x2f;" d="M69-20L0-20L147 687L216 687L69-20Z"  horiz-adv-x="216" vert-adv-y="1000"  />

      
      <glyph glyph-name="uni30" unicode="&#x30;" d="M218-12Q154-12 111 41.50Q68 95 52 169Q36 243 36 333Q36 423 52 497Q68 571 111 624Q154 677 218 677Q282 677 325 624Q368 571 384 497Q400 423 400 333Q400 243 384 169Q368 95 325.50 41.50Q283-12 218-12M157.50 146.50Q157.50 146.50 164.75 113.75Q172 81 218 81Q264 81 278.50 146.50Q293 212 293 333Q293 454 278.50 519Q264 584 218 584Q194 584 178 564.50Q162 545 155 507Q148 469 145.50 429.50Q143 390 143 333Q143 212 157.50 146.50Z"  horiz-adv-x="436" vert-adv-y="1000"  />

      
      <glyph glyph-name="uni31" unicode="&#x31;" d="M267 0L163 0L163 531L68 430L7 494L176 667L267 667L267 0Z"  horiz-adv-x="324" vert-adv-y="1000"  />

      
      <glyph glyph-name="uni32" unicode="&#x32;" d="M382 0L46 0L46 87Q198 301 236 369.50Q274 438 274 494Q274 532 254 558Q234 584 202 584Q138 584 99 506L30 567Q95 677 206 677Q285 677 332.50 627Q380 577 380 496Q380 430 341.50 352Q303 274 182 92L382 92L382 0Z"  horiz-adv-x="419" vert-adv-y="1000"  />

      
      <glyph glyph-name="uni33" unicode="&#x33;" d="M203-12Q143-12 96.50 18.50Q50 49 24 98L97 158Q136 81 198 81Q279 81 279 189Q279 246 253.50 270.50Q228 295 194 295Q164 295 155 293L155 388Q163 387 190 387Q228 387 250 411.50Q272 436 272 483Q272 584 198 584Q135 584 102 514L32 569Q59 621 104 649Q149 677 203 677Q281 677 328 632Q375 587 375 498Q375 445 347 401Q319 357 274 345Q321 335 352 289Q383 243 383 182Q383 95 335.50 41.50Q288-12 203-12Z"  horiz-adv-x="418" vert-adv-y="1000"  />

      
      <glyph glyph-name="uni34" unicode="&#x34;" d="M337 0L233 0L233 158L15 158L15 251L214 667L337 667L337 250L388 250L388 158L337 158L337 0M233 250L233 542L101 250L233 250Z"  horiz-adv-x="403" vert-adv-y="1000"  />

      
      <glyph glyph-name="uni35" unicode="&#x35;" d="M208-12Q145-12 103.50 15.50Q62 43 32 98L103 158Q138 81 202 81Q239 81 261 118.50Q283 156 283 208Q283 335 210 335Q162 335 127 277L49 299L49 667L360 667L360 575L153 575L153 372Q185 426 247 426Q312 426 351 370Q390 314 390 210Q390 115 340.50 51.50Q291-12 208-12Z"  horiz-adv-x="423" vert-adv-y="1000"  />

      
      <glyph glyph-name="uni36" unicode="&#x36;" d="M223-12Q171-12 133.50 16Q96 44 75.50 94Q55 144 45.50 203Q36 262 36 333Q36 484 87.50 580.50Q139 677 240 677Q283 677 319.50 655.50Q356 634 377 597L320 524Q294 584 243 584Q208 584 184.50 547.50Q161 511 151.50 460Q142 409 142 348L142 337Q156 375 185 399.50Q214 424 251 424Q312 424 351.50 368Q391 312 391 210Q391 116 345.50 52Q300-12 223-12M217 81Q252 81 268 117Q284 153 284 206Q284 334 217 334Q169 334 142 248Q147 81 217 81Z"  horiz-adv-x="421" vert-adv-y="1000"  />

      
      <glyph glyph-name="uni37" unicode="&#x37;" d="M185 0L74 0L231 575L19 575L19 667L345 667L345 595L185 0Z"  horiz-adv-x="364" vert-adv-y="1000"  />

      
      <glyph glyph-name="uni38" unicode="&#x38;" d="M210-12Q124-12 78.50 34.50Q33 81 33 164Q33 223 66 273.50Q99 324 142 344Q101 362 71 406Q41 450 41 508Q41 590 89.50 633.50Q138 677 210 677Q281 677 330 633.50Q379 590 379 508Q379 450 348.50 406Q318 362 277 344Q320 324 353.50 274Q387 224 387 165Q387 82 341 35Q295-12 210-12M210 379Q220 384 232 394Q244 404 259.50 431Q275 458 275 490Q275 534 258.50 559Q242 584 210 584Q144 584 144 490Q144 458 159.50 431Q175 404 187.50 393.50Q200 383 210 379M210 81Q241 81 261.50 106.50Q282 132 282 179Q282 230 255 266Q228 302 210 306Q192 302 165 266Q138 230 138 179Q138 132 157.50 106.50Q177 81 210 81Z"  horiz-adv-x="419" vert-adv-y="1000"  />

      
      <glyph glyph-name="uni39" unicode="&#x39;" d="M180-11Q137-11 100.50 10.50Q64 32 44 69L101 142Q127 82 178 82Q211 82 234.50 117Q258 152 268.50 204Q279 256 279 317L279 329Q264 291 235.50 266.50Q207 242 170 242Q109 242 69.50 297.50Q30 353 30 456Q30 550 75.50 614Q121 678 198 678Q249 678 286.50 650Q324 622 345 572Q366 522 375.50 463Q385 404 385 333Q385 182 333 85.50Q281-11 180-11M203 332Q251 332 278 418Q275 585 205 585Q170 585 153 549Q136 513 136 460Q136 392 155 362Q174 332 203 332Z"  horiz-adv-x="421" vert-adv-y="1000"  />

      
      <glyph glyph-name="uni3a" unicode="&#x3a;" d="M165 381Q165 381 155.50 371.50Q146 362 120 362Q94 362 74.50 381Q55 400 55 426Q55 452 74.50 471Q94 490 120 490Q146 490 165 471Q184 452 184 426Q184 400 165 381M165 9Q165 9 155.50-0.50Q146-10 120-10Q94-10 74.50 9Q55 28 55 54Q55 80 74.50 99Q94 118 120 118Q146 118 165 99Q184 80 184 54Q184 28 165 9Z"  horiz-adv-x="239" vert-adv-y="1000"  />

      
      <glyph glyph-name="uni3b" unicode="&#x3b;" d="M165 381Q165 381 155.50 371.50Q146 362 120 362Q94 362 74.50 381Q55 400 55 426Q55 452 74.50 471Q94 490 120 490Q146 490 165 471Q184 452 184 426Q184 400 165 381M189 35Q189-13 164.50-56Q140-99 100-128L57-92Q81-78 101.50-51Q122-24 126 1Q122-1 111-1Q87-1 71 15.50Q55 32 55 58Q55 84 73.50 102.50Q92 121 118 121Q148 121 168.50 97.50Q189 74 189 35Z"  horiz-adv-x="239" vert-adv-y="1000"  />

      
      <glyph glyph-name="uni3c" unicode="&#x3c;" d="M352 158L29 301L29 368L352 511L352 438L103 334L352 232L352 158Z"  horiz-adv-x="381" vert-adv-y="1000"  />

      
      <glyph glyph-name="uni3d" unicode="&#x3d;" d="M352 399L29 399L29 461L352 461L352 399M352 207L29 207L29 269L352 269L352 207Z"  horiz-adv-x="381" vert-adv-y="1000"  />

      
      <glyph glyph-name="uni3e" unicode="&#x3e;" d="M352 301L29 158L29 232L278 334L29 438L29 511L352 368L352 301Z"  horiz-adv-x="381" vert-adv-y="1000"  />

      
      <glyph glyph-name="uni3f" unicode="&#x3f;" d="M125 192Q100 226 100 278Q100 316 115.50 349.50Q131 383 149 403.50Q167 424 182.50 453.50Q198 483 198 515Q198 543 180.50 565Q163 587 135 587Q101 587 75 555L31 621Q82 678 158 678Q222 678 261.50 637Q301 596 301 535Q301 493 283.50 455Q266 417 244.50 393Q223 369 205.50 337Q188 305 188 273Q188 245 205 224L125 192M208 9Q208 9 198.50-0.50Q189-10 163-10Q137-10 117.50 9Q98 28 98 54Q98 80 117.50 99Q137 118 163 118Q189 118 208 99Q227 80 227 54Q227 28 208 9Z"  horiz-adv-x="320" vert-adv-y="1000"  />

      
      <glyph glyph-name="uni40" unicode="&#x40;" d="M267-70Q159-70 97 6.50Q35 83 35 215Q35 322 81 420Q127 518 206 578.50Q285 639 376 639Q469 639 527 573.50Q585 508 585 396Q585 268 537 176.50Q489 85 425 85Q392 85 370.50 103.50Q349 122 345 153L344 161Q295 85 233 85Q194 85 167 114.50Q140 144 140 211Q140 280 162.50 345.50Q185 411 229 455Q273 499 327 499Q383 499 399 430L410 483L494 483L438 220Q435 205 435 195Q435 171 441.50 161Q448 151 464 151Q475 151 489 167.50Q503 184 516 213.50Q529 243 538 291.50Q547 340 547 395Q547 494 500 548.50Q453 603 374 603Q294 603 223.50 546Q153 489 113 400Q73 311 73 216Q73 103 125 34Q177-35 272-35Q344-35 415 21L433-7Q353-70 267-70M272 153Q298 153 316.50 171.50Q335 190 354 223L386 371Q374 430 339 430Q305 430 278.50 394.50Q252 359 240 313Q228 267 228 224Q228 153 272 153Z"  horiz-adv-x="620" vert-adv-y="1000"  />

      
      <glyph glyph-name="uni41" unicode="&#x41;" d="M395 0L288 0L265 136L133 136L110 0L3 0L139 667L259 667L395 0M253 228L199 548L145 228L253 228Z"  horiz-adv-x="398" vert-adv-y="1000"  />

      
      <glyph glyph-name="uni42" unicode="&#x42;" d="M240 0L57 0L57 667L233 667Q308 667 347 620Q386 573 386 497Q386 374 293 344Q338 337 366.50 289.50Q395 242 395 180Q395 97 356.50 48.50Q318 0 240 0M208 386Q279 386 279 480Q279 575 208 575L161 575L161 386L208 386M212 92Q288 92 288 193Q288 238 269 266Q250 294 212 294L161 294L161 92L212 92Z"  horiz-adv-x="431" vert-adv-y="1000"  />

      
      <glyph glyph-name="uni43" unicode="&#x43;" d="M230-12Q132-12 84 82.50Q36 177 36 333Q36 490 84 584Q132 678 230 678Q265 678 292 665.50Q319 653 337 630Q355 607 365.50 585Q376 563 385 533L301 502Q289 544 273 564.50Q257 585 230 585Q143 585 143 333Q143 81 230 81Q284 81 302 180L387 149Q348-12 230-12Z"  horiz-adv-x="412" vert-adv-y="1000"  />

      
      <glyph glyph-name="uni44" unicode="&#x44;" d="M207 0L57 0L57 667L206 667Q314 667 366.50 576Q419 485 419 333Q419 180 367 90Q315 0 207 0M206 92Q312 92 312 333Q312 575 206 575L161 575L161 92L206 92Z"  horiz-adv-x="455" vert-adv-y="1000"  />

      
      <glyph glyph-name="uni45" unicode="&#x45;" d="M330 0L57 0L57 667L330 667L330 575L161 575L161 386L323 386L323 294L161 294L161 92L330 92L330 0Z"  horiz-adv-x="367" vert-adv-y="1000"  />

      
      <glyph glyph-name="uni46" unicode="&#x46;" d="M161 0L57 0L57 667L330 667L330 575L161 575L161 386L323 386L323 294L161 294L161 0Z"  horiz-adv-x="365" vert-adv-y="1000"  />

      
      <glyph glyph-name="uni47" unicode="&#x47;" d="M230-12Q133-12 84.50 80.50Q36 173 36 333Q36 493 84.50 585.50Q133 678 230 678Q346 678 385 533L301 502Q290 543 274 564Q258 585 230 585Q143 585 143 333Q143 81 230 81Q273 81 295 116L295 260L214 260L214 352L388 352L388 72Q326-12 230-12Z"  horiz-adv-x="435" vert-adv-y="1000"  />

      
      <glyph glyph-name="uni48" unicode="&#x48;" d="M407 0L302 0L302 297L161 297L161 0L57 0L57 667L161 667L161 389L302 389L302 667L407 667L407 0Z"  horiz-adv-x="463" vert-adv-y="1000"  />

      
      <glyph glyph-name="uni49" unicode="&#x49;" d="M161 0L57 0L57 667L161 667L161 0Z"  horiz-adv-x="218" vert-adv-y="1000"  />

      
      <glyph glyph-name="uni4a" unicode="&#x4a;" d="M115-12Q51-12 7 28L39 113Q65 81 104 81Q177 81 177 161L177 667L281 667L281 156Q281 71 236.50 29.50Q192-12 115-12Z"  horiz-adv-x="337" vert-adv-y="1000"  />

      
      <glyph glyph-name="uni4b" unicode="&#x4b;" d="M442 0L323 0L204 269L161 184L161 0L57 0L57 667L161 667L161 342L314 667L429 667L264 352L442 0Z"  horiz-adv-x="448" vert-adv-y="1000"  />

      
      <glyph glyph-name="uni4c" unicode="&#x4c;" d="M330 0L57 0L57 667L161 667L161 92L330 92L330 0Z"  horiz-adv-x="351" vert-adv-y="1000"  />

      
      <glyph glyph-name="uni4d" unicode="&#x4d;" d="M535 0L432 0L432 425L314 0L277 0L161 425L161 0L57 0L57 667L192 667L296 294L402 667L535 667L535 0Z"  horiz-adv-x="591" vert-adv-y="1000"  />

      
      <glyph glyph-name="uni4e" unicode="&#x4e;" d="M407 0L308 0L161 386L161 0L57 0L57 667L161 667L302 292L302 667L407 667L407 0Z"  horiz-adv-x="463" vert-adv-y="1000"  />

      
      <glyph glyph-name="uni4f" unicode="&#x4f;" d="M375 83Q375 83 351 35.50Q327-12 229-12Q131-12 83.50 82.50Q36 177 36 333Q36 488 83.50 583Q131 678 229 678Q327 678 375 583Q423 488 423 333Q423 178 375 83M229 81Q316 81 316 333Q316 585 229 585Q143 585 143 333Q143 81 229 81Z"  horiz-adv-x="459" vert-adv-y="1000"  />

      
      <glyph glyph-name="uni50" unicode="&#x50;" d="M161 0L57 0L57 667L218 667Q305 667 349.50 608.50Q394 550 394 461Q394 372 349.50 313.50Q305 255 218 255L161 255L161 0M208 347Q246 347 266.50 378Q287 409 287 461Q287 513 266.50 544Q246 575 208 575L161 575L161 347L208 347Z"  horiz-adv-x="418" vert-adv-y="1000"  />

      
      <glyph glyph-name="uni51" unicode="&#x51;" d="M229-12Q131-12 83.50 82.50Q36 177 36 333Q36 488 83.50 583Q131 678 229 678Q327 678 375 583Q423 488 423 333Q423 117 340 33L355-6L281-35L270-7Q248-12 229-12M229 81L236 81L185 215L259 244L295 149Q316 213 316 333Q316 585 229 585Q143 585 143 333Q143 81 229 81Z"  horiz-adv-x="459" vert-adv-y="1000"  />

      
      <glyph glyph-name="uni52" unicode="&#x52;" d="M400 0L288 0L209 255L161 255L161 0L57 0L57 667L223 667Q298 667 346 611Q394 555 394 464Q394 386 367.50 341.50Q341 297 305 280L400 0M208 347Q246 347 266.50 378Q287 409 287 461Q287 513 266.50 544Q246 575 208 575L161 575L161 347L208 347Z"  horiz-adv-x="438" vert-adv-y="1000"  />

      
      <glyph glyph-name="uni53" unicode="&#x53;" d="M175-12Q75-12 16 52L63 134Q104 81 169 81Q202 81 223 105Q244 129 244 167Q244 203 222.50 233Q201 263 170 286.50Q139 310 108 336Q77 362 55.50 404.50Q34 447 34 501Q34 577 81 627.50Q128 678 206 678Q287 678 340 627L298 547Q261 585 209 585Q179 585 159.50 563Q140 541 140 506Q140 475 161.50 447.50Q183 420 214 396Q245 372 276 344Q307 316 328.50 272Q350 228 350 173Q350 92 302 40Q254-12 175-12Z"  horiz-adv-x="378" vert-adv-y="1000"  />

      
      <glyph glyph-name="uni54" unicode="&#x54;" d="M225 0L121 0L121 575L18 575L18 667L328 667L328 575L225 575L225 0Z"  horiz-adv-x="346" vert-adv-y="1000"  />

      
      <glyph glyph-name="uni55" unicode="&#x55;" d="M357.50 37.50Q357.50 37.50 332.75 12.75Q308-12 232-12Q156-12 106.50 37.50Q57 87 57 184L57 667L161 667L161 179Q161 80 232 80Q303 80 303 179L303 667L407 667L407 184Q407 87 357.50 37.50Z"  horiz-adv-x="464" vert-adv-y="1000"  />

      
      <glyph glyph-name="uni56" unicode="&#x56;" d="M259 0L139 0L3 667L110 667L199 135L288 667L395 667L259 0Z"  horiz-adv-x="398" vert-adv-y="1000"  />

      
      <glyph glyph-name="uni57" unicode="&#x57;" d="M462 0L355 0L293 466L232 0L125 0L14 667L121 667L183 184L251 667L336 667L405 184L466 667L573 667L462 0Z"  horiz-adv-x="587" vert-adv-y="1000"  />

      
      <glyph glyph-name="uni58" unicode="&#x58;" d="M408 0L292 0L204 246L116 0L1 0L144 340L9 667L124 667L204 432L284 667L400 667L264 340L408 0Z"  horiz-adv-x="408" vert-adv-y="1000"  />

      
      <glyph glyph-name="uni59" unicode="&#x59;" d="M255 0L151 0L151 279L-3 667L109 667L203 382L298 667L408 667L255 279L255 0Z"  horiz-adv-x="405" vert-adv-y="1000"  />

      
      <glyph glyph-name="uni5a" unicode="&#x5a;" d="M330 0L31 0L31 89L206 575L31 575L31 667L323 667L323 582L145 92L330 92L330 0Z"  horiz-adv-x="360" vert-adv-y="1000"  />

      
      <glyph glyph-name="uni5b" unicode="&#x5b;" d="M177-190L35-190L35 678L177 678L177 612L105 612L105-124L177-124L177-190Z"  horiz-adv-x="195" vert-adv-y="1000"  />

      
      <glyph glyph-name="uni5c" unicode="&#x5c;" d="M148-20L1 687L69 687L216-20L148-20Z"  horiz-adv-x="216" vert-adv-y="1000"  />

      
      <glyph glyph-name="uni5d" unicode="&#x5d;" d="M160-190L17-190L17-124L89-124L89 612L17 612L17 678L160 678L160-190Z"  horiz-adv-x="195" vert-adv-y="1000"  />

      
      <glyph glyph-name="uni5e" unicode="&#x5e;" d="M315 333L245 333L167 590L89 333L19 333L132 667L202 667L315 333Z"  horiz-adv-x="334" vert-adv-y="1000"  />

      
      <glyph glyph-name="uni5f" unicode="&#x5f;" d="M282-106L-3-106L-3-40L282-40L282-106Z"  horiz-adv-x="279" vert-adv-y="1000"  />

      
      <glyph glyph-name="uni60" unicode="&#x60;" d="M164 556L103 556L0 700L85 700L164 556Z"  horiz-adv-x="164" vert-adv-y="1000"  />

      
      <glyph glyph-name="uni61" unicode="&#x61;" d="M348 0L254 0L254 45Q238 18 210.50 3Q183-12 156-12Q99-12 63.50 32Q28 76 28 149Q28 221 63.50 264Q99 307 156 307Q183 307 211 293Q239 279 254 253L254 320Q254 415 180 415Q129 415 83 366L47 432Q105 495 198 495Q348 495 348 340L348 0M187 53Q207 53 225 68.50Q243 84 254 110L254 183Q243 209 225 225Q207 241 187 241Q155 241 138.50 214.50Q122 188 122 147Q122 106 138.50 79.50Q155 53 187 53Z"  horiz-adv-x="398" vert-adv-y="1000"  />

      
      <glyph glyph-name="uni62" unicode="&#x62;" d="M144 139Q153 110 170.50 90.50Q188 71 208 71Q278 71 278 241Q278 412 208 412Q188 412 170.50 392Q153 372 144 343L144 139M144 0L50 0L50 667L144 667L144 420Q158 457 183.50 476Q209 495 237 495Q305 495 340 426Q375 357 375 241Q375 124 340 56Q305-12 237-12Q211-12 185 7.50Q159 27 144 62L144 0Z"  horiz-adv-x="406" vert-adv-y="1000"  />

      
      <glyph glyph-name="uni63" unicode="&#x63;" d="M205-12Q124-12 77.50 59Q31 130 31 242Q31 354 77.50 424.50Q124 495 205 495Q274 495 314 451L281 379Q252 412 220 412Q175 412 151.50 363.50Q128 315 128 242Q128 169 151.50 120Q175 71 220 71Q252 71 281 104L314 32Q277-12 205-12Z"  horiz-adv-x="333" vert-adv-y="1000"  />

      
      <glyph glyph-name="uni64" unicode="&#x64;" d="M356 0L262 0L262 62Q247 27 221 7.50Q195-12 169-12Q101-12 66 56Q31 124 31 241Q31 357 66 426Q101 495 169 495Q197 495 222.50 476Q248 457 262 420L262 667L356 667L356 0M198 71Q218 71 236 91Q254 111 262 139L262 344Q254 372 236 392Q218 412 198 412Q128 412 128 241Q128 71 198 71Z"  horiz-adv-x="406" vert-adv-y="1000"  />

      
      <glyph glyph-name="uni65" unicode="&#x65;" d="M213-12Q125-12 78 58Q31 128 31 242Q31 353 74.50 424Q118 495 201 495Q284 495 324 425.50Q364 356 364 244L364 211L123 211Q124 145 149 105Q174 65 222 65Q267 65 302 117L351 66Q295-12 213-12M272 278Q272 418 198 418Q158 418 140.50 375.50Q123 333 123 278L272 278Z"  horiz-adv-x="391" vert-adv-y="1000"  />

      
      <glyph glyph-name="uni66" unicode="&#x66;" d="M159 0L65 0L65 401L19 401L19 483L65 483L65 546Q65 609 95.50 643Q126 677 183 677Q232 677 261 650L234 576Q219 594 200 594Q159 594 159 546L159 483L222 483L222 401L159 401L159 0Z"  horiz-adv-x="239" vert-adv-y="1000"  />

      
      <glyph glyph-name="uni67" unicode="&#x67;" d="M187-196Q99-196 47-145L81-67Q124-113 178-113Q262-113 262-3L262 76Q247 40 221 20Q195 0 169 0Q101 0 66 65Q31 130 31 247Q31 362 66 428.50Q101 495 169 495Q197 495 222.50 476Q248 457 262 420L262 483L356 483L356 9Q356-196 187-196M198 83Q218 83 236 103Q254 123 262 151L262 344Q254 372 236 392Q218 412 198 412Q128 412 128 247Q128 83 198 83Z"  horiz-adv-x="406" vert-adv-y="1000"  />

      
      <glyph glyph-name="uni68" unicode="&#x68;" d="M352 0L258 0L258 357Q258 412 217 412Q194 412 174.50 391.50Q155 371 144 342L144 0L50 0L50 667L144 667L144 418Q160 449 191.50 472Q223 495 255 495Q352 495 352 388L352 0Z"  horiz-adv-x="402" vert-adv-y="1000"  />

      
      <glyph glyph-name="uni69" unicode="&#x69;" d="M97 546Q73 546 55 563.50Q37 581 37 605Q37 630 55 647.50Q73 665 97 665Q122 665 139.50 647.50Q157 630 157 605Q157 580 139.50 563Q122 546 97 546M144 0L50 0L50 483L144 483L144 0Z"  horiz-adv-x="194" vert-adv-y="1000"  />

      
      <glyph glyph-name="uni6a" unicode="&#x6a;" d="M97 546Q73 546 55 563.50Q37 581 37 605Q37 630 55 647.50Q73 665 97 665Q122 665 139.50 647.50Q157 630 157 605Q157 580 139.50 563Q122 546 97 546M24-196Q-16-196-35-169L-9-97Q-1-113 17-113Q50-113 50-54L50 483L144 483L144-54Q144-128 115-162Q86-196 24-196Z"  horiz-adv-x="194" vert-adv-y="1000"  />

      
      <glyph glyph-name="uni6b" unicode="&#x6b;" d="M375 0L273 0L193 204L144 117L144 0L50 0L50 667L144 667L144 241L271 483L373 483L255 268L375 0Z"  horiz-adv-x="385" vert-adv-y="1000"  />

      
      <glyph glyph-name="uni6c" unicode="&#x6c;" d="M144 0L50 0L50 667L144 667L144 0Z"  horiz-adv-x="194" vert-adv-y="1000"  />

      
      <glyph glyph-name="uni6d" unicode="&#x6d;" d="M560 0L466 0L466 356Q466 412 425 412Q402 412 382 391Q362 370 352 342L352 0L258 0L258 356Q258 412 217 412Q194 412 174 391Q154 370 144 342L144 0L50 0L50 483L144 483L144 418Q158 448 190 471.50Q222 495 255 495Q294 495 319.50 474.50Q345 454 349 414Q364 447 396.50 471Q429 495 463 495Q560 495 560 387L560 0Z"  horiz-adv-x="610" vert-adv-y="1000"  />

      
      <glyph glyph-name="uni6e" unicode="&#x6e;" d="M352 0L258 0L258 356Q258 412 217 412Q194 412 174.50 391.50Q155 371 144 342L144 0L50 0L50 483L144 483L144 418Q160 449 191.50 472Q223 495 255 495Q352 495 352 387L352 0Z"  horiz-adv-x="402" vert-adv-y="1000"  />

      
      <glyph glyph-name="uni6f" unicode="&#x6f;" d="M328 60.50Q328 60.50 307 24.25Q286-12 201-12Q116-12 73.50 60.50Q31 133 31 242Q31 351 73.50 423Q116 495 201 495Q286 495 328 423Q370 351 370 242Q370 133 328 60.50M129 242Q129 71 201 71Q273 71 273 242Q273 412 201 412Q129 412 129 242Z"  horiz-adv-x="402" vert-adv-y="1000"  />

      
      <glyph glyph-name="uni70" unicode="&#x70;" d="M237-12Q209-12 183.50 7Q158 26 144 63L144-184L50-184L50 483L144 483L144 421Q159 456 185 475.50Q211 495 237 495Q305 495 340 427Q375 359 375 242Q375 126 340 57Q305-12 237-12M208 71Q278 71 278 242Q278 412 208 412Q188 412 170 392.50Q152 373 144 345L144 139Q153 111 170.50 91Q188 71 208 71Z"  horiz-adv-x="406" vert-adv-y="1000"  />

      
      <glyph glyph-name="uni71" unicode="&#x71;" d="M198 71Q218 71 236 91Q254 111 262 139L262 345Q254 373 236 392.50Q218 412 198 412Q128 412 128 242Q128 71 198 71M169-12Q101-12 66 57Q31 126 31 242Q31 359 66 427Q101 495 169 495Q195 495 221 475.50Q247 456 262 421L262 483L356 483L356-184L262-184L262 63Q248 26 222.50 7Q197-12 169-12Z"  horiz-adv-x="406" vert-adv-y="1000"  />

      
      <glyph glyph-name="uni72" unicode="&#x72;" d="M144 0L50 0L50 483L144 483L144 412Q160 448 190 471Q220 494 254 494L254 400Q243 403 234 403Q207 403 183 383Q159 363 144 333L144 0Z"  horiz-adv-x="268" vert-adv-y="1000"  />

      
      <glyph glyph-name="uni73" unicode="&#x73;" d="M162-12Q65-12 16 50L57 115Q100 63 154 63Q182 63 200.50 79.50Q219 96 219 123Q219 148 199.50 167Q180 186 153 201.50Q126 217 98.50 235.50Q71 254 51.50 287Q32 320 32 365Q32 421 70.50 458Q109 495 175 495Q252 495 305 439L265 376Q232 420 177 420Q152 420 136 405Q120 390 120 368Q120 345 139.50 326.50Q159 308 186.50 293Q214 278 241.50 259Q269 240 288.50 206Q308 172 308 126Q308 65 266.50 26.50Q225-12 162-12Z"  horiz-adv-x="330" vert-adv-y="1000"  />

      
      <glyph glyph-name="uni74" unicode="&#x74;" d="M165-12Q112-12 88.50 16Q65 44 65 103L65 401L18 401L18 483L65 483L65 615L159 615L159 483L222 483L222 401L159 401L159 120Q159 71 187 71Q205 71 217 86L239 14Q213-12 165-12Z"  horiz-adv-x="247" vert-adv-y="1000"  />

      
      <glyph glyph-name="uni75" unicode="&#x75;" d="M352 0L258 0L258 63Q242 32 211.50 10Q181-12 147-12Q50-12 50 95L50 483L144 483L144 126Q144 71 185 71Q208 71 228 91Q248 111 258 139L258 483L352 483L352 0Z"  horiz-adv-x="402" vert-adv-y="1000"  />

      
      <glyph glyph-name="uni76" unicode="&#x76;" d="M229 0L127 0L5 483L105 483L178 117L253 483L352 483L229 0Z"  horiz-adv-x="357" vert-adv-y="1000"  />

      
      <glyph glyph-name="uni77" unicode="&#x77;" d="M462 0L364 0L290 355L215 0L117 0L9 483L106 483L172 129L241 483L333 483L406 129L473 483L571 483L462 0Z"  horiz-adv-x="579" vert-adv-y="1000"  />

      
      <glyph glyph-name="uni78" unicode="&#x78;" d="M345 0L244 0L176 173L107 0L7 0L118 244L12 483L112 483L176 315L240 483L339 483L234 244L345 0Z"  horiz-adv-x="352" vert-adv-y="1000"  />

      
      <glyph glyph-name="uni79" unicode="&#x79;" d="M37-189L51-107Q61-113 74-113Q104-113 115-74L131-13L5 483L105 483L178 119L253 483L352 483L204-94Q188-152 161-174Q134-196 86-196Q54-196 37-189Z"  horiz-adv-x="357" vert-adv-y="1000"  />

      
      <glyph glyph-name="uni7a" unicode="&#x7a;" d="M291 0L30 0L30 72L176 401L30 401L30 483L287 483L287 414L141 82L291 82L291 0Z"  horiz-adv-x="321" vert-adv-y="1000"  />

      
      <glyph glyph-name="uni7b" unicode="&#x7b;" d="M195-190L166-190Q122-190 89.50-158.50Q57-127 57-78L57 147Q57 176 43.50 195.50Q30 215 5 215L5 273Q30 273 43.50 292.50Q57 312 57 341L57 565Q57 614 89.50 646Q122 678 166 678L195 678L195 612L166 612Q150 612 138.50 599Q127 586 127 565L127 333Q127 263 82 244Q127 225 127 155L127-78Q127-98 138.50-111.50Q150-125 166-125L195-125L195-190Z"  horiz-adv-x="212" vert-adv-y="1000"  />

      
      <glyph glyph-name="uni7c" unicode="&#x7c;" d="M122-20L57-20L57 687L122 687L122-20Z"  horiz-adv-x="179" vert-adv-y="1000"  />

      
      <glyph glyph-name="uni7d" unicode="&#x7d;" d="M17-190L17-125L46-125Q62-125 73.50-111.50Q85-98 85-78L85 155Q85 225 130 244Q85 263 85 333L85 565Q85 586 73.50 599Q62 612 46 612L17 612L17 678L46 678Q90 678 122.50 646Q155 614 155 565L155 341Q155 312 168.50 292.50Q182 273 207 273L207 215Q182 215 168.50 195.50Q155 176 155 147L155-78Q155-127 122.50-158.50Q90-190 46-190L17-190Z"  horiz-adv-x="212" vert-adv-y="1000"  />

      
      <glyph glyph-name="uni7e" unicode="&#x7e;" d="M313 667L380 661Q378 614 373.50 580Q369 546 357.50 505Q346 464 322.50 441.50Q299 419 264 419Q229 419 209 448Q189 477 183.50 511.50Q178 546 168.50 575Q159 604 143 604Q120 604 111 565Q102 526 94 418L27 425Q29 471 34 505.50Q39 540 50 580.50Q61 621 85 643.50Q109 666 143 666Q178 666 198 637Q218 608 223.50 573Q229 538 239 509Q249 480 264 480Q287 480 296 519Q305 558 313 667Z"  horiz-adv-x="407" vert-adv-y="1000"  />

      
      <glyph glyph-name="unia1" unicode="&#xa1;" d="M62-184L80 285L160 285L178-184L62-184M74.50 384Q74.50 384 64.75 393.50Q55 403 55 429Q55 455 74.50 474Q94 493 120 493Q146 493 165.50 474Q185 455 185 429Q185 403 165.50 384Q146 365 120 365Q94 365 74.50 384Z"  horiz-adv-x="239" vert-adv-y="1000"  />

      
      <glyph glyph-name="unia2" unicode="&#xa2;" d="M175-100L175-9Q107 3 69 72Q31 141 31 242Q31 343 69 411.50Q107 480 175 492L175 565L246 565L246 490Q286 480 314 451L281 379Q261 401 246 407L246 76Q263 83 281 104L314 32Q289 2 246-8L246-100L175-100M128 242Q128 128 175 88L175 395Q128 355 128 242Z"  horiz-adv-x="333" vert-adv-y="1000"  />

      
      <glyph glyph-name="unia3" unicode="&#xa3;" d="M30 274L30 337L86 337Q47 413 47 482Q47 563 98 620Q149 677 222 677Q281 677 322 645Q363 613 375 553L292 517Q283 553 268.50 572Q254 591 227 591Q199 591 179 561Q159 531 159 480Q159 461 161 444.50Q163 428 168.50 411.50Q174 395 177 386.50Q180 378 188.50 360Q197 342 199 337L273 337L273 274L218 274Q221 256 221 235Q221 200 203.50 161Q186 122 161 100Q179 109 198 109Q221 109 249.50 95Q278 81 296 81Q339 81 362 113L393 31Q380 13 349.50 0.50Q319-12 287-12Q250-12 214.50 8.50Q179 29 159 29Q124 29 77-7L44 66Q82 91 104.50 130.50Q127 170 127 210Q127 240 115 274L30 274Z"  horiz-adv-x="405" vert-adv-y="1000"  />

      
      <glyph glyph-name="unia4" unicode="&#xa4;" d="M210 97Q159 97 121 124L57 59L0 116L70 185Q40 245 40 333Q40 423 71 481L0 552L57 609L123 542Q160 568 210 568Q259 568 296 542L363 609L420 552L348 480Q379 419 379 333Q379 246 348 184L420 113L363 56L296 122Q260 97 210 97M150 224Q150 224 159.50 202.50Q169 181 210 181Q251 181 270 224Q289 267 289 333Q289 398 270 441Q251 484 210 484Q169 484 150 441Q131 398 131 333Q131 267 150 224Z"  horiz-adv-x="419" vert-adv-y="1000"  />

      
      <glyph glyph-name="unia5" unicode="&#xa5;" d="M255 0L151 0L151 120L23 120L23 182L151 182L151 279L23 279L23 341L126 341L-3 667L109 667L203 382L298 667L408 667L279 341L380 341L380 279L255 279L255 182L380 182L380 120L255 120L255 0Z"  horiz-adv-x="405" vert-adv-y="1000"  />

      
      <glyph glyph-name="unia6" unicode="&#xa6;" d="M122-20L57-20L57 296L122 296L122-20M122 371L57 371L57 687L122 687L122 371Z"  horiz-adv-x="179" vert-adv-y="1000"  />

      
      <glyph glyph-name="unia7" unicode="&#xa7;" d="M308 308Q308 227 237 189Q308 136 308 57Q308-1 266.50-41Q225-81 162-81Q69-81 16-19L57 44Q72 24 98.50 7Q125-10 154-10Q184-10 201.50 9Q219 28 219 55Q219 82 199.50 103.50Q180 125 153 141Q126 157 98.50 175Q71 193 51.50 225.50Q32 258 32 301Q32 340 54 371.50Q76 403 114 414Q32 470 32 552Q32 607 71 642Q110 677 167 677Q252 677 304 620L264 563Q223 609 176 609Q151 609 135.50 593Q120 577 120 552Q120 527 139.50 507Q159 487 186.50 470.50Q214 454 241.50 435.50Q269 417 288.50 384Q308 351 308 308M225 288Q225 347 174 382Q115 369 115 316Q115 261 180 219Q225 243 225 288Z"  horiz-adv-x="331" vert-adv-y="1000"  />

      
      <glyph glyph-name="unia8" unicode="&#xa8;" d="M251 644Q251 644 259 636Q267 628 267 606Q267 584 251 568.50Q235 553 212 553Q190 553 174.50 568.50Q159 584 159 606Q159 628 174.50 644Q190 660 212 660Q235 660 251 644M97.50 644Q97.50 644 105.25 636Q113 628 113 606Q113 584 97 568.50Q81 553 59 553Q37 553 21 568.50Q5 584 5 606Q5 628 21 644Q37 660 59 660Q82 660 97.50 644Z"  horiz-adv-x="272" vert-adv-y="1000"  />

      
      <glyph glyph-name="unia9" unicode="&#xa9;" d="M633 577.50Q633 577.50 683.50 526.75Q734 476 734 334Q734 192 633 90.50Q532-11 389-11Q246-11 145 90.50Q44 192 44 334Q44 476 145 577.50Q246 679 389 679Q532 679 633 577.50M609 114Q609 114 655 160Q701 206 701 334Q701 462 609 554Q517 646 389 646Q261 646 169 554Q77 462 77 334Q77 206 169 114Q261 22 389 22Q517 22 609 114M512 215L540 189Q483 122 393 122Q306 122 245 183Q184 244 184 334Q184 426 244.50 486.50Q305 547 393 547Q483 547 539 481L512 454Q492 480 460 496Q428 512 393 512Q323 512 273.50 462Q224 412 224 334Q224 259 274 208Q324 157 393 157Q469 157 512 215Z"  horiz-adv-x="778" vert-adv-y="1000"  />

      
      <glyph glyph-name="uniaa" unicode="&#xaa;" d="M251 326L181 326L181 358Q158 318 111 318Q72 318 47 345.50Q22 373 22 421Q22 469 47 496.50Q72 524 111 524Q158 524 181 487L181 532Q181 593 129 593Q94 593 62 557L35 604Q78 648 143 648Q251 648 251 535L251 326M135 365Q167 365 181 398L181 448Q167 482 135 482Q115 482 103.50 465.50Q92 449 92 423Q92 397 103.50 381Q115 365 135 365Z"  horiz-adv-x="292" vert-adv-y="1000"  />

      
      <glyph glyph-name="uniab" unicode="&#xab;" d="M329 63L254 63L164 243L254 420L329 420L239 243L329 63M195 63L120 63L30 243L120 420L195 420L105 243L195 63Z"  horiz-adv-x="359" vert-adv-y="1000"  />

      
      <glyph glyph-name="uniac" unicode="&#xac;" d="M352 461L352 207L287 207L287 399L29 399L29 461L352 461Z"  horiz-adv-x="381" vert-adv-y="1000"  />

      
      <glyph glyph-name="uniad" unicode="&#xad;" d="M208 201L30 201L30 282L208 282L208 201Z"  horiz-adv-x="238" vert-adv-y="1000"  />

      
      <glyph glyph-name="uniae" unicode="&#xae;" d="M459 465Q459 377 397 315Q335 253 247 253Q159 253 97 315Q35 377 35 465Q35 553 97 615Q159 677 247 677Q336 677 397.50 615.50Q459 554 459 465M429 465Q429 541 376 594Q323 647 247 647Q171 647 118 594Q65 541 65 465Q65 390 118 336.50Q171 283 247 283Q323 283 376 336.50Q429 390 429 465M346 343L305 343L242 439L199 439L199 343L166 343L166 586L265 586Q297 586 320 565.50Q343 545 343 512Q343 477 320.50 458.50Q298 440 281 440L346 343M309 512Q309 531 295.50 544Q282 557 265 557L199 557L199 469L265 469Q282 469 295.50 481.50Q309 494 309 512Z"  horiz-adv-x="494" vert-adv-y="1000"  />

      
      <glyph glyph-name="uniaf" unicode="&#xaf;" d="M254 568L0 568L0 625L254 625L254 568Z"  horiz-adv-x="254" vert-adv-y="1000"  />

      
      <glyph glyph-name="unib0" unicode="&#xb0;" d="M237.50 639.50Q237.50 639.50 256.25 620.75Q275 602 275 550Q275 498 238 461Q201 424 148 424Q96 424 59 461Q22 498 22 550Q22 603 59 640Q96 677 148 677Q200 677 237.50 639.50M198.50 500.50Q198.50 500.50 209.25 510.75Q220 521 220 550Q220 579 198.50 600Q177 621 148 621Q119 621 98.50 600Q78 579 78 550Q78 521 98.50 500.50Q119 480 148 480Q177 480 198.50 500.50Z"  horiz-adv-x="298" vert-adv-y="1000"  />

      
      <glyph glyph-name="unib1" unicode="&#xb1;" d="M352 306L224 306L224 157L157 157L157 306L29 306L29 368L157 368L157 511L224 511L224 368L352 368L352 306M352 34L29 34L29 96L352 96L352 34Z"  horiz-adv-x="381" vert-adv-y="1000"  />

      
      <glyph glyph-name="unib2" unicode="&#xb2;" d="M261 421L29 421L29 475Q131 595 159 636.50Q187 678 187 714Q187 738 173 753Q159 768 136 768Q92 768 65 719L20 761Q64 827 140 827Q194 827 226.50 797.50Q259 768 259 716Q259 674 231 628Q203 582 120 480L261 480L261 421Z"  horiz-adv-x="281" vert-adv-y="1000"  />

      
      <glyph glyph-name="unib3" unicode="&#xb3;" d="M262 531Q262 478 229 446Q196 414 139 414Q56 414 17 479L65 522Q92 473 136 473Q190 473 190 535Q190 568 173 582.50Q156 597 132 597Q110 597 104 596L104 655Q109 654 129 654Q185 654 185 710Q185 768 135 768Q93 768 67 723L21 763Q62 827 139 827Q192 827 224 799.50Q256 772 256 719Q256 687 236.50 660.50Q217 634 189 628Q219 623 240.50 595.50Q262 568 262 531Z"  horiz-adv-x="281" vert-adv-y="1000"  />

      
      <glyph glyph-name="unib4" unicode="&#xb4;" d="M164 700L61 556L0 556L79 700L164 700Z"  horiz-adv-x="164" vert-adv-y="1000"  />

      
      <glyph glyph-name="unib5" unicode="&#xb5;" d="M144 4L144-184L50-184L50 483L144 483L144 126Q144 70 187 70Q232 70 258 139L258 483L352 483L352 115Q352 71 380 71Q384 71 394 73L401-6Q383-12 357-12Q313-12 290 8.50Q267 29 261 73Q249 35 228 11.50Q207-12 181-12Q156-12 144 4Z"  horiz-adv-x="413" vert-adv-y="1000"  />

      
      <glyph glyph-name="unib6" unicode="&#xb6;" d="M387-100L335-100L335 616L250 616L250-100L199-100L199 323Q128 323 77.50 373.50Q27 424 27 495Q27 566 77.50 616.50Q128 667 199 667L387 667L387-100Z"  horiz-adv-x="449" vert-adv-y="1000"  />

      
      <glyph glyph-name="unib7" unicode="&#xb7;" d="M165 290Q165 290 174.50 280.50Q184 271 184 245Q184 219 165 199.50Q146 180 119 180Q93 180 74 199.50Q55 219 55 245Q55 271 74 290Q93 309 119 309Q146 309 165 290Z"  horiz-adv-x="239" vert-adv-y="1000"  />

      
      <glyph glyph-name="unib8" unicode="&#xb8;" d="M82-193Q36-193 0-162L20-121Q52-148 80-148Q98-148 111-137.50Q124-127 124-110Q124-80 98-80Q82-80 71-93L34-72L65 11L116 11L90-54Q103-44 119-44Q143-44 159-63Q175-82 175-111Q175-147 148.50-170Q122-193 82-193Z"  horiz-adv-x="175" vert-adv-y="1000"  />

      
      <glyph glyph-name="unib9" unicode="&#xb9;" d="M184 421L111 421L111 727L53 667L11 710L121 821L184 821L184 421Z"  horiz-adv-x="232" vert-adv-y="1000"  />

      
      <glyph glyph-name="uniba" unicode="&#xba;" d="M150 318Q91 318 59 365.50Q27 413 27 483Q27 553 59 600.50Q91 648 150 648Q210 648 241.50 600.50Q273 553 273 483Q273 413 241.50 365.50Q210 318 150 318M150 375Q200 375 200 483Q200 590 150 590Q99 590 99 483Q99 375 150 375Z"  horiz-adv-x="300" vert-adv-y="1000"  />

      
      <glyph glyph-name="unibb" unicode="&#xbb;" d="M195 243L105 63L30 63L120 243L30 420L105 420L195 243M329 243L239 63L164 63L254 243L164 420L239 420L329 243Z"  horiz-adv-x="359" vert-adv-y="1000"  />

      
      <glyph glyph-name="unibc" unicode="&#xbc;" d="M184 267L111 267L111 573L53 513L11 556L121 667L184 667L184 267M603 95L568 95L568 0L496 0L496 95L351 95L351 153L480 400L568 400L568 153L603 153L603 95M496 153L496 319L413 153L496 153M469 667L192 0L146 0L422 667L469 667Z"  horiz-adv-x="617" vert-adv-y="1000"  />

      
      <glyph glyph-name="unibd" unicode="&#xbd;" d="M184 267L111 267L111 573L53 513L11 556L121 667L184 667L184 267M631 0L399 0L399 54Q501 174 529 216Q557 258 557 293Q557 317 543 332Q529 347 506 347Q462 347 435 298L390 340Q434 406 510 406Q564 406 596.50 376.50Q629 347 629 295Q629 253 601 207Q573 161 490 59L631 59L631 0M469 667L192 0L146 0L422 667L469 667Z"  horiz-adv-x="651" vert-adv-y="1000"  />

      
      <glyph glyph-name="unibe" unicode="&#xbe;" d="M639 95L604 95L604 0L532 0L532 95L387 95L387 153L516 400L604 400L604 153L639 153L639 95M532 153L532 319L449 153L532 153M505 667L228 0L182 0L458 667L505 667M262 377Q262 324 229 292Q196 260 139 260Q56 260 17 325L65 368Q92 319 136 319Q190 319 190 381Q190 414 173 428.50Q156 443 132 443Q110 443 104 442L104 501Q109 500 129 500Q185 500 185 556Q185 614 135 614Q93 614 67 569L21 609Q62 673 139 673Q192 673 224 645.50Q256 618 256 565Q256 533 236.50 506.50Q217 480 189 474Q219 469 240.50 441.50Q262 414 262 377Z"  horiz-adv-x="653" vert-adv-y="1000"  />

      
      <glyph glyph-name="unibf" unicode="&#xbf;" d="M194 289Q220 256 220 203Q220 165 204.50 131.50Q189 98 171 77.50Q153 57 137.50 27.50Q122-2 122-34Q122-62 139.50-84Q157-106 185-106Q219-106 245-74L289-140Q237-196 162-196Q98-196 58.50-155.50Q19-115 19-54Q19-12 36.50 26Q54 64 75.50 88Q97 112 114.50 144.50Q132 177 132 208Q132 236 115 257L194 289M112 474Q112 474 121.50 483.50Q131 493 157 493Q183 493 202.50 474Q222 455 222 429Q222 403 202.50 384Q183 365 157 365Q131 365 112 384Q93 403 93 429Q93 455 112 474Z"  horiz-adv-x="280" vert-adv-y="1000"  />

      
      <glyph glyph-name="unic0" unicode="&#xc0;" d="M395 0L288 0L265 136L133 136L110 0L3 0L139 667L259 667L395 0M253 228L199 548L145 228L253 228M240 723L179 723L76 867L161 867L240 723Z"  horiz-adv-x="398" vert-adv-y="1000"  />

      
      <glyph glyph-name="unic1" unicode="&#xc1;" d="M395 0L288 0L265 136L133 136L110 0L3 0L139 667L259 667L395 0M253 228L199 548L145 228L253 228M322 867L219 723L158 723L237 867L322 867Z"  horiz-adv-x="398" vert-adv-y="1000"  />

      
      <glyph glyph-name="unic2" unicode="&#xc2;" d="M308 723L255 723L198 821L145 723L91 723L155 867L242 867L308 723M395 0L288 0L265 136L133 136L110 0L3 0L139 667L259 667L395 0M253 228L199 548L145 228L253 228Z"  horiz-adv-x="398" vert-adv-y="1000"  />

      
      <glyph glyph-name="unic3" unicode="&#xc3;" d="M395 0L288 0L265 136L133 136L110 0L3 0L139 667L259 667L395 0M253 228L199 548L145 228L253 228M241 721Q223 721 209 734Q195 747 188 762.50Q181 778 172 791Q163 804 155 804Q128 804 128 727L78 727Q78 786 99 823.50Q120 861 158 861Q176 861 190.50 848Q205 835 212 819.50Q219 804 227.50 791Q236 778 245 778Q271 778 271 855L321 855Q321 795 300.50 758Q280 721 241 721Z"  horiz-adv-x="398" vert-adv-y="1000"  />

      
      <glyph glyph-name="unic4" unicode="&#xc4;" d="M314 811Q314 811 322 803Q330 795 330 773Q330 751 314 735.50Q298 720 275 720Q253 720 237.50 735.50Q222 751 222 773Q222 795 237.50 811Q253 827 275 827Q298 827 314 811M176 773Q176 751 160 735.50Q144 720 122 720Q100 720 84 735.50Q68 751 68 773Q68 795 84 811Q100 827 122 827Q144 827 160 811.50Q176 796 176 773M395 0L288 0L265 136L133 136L110 0L3 0L139 667L259 667L395 0M253 228L199 548L145 228L253 228Z"  horiz-adv-x="398" vert-adv-y="1000"  />

      
      <glyph glyph-name="unic5" unicode="&#xc5;" d="M395 0L288 0L265 136L133 136L110 0L3 0L139 667L259 667L395 0M253 228L199 548L145 228L253 228M199 693Q164 693 138.50 718.50Q113 744 113 780Q113 815 138.50 840.50Q164 866 199 866Q235 866 260 840.50Q285 815 285 780Q285 744 260 718.50Q235 693 199 693M199 737Q217 737 229.50 749.50Q242 762 242 780Q242 797 229.50 809.50Q217 822 199 822Q182 822 169.50 809.50Q157 797 157 780Q157 762 169.50 749.50Q182 737 199 737Z"  horiz-adv-x="398" vert-adv-y="1000"  />

      
      <glyph glyph-name="unic6" unicode="&#xc6;" d="M548 0L275 0L275 136L156 136L115 0L9 0L230 667L548 667L548 575L380 575L380 386L541 386L541 294L380 294L380 92L548 92L548 0M275 228L275 548L181 228L275 228Z"  horiz-adv-x="584" vert-adv-y="1000"  />

      
      <glyph glyph-name="unic7" unicode="&#xc7;" d="M225-189Q179-189 143-158L163-117Q195-144 223-144Q241-144 254-133.50Q267-123 267-106Q267-76 241-76Q225-76 214-89L177-68L199-9Q116 6 76 98Q36 190 36 333Q36 490 84 584Q132 678 230 678Q265 678 292 665.50Q319 653 337 630Q355 607 365.50 585Q376 563 385 533L301 502Q289 544 273 564.50Q257 585 230 585Q143 585 143 333Q143 81 230 81Q284 81 302 180L387 149Q351 1 248-11L233-50Q246-40 262-40Q286-40 302-59Q318-78 318-107Q318-143 291.50-166Q265-189 225-189Z"  horiz-adv-x="412" vert-adv-y="1000"  />

      
      <glyph glyph-name="unic8" unicode="&#xc8;" d="M330 0L57 0L57 667L330 667L330 575L161 575L161 386L323 386L323 294L161 294L161 92L330 92L330 0M234 723L173 723L70 867L155 867L234 723Z"  horiz-adv-x="367" vert-adv-y="1000"  />

      
      <glyph glyph-name="unic9" unicode="&#xc9;" d="M316 867L213 723L152 723L231 867L316 867M330 0L57 0L57 667L330 667L330 575L161 575L161 386L323 386L323 294L161 294L161 92L330 92L330 0Z"  horiz-adv-x="367" vert-adv-y="1000"  />

      
      <glyph glyph-name="unica" unicode="&#xca;" d="M303 723L250 723L193 821L140 723L86 723L150 867L237 867L303 723M330 0L57 0L57 667L330 667L330 575L161 575L161 386L323 386L323 294L161 294L161 92L330 92L330 0Z"  horiz-adv-x="367" vert-adv-y="1000"  />

      
      <glyph glyph-name="unicb" unicode="&#xcb;" d="M310 811Q310 811 318 803Q326 795 326 773Q326 751 310 735.50Q294 720 271 720Q249 720 233.50 735.50Q218 751 218 773Q218 795 233.50 811Q249 827 271 827Q294 827 310 811M172 773Q172 751 156 735.50Q140 720 118 720Q96 720 80 735.50Q64 751 64 773Q64 795 80 811Q96 827 118 827Q140 827 156 811.50Q172 796 172 773M330 0L57 0L57 667L330 667L330 575L161 575L161 386L323 386L323 294L161 294L161 92L330 92L330 0Z"  horiz-adv-x="367" vert-adv-y="1000"  />

      
      <glyph glyph-name="unicc" unicode="&#xcc;" d="M161 0L57 0L57 667L161 667L161 0M150 723L89 723L-14 867L71 867L150 723Z"  horiz-adv-x="218" vert-adv-y="1000"  />

      
      <glyph glyph-name="unicd" unicode="&#xcd;" d="M161 0L57 0L57 667L161 667L161 0M232 867L129 723L68 723L147 867L232 867Z"  horiz-adv-x="218" vert-adv-y="1000"  />

      
      <glyph glyph-name="unice" unicode="&#xce;" d="M218 723L165 723L108 821L55 723L1 723L65 867L152 867L218 723M161 0L57 0L57 667L161 667L161 0Z"  horiz-adv-x="218" vert-adv-y="1000"  />

      
      <glyph glyph-name="unicf" unicode="&#xcf;" d="M226 811Q226 811 234 803Q242 795 242 773Q242 751 226 735.50Q210 720 187 720Q165 720 149.50 735.50Q134 751 134 773Q134 795 149.50 811Q165 827 187 827Q210 827 226 811M88 773Q88 751 72 735.50Q56 720 34 720Q12 720-4 735.50Q-20 751-20 773Q-20 795-4 811Q12 827 34 827Q56 827 72 811.50Q88 796 88 773M161 0L57 0L57 667L161 667L161 0Z"  horiz-adv-x="218" vert-adv-y="1000"  />

      
      <glyph glyph-name="unid0" unicode="&#xd0;" d="M228 0L78 0L78 290L18 290L18 366L78 366L78 667L227 667Q335 667 387.50 576Q440 485 440 333Q440 180 388 90Q336 0 228 0M227 92Q333 92 333 333Q333 575 227 575L182 575L182 366L256 366L256 290L182 290L182 92L227 92Z"  horiz-adv-x="476" vert-adv-y="1000"  />

      
      <glyph glyph-name="unid1" unicode="&#xd1;" d="M271 721Q253 721 239 734Q225 747 218 762.50Q211 778 202 791Q193 804 185 804Q158 804 158 727L108 727Q108 786 129 823.50Q150 861 188 861Q206 861 220.50 848Q235 835 242 819.50Q249 804 257.50 791Q266 778 275 778Q301 778 301 855L351 855Q351 795 330.50 758Q310 721 271 721M407 0L308 0L161 386L161 0L57 0L57 667L161 667L302 292L302 667L407 667L407 0Z"  horiz-adv-x="463" vert-adv-y="1000"  />

      
      <glyph glyph-name="unid2" unicode="&#xd2;" d="M270 723L209 723L106 867L191 867L270 723M375 83Q375 83 351 35.50Q327-12 229-12Q131-12 83.50 82.50Q36 177 36 333Q36 488 83.50 583Q131 678 229 678Q327 678 375 583Q423 488 423 333Q423 178 375 83M229 81Q316 81 316 333Q316 585 229 585Q143 585 143 333Q143 81 229 81Z"  horiz-adv-x="459" vert-adv-y="1000"  />

      
      <glyph glyph-name="unid3" unicode="&#xd3;" d="M352 867L249 723L188 723L267 867L352 867M375 83Q375 83 351 35.50Q327-12 229-12Q131-12 83.50 82.50Q36 177 36 333Q36 488 83.50 583Q131 678 229 678Q327 678 375 583Q423 488 423 333Q423 178 375 83M229 81Q316 81 316 333Q316 585 229 585Q143 585 143 333Q143 81 229 81Z"  horiz-adv-x="459" vert-adv-y="1000"  />

      
      <glyph glyph-name="unid4" unicode="&#xd4;" d="M339 723L286 723L229 821L176 723L122 723L186 867L273 867L339 723M375 83Q375 83 351 35.50Q327-12 229-12Q131-12 83.50 82.50Q36 177 36 333Q36 488 83.50 583Q131 678 229 678Q327 678 375 583Q423 488 423 333Q423 178 375 83M229 81Q316 81 316 333Q316 585 229 585Q143 585 143 333Q143 81 229 81Z"  horiz-adv-x="459" vert-adv-y="1000"  />

      
      <glyph glyph-name="unid5" unicode="&#xd5;" d="M375 83Q375 83 351 35.50Q327-12 229-12Q131-12 83.50 82.50Q36 177 36 333Q36 488 83.50 583Q131 678 229 678Q327 678 375 583Q423 488 423 333Q423 178 375 83M229 81Q316 81 316 333Q316 585 229 585Q143 585 143 333Q143 81 229 81M272 721Q254 721 240 734Q226 747 219 762.50Q212 778 203 791Q194 804 186 804Q159 804 159 727L109 727Q109 786 130 823.50Q151 861 189 861Q207 861 221.50 848Q236 835 243 819.50Q250 804 258.50 791Q267 778 276 778Q302 778 302 855L352 855Q352 795 331.50 758Q311 721 272 721Z"  horiz-adv-x="459" vert-adv-y="1000"  />

      
      <glyph glyph-name="unid6" unicode="&#xd6;" d="M345 811Q345 811 353 803Q361 795 361 773Q361 751 345 735.50Q329 720 306 720Q284 720 268.50 735.50Q253 751 253 773Q253 795 268.50 811Q284 827 306 827Q329 827 345 811M207 773Q207 751 191 735.50Q175 720 153 720Q131 720 115 735.50Q99 751 99 773Q99 795 115 811Q131 827 153 827Q176 827 191.50 811.50Q207 796 207 773M375 83Q375 83 351 35.50Q327-12 229-12Q131-12 83.50 82.50Q36 177 36 333Q36 488 83.50 583Q131 678 229 678Q327 678 375 583Q423 488 423 333Q423 178 375 83M229 81Q316 81 316 333Q316 585 229 585Q143 585 143 333Q143 81 229 81Z"  horiz-adv-x="459" vert-adv-y="1000"  />

      
      <glyph glyph-name="unid7" unicode="&#xd7;" d="M294 187L190 290L87 187L43 231L147 334L43 437L87 481L190 378L294 481L338 437L234 334L338 231L294 187Z"  horiz-adv-x="381" vert-adv-y="1000"  />

      
      <glyph glyph-name="unid8" unicode="&#xd8;" d="M229-12Q166-12 124 28L111 0L47 0L84 81Q36 170 36 333Q36 488 83.50 583Q131 678 229 678Q291 678 335 637L349 667L413 667L375 583Q423 491 423 333Q423 178 375 83Q327-12 229-12M143 333Q143 265 148 224L288 534Q267 585 229 585Q143 585 143 333M229 81Q316 81 316 333Q316 392 310 440L170 131Q192 81 229 81Z"  horiz-adv-x="459" vert-adv-y="1000"  />

      
      <glyph glyph-name="unid9" unicode="&#xd9;" d="M357.50 37.50Q357.50 37.50 332.75 12.75Q308-12 232-12Q156-12 106.50 37.50Q57 87 57 184L57 667L161 667L161 179Q161 80 232 80Q303 80 303 179L303 667L407 667L407 184Q407 87 357.50 37.50M273 723L212 723L109 867L194 867L273 723Z"  horiz-adv-x="464" vert-adv-y="1000"  />

      
      <glyph glyph-name="unida" unicode="&#xda;" d="M355 867L252 723L191 723L270 867L355 867M357.50 37.50Q357.50 37.50 332.75 12.75Q308-12 232-12Q156-12 106.50 37.50Q57 87 57 184L57 667L161 667L161 179Q161 80 232 80Q303 80 303 179L303 667L407 667L407 184Q407 87 357.50 37.50Z"  horiz-adv-x="464" vert-adv-y="1000"  />

      
      <glyph glyph-name="unidb" unicode="&#xdb;" d="M341 723L288 723L231 821L178 723L124 723L188 867L275 867L341 723M357.50 37.50Q357.50 37.50 332.75 12.75Q308-12 232-12Q156-12 106.50 37.50Q57 87 57 184L57 667L161 667L161 179Q161 80 232 80Q303 80 303 179L303 667L407 667L407 184Q407 87 357.50 37.50Z"  horiz-adv-x="464" vert-adv-y="1000"  />

      
      <glyph glyph-name="unidc" unicode="&#xdc;" d="M347 811Q347 811 355 803Q363 795 363 773Q363 751 347 735.50Q331 720 308 720Q286 720 270.50 735.50Q255 751 255 773Q255 795 270.50 811Q286 827 308 827Q331 827 347 811M209 773Q209 751 193 735.50Q177 720 155 720Q133 720 117 735.50Q101 751 101 773Q101 795 117 811Q133 827 155 827Q178 827 193.50 811.50Q209 796 209 773M357.50 37.50Q357.50 37.50 332.75 12.75Q308-12 232-12Q156-12 106.50 37.50Q57 87 57 184L57 667L161 667L161 179Q161 80 232 80Q303 80 303 179L303 667L407 667L407 184Q407 87 357.50 37.50Z"  horiz-adv-x="464" vert-adv-y="1000"  />

      
      <glyph glyph-name="unidd" unicode="&#xdd;" d="M255 0L151 0L151 279L-3 667L109 667L203 382L298 667L408 667L255 279L255 0M326 867L223 723L162 723L241 867L326 867Z"  horiz-adv-x="405" vert-adv-y="1000"  />

      
      <glyph glyph-name="unide" unicode="&#xde;" d="M161 0L57 0L57 667L161 667L161 552L218 552Q305 552 349.50 493Q394 434 394 345Q394 257 349.50 198.50Q305 140 218 140L161 140L161 0M208 232Q246 232 266.50 262.50Q287 293 287 345Q287 397 266.50 428.50Q246 460 208 460L161 460L161 232L208 232Z"  horiz-adv-x="418" vert-adv-y="1000"  />

      
      <glyph glyph-name="unidf" unicode="&#xdf;" d="M475 126Q475 70 434.50 29Q394-12 333-12Q249-12 195 50L231 116Q271 64 316 64Q341 64 358.50 80.50Q376 97 376 124Q376 149 358.50 169Q341 189 316 204.50Q291 220 266 238.50Q241 257 223.50 287.50Q206 318 206 358Q206 389 221 414.50Q236 440 254 454Q272 468 287 489Q302 510 302 532Q302 558 281.50 576Q261 594 230 594Q195 594 173 571Q151 548 151 502L151 0L58 0L58 502Q58 578 105 627.50Q152 677 230 677Q299 677 347.50 638Q396 599 396 542Q396 506 380.50 478Q365 450 347 435.50Q329 421 313.50 402.50Q298 384 298 366Q298 346 311 329.50Q324 313 344 302Q364 291 386.50 275Q409 259 429 242Q449 225 462 194.50Q475 164 475 126Z"  horiz-adv-x="489" vert-adv-y="1000"  />

      
      <glyph glyph-name="unie0" unicode="&#xe0;" d="M348 0L254 0L254 45Q238 18 210.50 3Q183-12 156-12Q99-12 63.50 32Q28 76 28 149Q28 221 63.50 264Q99 307 156 307Q183 307 211 293Q239 279 254 253L254 320Q254 415 180 415Q129 415 83 366L47 432Q105 495 198 495Q348 495 348 340L348 0M187 53Q207 53 225 68.50Q243 84 254 110L254 183Q243 209 225 225Q207 241 187 241Q155 241 138.50 214.50Q122 188 122 147Q122 106 138.50 79.50Q155 53 187 53M239 556L178 556L75 700L160 700L239 556Z"  horiz-adv-x="398" vert-adv-y="1000"  />

      
      <glyph glyph-name="unie1" unicode="&#xe1;" d="M348 0L254 0L254 45Q238 18 210.50 3Q183-12 156-12Q99-12 63.50 32Q28 76 28 149Q28 221 63.50 264Q99 307 156 307Q183 307 211 293Q239 279 254 253L254 320Q254 415 180 415Q129 415 83 366L47 432Q105 495 198 495Q348 495 348 340L348 0M187 53Q207 53 225 68.50Q243 84 254 110L254 183Q243 209 225 225Q207 241 187 241Q155 241 138.50 214.50Q122 188 122 147Q122 106 138.50 79.50Q155 53 187 53M321 700L218 556L157 556L236 700L321 700Z"  horiz-adv-x="398" vert-adv-y="1000"  />

      
      <glyph glyph-name="unie2" unicode="&#xe2;" d="M348 0L254 0L254 45Q238 18 210.50 3Q183-12 156-12Q99-12 63.50 32Q28 76 28 149Q28 221 63.50 264Q99 307 156 307Q183 307 211 293Q239 279 254 253L254 320Q254 415 180 415Q129 415 83 366L47 432Q105 495 198 495Q348 495 348 340L348 0M187 53Q207 53 225 68.50Q243 84 254 110L254 183Q243 209 225 225Q207 241 187 241Q155 241 138.50 214.50Q122 188 122 147Q122 106 138.50 79.50Q155 53 187 53M310 556L257 556L200 654L147 556L93 556L157 700L244 700L310 556Z"  horiz-adv-x="398" vert-adv-y="1000"  />

      
      <glyph glyph-name="unie3" unicode="&#xe3;" d="M348 0L254 0L254 45Q238 18 210.50 3Q183-12 156-12Q99-12 63.50 32Q28 76 28 149Q28 221 63.50 264Q99 307 156 307Q183 307 211 293Q239 279 254 253L254 320Q254 415 180 415Q129 415 83 366L47 432Q105 495 198 495Q348 495 348 340L348 0M187 53Q207 53 225 68.50Q243 84 254 110L254 183Q243 209 225 225Q207 241 187 241Q155 241 138.50 214.50Q122 188 122 147Q122 106 138.50 79.50Q155 53 187 53M241 554Q223 554 209 567Q195 580 188 595.50Q181 611 172 624Q163 637 155 637Q128 637 128 560L78 560Q78 619 99 656.50Q120 694 158 694Q176 694 190.50 681Q205 668 212 652.50Q219 637 227.50 624Q236 611 245 611Q271 611 271 688L321 688Q321 628 300.50 591Q280 554 241 554Z"  horiz-adv-x="398" vert-adv-y="1000"  />

      
      <glyph glyph-name="unie4" unicode="&#xe4;" d="M348 0L254 0L254 45Q238 18 210.50 3Q183-12 156-12Q99-12 63.50 32Q28 76 28 149Q28 221 63.50 264Q99 307 156 307Q183 307 211 293Q239 279 254 253L254 320Q254 415 180 415Q129 415 83 366L47 432Q105 495 198 495Q348 495 348 340L348 0M187 53Q207 53 225 68.50Q243 84 254 110L254 183Q243 209 225 225Q207 241 187 241Q155 241 138.50 214.50Q122 188 122 147Q122 106 138.50 79.50Q155 53 187 53M315 644Q315 644 323 636Q331 628 331 606Q331 584 315 568.50Q299 553 276 553Q254 553 238.50 568.50Q223 584 223 606Q223 628 238.50 644Q254 660 276 660Q299 660 315 644M161.50 644Q161.50 644 169.25 636Q177 628 177 606Q177 584 161 568.50Q145 553 123 553Q101 553 85 568.50Q69 584 69 606Q69 628 85 644Q101 660 123 660Q146 660 161.50 644Z"  horiz-adv-x="398" vert-adv-y="1000"  />

      
      <glyph glyph-name="unie5" unicode="&#xe5;" d="M348 0L254 0L254 45Q238 18 210.50 3Q183-12 156-12Q99-12 63.50 32Q28 76 28 149Q28 221 63.50 264Q99 307 156 307Q183 307 211 293Q239 279 254 253L254 320Q254 415 180 415Q129 415 83 366L47 432Q105 495 198 495Q348 495 348 340L348 0M187 53Q207 53 225 68.50Q243 84 254 110L254 183Q243 209 225 225Q207 241 187 241Q155 241 138.50 214.50Q122 188 122 147Q122 106 138.50 79.50Q155 53 187 53M199 540Q164 540 138.50 565.50Q113 591 113 627Q113 662 138.50 687.50Q164 713 199 713Q235 713 260 687.50Q285 662 285 627Q285 591 260 565.50Q235 540 199 540M199 584Q217 584 229.50 596.50Q242 609 242 627Q242 644 229.50 656.50Q217 669 199 669Q182 669 169.50 656.50Q157 644 157 627Q157 609 169.50 596.50Q182 584 199 584Z"  horiz-adv-x="398" vert-adv-y="1000"  />

      
      <glyph glyph-name="unie6" unicode="&#xe6;" d="M584 211L349 211Q350 144 374 104.50Q398 65 445 65Q490 65 523 117L571 66Q517-12 434-12Q386-12 358 7Q330 26 306 65Q259-12 170-12Q102-12 65 30Q28 72 28 146Q28 219 63.50 263Q99 307 158 307Q186 307 214.50 293Q243 279 259 253L259 320Q259 415 183 415Q131 415 83 366L47 432Q76 464 116.50 479.50Q157 495 192 495Q236 495 265.50 472.50Q295 450 306 418Q347 495 424 495Q504 495 544 424.50Q584 354 584 242L584 211M349 278L493 278Q493 418 422 418Q395 418 377.50 394Q360 370 354.50 341Q349 312 349 278M259 158L259 183Q233 241 189 241Q159 241 140.50 216Q122 191 122 151Q122 108 140 84.50Q158 61 189 61Q219 61 239 89.50Q259 118 259 158Z"  horiz-adv-x="611" vert-adv-y="1000"  />

      
      <glyph glyph-name="unie7" unicode="&#xe7;" d="M203-191Q157-191 121-160L141-119Q173-146 201-146Q219-146 232-135.50Q245-125 245-108Q245-78 219-78Q203-78 192-91L155-70L177-9Q108 3 69.50 71.50Q31 140 31 242Q31 354 77.50 424.50Q124 495 205 495Q274 495 314 451L281 379Q252 412 220 412Q175 412 151.50 363.50Q128 315 128 242Q128 169 151.50 120Q175 71 220 71Q252 71 281 104L314 32Q283-4 227-11L211-52Q224-42 240-42Q264-42 280-61Q296-80 296-109Q296-145 269.50-168Q243-191 203-191Z"  horiz-adv-x="333" vert-adv-y="1000"  />

      
      <glyph glyph-name="unie8" unicode="&#xe8;" d="M213-12Q125-12 78 58Q31 128 31 242Q31 353 74.50 424Q118 495 201 495Q284 495 324 425.50Q364 356 364 244L364 211L123 211Q124 145 149 105Q174 65 222 65Q267 65 302 117L351 66Q295-12 213-12M272 278Q272 418 198 418Q158 418 140.50 375.50Q123 333 123 278L272 278M242 556L181 556L78 700L163 700L242 556Z"  horiz-adv-x="391" vert-adv-y="1000"  />

      
      <glyph glyph-name="unie9" unicode="&#xe9;" d="M324 700L221 556L160 556L239 700L324 700M213-12Q125-12 78 58Q31 128 31 242Q31 353 74.50 424Q118 495 201 495Q284 495 324 425.50Q364 356 364 244L364 211L123 211Q124 145 149 105Q174 65 222 65Q267 65 302 117L351 66Q295-12 213-12M272 278Q272 418 198 418Q158 418 140.50 375.50Q123 333 123 278L272 278Z"  horiz-adv-x="391" vert-adv-y="1000"  />

      
      <glyph glyph-name="uniea" unicode="&#xea;" d="M310 556L257 556L200 654L147 556L93 556L157 700L244 700L310 556M213-12Q125-12 78 58Q31 128 31 242Q31 353 74.50 424Q118 495 201 495Q284 495 324 425.50Q364 356 364 244L364 211L123 211Q124 145 149 105Q174 65 222 65Q267 65 302 117L351 66Q295-12 213-12M272 278Q272 418 198 418Q158 418 140.50 375.50Q123 333 123 278L272 278Z"  horiz-adv-x="391" vert-adv-y="1000"  />

      
      <glyph glyph-name="unieb" unicode="&#xeb;" d="M316 644Q316 644 324 636Q332 628 332 606Q332 584 316 568.50Q300 553 277 553Q255 553 239.50 568.50Q224 584 224 606Q224 628 239.50 644Q255 660 277 660Q300 660 316 644M162 644Q162 644 170 636Q178 628 178 606Q178 584 162 568.50Q146 553 124 553Q102 553 86 568.50Q70 584 70 606Q70 628 86 644Q102 660 124 660Q146 660 162 644M213-12Q125-12 78 58Q31 128 31 242Q31 353 74.50 424Q118 495 201 495Q284 495 324 425.50Q364 356 364 244L364 211L123 211Q124 145 149 105Q174 65 222 65Q267 65 302 117L351 66Q295-12 213-12M272 278Q272 418 198 418Q158 418 140.50 375.50Q123 333 123 278L272 278Z"  horiz-adv-x="391" vert-adv-y="1000"  />

      
      <glyph glyph-name="uniec" unicode="&#xec;" d="M144 0L50 0L50 483L144 483L144 0M138 556L77 556L-26 700L59 700L138 556Z"  horiz-adv-x="194" vert-adv-y="1000"  />

      
      <glyph glyph-name="unied" unicode="&#xed;" d="M220 700L117 556L56 556L135 700L220 700M144 0L50 0L50 483L144 483L144 0Z"  horiz-adv-x="194" vert-adv-y="1000"  />

      
      <glyph glyph-name="uniee" unicode="&#xee;" d="M206 556L153 556L96 654L43 556L-11 556L53 700L140 700L206 556M144 0L50 0L50 483L144 483L144 0Z"  horiz-adv-x="194" vert-adv-y="1000"  />

      
      <glyph glyph-name="unief" unicode="&#xef;" d="M212 644Q212 644 220 636Q228 628 228 606Q228 584 212 568.50Q196 553 173 553Q151 553 135.50 568.50Q120 584 120 606Q120 628 135.50 644Q151 660 173 660Q196 660 212 644M58 644Q58 644 66 636Q74 628 74 606Q74 584 58 568.50Q42 553 20 553Q-2 553-18 568.50Q-34 584-34 606Q-34 628-18 644Q-2 660 20 660Q42 660 58 644M144 0L50 0L50 483L144 483L144 0Z"  horiz-adv-x="194" vert-adv-y="1000"  />

      
      <glyph glyph-name="unif0" unicode="&#xf0;" d="M128 504L107 551L202 593Q182 635 168 657L251 696Q272 659 286 630L353 660L373 614L307 584Q370 430 370 264Q370 137 328.50 62.50Q287-12 201-12Q116-12 73.50 57.50Q31 127 31 231Q31 333 68.50 402.50Q106 472 176 472Q236 472 265 407Q253 472 223 546L128 504M129 231Q129 71 201 71Q273 71 273 231Q273 389 201 389Q129 389 129 231Z"  horiz-adv-x="402" vert-adv-y="1000"  />

      
      <glyph glyph-name="unif1" unicode="&#xf1;" d="M352 0L258 0L258 356Q258 412 217 412Q194 412 174.50 391.50Q155 371 144 342L144 0L50 0L50 483L144 483L144 418Q160 449 191.50 472Q223 495 255 495Q352 495 352 387L352 0M244 554Q226 554 212 567Q198 580 191 595.50Q184 611 175 624Q166 637 158 637Q131 637 131 560L81 560Q81 619 102 656.50Q123 694 161 694Q179 694 193.50 681Q208 668 215 652.50Q222 637 230.50 624Q239 611 248 611Q274 611 274 688L324 688Q324 628 303.50 591Q283 554 244 554Z"  horiz-adv-x="402" vert-adv-y="1000"  />

      
      <glyph glyph-name="unif2" unicode="&#xf2;" d="M328 60.50Q328 60.50 307 24.25Q286-12 201-12Q116-12 73.50 60.50Q31 133 31 242Q31 351 73.50 423Q116 495 201 495Q286 495 328 423Q370 351 370 242Q370 133 328 60.50M129 242Q129 71 201 71Q273 71 273 242Q273 412 201 412Q129 412 129 242M242 556L181 556L78 700L163 700L242 556Z"  horiz-adv-x="402" vert-adv-y="1000"  />

      
      <glyph glyph-name="unif3" unicode="&#xf3;" d="M324 700L221 556L160 556L239 700L324 700M328 60.50Q328 60.50 307 24.25Q286-12 201-12Q116-12 73.50 60.50Q31 133 31 242Q31 351 73.50 423Q116 495 201 495Q286 495 328 423Q370 351 370 242Q370 133 328 60.50M129 242Q129 71 201 71Q273 71 273 242Q273 412 201 412Q129 412 129 242Z"  horiz-adv-x="402" vert-adv-y="1000"  />

      
      <glyph glyph-name="unif4" unicode="&#xf4;" d="M310 556L257 556L200 654L147 556L93 556L157 700L244 700L310 556M328 60.50Q328 60.50 307 24.25Q286-12 201-12Q116-12 73.50 60.50Q31 133 31 242Q31 351 73.50 423Q116 495 201 495Q286 495 328 423Q370 351 370 242Q370 133 328 60.50M129 242Q129 71 201 71Q273 71 273 242Q273 412 201 412Q129 412 129 242Z"  horiz-adv-x="402" vert-adv-y="1000"  />

      
      <glyph glyph-name="unif5" unicode="&#xf5;" d="M328 60.50Q328 60.50 307 24.25Q286-12 201-12Q116-12 73.50 60.50Q31 133 31 242Q31 351 73.50 423Q116 495 201 495Q286 495 328 423Q370 351 370 242Q370 133 328 60.50M129 242Q129 71 201 71Q273 71 273 242Q273 412 201 412Q129 412 129 242M243 554Q225 554 211 567Q197 580 190 595.50Q183 611 174 624Q165 637 157 637Q130 637 130 560L80 560Q80 619 101 656.50Q122 694 160 694Q178 694 192.50 681Q207 668 214 652.50Q221 637 229.50 624Q238 611 247 611Q273 611 273 688L323 688Q323 628 302.50 591Q282 554 243 554Z"  horiz-adv-x="402" vert-adv-y="1000"  />

      
      <glyph glyph-name="unif6" unicode="&#xf6;" d="M316 644Q316 644 324 636Q332 628 332 606Q332 584 316 568.50Q300 553 277 553Q255 553 239.50 568.50Q224 584 224 606Q224 628 239.50 644Q255 660 277 660Q300 660 316 644M162 644Q162 644 170 636Q178 628 178 606Q178 584 162 568.50Q146 553 124 553Q102 553 86 568.50Q70 584 70 606Q70 628 86 644Q102 660 124 660Q146 660 162 644M328 60.50Q328 60.50 307 24.25Q286-12 201-12Q116-12 73.50 60.50Q31 133 31 242Q31 351 73.50 423Q116 495 201 495Q286 495 328 423Q370 351 370 242Q370 133 328 60.50M129 242Q129 71 201 71Q273 71 273 242Q273 412 201 412Q129 412 129 242Z"  horiz-adv-x="402" vert-adv-y="1000"  />

      
      <glyph glyph-name="unif7" unicode="&#xf7;" d="M224 516Q224 516 231.50 508.50Q239 501 239 480Q239 459 224 443.50Q209 428 188 428Q167 428 152 443.50Q137 459 137 480Q137 501 152 516Q167 531 188 531Q209 531 224 516M345 306L29 306L29 368L345 368L345 306M224 227.50Q224 227.50 231.50 219.75Q239 212 239 191Q239 170 224 155Q209 140 188 140Q167 140 152 155Q137 170 137 191Q137 212 152 227.50Q167 243 188 243Q209 243 224 227.50Z"  horiz-adv-x="374" vert-adv-y="1000"  />

      
      <glyph glyph-name="unif8" unicode="&#xf8;" d="M94 0L39 0L73 61Q31 129 31 242Q31 351 73.50 423Q116 495 201 495Q256 495 295 461L308 483L363 483L328 421Q370 353 370 242Q370 133 328 60.50Q286-12 201-12Q145-12 106 22L94 0M201 71Q273 71 273 242Q273 283 269 314L151 104Q168 71 201 71M129 242Q129 200 133 169L250 379Q232 412 201 412Q129 412 129 242Z"  horiz-adv-x="402" vert-adv-y="1000"  />

      
      <glyph glyph-name="unif9" unicode="&#xf9;" d="M352 0L258 0L258 63Q242 32 211.50 10Q181-12 147-12Q50-12 50 95L50 483L144 483L144 126Q144 71 185 71Q208 71 228 91Q248 111 258 139L258 483L352 483L352 0M242 556L181 556L78 700L163 700L242 556Z"  horiz-adv-x="402" vert-adv-y="1000"  />

      
      <glyph glyph-name="unifa" unicode="&#xfa;" d="M324 700L221 556L160 556L239 700L324 700M352 0L258 0L258 63Q242 32 211.50 10Q181-12 147-12Q50-12 50 95L50 483L144 483L144 126Q144 71 185 71Q208 71 228 91Q248 111 258 139L258 483L352 483L352 0Z"  horiz-adv-x="402" vert-adv-y="1000"  />

      
      <glyph glyph-name="unifb" unicode="&#xfb;" d="M310 556L257 556L200 654L147 556L93 556L157 700L244 700L310 556M352 0L258 0L258 63Q242 32 211.50 10Q181-12 147-12Q50-12 50 95L50 483L144 483L144 126Q144 71 185 71Q208 71 228 91Q248 111 258 139L258 483L352 483L352 0Z"  horiz-adv-x="402" vert-adv-y="1000"  />

      
      <glyph glyph-name="unifc" unicode="&#xfc;" d="M317 644Q317 644 325 636Q333 628 333 606Q333 584 317 568.50Q301 553 278 553Q256 553 240.50 568.50Q225 584 225 606Q225 628 240.50 644Q256 660 278 660Q301 660 317 644M163.50 644Q163.50 644 171.25 636Q179 628 179 606Q179 584 163 568.50Q147 553 125 553Q103 553 87 568.50Q71 584 71 606Q71 628 87 644Q103 660 125 660Q148 660 163.50 644M352 0L258 0L258 63Q242 32 211.50 10Q181-12 147-12Q50-12 50 95L50 483L144 483L144 126Q144 71 185 71Q208 71 228 91Q248 111 258 139L258 483L352 483L352 0Z"  horiz-adv-x="402" vert-adv-y="1000"  />

      
      <glyph glyph-name="unifd" unicode="&#xfd;" d="M37-189L51-107Q61-113 74-113Q104-113 115-74L131-13L5 483L105 483L178 119L253 483L352 483L204-94Q188-152 161-174Q134-196 86-196Q54-196 37-189M301 700L198 556L137 556L216 700L301 700Z"  horiz-adv-x="357" vert-adv-y="1000"  />

      
      <glyph glyph-name="unife" unicode="&#xfe;" d="M237-12Q172-12 144 60L144-184L50-184L50 667L144 667L144 424Q175 495 237 495Q305 495 340 427Q375 359 375 242Q375 126 340 57Q305-12 237-12M208 71Q278 71 278 242Q278 412 208 412Q188 412 170 392.50Q152 373 144 345L144 139Q153 111 170.50 91Q188 71 208 71Z"  horiz-adv-x="406" vert-adv-y="1000"  />

      
      <glyph glyph-name="uniff" unicode="&#xff;" d="M37-189L51-107Q61-113 74-113Q104-113 115-74L131-13L5 483L105 483L178 119L253 483L352 483L204-94Q188-152 161-174Q134-196 86-196Q54-196 37-189M298 644Q298 644 306 636Q314 628 314 606Q314 584 298 568.50Q282 553 259 553Q237 553 221.50 568.50Q206 584 206 606Q206 628 221.50 644Q237 660 259 660Q282 660 298 644M144 644Q144 644 152 636Q160 628 160 606Q160 584 144 568.50Q128 553 106 553Q84 553 68 568.50Q52 584 52 606Q52 628 68 644Q84 660 106 660Q128 660 144 644Z"  horiz-adv-x="357" vert-adv-y="1000"  />

      
      <glyph glyph-name="uni0100" unicode="&#x0100;" d="M395 0L288 0L265 136L133 136L110 0L3 0L139 667L259 667L395 0M253 228L199 548L145 228L253 228M326 735L72 735L72 792L326 792L326 735Z"  horiz-adv-x="398" vert-adv-y="1000"  />

      
      <glyph glyph-name="uni0101" unicode="&#x0101;" d="M348 0L254 0L254 45Q238 18 210.50 3Q183-12 156-12Q99-12 63.50 32Q28 76 28 149Q28 221 63.50 264Q99 307 156 307Q183 307 211 293Q239 279 254 253L254 320Q254 415 180 415Q129 415 83 366L47 432Q105 495 198 495Q348 495 348 340L348 0M187 53Q207 53 225 68.50Q243 84 254 110L254 183Q243 209 225 225Q207 241 187 241Q155 241 138.50 214.50Q122 188 122 147Q122 106 138.50 79.50Q155 53 187 53M326 568L72 568L72 625L326 625L326 568Z"  horiz-adv-x="398" vert-adv-y="1000"  />

      
      <glyph glyph-name="uni0102" unicode="&#x0102;" d="M395 0L288 0L265 136L133 136L110 0L3 0L139 667L259 667L395 0M253 228L199 548L145 228L253 228M321 777Q275 715 199 715Q123 715 77 777L123 812Q149 772 199 772Q249 772 275 812L321 777Z"  horiz-adv-x="398" vert-adv-y="1000"  />

      
      <glyph glyph-name="uni0103" unicode="&#x0103;" d="M348 0L254 0L254 45Q238 18 210.50 3Q183-12 156-12Q99-12 63.50 32Q28 76 28 149Q28 221 63.50 264Q99 307 156 307Q183 307 211 293Q239 279 254 253L254 320Q254 415 180 415Q129 415 83 366L47 432Q105 495 198 495Q348 495 348 340L348 0M187 53Q207 53 225 68.50Q243 84 254 110L254 183Q243 209 225 225Q207 241 187 241Q155 241 138.50 214.50Q122 188 122 147Q122 106 138.50 79.50Q155 53 187 53M321 610Q275 548 199 548Q123 548 77 610L123 645Q149 605 199 605Q249 605 275 645L321 610Z"  horiz-adv-x="398" vert-adv-y="1000"  />

      
      <glyph glyph-name="uni0104" unicode="&#x0104;" d="M389-111L431-133Q412-186 359-186Q324-186 303.50-166Q283-146 283-107Q283-49 329 0L288 0L265 136L133 136L110 0L3 0L139 667L259 667L395 0Q334-43 334-104Q334-142 360-142Q382-142 389-111M253 228L199 548L145 228L253 228Z"  horiz-adv-x="398" vert-adv-y="1000"  />

      
      <glyph glyph-name="uni0105" unicode="&#x0105;" d="M342-111L384-133Q365-186 312-186Q277-186 256.50-166Q236-146 236-107Q236-49 282 0L254 0L254 45Q238 18 210.50 3Q183-12 156-12Q99-12 63.50 32Q28 76 28 149Q28 221 63.50 264Q99 307 156 307Q183 307 211 293Q239 279 254 253L254 320Q254 415 180 415Q129 415 83 366L47 432Q105 495 198 495Q348 495 348 340L348 0Q287-43 287-104Q287-142 313-142Q335-142 342-111M187 53Q207 53 225 68.50Q243 84 254 110L254 183Q243 209 225 225Q207 241 187 241Q155 241 138.50 214.50Q122 188 122 147Q122 106 138.50 79.50Q155 53 187 53Z"  horiz-adv-x="398" vert-adv-y="1000"  />

      
      <glyph glyph-name="uni0106" unicode="&#x0106;" d="M353 867L250 723L189 723L268 867L353 867M230-12Q132-12 84 82.50Q36 177 36 333Q36 490 84 584Q132 678 230 678Q265 678 292 665.50Q319 653 337 630Q355 607 365.50 585Q376 563 385 533L301 502Q289 544 273 564.50Q257 585 230 585Q143 585 143 333Q143 81 230 81Q284 81 302 180L387 149Q348-12 230-12Z"  horiz-adv-x="412" vert-adv-y="1000"  />

      
      <glyph glyph-name="uni0107" unicode="&#x0107;" d="M328 700L225 556L164 556L243 700L328 700M205-12Q124-12 77.50 59Q31 130 31 242Q31 354 77.50 424.50Q124 495 205 495Q274 495 314 451L281 379Q252 412 220 412Q175 412 151.50 363.50Q128 315 128 242Q128 169 151.50 120Q175 71 220 71Q252 71 281 104L314 32Q277-12 205-12Z"  horiz-adv-x="333" vert-adv-y="1000"  />

      
      <glyph glyph-name="uni0108" unicode="&#x0108;" d="M339 723L286 723L229 821L176 723L122 723L186 867L273 867L339 723M230-12Q132-12 84 82.50Q36 177 36 333Q36 490 84 584Q132 678 230 678Q265 678 292 665.50Q319 653 337 630Q355 607 365.50 585Q376 563 385 533L301 502Q289 544 273 564.50Q257 585 230 585Q143 585 143 333Q143 81 230 81Q284 81 302 180L387 149Q348-12 230-12Z"  horiz-adv-x="412" vert-adv-y="1000"  />

      
      <glyph glyph-name="uni0109" unicode="&#x0109;" d="M314 556L261 556L204 654L151 556L97 556L161 700L248 700L314 556M205-12Q124-12 77.50 59Q31 130 31 242Q31 354 77.50 424.50Q124 495 205 495Q274 495 314 451L281 379Q252 412 220 412Q175 412 151.50 363.50Q128 315 128 242Q128 169 151.50 120Q175 71 220 71Q252 71 281 104L314 32Q277-12 205-12Z"  horiz-adv-x="333" vert-adv-y="1000"  />

      
      <glyph glyph-name="uni010A" unicode="&#x010A;" d="M230-12Q132-12 84 82.50Q36 177 36 333Q36 490 84 584Q132 678 230 678Q265 678 292 665.50Q319 653 337 630Q355 607 365.50 585Q376 563 385 533L301 502Q289 544 273 564.50Q257 585 230 585Q143 585 143 333Q143 81 230 81Q284 81 302 180L387 149Q348-12 230-12M229 718Q207 718 191 734Q175 750 175 772Q175 794 191 810Q207 826 229 826Q252 826 267.50 810Q283 794 283 772Q283 750 267.50 734Q252 718 229 718Z"  horiz-adv-x="412" vert-adv-y="1000"  />

      
      <glyph glyph-name="uni010B" unicode="&#x010B;" d="M205-12Q124-12 77.50 59Q31 130 31 242Q31 354 77.50 424.50Q124 495 205 495Q274 495 314 451L281 379Q252 412 220 412Q175 412 151.50 363.50Q128 315 128 242Q128 169 151.50 120Q175 71 220 71Q252 71 281 104L314 32Q277-12 205-12M244 566.50Q244 566.50 236 558.75Q228 551 206 551Q184 551 168 567Q152 583 152 605Q152 627 168 643Q184 659 206 659Q228 659 244 643.50Q260 628 260 605Q260 582 244 566.50Z"  horiz-adv-x="333" vert-adv-y="1000"  />

      
      <glyph glyph-name="uni010C" unicode="&#x010C;" d="M276 723L189 723L122 867L176 867L232 769L286 867L339 867L276 723M230-12Q132-12 84 82.50Q36 177 36 333Q36 490 84 584Q132 678 230 678Q265 678 292 665.50Q319 653 337 630Q355 607 365.50 585Q376 563 385 533L301 502Q289 544 273 564.50Q257 585 230 585Q143 585 143 333Q143 81 230 81Q284 81 302 180L387 149Q348-12 230-12Z"  horiz-adv-x="412" vert-adv-y="1000"  />

      
      <glyph glyph-name="uni010D" unicode="&#x010D;" d="M251 556L164 556L97 700L151 700L207 602L261 700L314 700L251 556M205-12Q124-12 77.50 59Q31 130 31 242Q31 354 77.50 424.50Q124 495 205 495Q274 495 314 451L281 379Q252 412 220 412Q175 412 151.50 363.50Q128 315 128 242Q128 169 151.50 120Q175 71 220 71Q252 71 281 104L314 32Q277-12 205-12Z"  horiz-adv-x="333" vert-adv-y="1000"  />

      
      <glyph glyph-name="uni010E" unicode="&#x010E;" d="M269 723L182 723L115 867L169 867L225 769L279 867L332 867L269 723M207 0L57 0L57 667L206 667Q314 667 366.50 576Q419 485 419 333Q419 180 367 90Q315 0 207 0M206 92Q312 92 312 333Q312 575 206 575L161 575L161 92L206 92Z"  horiz-adv-x="455" vert-adv-y="1000"  />

      
      <glyph glyph-name="uni010F" unicode="&#x010F;" d="M511 607Q511 566 490.50 528.50Q470 491 436 467L399 496Q421 511 438.50 535Q456 559 459 580L454 580Q449 579 447 579Q427 579 414 592.50Q401 606 401 627Q401 648 416 663.50Q431 679 452 679Q476 679 493.50 659.50Q511 640 511 607M356 0L262 0L262 62Q247 27 221 7.50Q195-12 169-12Q101-12 66 56Q31 124 31 241Q31 357 66 426Q101 495 169 495Q197 495 222.50 476Q248 457 262 420L262 667L356 667L356 0M198 71Q218 71 236 91Q254 111 262 139L262 344Q254 372 236 392Q218 412 198 412Q128 412 128 241Q128 71 198 71Z"  horiz-adv-x="506" vert-adv-y="1000"  />

      
      <glyph glyph-name="uni0110" unicode="&#x0110;" d="M228 0L78 0L78 290L18 290L18 366L78 366L78 667L227 667Q335 667 387.50 576Q440 485 440 333Q440 180 388 90Q336 0 228 0M227 92Q333 92 333 333Q333 575 227 575L182 575L182 366L256 366L256 290L182 290L182 92L227 92Z"  horiz-adv-x="476" vert-adv-y="1000"  />

      
      <glyph glyph-name="uni0111" unicode="&#x0111;" d="M356 0L262 0L262 62Q247 27 221 7.50Q195-12 169-12Q101-12 66 56Q31 124 31 241Q31 357 66 426Q101 495 169 495Q197 495 222.50 476Q248 457 262 420L262 533L143 533L143 590L262 590L262 667L356 667L356 590L397 590L397 533L356 533L356 0M198 71Q218 71 236 91Q254 111 262 139L262 344Q254 372 236 392Q218 412 198 412Q128 412 128 241Q128 71 198 71Z"  horiz-adv-x="418" vert-adv-y="1000"  />

      
      <glyph glyph-name="uni0112" unicode="&#x0112;" d="M330 0L57 0L57 667L330 667L330 575L161 575L161 386L323 386L323 294L161 294L161 92L330 92L330 0M321 735L67 735L67 792L321 792L321 735Z"  horiz-adv-x="367" vert-adv-y="1000"  />

      
      <glyph glyph-name="uni0113" unicode="&#x0113;" d="M213-12Q125-12 78 58Q31 128 31 242Q31 353 74.50 424Q118 495 201 495Q284 495 324 425.50Q364 356 364 244L364 211L123 211Q124 145 149 105Q174 65 222 65Q267 65 302 117L351 66Q295-12 213-12M272 278Q272 418 198 418Q158 418 140.50 375.50Q123 333 123 278L272 278M328 568L74 568L74 625L328 625L328 568Z"  horiz-adv-x="391" vert-adv-y="1000"  />

      
      <glyph glyph-name="uni0114" unicode="&#x0114;" d="M330 0L57 0L57 667L330 667L330 575L161 575L161 386L323 386L323 294L161 294L161 92L330 92L330 0M316 777Q270 715 194 715Q118 715 72 777L118 812Q144 772 194 772Q244 772 270 812L316 777Z"  horiz-adv-x="367" vert-adv-y="1000"  />

      
      <glyph glyph-name="uni0115" unicode="&#x0115;" d="M213-12Q125-12 78 58Q31 128 31 242Q31 353 74.50 424Q118 495 201 495Q284 495 324 425.50Q364 356 364 244L364 211L123 211Q124 145 149 105Q174 65 222 65Q267 65 302 117L351 66Q295-12 213-12M272 278Q272 418 198 418Q158 418 140.50 375.50Q123 333 123 278L272 278M323 610Q277 548 201 548Q125 548 79 610L125 645Q151 605 201 605Q251 605 277 645L323 610Z"  horiz-adv-x="391" vert-adv-y="1000"  />

      
      <glyph glyph-name="uni0116" unicode="&#x0116;" d="M330 0L57 0L57 667L330 667L330 575L161 575L161 386L323 386L323 294L161 294L161 92L330 92L330 0M199 718Q177 718 161 734Q145 750 145 772Q145 794 161 810Q177 826 199 826Q222 826 237.50 810Q253 794 253 772Q253 750 237.50 734Q222 718 199 718Z"  horiz-adv-x="367" vert-adv-y="1000"  />

      
      <glyph glyph-name="uni0117" unicode="&#x0117;" d="M213-12Q125-12 78 58Q31 128 31 242Q31 353 74.50 424Q118 495 201 495Q284 495 324 425.50Q364 356 364 244L364 211L123 211Q124 145 149 105Q174 65 222 65Q267 65 302 117L351 66Q295-12 213-12M272 278Q272 418 198 418Q158 418 140.50 375.50Q123 333 123 278L272 278M201 551Q179 551 163 567Q147 583 147 605Q147 627 163 643Q179 659 201 659Q224 659 239.50 643.50Q255 628 255 605Q255 582 239.50 566.50Q224 551 201 551Z"  horiz-adv-x="391" vert-adv-y="1000"  />

      
      <glyph glyph-name="uni0118" unicode="&#x0118;" d="M330 0Q269-43 269-104Q269-142 295-142Q317-142 324-111L366-133Q347-186 294-186Q259-186 238.50-166Q218-146 218-107Q218-49 264 0L57 0L57 667L330 667L330 575L161 575L161 386L323 386L323 294L161 294L161 92L330 92L330 0Z"  horiz-adv-x="367" vert-adv-y="1000"  />

      
      <glyph glyph-name="uni0119" unicode="&#x0119;" d="M265-111L307-133Q288-186 235-186Q200-186 179.50-166Q159-146 159-107Q159-56 196-11Q116-4 73.50 65Q31 134 31 242Q31 353 74.50 424Q118 495 201 495Q284 495 324 425.50Q364 356 364 244L364 211L123 211Q124 145 149 105Q174 65 222 65Q267 65 302 117L351 66Q319 21 271 0Q210-43 210-104Q210-142 236-142Q258-142 265-111M272 278Q272 418 198 418Q158 418 140.50 375.50Q123 333 123 278L272 278Z"  horiz-adv-x="391" vert-adv-y="1000"  />

      
      <glyph glyph-name="uni011A" unicode="&#x011A;" d="M236 723L149 723L82 867L136 867L192 769L246 867L299 867L236 723M330 0L57 0L57 667L330 667L330 575L161 575L161 386L323 386L323 294L161 294L161 92L330 92L330 0Z"  horiz-adv-x="367" vert-adv-y="1000"  />

      
      <glyph glyph-name="uni011B" unicode="&#x011B;" d="M247 556L160 556L93 700L147 700L203 602L257 700L310 700L247 556M213-12Q125-12 78 58Q31 128 31 242Q31 353 74.50 424Q118 495 201 495Q284 495 324 425.50Q364 356 364 244L364 211L123 211Q124 145 149 105Q174 65 222 65Q267 65 302 117L351 66Q295-12 213-12M272 278Q272 418 198 418Q158 418 140.50 375.50Q123 333 123 278L272 278Z"  horiz-adv-x="391" vert-adv-y="1000"  />

      
      <glyph glyph-name="uni011C" unicode="&#x011C;" d="M339 723L286 723L229 821L176 723L122 723L186 867L273 867L339 723M230-12Q133-12 84.50 80.50Q36 173 36 333Q36 493 84.50 585.50Q133 678 230 678Q346 678 385 533L301 502Q290 543 274 564Q258 585 230 585Q143 585 143 333Q143 81 230 81Q273 81 295 116L295 260L214 260L214 352L388 352L388 72Q326-12 230-12Z"  horiz-adv-x="435" vert-adv-y="1000"  />

      
      <glyph glyph-name="uni011D" unicode="&#x011D;" d="M312 556L259 556L202 654L149 556L95 556L159 700L246 700L312 556M187-196Q99-196 47-145L81-67Q124-113 178-113Q262-113 262-3L262 76Q247 40 221 20Q195 0 169 0Q101 0 66 65Q31 130 31 247Q31 362 66 428.50Q101 495 169 495Q197 495 222.50 476Q248 457 262 420L262 483L356 483L356 9Q356-196 187-196M198 83Q218 83 236 103Q254 123 262 151L262 344Q254 372 236 392Q218 412 198 412Q128 412 128 247Q128 83 198 83Z"  horiz-adv-x="406" vert-adv-y="1000"  />

      
      <glyph glyph-name="uni011E" unicode="&#x011E;" d="M230-12Q133-12 84.50 80.50Q36 173 36 333Q36 493 84.50 585.50Q133 678 230 678Q346 678 385 533L301 502Q290 543 274 564Q258 585 230 585Q143 585 143 333Q143 81 230 81Q273 81 295 116L295 260L214 260L214 352L388 352L388 72Q326-12 230-12M354 777Q308 715 232 715Q156 715 110 777L156 812Q182 772 232 772Q282 772 308 812L354 777Z"  horiz-adv-x="435" vert-adv-y="1000"  />

      
      <glyph glyph-name="uni011F" unicode="&#x011F;" d="M187-196Q99-196 47-145L81-67Q124-113 178-113Q262-113 262-3L262 76Q247 40 221 20Q195 0 169 0Q101 0 66 65Q31 130 31 247Q31 362 66 428.50Q101 495 169 495Q197 495 222.50 476Q248 457 262 420L262 483L356 483L356 9Q356-196 187-196M198 83Q218 83 236 103Q254 123 262 151L262 344Q254 372 236 392Q218 412 198 412Q128 412 128 247Q128 83 198 83M325 610Q279 548 203 548Q127 548 81 610L127 645Q153 605 203 605Q253 605 279 645L325 610Z"  horiz-adv-x="406" vert-adv-y="1000"  />

      
      <glyph glyph-name="uni0120" unicode="&#x0120;" d="M230-12Q133-12 84.50 80.50Q36 173 36 333Q36 493 84.50 585.50Q133 678 230 678Q346 678 385 533L301 502Q290 543 274 564Q258 585 230 585Q143 585 143 333Q143 81 230 81Q273 81 295 116L295 260L214 260L214 352L388 352L388 72Q326-12 230-12M231 718Q209 718 193 734Q177 750 177 772Q177 794 193 810Q209 826 231 826Q254 826 269.50 810Q285 794 285 772Q285 750 269.50 734Q254 718 231 718Z"  horiz-adv-x="435" vert-adv-y="1000"  />

      
      <glyph glyph-name="uni0121" unicode="&#x0121;" d="M187-196Q99-196 47-145L81-67Q124-113 178-113Q262-113 262-3L262 76Q247 40 221 20Q195 0 169 0Q101 0 66 65Q31 130 31 247Q31 362 66 428.50Q101 495 169 495Q197 495 222.50 476Q248 457 262 420L262 483L356 483L356 9Q356-196 187-196M198 83Q218 83 236 103Q254 123 262 151L262 344Q254 372 236 392Q218 412 198 412Q128 412 128 247Q128 83 198 83M203 551Q181 551 165 567Q149 583 149 605Q149 627 165 643Q181 659 203 659Q226 659 241.50 643.50Q257 628 257 605Q257 582 241.50 566.50Q226 551 203 551Z"  horiz-adv-x="406" vert-adv-y="1000"  />

      
      <glyph glyph-name="uni0122" unicode="&#x0122;" d="M282-138Q282-179 261.50-216.50Q241-254 207-278L170-249Q192-234 209.50-210Q227-186 230-165L225-166Q220-166 218-166Q198-166 185-152.50Q172-139 172-118Q172-97 187-81.50Q202-66 223-66Q247-66 264.50-85.50Q282-105 282-138M230-12Q133-12 84.50 80.50Q36 173 36 333Q36 493 84.50 585.50Q133 678 230 678Q346 678 385 533L301 502Q290 543 274 564Q258 585 230 585Q143 585 143 333Q143 81 230 81Q273 81 295 116L295 260L214 260L214 352L388 352L388 72Q326-12 230-12Z"  horiz-adv-x="435" vert-adv-y="1000"  />

      
      <glyph glyph-name="uni0123" unicode="&#x0123;" d="M149 611Q149 656 169.50 695.50Q190 735 222 757L259 728Q238 715 220 691.50Q202 668 200 647Q203 648 205 648Q224 648 240 633Q256 618 256 598Q256 577 240.50 561Q225 545 203 545Q182 545 165.50 561.50Q149 578 149 611M187-196Q99-196 47-145L81-67Q124-113 178-113Q262-113 262-3L262 76Q247 40 221 20Q195 0 169 0Q101 0 66 65Q31 130 31 247Q31 362 66 428.50Q101 495 169 495Q197 495 222.50 476Q248 457 262 420L262 483L356 483L356 9Q356-196 187-196M198 83Q218 83 236 103Q254 123 262 151L262 344Q254 372 236 392Q218 412 198 412Q128 412 128 247Q128 83 198 83Z"  horiz-adv-x="406" vert-adv-y="1000"  />

      
      <glyph glyph-name="uni0124" unicode="&#x0124;" d="M340 723L287 723L230 821L177 723L123 723L187 867L274 867L340 723M407 0L302 0L302 297L161 297L161 0L57 0L57 667L161 667L161 389L302 389L302 667L407 667L407 0Z"  horiz-adv-x="463" vert-adv-y="1000"  />

      
      <glyph glyph-name="uni0125" unicode="&#x0125;" d="M310 723L257 723L200 821L147 723L93 723L157 867L244 867L310 723M352 0L258 0L258 357Q258 412 217 412Q194 412 174.50 391.50Q155 371 144 342L144 0L50 0L50 667L144 667L144 418Q160 449 191.50 472Q223 495 255 495Q352 495 352 388L352 0Z"  horiz-adv-x="402" vert-adv-y="1000"  />

      
      <glyph glyph-name="uni0126" unicode="&#x0126;" d="M425 0L320 0L320 297L179 297L179 0L75 0L75 501L18 501L18 558L75 558L75 667L179 667L179 558L320 558L320 667L425 667L425 558L477 558L477 501L425 501L425 0M179 389L320 389L320 501L179 501L179 389Z"  horiz-adv-x="499" vert-adv-y="1000"  />

      
      <glyph glyph-name="uni0127" unicode="&#x0127;" d="M272 533L157 533L157 418Q173 449 204.50 472Q236 495 268 495Q365 495 365 388L365 0L271 0L271 357Q271 412 230 412Q207 412 187.50 391.50Q168 371 157 342L157 0L63 0L63 533L18 533L18 590L63 590L63 667L157 667L157 590L272 590L272 533Z"  horiz-adv-x="415" vert-adv-y="1000"  />

      
      <glyph glyph-name="uni0128" unicode="&#x0128;" d="M161 0L57 0L57 667L161 667L161 0M152 721Q134 721 120 734Q106 747 99 762.50Q92 778 83 791Q74 804 66 804Q39 804 39 727L-11 727Q-11 786 10 823.50Q31 861 69 861Q87 861 101.50 848Q116 835 123 819.50Q130 804 138.50 791Q147 778 156 778Q182 778 182 855L232 855Q232 795 211.50 758Q191 721 152 721Z"  horiz-adv-x="218" vert-adv-y="1000"  />

      
      <glyph glyph-name="uni0129" unicode="&#x0129;" d="M144 0L50 0L50 483L144 483L144 0M139 554Q121 554 107 567Q93 580 86 595.50Q79 611 70 624Q61 637 53 637Q26 637 26 560L-24 560Q-24 619-3 656.50Q18 694 56 694Q74 694 88.50 681Q103 668 110 652.50Q117 637 125.50 624Q134 611 143 611Q169 611 169 688L219 688Q219 628 198.50 591Q178 554 139 554Z"  horiz-adv-x="194" vert-adv-y="1000"  />

      
      <glyph glyph-name="uni012A" unicode="&#x012A;" d="M161 0L57 0L57 667L161 667L161 0M236 735L-18 735L-18 792L236 792L236 735Z"  horiz-adv-x="218" vert-adv-y="1000"  />

      
      <glyph glyph-name="uni012B" unicode="&#x012B;" d="M144 0L50 0L50 483L144 483L144 0M224 568L-30 568L-30 625L224 625L224 568Z"  horiz-adv-x="194" vert-adv-y="1000"  />

      
      <glyph glyph-name="uni012C" unicode="&#x012C;" d="M161 0L57 0L57 667L161 667L161 0M231 777Q185 715 109 715Q33 715-13 777L33 812Q59 772 109 772Q159 772 185 812L231 777Z"  horiz-adv-x="218" vert-adv-y="1000"  />

      
      <glyph glyph-name="uni012D" unicode="&#x012D;" d="M144 0L50 0L50 483L144 483L144 0M219 610Q173 548 97 548Q21 548-25 610L21 645Q47 605 97 605Q147 605 173 645L219 610Z"  horiz-adv-x="194" vert-adv-y="1000"  />

      
      <glyph glyph-name="uni012E" unicode="&#x012E;" d="M155-111L197-133Q178-186 125-186Q90-186 69.50-166Q49-146 49-107Q49-49 95 0L57 0L57 667L161 667L161 0Q100-43 100-104Q100-142 126-142Q148-142 155-111Z"  horiz-adv-x="218" vert-adv-y="1000"  />

      
      <glyph glyph-name="uni012F" unicode="&#x012F;" d="M138-111L180-133Q161-186 108-186Q73-186 52.50-166Q32-146 32-107Q32-49 78 0L50 0L50 483L144 483L144 0Q83-43 83-104Q83-142 109-142Q131-142 138-111M97 546Q73 546 55 563.50Q37 581 37 605Q37 630 55 647.50Q73 665 97 665Q122 665 139.50 647.50Q157 630 157 605Q157 580 139.50 563Q122 546 97 546Z"  horiz-adv-x="194" vert-adv-y="1000"  />

      
      <glyph glyph-name="uni0130" unicode="&#x0130;" d="M161 0L57 0L57 667L161 667L161 0M109 718Q87 718 71 734Q55 750 55 772Q55 794 71 810Q87 826 109 826Q132 826 147.50 810Q163 794 163 772Q163 750 147.50 734Q132 718 109 718Z"  horiz-adv-x="218" vert-adv-y="1000"  />

      
      <glyph glyph-name="uni0131" unicode="&#x0131;" d="M144 0L50 0L50 483L144 483L144 0Z"  horiz-adv-x="194" vert-adv-y="1000"  />

      
      <glyph glyph-name="uni0132" unicode="&#x0132;" d="M161 0L57 0L57 667L161 667L161 0M333-12Q269-12 225 28L257 113Q283 81 322 81Q395 81 395 161L395 667L499 667L499 156Q499 71 454.50 29.50Q410-12 333-12Z"  horiz-adv-x="554" vert-adv-y="1000"  />

      
      <glyph glyph-name="uni0133" unicode="&#x0133;" d="M97 546Q73 546 55 563.50Q37 581 37 605Q37 630 55 647.50Q73 665 97 665Q122 665 139.50 647.50Q157 630 157 605Q157 580 139.50 563Q122 546 97 546M144 0L50 0L50 483L144 483L144 0M291 546Q267 546 249 563.50Q231 581 231 605Q231 630 249 647.50Q267 665 291 665Q316 665 333.50 647.50Q351 630 351 605Q351 580 333.50 563Q316 546 291 546M218-196Q178-196 159-169L185-97Q193-113 211-113Q244-113 244-54L244 483L338 483L338-54Q338-128 309-162Q280-196 218-196Z"  horiz-adv-x="388" vert-adv-y="1000"  />

      
      <glyph glyph-name="uni0134" unicode="&#x0134;" d="M337 723L284 723L227 821L174 723L120 723L184 867L271 867L337 723M115-12Q51-12 7 28L39 113Q65 81 104 81Q177 81 177 161L177 667L281 667L281 156Q281 71 236.50 29.50Q192-12 115-12Z"  horiz-adv-x="337" vert-adv-y="1000"  />

      
      <glyph glyph-name="uni0135" unicode="&#x0135;" d="M207 556L154 556L97 654L44 556L-10 556L54 700L141 700L207 556M24-196Q-16-196-35-169L-9-97Q-1-113 17-113Q50-113 50-54L50 483L144 483L144-54Q144-128 115-162Q86-196 24-196Z"  horiz-adv-x="194" vert-adv-y="1000"  />

      
      <glyph glyph-name="uni0136" unicode="&#x0136;" d="M286-138Q286-179 265.50-216.50Q245-254 211-278L174-249Q196-234 213.50-210Q231-186 234-165L229-166Q224-166 222-166Q202-166 189-152.50Q176-139 176-118Q176-97 191-81.50Q206-66 227-66Q251-66 268.50-85.50Q286-105 286-138M442 0L323 0L204 269L161 184L161 0L57 0L57 667L161 667L161 342L314 667L429 667L264 352L442 0Z"  horiz-adv-x="448" vert-adv-y="1000"  />

      
      <glyph glyph-name="uni0137" unicode="&#x0137;" d="M254-138Q254-179 233.50-216.50Q213-254 179-278L142-249Q164-234 181.50-210Q199-186 202-165L197-166Q192-166 190-166Q170-166 157-152.50Q144-139 144-118Q144-97 159-81.50Q174-66 195-66Q219-66 236.50-85.50Q254-105 254-138M375 0L273 0L193 204L144 117L144 0L50 0L50 667L144 667L144 241L271 483L373 483L255 268L375 0Z"  horiz-adv-x="385" vert-adv-y="1000"  />

      
      <glyph glyph-name="uni0138" unicode="&#x0138;" d="M375 0L273 0L193 204L144 117L144 0L50 0L50 483L144 483L144 241L271 483L373 483L255 268L375 0Z"  horiz-adv-x="385" vert-adv-y="1000"  />

      
      <glyph glyph-name="uni0139" unicode="&#x0139;" d="M316 867L213 723L152 723L231 867L316 867M330 0L57 0L57 667L161 667L161 92L330 92L330 0Z"  horiz-adv-x="351" vert-adv-y="1000"  />

      
      <glyph glyph-name="uni013A" unicode="&#x013A;" d="M220 867L117 723L56 723L135 867L220 867M144 0L50 0L50 667L144 667L144 0Z"  horiz-adv-x="194" vert-adv-y="1000"  />

      
      <glyph glyph-name="uni013B" unicode="&#x013B;" d="M237-138Q237-179 216.50-216.50Q196-254 162-278L125-249Q147-234 164.50-210Q182-186 185-165L180-166Q175-166 173-166Q153-166 140-152.50Q127-139 127-118Q127-97 142-81.50Q157-66 178-66Q202-66 219.50-85.50Q237-105 237-138M330 0L57 0L57 667L161 667L161 92L330 92L330 0Z"  horiz-adv-x="351" vert-adv-y="1000"  />

      
      <glyph glyph-name="uni013C" unicode="&#x013C;" d="M159-138Q159-179 138.50-216.50Q118-254 84-278L47-249Q69-234 86.50-210Q104-186 107-165L102-166Q97-166 95-166Q75-166 62-152.50Q49-139 49-118Q49-97 64-81.50Q79-66 100-66Q124-66 141.50-85.50Q159-105 159-138M144 0L50 0L50 667L144 667L144 0Z"  horiz-adv-x="194" vert-adv-y="1000"  />

      
      <glyph glyph-name="uni013D" unicode="&#x013D;" d="M322 608Q322 567 301.50 529.50Q281 492 247 468L210 497Q232 512 249.50 536Q267 560 270 581L265 580Q260 580 258 580Q238 580 225 593.50Q212 607 212 628Q212 649 227 664.50Q242 680 263 680Q287 680 304.50 660.50Q322 641 322 608M330 0L57 0L57 667L161 667L161 92L330 92L330 0Z"  horiz-adv-x="351" vert-adv-y="1000"  />

      
      <glyph glyph-name="uni013E" unicode="&#x013E;" d="M312 608Q312 567 291.50 529.50Q271 492 237 468L200 497Q222 512 239.50 536Q257 560 260 581L255 580Q250 580 248 580Q228 580 215 593.50Q202 607 202 628Q202 649 217 664.50Q232 680 253 680Q277 680 294.50 660.50Q312 641 312 608M144 0L50 0L50 667L144 667L144 0Z"  horiz-adv-x="293" vert-adv-y="1000"  />

      
      <glyph glyph-name="uni013F" unicode="&#x013F;" d="M330 0L57 0L57 667L161 667L161 92L330 92L330 0M355 387Q355 387 364.50 377.50Q374 368 374 342Q374 316 355 296.50Q336 277 309 277Q283 277 264 296.50Q245 316 245 342Q245 368 264 387Q283 406 309 406Q336 406 355 387Z"  horiz-adv-x="400" vert-adv-y="1000"  />

      
      <glyph glyph-name="uni0140" unicode="&#x0140;" d="M144 0L50 0L50 667L144 667L144 0M306 290Q306 290 315.50 280.50Q325 271 325 245Q325 219 306 199.50Q287 180 260 180Q234 180 215 199.50Q196 219 196 245Q196 271 215 290Q234 309 260 309Q287 309 306 290Z"  horiz-adv-x="327" vert-adv-y="1000"  />

      
      <glyph glyph-name="uni0141" unicode="&#x0141;" d="M18 231L18 319L68 348L68 667L172 667L172 408L231 442L231 354L172 320L172 92L341 92L341 0L68 0L68 260L18 231Z"  horiz-adv-x="362" vert-adv-y="1000"  />

      
      <glyph glyph-name="uni0142" unicode="&#x0142;" d="M18 246L18 318L70 347L70 667L164 667L164 401L215 430L215 359L164 330L164 0L70 0L70 276L18 246Z"  horiz-adv-x="233" vert-adv-y="1000"  />

      
      <glyph glyph-name="uni0143" unicode="&#x0143;" d="M355 867L252 723L191 723L270 867L355 867M407 0L308 0L161 386L161 0L57 0L57 667L161 667L302 292L302 667L407 667L407 0Z"  horiz-adv-x="463" vert-adv-y="1000"  />

      
      <glyph glyph-name="uni0144" unicode="&#x0144;" d="M324 700L221 556L160 556L239 700L324 700M352 0L258 0L258 356Q258 412 217 412Q194 412 174.50 391.50Q155 371 144 342L144 0L50 0L50 483L144 483L144 418Q160 449 191.50 472Q223 495 255 495Q352 495 352 387L352 0Z"  horiz-adv-x="402" vert-adv-y="1000"  />

      
      <glyph glyph-name="uni0145" unicode="&#x0145;" d="M293-138Q293-179 272.50-216.50Q252-254 218-278L181-249Q203-234 220.50-210Q238-186 241-165L236-166Q231-166 229-166Q209-166 196-152.50Q183-139 183-118Q183-97 198-81.50Q213-66 234-66Q258-66 275.50-85.50Q293-105 293-138M407 0L308 0L161 386L161 0L57 0L57 667L161 667L302 292L302 667L407 667L407 0Z"  horiz-adv-x="463" vert-adv-y="1000"  />

      
      <glyph glyph-name="uni0146" unicode="&#x0146;" d="M262-138Q262-179 241.50-216.50Q221-254 187-278L150-249Q172-234 189.50-210Q207-186 210-165L205-166Q200-166 198-166Q178-166 165-152.50Q152-139 152-118Q152-97 167-81.50Q182-66 203-66Q227-66 244.50-85.50Q262-105 262-138M352 0L258 0L258 356Q258 412 217 412Q194 412 174.50 391.50Q155 371 144 342L144 0L50 0L50 483L144 483L144 418Q160 449 191.50 472Q223 495 255 495Q352 495 352 387L352 0Z"  horiz-adv-x="402" vert-adv-y="1000"  />

      
      <glyph glyph-name="uni0147" unicode="&#x0147;" d="M277 723L190 723L123 867L177 867L233 769L287 867L340 867L277 723M407 0L308 0L161 386L161 0L57 0L57 667L161 667L302 292L302 667L407 667L407 0Z"  horiz-adv-x="463" vert-adv-y="1000"  />

      
      <glyph glyph-name="uni0148" unicode="&#x0148;" d="M246 556L159 556L92 700L146 700L202 602L256 700L309 700L246 556M352 0L258 0L258 356Q258 412 217 412Q194 412 174.50 391.50Q155 371 144 342L144 0L50 0L50 483L144 483L144 418Q160 449 191.50 472Q223 495 255 495Q352 495 352 387L352 0Z"  horiz-adv-x="402" vert-adv-y="1000"  />

      
      <glyph glyph-name="uni0149" unicode="&#x0149;" d="M149 679Q149 638 128.50 600.50Q108 563 74 539L37 568Q59 583 76.50 607Q94 631 97 652L92 652Q87 651 85 651Q65 651 52 664.50Q39 678 39 699Q39 720 54 735.50Q69 751 90 751Q114 751 131.50 731.50Q149 712 149 679M352 0L258 0L258 356Q258 412 217 412Q194 412 174.50 391.50Q155 371 144 342L144 0L50 0L50 483L144 483L144 418Q160 449 191.50 472Q223 495 255 495Q352 495 352 387L352 0Z"  horiz-adv-x="402" vert-adv-y="1000"  />

      
      <glyph glyph-name="uni014A" unicode="&#x014A;" d="M241-196Q176-196 133-156L165-73Q191-105 230-105Q302-105 302-25L302 16L161 386L161 0L57 0L57 667L161 667L302 292L302 667L407 667L407-28Q407-113 362.50-154.50Q318-196 241-196Z"  horiz-adv-x="463" vert-adv-y="1000"  />

      
      <glyph glyph-name="uni014B" unicode="&#x014B;" d="M352 387L352-54Q352-128 323-162Q294-196 232-196Q192-196 173-169L199-97Q207-113 225-113Q258-113 258-54L258 356Q258 412 217 412Q194 412 174.50 391.50Q155 371 144 342L144 0L50 0L50 483L144 483L144 418Q160 449 191.50 472Q223 495 255 495Q352 495 352 387Z"  horiz-adv-x="402" vert-adv-y="1000"  />

      
      <glyph glyph-name="uni014C" unicode="&#x014C;" d="M356 735L102 735L102 792L356 792L356 735M375 83Q375 83 351 35.50Q327-12 229-12Q131-12 83.50 82.50Q36 177 36 333Q36 488 83.50 583Q131 678 229 678Q327 678 375 583Q423 488 423 333Q423 178 375 83M229 81Q316 81 316 333Q316 585 229 585Q143 585 143 333Q143 81 229 81Z"  horiz-adv-x="459" vert-adv-y="1000"  />

      
      <glyph glyph-name="uni014D" unicode="&#x014D;" d="M328 568L74 568L74 625L328 625L328 568M328 60.50Q328 60.50 307 24.25Q286-12 201-12Q116-12 73.50 60.50Q31 133 31 242Q31 351 73.50 423Q116 495 201 495Q286 495 328 423Q370 351 370 242Q370 133 328 60.50M129 242Q129 71 201 71Q273 71 273 242Q273 412 201 412Q129 412 129 242Z"  horiz-adv-x="402" vert-adv-y="1000"  />

      
      <glyph glyph-name="uni014E" unicode="&#x014E;" d="M375 83Q375 83 351 35.50Q327-12 229-12Q131-12 83.50 82.50Q36 177 36 333Q36 488 83.50 583Q131 678 229 678Q327 678 375 583Q423 488 423 333Q423 178 375 83M229 81Q316 81 316 333Q316 585 229 585Q143 585 143 333Q143 81 229 81M352 777Q306 715 230 715Q154 715 108 777L154 812Q180 772 230 772Q280 772 306 812L352 777Z"  horiz-adv-x="459" vert-adv-y="1000"  />

      
      <glyph glyph-name="uni014F" unicode="&#x014F;" d="M328 60.50Q328 60.50 307 24.25Q286-12 201-12Q116-12 73.50 60.50Q31 133 31 242Q31 351 73.50 423Q116 495 201 495Q286 495 328 423Q370 351 370 242Q370 133 328 60.50M129 242Q129 71 201 71Q273 71 273 242Q273 412 201 412Q129 412 129 242M323 610Q277 548 201 548Q125 548 79 610L125 645Q151 605 201 605Q251 605 277 645L323 610Z"  horiz-adv-x="402" vert-adv-y="1000"  />

      
      <glyph glyph-name="uni0150" unicode="&#x0150;" d="M262 867L183 723L133 723L188 867L262 867M385 867L306 723L256 723L311 867L385 867M375 83Q375 83 351 35.50Q327-12 229-12Q131-12 83.50 82.50Q36 177 36 333Q36 488 83.50 583Q131 678 229 678Q327 678 375 583Q423 488 423 333Q423 178 375 83M229 81Q316 81 316 333Q316 585 229 585Q143 585 143 333Q143 81 229 81Z"  horiz-adv-x="459" vert-adv-y="1000"  />

      
      <glyph glyph-name="uni0151" unicode="&#x0151;" d="M234 700L155 556L105 556L160 700L234 700M357 700L278 556L228 556L283 700L357 700M328 60.50Q328 60.50 307 24.25Q286-12 201-12Q116-12 73.50 60.50Q31 133 31 242Q31 351 73.50 423Q116 495 201 495Q286 495 328 423Q370 351 370 242Q370 133 328 60.50M129 242Q129 71 201 71Q273 71 273 242Q273 412 201 412Q129 412 129 242Z"  horiz-adv-x="402" vert-adv-y="1000"  />

      
      <glyph glyph-name="uni0152" unicode="&#x0152;" d="M580 0L307 0L307 57Q276-12 210-12Q149-12 109 35Q69 82 52.50 157Q36 232 36 333Q36 434 52.50 508.50Q69 583 109 630Q149 677 210 677Q276 677 307 610L307 667L580 667L580 575L412 575L412 386L573 386L573 294L412 294L412 92L580 92L580 0M307 185L307 481Q285 584 230 584Q143 584 143 333Q143 81 230 81Q256 81 276 108Q296 135 307 185Z"  horiz-adv-x="616" vert-adv-y="1000"  />

      
      <glyph glyph-name="uni0153" unicode="&#x0153;" d="M605 211L365 211Q366 144 390.50 104.50Q415 65 463 65Q510 65 543 117L592 66Q538-12 455-12Q364-12 323 86Q283-12 201-12Q116-12 73.50 60.50Q31 133 31 242Q31 351 73.50 423Q116 495 201 495Q283 495 322 400Q360 495 442 495Q525 495 565 425Q605 355 605 242L605 211M365 278L514 278Q514 418 440 418Q400 418 382.50 375.50Q365 333 365 278M273 242Q273 412 201 412Q129 412 129 242Q129 71 201 71Q273 71 273 242Z"  horiz-adv-x="632" vert-adv-y="1000"  />

      
      <glyph glyph-name="uni0154" unicode="&#x0154;" d="M349 867L246 723L185 723L264 867L349 867M400 0L288 0L209 255L161 255L161 0L57 0L57 667L223 667Q298 667 346 611Q394 555 394 464Q394 386 367.50 341.50Q341 297 305 280L400 0M208 347Q246 347 266.50 378Q287 409 287 461Q287 513 266.50 544Q246 575 208 575L161 575L161 347L208 347Z"  horiz-adv-x="438" vert-adv-y="1000"  />

      
      <glyph glyph-name="uni0155" unicode="&#x0155;" d="M275 700L172 556L111 556L190 700L275 700M144 0L50 0L50 483L144 483L144 412Q160 448 190 471Q220 494 254 494L254 400Q243 403 234 403Q207 403 183 383Q159 363 144 333L144 0Z"  horiz-adv-x="268" vert-adv-y="1000"  />

      
      <glyph glyph-name="uni0156" unicode="&#x0156;" d="M279-138Q279-179 258.50-216.50Q238-254 204-278L167-249Q189-234 206.50-210Q224-186 227-165L222-166Q217-166 215-166Q195-166 182-152.50Q169-139 169-118Q169-97 184-81.50Q199-66 220-66Q244-66 261.50-85.50Q279-105 279-138M400 0L288 0L209 255L161 255L161 0L57 0L57 667L223 667Q298 667 346 611Q394 555 394 464Q394 386 367.50 341.50Q341 297 305 280L400 0M208 347Q246 347 266.50 378Q287 409 287 461Q287 513 266.50 544Q246 575 208 575L161 575L161 347L208 347Z"  horiz-adv-x="438" vert-adv-y="1000"  />

      
      <glyph glyph-name="uni0157" unicode="&#x0157;" d="M195-138Q195-179 174.50-216.50Q154-254 120-278L83-249Q105-234 122.50-210Q140-186 143-165L138-166Q133-166 131-166Q111-166 98-152.50Q85-139 85-118Q85-97 100-81.50Q115-66 136-66Q160-66 177.50-85.50Q195-105 195-138M144 0L50 0L50 483L144 483L144 412Q160 448 190 471Q220 494 254 494L254 400Q243 403 234 403Q207 403 183 383Q159 363 144 333L144 0Z"  horiz-adv-x="268" vert-adv-y="1000"  />

      
      <glyph glyph-name="uni0158" unicode="&#x0158;" d="M263 723L176 723L109 867L163 867L219 769L273 867L326 867L263 723M400 0L288 0L209 255L161 255L161 0L57 0L57 667L223 667Q298 667 346 611Q394 555 394 464Q394 386 367.50 341.50Q341 297 305 280L400 0M208 347Q246 347 266.50 378Q287 409 287 461Q287 513 266.50 544Q246 575 208 575L161 575L161 347L208 347Z"  horiz-adv-x="438" vert-adv-y="1000"  />

      
      <glyph glyph-name="uni0159" unicode="&#x0159;" d="M195 556L108 556L41 700L95 700L151 602L205 700L258 700L195 556M144 0L50 0L50 483L144 483L144 412Q160 448 190 471Q220 494 254 494L254 400Q243 403 234 403Q207 403 183 383Q159 363 144 333L144 0Z"  horiz-adv-x="268" vert-adv-y="1000"  />

      
      </font>
</defs>
</svg>
