<?xml version="1.0" standalone="no"?>
  <!DOCTYPE svg PUBLIC "-//W3C//DTD SVG 1.1//EN" "http://www.w3.org/Graphics/SVG/1.1/DTD/svg11.dtd" >
  <svg>
  <metadata>
  Created by font-carrier
  </metadata>
  <defs>
  <font id="ProximaNova-Light" horiz-adv-x="1115" vert-adv-y="1115" >
    <font-face
      
      font-family="Proxima Nova Lt"
      
      font-weight="400"
      
      font-stretch="normal"
      
      units-per-em="1000"
      
      ascent="920"
      
      descent="-298"
      
    />
      <missing-glyph />

      

      
      <glyph glyph-name="uni21" unicode="&#x21;" d="M130 174L89 174L76 667L143 667L130 174M140.50 4Q140.50 4 133.75-2.50Q127-9 109-9Q91-9 78.50 4Q66 17 66 35Q66 52 78.50 65Q91 78 109 78Q127 78 140.50 65Q154 52 154 35Q154 17 140.50 4Z"  horiz-adv-x="219" vert-adv-y="1000"  />

      
      <glyph glyph-name="uni22" unicode="&#x22;" d="M109 427L79 427Q58 628 58 641Q58 656 68 666.50Q78 677 94 677Q109 677 119.50 666.50Q130 656 130 641L109 427M238 427L208 427Q187 628 187 641Q187 656 197.50 666.50Q208 677 223 677Q238 677 248.50 666.50Q259 656 259 641L238 427Z"  horiz-adv-x="317" vert-adv-y="1000"  />

      
      <glyph glyph-name="uni23" unicode="&#x23;" d="M284 0L236 0L300 186L182 186L119 0L72 0L134 186L24 186L37 227L149 227L220 440L107 440L119 481L234 481L295 667L342 667L281 481L398 481L459 667L507 667L444 481L555 481L544 440L431 440L359 227L474 227L462 186L346 186L284 0M312 227L384 440L267 440L196 227L312 227Z"  horiz-adv-x="579" vert-adv-y="1000"  />

      
      <glyph glyph-name="uni24" unicode="&#x24;" d="M273-100L273-11Q128-4 48 94L85 137Q160 49 273 41L273 321Q224 335 196.50 345.50Q169 356 135 376.50Q101 397 85 427.50Q69 458 69 500Q69 576 127 624.50Q185 673 273 677L273 768L319 768L319 677Q439 667 514 584L476 542Q417 613 319 624L319 372Q366 359 396.50 346.50Q427 334 461 312Q495 290 512 256.50Q529 223 529 177Q529 106 478.50 51Q428-4 319-11L319-100L273-100M469 173Q469 228 430.50 257Q392 286 319 308L319 41Q398 47 433.50 86Q469 125 469 173M129 503Q129 455 166 430Q203 405 273 385L273 625Q210 622 169.50 588Q129 554 129 503Z"  horiz-adv-x="584" vert-adv-y="1000"  />

      
      <glyph glyph-name="uni25" unicode="&#x25;" d="M303 396Q303 396 281 373Q259 350 190 350Q121 350 77.50 396Q34 442 34 512Q34 583 78 630Q122 677 190 677Q259 677 303 630Q347 583 347 512Q347 442 303 396M173 0L128 0L554 667L600 667L173 0M643 34.50Q643 34.50 621 11.25Q599-12 530-12Q461-12 417 34.50Q373 81 373 151Q373 222 417 269Q461 316 530 316Q599 316 643 269Q687 222 687 151Q687 81 643 34.50M111 424.50Q111 424.50 126.50 406.25Q142 388 190 388Q238 388 269.50 424.50Q301 461 301 512Q301 565 270 601.50Q239 638 190 638Q142 638 111 601.50Q80 565 80 512Q80 461 111 424.50M450 63Q450 63 465.50 45Q481 27 530 27Q579 27 609.50 63Q640 99 640 151Q640 204 609.50 240.50Q579 277 530 277Q481 277 450 240.50Q419 204 419 151Q419 99 450 63Z"  horiz-adv-x="720" vert-adv-y="1000"  />

      
      <glyph glyph-name="uni26" unicode="&#x26;" d="M602 0L524 0Q486 33 439 80Q357-12 243-12Q156-12 99 36Q42 84 42 170Q42 242 81 287.50Q120 333 191 372Q136 459 136 525Q136 590 182 633.50Q228 677 295 677Q358 677 396.50 643.50Q435 610 435 551Q435 522 424 496.50Q413 471 400.50 455Q388 439 359 418.50Q330 398 314.50 389.50Q299 381 262 361Q291 321 348 256Q411 185 437 158Q486 231 513 320L561 300Q514 182 473 122Q521 72 602 0M247 34Q334 34 405 115Q331 191 305 222Q246 291 216 334Q161 302 130.50 265Q100 228 100 173Q100 108 143 71Q186 34 247 34M192 524Q192 470 238 397Q275 416 294 428Q313 440 337.50 459Q362 478 372.50 500Q383 522 383 549Q383 589 358.50 611Q334 633 296 633Q253 633 222.50 602Q192 571 192 524Z"  horiz-adv-x="639" vert-adv-y="1000"  />

      
      <glyph glyph-name="uni27" unicode="&#x27;" d="M109 427L79 427Q58 628 58 641Q58 656 68 666.50Q78 677 94 677Q109 677 119.50 666.50Q130 656 130 641L109 427Z"  horiz-adv-x="187" vert-adv-y="1000"  />

      
      <glyph glyph-name="uni28" unicode="&#x28;" d="M210-176L179-199Q46 2 46 243Q46 484 179 685L210 663Q157 554 130.50 459Q104 364 104 243Q104 122 130.50 27Q157-68 210-176Z"  horiz-adv-x="227" vert-adv-y="1000"  />

      
      <glyph glyph-name="uni29" unicode="&#x29;" d="M48-199L17-176Q70-69 96.50 26.50Q123 122 123 243Q123 365 96.50 460Q70 555 17 663L48 685Q182 482 182 243Q182 4 48-199Z"  horiz-adv-x="227" vert-adv-y="1000"  />

      
      <glyph glyph-name="uni2a" unicode="&#x2a;" d="M186 399L149 399L154 516L56 452L37 485L141 538L37 591L56 624L154 560L149 677L186 677L180 560L279 624L297 591L194 538L297 485L279 452L180 516L186 399Z"  horiz-adv-x="335" vert-adv-y="1000"  />

      
      <glyph glyph-name="uni2b" unicode="&#x2b;" d="M467 316L271 316L271 99L226 99L226 316L29 316L29 358L226 358L226 569L271 569L271 358L467 358L467 316Z"  horiz-adv-x="496" vert-adv-y="1000"  />

      
      <glyph glyph-name="uni2c" unicode="&#x2c;" d="M159 14Q159-26 138.50-63.50Q118-101 87-123L58-98Q82-82 98-55.50Q114-29 116-6Q109-7 106-7Q88-7 76.50 5Q65 17 65 35Q65 52 77.50 65Q90 78 108 78Q129 78 144 61Q159 44 159 14Z"  horiz-adv-x="219" vert-adv-y="1000"  />

      
      <glyph glyph-name="uni2d" unicode="&#x2d;" d="M270 218L30 218L30 266L270 266L270 218Z"  horiz-adv-x="300" vert-adv-y="1000"  />

      
      <glyph glyph-name="uni2e" unicode="&#x2e;" d="M140.50 3.50Q140.50 3.50 133.75-3.25Q127-10 109-10Q91-10 78 3.50Q65 17 65 35Q65 52 78 65Q91 78 109 78Q127 78 140.50 65Q154 52 154 35Q154 17 140.50 3.50Z"  horiz-adv-x="219" vert-adv-y="1000"  />

      
      <glyph glyph-name="uni2f" unicode="&#x2f;" d="M45-20L0-20L237 687L282 687L45-20Z"  horiz-adv-x="282" vert-adv-y="1000"  />

      
      <glyph glyph-name="uni30" unicode="&#x30;" d="M418 19Q418 19 393.50 3.50Q369-12 305-12Q241-12 191 19Q141 50 113.50 101.50Q86 153 72 211.50Q58 270 58 333Q58 396 72 454.50Q86 513 113.50 564Q141 615 190.50 646Q240 677 305 677Q369 677 418 646Q467 615 495 564Q523 513 537 454.50Q551 396 551 333Q551 271 537 212Q523 153 495 101.50Q467 50 418 19M305 40Q355 40 392.50 66Q430 92 450.50 135.50Q471 179 480.50 228.50Q490 278 490 333Q490 388 480.50 437.50Q471 487 450.50 530.50Q430 574 392.50 599.50Q355 625 305 625Q254 625 216.50 599.50Q179 574 158.50 530.50Q138 487 128 437.50Q118 388 118 333Q118 278 128 228.50Q138 179 158.50 135.50Q179 92 216.50 66Q254 40 305 40Z"  horiz-adv-x="608" vert-adv-y="1000"  />

      
      <glyph glyph-name="uni31" unicode="&#x31;" d="M225 0L168 0L168 589L61 475L26 512L173 667L225 667L225 0Z"  horiz-adv-x="308" vert-adv-y="1000"  />

      
      <glyph glyph-name="uni32" unicode="&#x32;" d="M496 0L56 0L56 47Q136 112 184 152Q232 192 286 243Q340 294 368.50 331.50Q397 369 416 410Q435 451 435 489Q435 556 389.50 590.50Q344 625 283 625Q223 625 175.50 601.50Q128 578 100 538L61 574Q97 622 155 649.50Q213 677 283 677Q366 677 429.50 629Q493 581 493 489Q493 436 468 383Q443 330 389 271.50Q335 213 283.50 167.50Q232 122 145 52L496 52L496 0Z"  horiz-adv-x="582" vert-adv-y="1000"  />

      
      <glyph glyph-name="uni33" unicode="&#x33;" d="M259-12Q181-12 122 19.50Q63 51 32 99L71 133Q136 40 258 40Q335 40 380.50 78Q426 116 426 182Q426 250 376.50 283.50Q327 317 247 317Q195 317 185 316L185 370Q195 369 247 369Q319 369 367.50 401Q416 433 416 496Q416 556 370 590.50Q324 625 256 625Q153 625 77 540L41 576Q124 677 259 677Q350 677 412 630Q474 583 474 501Q474 454 449 418Q424 382 394 366.50Q364 351 331 345Q385 339 434.50 296Q484 253 484 179Q484 95 423.50 41.50Q363-12 259-12Z"  horiz-adv-x="544" vert-adv-y="1000"  />

      
      <glyph glyph-name="uni34" unicode="&#x34;" d="M408 0L351 0L351 182L35 182L35 233L331 667L408 667L408 234L506 234L506 182L408 182L408 0M351 234L351 610L94 234L351 234Z"  horiz-adv-x="541" vert-adv-y="1000"  />

      
      <glyph glyph-name="uni35" unicode="&#x35;" d="M299-12Q150-12 74 97L112 135Q179 40 299 40Q371 40 418.50 86Q466 132 466 201Q466 276 419.50 320Q373 364 300 364Q209 364 138 299L95 317L95 667L480 667L480 615L152 615L152 354Q216 416 311 416Q400 416 462 359.50Q524 303 524 203Q524 106 459 47Q394-12 299-12Z"  horiz-adv-x="582" vert-adv-y="1000"  />

      
      <glyph glyph-name="uni36" unicode="&#x36;" d="M303-12Q251-12 209 7Q167 26 139 58Q111 90 92.50 134.50Q74 179 66 228Q58 277 58 333Q58 386 66.50 434.50Q75 483 95 528Q115 573 143.50 605.50Q172 638 216 657.50Q260 677 313 677Q425 677 493 592L459 550Q404 625 313 625Q261 625 221.50 599.50Q182 574 160 531Q138 488 127 438Q116 388 116 332Q116 311 117 301Q142 342 196 377Q250 412 312 412Q407 412 467 357.50Q527 303 527 201Q527 114 466 51Q405-12 303-12M301 40Q380 40 424.50 89.50Q469 139 469 200Q469 279 423 320Q377 361 302 361Q248 361 198.50 329.50Q149 298 120 247Q124 196 142 152Q160 108 201 74Q242 40 301 40Z"  horiz-adv-x="584" vert-adv-y="1000"  />

      
      <glyph glyph-name="uni37" unicode="&#x37;" d="M185 0L122 0L402 615L33 615L33 667L470 667L470 627L185 0Z"  horiz-adv-x="502" vert-adv-y="1000"  />

      
      <glyph glyph-name="uni38" unicode="&#x38;" d="M286-12Q188-12 123.50 37.50Q59 87 59 167Q59 232 107 278.50Q155 325 225 344Q159 362 114.50 402.50Q70 443 70 505Q70 588 134 632.50Q198 677 286 677Q372 677 437 632.50Q502 588 502 505Q502 443 457.50 402.50Q413 362 347 344Q417 325 464.50 279Q512 233 512 167Q512 87 447.50 37.50Q383-12 286-12M286 368Q308 372 329 379.50Q350 387 379 401.50Q408 416 426 441.50Q444 467 444 499Q444 557 399 591Q354 625 286 625Q218 625 173 591Q128 557 128 499Q128 467 146 441.50Q164 416 193 401Q222 386 243 379Q264 372 286 368M286 40Q354 40 404.50 76.50Q455 113 455 171Q455 207 435 236Q415 265 385 281.50Q355 298 330 307Q305 316 286 318Q267 316 241.50 307Q216 298 186.50 281.50Q157 265 137 236Q117 207 117 171Q117 112 166.50 76Q216 40 286 40Z"  horiz-adv-x="571" vert-adv-y="1000"  />

      
      <glyph glyph-name="uni39" unicode="&#x39;" d="M271-11Q158-11 92 74L125 115Q180 41 271 41Q324 41 363.50 66.50Q403 92 425 135.50Q447 179 457.50 228.50Q468 278 468 334L468 365Q442 324 387.50 288.50Q333 253 272 253Q177 253 117 308Q57 363 57 465Q57 552 118 615Q179 678 281 678Q333 678 375 659Q417 640 445 608Q473 576 491.50 531.50Q510 487 518 438Q526 389 526 333Q526 280 517.50 231.50Q509 183 489 138Q469 93 440.50 60.50Q412 28 368 8.50Q324-11 271-11M282 305Q336 305 385.50 336.50Q435 368 464 419Q460 470 442 514Q424 558 383 592Q342 626 283 626Q204 626 159.50 576.50Q115 527 115 466Q115 387 161 346Q207 305 282 305Z"  horiz-adv-x="584" vert-adv-y="1000"  />

      
      <glyph glyph-name="uni3a" unicode="&#x3a;" d="M140.50 416Q140.50 416 133.75 409.50Q127 403 109 403Q91 403 78 416Q65 429 65 446Q65 464 78 477Q91 490 109 490Q127 490 140.50 477Q154 464 154 446Q154 429 140.50 416M140.50 3.50Q140.50 3.50 133.75-3.25Q127-10 109-10Q91-10 78 3.50Q65 17 65 35Q65 52 78 65Q91 78 109 78Q127 78 140.50 65Q154 52 154 35Q154 17 140.50 3.50Z"  horiz-adv-x="219" vert-adv-y="1000"  />

      
      <glyph glyph-name="uni3b" unicode="&#x3b;" d="M140.50 416Q140.50 416 133.75 409.50Q127 403 109 403Q91 403 78 416Q65 429 65 446Q65 464 78 477Q91 490 109 490Q127 490 140.50 477Q154 464 154 446Q154 429 140.50 416M159 14Q159-26 138.50-63Q118-100 87-122L58-97Q82-81 98-54.50Q114-28 116-5Q109-6 106-6Q88-6 76.50 6Q65 18 65 36Q65 53 77.50 66Q90 79 108 79Q129 79 144 61.50Q159 44 159 14Z"  horiz-adv-x="219" vert-adv-y="1000"  />

      
      <glyph glyph-name="uni3c" unicode="&#x3c;" d="M467 90L29 316L29 353L467 580L467 531L81 334L467 139L467 90Z"  horiz-adv-x="496" vert-adv-y="1000"  />

      
      <glyph glyph-name="uni3d" unicode="&#x3d;" d="M467 411L29 411L29 453L467 453L467 411M467 216L29 216L29 257L467 257L467 216Z"  horiz-adv-x="496" vert-adv-y="1000"  />

      
      <glyph glyph-name="uni3e" unicode="&#x3e;" d="M467 316L29 90L29 139L415 334L29 531L29 580L467 353L467 316Z"  horiz-adv-x="496" vert-adv-y="1000"  />

      
      <glyph glyph-name="uni3f" unicode="&#x3f;" d="M214 176Q173 210 173 255Q173 291 193 320Q213 349 241.50 369Q270 389 299 408.50Q328 428 348 455.50Q368 483 368 517Q368 563 332.50 594Q297 625 234 625Q125 625 58 535L22 572Q99 677 237 677Q324 677 376 632.50Q428 588 428 523Q428 481 407 447Q386 413 356 391Q326 369 296 349.50Q266 330 245 305.50Q224 281 224 252Q224 223 254 201L214 176M254 3.50Q254 3.50 247.50-3.25Q241-10 223-10Q205-10 192 3.50Q179 17 179 35Q179 52 192 65Q205 78 223 78Q241 78 254 65Q267 52 267 35Q267 17 254 3.50Z"  horiz-adv-x="464" vert-adv-y="1000"  />

      
      <glyph glyph-name="uni40" unicode="&#x40;" d="M352-70Q216-70 125.50 20.50Q35 111 35 244Q35 350 90.50 441.50Q146 533 237.50 585.50Q329 638 432 638Q571 638 659 545.50Q747 453 747 316Q747 208 699 146.50Q651 85 585 85Q546 85 522 110Q498 135 497 170L496 176Q468 137 424 111Q380 85 332 85Q263 85 221 128.50Q179 172 179 245Q179 349 252.50 424Q326 499 418 499Q465 499 499 476Q533 453 548 417L561 482L610 482L551 200Q549 188 549 181Q549 156 563.50 141Q578 126 599 126Q639 126 677 172.50Q715 219 715 317Q715 442 635 524Q555 606 429 606Q284 606 175.50 496.50Q67 387 67 245Q67 124 149 42.50Q231-39 356-39Q455-39 543 18L560-7Q462-70 352-70M342 126Q437 126 506 227L538 375Q527 407 498 432.50Q469 458 424 458Q345 458 288 393.50Q231 329 231 248Q231 194 260.50 160Q290 126 342 126Z"  horiz-adv-x="783" vert-adv-y="1000"  />

      
      <glyph glyph-name="uni41" unicode="&#x41;" d="M632 0L566 0L500 164L147 164L81 0L15 0L288 667L359 667L632 0M481 216L323 606L166 216L481 216Z"  horiz-adv-x="647" vert-adv-y="1000"  />

      
      <glyph glyph-name="uni42" unicode="&#x42;" d="M363 0L83 0L83 667L357 667Q441 667 491 621Q541 575 541 497Q541 437 506.50 395.50Q472 354 424 344Q477 336 515.50 287.50Q554 239 554 180Q554 97 503 48.50Q452 0 363 0M350 368Q412 368 446.50 402.50Q481 437 481 491Q481 544 446.50 579.50Q412 615 350 615L140 615L140 368L350 368M354 52Q420 52 457 87.50Q494 123 494 184Q494 239 457 277.50Q420 316 354 316L140 316L140 52L354 52Z"  horiz-adv-x="614" vert-adv-y="1000"  />

      
      <glyph glyph-name="uni43" unicode="&#x43;" d="M396-12Q252-12 155 84.50Q58 181 58 333Q58 485 155 581.50Q252 678 396 678Q544 678 639 560L591 529Q559 573 507 599.50Q455 626 396 626Q277 626 197.50 544Q118 462 118 333Q118 205 197.50 122.50Q277 40 396 40Q455 40 507 66.50Q559 93 591 137L639 107Q543-12 396-12Z"  horiz-adv-x="672" vert-adv-y="1000"  />

      
      <glyph glyph-name="uni44" unicode="&#x44;" d="M296 0L83 0L83 667L296 667Q447 667 540 570.50Q633 474 633 333Q633 191 540.50 95.50Q448 0 296 0M296 52Q424 52 498.50 132Q573 212 573 333Q573 454 499 534.50Q425 615 296 615L140 615L140 52L296 52Z"  horiz-adv-x="692" vert-adv-y="1000"  />

      
      <glyph glyph-name="uni45" unicode="&#x45;" d="M506 0L83 0L83 667L506 667L506 615L140 615L140 368L499 368L499 316L140 316L140 52L506 52L506 0Z"  horiz-adv-x="564" vert-adv-y="1000"  />

      
      <glyph glyph-name="uni46" unicode="&#x46;" d="M140 0L83 0L83 667L506 667L506 615L140 615L140 368L499 368L499 316L140 316L140 0Z"  horiz-adv-x="542" vert-adv-y="1000"  />

      
      <glyph glyph-name="uni47" unicode="&#x47;" d="M396-13Q253-13 155.50 84Q58 181 58 333Q58 485 155.50 581.50Q253 678 396 678Q548 678 647 564L604 533Q568 576 513.50 601Q459 626 396 626Q277 626 197.50 544Q118 462 118 333Q118 205 197.50 122Q277 39 396 39Q457 39 508 63Q559 87 592 120L592 280L340 280L340 331L649 331L649 98Q550-13 396-13Z"  horiz-adv-x="711" vert-adv-y="1000"  />

      
      <glyph glyph-name="uni48" unicode="&#x48;" d="M621 0L563 0L563 317L140 317L140 0L83 0L83 667L140 667L140 369L563 369L563 667L621 667L621 0Z"  horiz-adv-x="703" vert-adv-y="1000"  />

      
      <glyph glyph-name="uni49" unicode="&#x49;" d="M140 0L83 0L83 667L140 667L140 0Z"  horiz-adv-x="223" vert-adv-y="1000"  />

      
      <glyph glyph-name="uni4a" unicode="&#x4a;" d="M185-12Q77-12 14 70L49 113Q105 40 182 40Q249 40 289 82.50Q329 125 329 193L329 667L387 667L387 193Q387 93 330 40.50Q273-12 185-12Z"  horiz-adv-x="470" vert-adv-y="1000"  />

      
      <glyph glyph-name="uni4b" unicode="&#x4b;" d="M562 0L489 0L214 314L140 233L140 0L83 0L83 667L140 667L140 302L462 667L535 667L251 349L562 0Z"  horiz-adv-x="586" vert-adv-y="1000"  />

      
      <glyph glyph-name="uni4c" unicode="&#x4c;" d="M463 0L83 0L83 667L140 667L140 52L463 52L463 0Z"  horiz-adv-x="504" vert-adv-y="1000"  />

      
      <glyph glyph-name="uni4d" unicode="&#x4d;" d="M707 0L649 0L649 589L406 0L384 0L140 589L140 0L83 0L83 667L168 667L395 117L621 667L707 667L707 0Z"  horiz-adv-x="790" vert-adv-y="1000"  />

      
      <glyph glyph-name="uni4e" unicode="&#x4e;" d="M616 0L560 0L140 573L140 0L83 0L83 667L141 667L559 102L559 667L616 667L616 0Z"  horiz-adv-x="699" vert-adv-y="1000"  />

      
      <glyph glyph-name="uni4f" unicode="&#x4f;" d="M382-12Q237-12 147.50 86Q58 184 58 333Q58 482 147.50 580Q237 678 382 678Q526 678 616 580Q706 482 706 333Q706 184 616 86Q526-12 382-12M382 40Q500 40 573 122.50Q646 205 646 333Q646 462 573.50 544Q501 626 382 626Q262 626 190 544Q118 462 118 333Q118 205 190 122.50Q262 40 382 40Z"  horiz-adv-x="764" vert-adv-y="1000"  />

      
      <glyph glyph-name="uni50" unicode="&#x50;" d="M140 0L83 0L83 667L333 667Q426 667 480 610.50Q534 554 534 472Q534 390 479.50 333.50Q425 277 333 277L140 277L140 0M327 329Q393 329 433.50 369Q474 409 474 472Q474 535 433.50 575Q393 615 327 615L140 615L140 329L327 329Z"  horiz-adv-x="571" vert-adv-y="1000"  />

      
      <glyph glyph-name="uni51" unicode="&#x51;" d="M382-12Q237-12 147.50 86Q58 184 58 333Q58 482 147.50 580Q237 678 382 678Q526 678 616 580Q706 482 706 333Q706 180 611 82L681 9L642-27L571 46Q491-12 382-12M382 40Q468 40 533 86L430 193L470 230L573 122Q646 206 646 333Q646 462 573.50 544Q501 626 382 626Q262 626 190 544Q118 462 118 333Q118 205 190 122.50Q262 40 382 40Z"  horiz-adv-x="764" vert-adv-y="1000"  />

      
      <glyph glyph-name="uni52" unicode="&#x52;" d="M543 0L474 0L287 276L140 276L140 0L83 0L83 667L332 667Q420 667 477.50 614Q535 561 535 472Q535 385 481.50 334Q428 283 350 280L543 0M327 328Q393 328 434 368.50Q475 409 475 472Q475 535 434 575Q393 615 327 615L140 615L140 328L327 328Z"  horiz-adv-x="594" vert-adv-y="1000"  />

      
      <glyph glyph-name="uni53" unicode="&#x53;" d="M290-12Q133-12 46 94L83 137Q166 40 291 40Q384 40 425.50 80.50Q467 121 467 173Q467 213 445 240.50Q423 268 387.50 283Q352 298 309.50 310Q267 322 224.50 335.50Q182 349 146.50 367.50Q111 386 89 419.50Q67 453 67 500Q67 580 130 629Q193 678 286 678Q429 678 512 584L474 542Q404 626 283 626Q216 626 171.50 591.50Q127 557 127 503Q127 469 149 444.50Q171 420 206.50 406.50Q242 393 284.50 381.50Q327 370 369.50 355.50Q412 341 447.50 321Q483 301 505 264.50Q527 228 527 177Q527 101 470 44.50Q413-12 290-12Z"  horiz-adv-x="581" vert-adv-y="1000"  />

      
      <glyph glyph-name="uni54" unicode="&#x54;" d="M311 0L253 0L253 615L35 615L35 667L529 667L529 615L311 615L311 0Z"  horiz-adv-x="564" vert-adv-y="1000"  />

      
      <glyph glyph-name="uni55" unicode="&#x55;" d="M343-12Q217-12 150 59.50Q83 131 83 256L83 667L141 667L141 257Q141 155 193.50 97.50Q246 40 343 40Q441 40 493 97Q545 154 545 257L545 667L603 667L603 256Q603 130 536.50 59Q470-12 343-12Z"  horiz-adv-x="686" vert-adv-y="1000"  />

      
      <glyph glyph-name="uni56" unicode="&#x56;" d="M359 0L288 0L15 667L81 667L323 64L566 667L632 667L359 0Z"  horiz-adv-x="647" vert-adv-y="1000"  />

      
      <glyph glyph-name="uni57" unicode="&#x57;" d="M658 0L594 0L434 573L274 0L210 0L19 667L83 667L244 80L408 667L460 667L623 80L784 667L848 667L658 0Z"  horiz-adv-x="867" vert-adv-y="1000"  />

      
      <glyph glyph-name="uni58" unicode="&#x58;" d="M626 0L555 0L322 301L90 0L18 0L287 342L33 667L106 667L322 384L539 667L611 667L358 343L626 0Z"  horiz-adv-x="645" vert-adv-y="1000"  />

      
      <glyph glyph-name="uni59" unicode="&#x59;" d="M338 0L280 0L280 285L15 667L84 667L309 339L534 667L603 667L338 285L338 0Z"  horiz-adv-x="618" vert-adv-y="1000"  />

      
      <glyph glyph-name="uni5a" unicode="&#x5a;" d="M531 0L50 0L50 50L452 615L50 615L50 667L524 667L524 618L122 52L531 52L531 0Z"  horiz-adv-x="581" vert-adv-y="1000"  />

      
      <glyph glyph-name="uni5b" unicode="&#x5b;" d="M211-190L37-190L37 678L211 678L211 635L81 635L81-147L211-147L211-190Z"  horiz-adv-x="228" vert-adv-y="1000"  />

      
      <glyph glyph-name="uni5c" unicode="&#x5c;" d="M237-20L0 687L45 687L282-20L237-20Z"  horiz-adv-x="282" vert-adv-y="1000"  />

      
      <glyph glyph-name="uni5d" unicode="&#x5d;" d="M191-190L17-190L17-147L147-147L147 635L17 635L17 678L191 678L191-190Z"  horiz-adv-x="228" vert-adv-y="1000"  />

      
      <glyph glyph-name="uni5e" unicode="&#x5e;" d="M409 333L361 333L214 626L67 333L19 333L193 667L235 667L409 333Z"  horiz-adv-x="428" vert-adv-y="1000"  />

      
      <glyph glyph-name="uni5f" unicode="&#x5f;" d="M567-83L-3-83L-3-40L567-40L567-83Z"  horiz-adv-x="564" vert-adv-y="1000"  />

      
      <glyph glyph-name="uni60" unicode="&#x60;" d="M216 556L172 556L0 700L62 700L216 556Z"  horiz-adv-x="216" vert-adv-y="1000"  />

      
      <glyph glyph-name="uni61" unicode="&#x61;" d="M440 0L388 0L388 57Q325-12 224-12Q157-12 106 31.50Q55 75 55 149Q55 224 105.50 266.50Q156 309 224 309Q326 309 388 240L388 338Q388 390 351 419.50Q314 449 258 449Q169 449 107 378L78 414Q153 495 264 495Q342 495 391 456Q440 417 440 340L440 0M242 29Q337 29 388 95L388 201Q336 268 242 268Q183 268 146.50 234Q110 200 110 148Q110 96 146.50 62.50Q183 29 242 29Z"  horiz-adv-x="521" vert-adv-y="1000"  />

      
      <glyph glyph-name="uni62" unicode="&#x62;" d="M133 121Q155 85 199 60Q243 35 292 35Q371 35 416 93Q461 151 461 241Q461 332 416 390Q371 448 292 448Q244 448 199.50 422Q155 396 133 360L133 121M133 0L81 0L81 667L133 667L133 405Q197 495 301 495Q398 495 457.50 425.50Q517 356 517 241Q517 126 457.50 57Q398-12 301-12Q249-12 204.50 13Q160 38 133 77L133 0Z"  horiz-adv-x="571" vert-adv-y="1000"  />

      
      <glyph glyph-name="uni63" unicode="&#x63;" d="M288-12Q183-12 118 61Q53 134 53 242Q53 350 118 422.50Q183 495 288 495Q394 495 459 413L423 381Q374 448 291 448Q208 448 158.50 389.50Q109 331 109 242Q109 153 158.50 94Q208 35 291 35Q373 35 423 103L459 71Q394-12 288-12Z"  horiz-adv-x="494" vert-adv-y="1000"  />

      
      <glyph glyph-name="uni64" unicode="&#x64;" d="M490 0L437 0L437 77Q410 38 365.50 13Q321-12 269-12Q172-12 112.50 57Q53 126 53 241Q53 355 113 425Q173 495 269 495Q373 495 437 405L437 667L490 667L490 0M278 35Q327 35 371 60Q415 85 437 121L437 360Q415 397 371 422.50Q327 448 278 448Q200 448 154.50 389.50Q109 331 109 241Q109 151 154.50 93Q200 35 278 35Z"  horiz-adv-x="571" vert-adv-y="1000"  />

      
      <glyph glyph-name="uni65" unicode="&#x65;" d="M295-12Q189-12 121 59Q53 130 53 242Q53 348 119.50 421.50Q186 495 286 495Q392 495 453 421.50Q514 348 514 239L514 225L110 225Q114 143 165 88Q216 33 299 33Q395 33 457 100L484 66Q409-12 295-12M461 266Q460 336 414.50 393Q369 450 285 450Q206 450 159.50 393.50Q113 337 110 266L461 266Z"  horiz-adv-x="567" vert-adv-y="1000"  />

      
      <glyph glyph-name="uni66" unicode="&#x66;" d="M150 0L98 0L98 437L18 437L18 483L98 483L98 527Q98 597 133 637Q168 677 229 677Q282 677 321 643L296 607Q269 632 234 632Q150 632 150 527L150 483L248 483L248 437L150 437L150 0Z"  horiz-adv-x="265" vert-adv-y="1000"  />

      
      <glyph glyph-name="uni67" unicode="&#x67;" d="M272-196Q209-196 166-180.50Q123-165 82-123L112-83Q143-120 180-135.50Q217-151 272-151Q344-151 390.50-112.50Q437-74 437 4L437 80Q410 41 365.50 15.50Q321-10 269-10Q172-10 112.50 58.50Q53 127 53 242Q53 356 113 425.50Q173 495 269 495Q373 495 437 405L437 483L490 483L490 5Q490-99 429.50-147.50Q369-196 272-196M278 37Q327 37 371 62.50Q415 88 437 125L437 360Q415 397 371 422.50Q327 448 278 448Q200 448 154.50 390Q109 332 109 242Q109 152 154.50 94.50Q200 37 278 37Z"  horiz-adv-x="570" vert-adv-y="1000"  />

      
      <glyph glyph-name="uni68" unicode="&#x68;" d="M459 0L407 0L407 329Q407 395 377 421.50Q347 448 290 448Q245 448 201 424Q157 400 133 365L133 0L81 0L81 667L133 667L133 410Q162 444 210 469.50Q258 495 307 495Q459 495 459 340L459 0Z"  horiz-adv-x="540" vert-adv-y="1000"  />

      
      <glyph glyph-name="uni69" unicode="&#x69;" d="M107 559Q91 559 79 571Q67 583 67 599Q67 615 79 626.50Q91 638 107 638Q124 638 135.50 626.50Q147 615 147 599Q147 582 135.50 570.50Q124 559 107 559M133 0L81 0L81 483L133 483L133 0Z"  horiz-adv-x="214" vert-adv-y="1000"  />

      
      <glyph glyph-name="uni6a" unicode="&#x6a;" d="M107 559Q91 559 79 571Q67 583 67 599Q67 615 79 626.50Q91 638 107 638Q124 638 135.50 626.50Q147 615 147 599Q147 582 135.50 570.50Q124 559 107 559M2-196Q-54-196-97-159L-74-118Q-43-151-3-151Q35-151 58-129Q81-107 81-62L81 483L133 483L133-62Q133-128 99-162Q65-196 2-196Z"  horiz-adv-x="214" vert-adv-y="1000"  />

      
      <glyph glyph-name="uni6b" unicode="&#x6b;" d="M486 0L416 0L223 230L133 145L133 0L81 0L81 667L133 667L133 207L418 483L487 483L262 265L486 0Z"  horiz-adv-x="505" vert-adv-y="1000"  />

      
      <glyph glyph-name="uni6c" unicode="&#x6c;" d="M133 0L81 0L81 667L133 667L133 0Z"  horiz-adv-x="214" vert-adv-y="1000"  />

      
      <glyph glyph-name="uni6d" unicode="&#x6d;" d="M708 0L656 0L656 338Q656 448 559 448Q521 448 481.50 424Q442 400 421 366L421 0L368 0L368 338Q368 448 271 448Q234 448 195 423.50Q156 399 133 365L133 0L81 0L81 483L133 483L133 410Q151 439 196.50 467Q242 495 289 495Q342 495 374 469Q406 443 416 404Q438 440 483 467.50Q528 495 576 495Q708 495 708 348L708 0Z"  horiz-adv-x="789" vert-adv-y="1000"  />

      
      <glyph glyph-name="uni6e" unicode="&#x6e;" d="M459 0L407 0L407 327Q407 393 377 420.50Q347 448 290 448Q245 448 201 424Q157 400 133 365L133 0L81 0L81 483L133 483L133 410Q162 444 210 469.50Q258 495 307 495Q459 495 459 338L459 0Z"  horiz-adv-x="540" vert-adv-y="1000"  />

      
      <glyph glyph-name="uni6f" unicode="&#x6f;" d="M285-12Q181-12 117 61Q53 134 53 242Q53 350 117 422.50Q181 495 285 495Q390 495 454 422.50Q518 350 518 242Q518 134 454 61Q390-12 285-12M285 35Q367 35 414.50 95.50Q462 156 462 242Q462 327 414.50 387.50Q367 448 285 448Q204 448 156.50 387.50Q109 327 109 242Q109 157 156.50 96Q204 35 285 35Z"  horiz-adv-x="571" vert-adv-y="1000"  />

      
      <glyph glyph-name="uni70" unicode="&#x70;" d="M301-12Q197-12 133 78L133-184L81-184L81 483L133 483L133 407Q160 446 204.50 470.50Q249 495 301 495Q398 495 457.50 426.50Q517 358 517 242Q517 127 457.50 57.50Q398-12 301-12M292 35Q371 35 416 93Q461 151 461 242Q461 332 416 390Q371 448 292 448Q243 448 199 423Q155 398 133 362L133 123Q155 87 199.50 61Q244 35 292 35Z"  horiz-adv-x="567" vert-adv-y="1000"  />

      
      <glyph glyph-name="uni71" unicode="&#x71;" d="M275 35Q323 35 367.50 61Q412 87 434 123L434 362Q412 398 368 423Q324 448 275 448Q196 448 151 390Q106 332 106 242Q106 151 151 93Q196 35 275 35M265-12Q169-12 109.50 57.50Q50 127 50 242Q50 357 109 426Q168 495 265 495Q318 495 362.50 470.50Q407 446 434 407L434 483L486 483L486-184L434-184L434 78Q370-12 265-12Z"  horiz-adv-x="567" vert-adv-y="1000"  />

      
      <glyph glyph-name="uni72" unicode="&#x72;" d="M133 0L81 0L81 483L133 483L133 400Q204 493 296 493L296 436Q287 438 270 438Q234 438 192 411Q150 384 133 352L133 0Z"  horiz-adv-x="317" vert-adv-y="1000"  />

      
      <glyph glyph-name="uni73" unicode="&#x73;" d="M225-12Q108-12 39 64L70 103Q95 72 136 52Q177 32 226 32Q285 32 320 59.50Q355 87 355 130Q355 166 323.50 187.50Q292 209 247.50 219.50Q203 230 158 242.50Q113 255 81.50 284Q50 313 50 361Q50 418 96.50 456.50Q143 495 222 495Q331 495 395 424L366 387Q319 451 222 451Q167 451 134 426Q101 401 101 363Q101 330 132.50 311Q164 292 208.50 281.50Q253 271 298 258Q343 245 374.50 213Q406 181 406 130Q406 68 359 28Q312-12 225-12Z"  horiz-adv-x="459" vert-adv-y="1000"  />

      
      <glyph glyph-name="uni74" unicode="&#x74;" d="M186-12Q91-12 91 93L91 437L11 437L11 483L91 483L91 615L144 615L144 483L242 483L242 437L144 437L144 101Q144 35 194 35Q227 35 248 58L268 18Q236-12 186-12Z"  horiz-adv-x="275" vert-adv-y="1000"  />

      
      <glyph glyph-name="uni75" unicode="&#x75;" d="M459 0L407 0L407 71Q374 35 328 11.50Q282-12 233-12Q157-12 119 25.50Q81 63 81 143L81 483L133 483L133 155Q133 88 163 61.50Q193 35 250 35Q295 35 338.50 58Q382 81 407 115L407 483L459 483L459 0Z"  horiz-adv-x="540" vert-adv-y="1000"  />

      
      <glyph glyph-name="uni76" unicode="&#x76;" d="M270 0L211 0L7 483L65 483L241 61L415 483L474 483L270 0Z"  horiz-adv-x="481" vert-adv-y="1000"  />

      
      <glyph glyph-name="uni77" unicode="&#x77;" d="M545 0L495 0L360 413L224 0L174 0L17 483L73 483L201 73L337 483L382 483L518 73L646 483L702 483L545 0Z"  horiz-adv-x="719" vert-adv-y="1000"  />

      
      <glyph glyph-name="uni78" unicode="&#x78;" d="M462 0L400 0L240 213L79 0L17 0L208 248L28 483L90 483L240 284L389 483L451 483L271 248L462 0Z"  horiz-adv-x="479" vert-adv-y="1000"  />

      
      <glyph glyph-name="uni79" unicode="&#x79;" d="M49-189L58-141Q76-149 100-149Q149-149 173-90L211-4L7 483L65 483L241 61L415 483L474 483L224-106Q186-196 100-196Q72-196 49-189Z"  horiz-adv-x="481" vert-adv-y="1000"  />

      
      <glyph glyph-name="uni7a" unicode="&#x7a;" d="M413 0L56 0L56 43L342 437L56 437L56 483L409 483L409 441L120 46L413 46L413 0Z"  horiz-adv-x="469" vert-adv-y="1000"  />

      
      <glyph glyph-name="uni7b" unicode="&#x7b;" d="M232-190L170-190Q126-190 92-155.50Q58-121 58-67L58 153Q58 183 44.50 203.50Q31 224 6 224L6 264Q31 264 44.50 284.50Q58 305 58 335L58 554Q58 608 92 643Q126 678 170 678L232 678L232 635L170 635Q142 635 122.50 612Q103 589 103 554L103 332Q103 264 57 244Q103 224 103 156L103-66Q103-101 122.50-124Q142-147 170-147L232-147L232-190Z"  horiz-adv-x="249" vert-adv-y="1000"  />

      
      <glyph glyph-name="uni7c" unicode="&#x7c;" d="M126-20L83-20L83 687L126 687L126-20Z"  horiz-adv-x="208" vert-adv-y="1000"  />

      
      <glyph glyph-name="uni7d" unicode="&#x7d;" d="M17-190L17-147L79-147Q107-147 126.50-124Q146-101 146-66L146 156Q146 224 192 244Q146 264 146 332L146 554Q146 589 126.50 612Q107 635 79 635L17 635L17 678L79 678Q123 678 157 643Q191 608 191 554L191 335Q191 305 204.50 284.50Q218 264 243 264L243 224Q218 224 204.50 203.50Q191 183 191 153L191-67Q191-121 157-155.50Q123-190 79-190L17-190Z"  horiz-adv-x="249" vert-adv-y="1000"  />

      
      <glyph glyph-name="uni7e" unicode="&#x7e;" d="M429 667L472 662Q467 612 459 574Q451 536 436 500.50Q421 465 396.50 446.50Q372 428 338 428Q304 428 281 448Q258 468 246.50 497Q235 526 225 555Q215 584 199.50 604Q184 624 161 624Q89 624 71 427L27 433Q38 539 68 602Q98 665 161 665Q195 665 218 644.50Q241 624 252.50 595Q264 566 274 537.50Q284 509 299.50 488.50Q315 468 338 468Q410 468 429 667Z"  horiz-adv-x="499" vert-adv-y="1000"  />

      
      <glyph glyph-name="unia1" unicode="&#xa1;" d="M76-184L89 309L130 309L144-184L76-184M66 449Q66 466 78.50 479Q91 492 109 492Q127 492 140.50 479Q154 466 154 449Q154 431 140.50 418Q127 405 109 405Q91 405 78.50 418Q66 431 66 449Z"  horiz-adv-x="219" vert-adv-y="1000"  />

      
      <glyph glyph-name="unia2" unicode="&#xa2;" d="M257-100L257-10Q165 1 109 71.50Q53 142 53 242Q53 341 109 411.50Q165 482 257 493L257 565L302 565L302 495Q397 490 459 413L423 381Q376 443 302 448L302 35Q375 38 423 103L459 71Q398-7 302-12L302-100L257-100M148.50 376.50Q148.50 376.50 128.75 348.75Q109 321 109 242Q109 163 148.50 106.50Q188 50 257 38L257 445Q188 432 148.50 376.50Z"  horiz-adv-x="494" vert-adv-y="1000"  />

      
      <glyph glyph-name="unia3" unicode="&#xa3;" d="M18 267L18 309L143 309Q140 313 122.50 331.50Q105 350 100 356.50Q95 363 82 381Q69 399 64 412Q59 425 54.50 444.50Q50 464 50 485Q50 564 112 620.50Q174 677 266 677Q328 677 378.50 648Q429 619 454 569L408 540Q393 575 355 601Q317 627 270 627Q203 627 157 588.50Q111 550 111 484Q111 455 121.50 427.50Q132 400 143.50 385Q155 370 176 345.50Q197 321 206 309L357 309L357 267L231 267Q241 240 241 214Q241 133 160 74Q185 83 214 83Q248 83 293.50 61Q339 39 368 39Q400 39 428 52Q456 65 468 80L495 33Q446-14 366-14Q319-14 273 9.50Q227 33 187 33Q145 33 69-7L47 41Q116 70 152.50 113.50Q189 157 189 206Q189 235 173 267L18 267Z"  horiz-adv-x="505" vert-adv-y="1000"  />

      
      <glyph glyph-name="unia4" unicode="&#xa4;" d="M293 96Q205 96 142 149L64 71L30 104L109 183Q62 247 62 333Q62 421 110 483L29 565L63 598L143 518Q204 569 293 569Q382 569 444 518L523 597L557 564L477 484Q525 421 525 333Q525 245 477 183L557 104L523 71L445 148Q384 96 293 96M293 145Q375 145 422.50 200Q470 255 470 333Q470 410 422.50 465Q375 520 293 520Q212 520 164 465Q116 410 116 333Q116 255 164 200Q212 145 293 145Z"  horiz-adv-x="588" vert-adv-y="1000"  />

      
      <glyph glyph-name="unia5" unicode="&#xa5;" d="M338 0L280 0L280 126L22 126L22 167L280 167L280 285L22 285L22 327L251 327L15 667L84 667L309 339L534 667L603 667L367 327L597 327L597 285L338 285L338 167L597 167L597 126L338 126L338 0Z"  horiz-adv-x="618" vert-adv-y="1000"  />

      
      <glyph glyph-name="unia6" unicode="&#xa6;" d="M126-20L83-20L83 296L126 296L126-20M126 371L83 371L83 687L126 687L126 371Z"  horiz-adv-x="208" vert-adv-y="1000"  />

      
      <glyph glyph-name="unia7" unicode="&#xa7;" d="M406 311Q406 224 310 183Q406 147 406 62Q406-5 356.50-43Q307-81 225-81Q112-81 39-4L70 32Q128-40 225-40Q282-40 318.50-13Q355 14 355 60Q355 97 323.50 119Q292 141 247.50 151.50Q203 162 158 175Q113 188 81.50 217Q50 246 50 294Q50 345 84 377.50Q118 410 173 423Q113 441 81.50 469Q50 497 50 545Q50 600 96 638.50Q142 677 222 677Q334 677 394 605L366 572Q317 636 223 636Q169 636 135 610.50Q101 585 101 544Q101 510 132.50 491Q164 472 208.50 462Q253 452 298 439.50Q343 427 374.50 395Q406 363 406 311M354 307Q354 330 343.50 347Q333 364 312.50 375.50Q292 387 274 393.50Q256 400 229 407Q158 388 129.50 361.50Q101 335 101 297Q101 275 112.50 259Q124 243 145.50 233Q167 223 191.50 215.50Q216 208 247 201Q250 201 252 200.50Q254 200 256.50 199.50Q259 199 261 198Q354 238 354 307Z"  horiz-adv-x="461" vert-adv-y="1000"  />

      
      <glyph glyph-name="unia8" unicode="&#xa8;" d="M259 627Q259 627 264.50 621.50Q270 616 270 601Q270 586 259 575Q248 564 233 564Q218 564 207 575Q196 586 196 601Q196 616 207 627Q218 638 233 638Q248 638 259 627M55 627Q55 627 60.50 621.50Q66 616 66 601Q66 586 55 575Q44 564 29 564Q14 564 3 575Q-8 586-8 601Q-8 616 3 627Q14 638 29 638Q44 638 55 627Z"  horiz-adv-x="262" vert-adv-y="1000"  />

      
      <glyph glyph-name="unia9" unicode="&#xa9;" d="M633 578Q633 578 683.50 527.50Q734 477 734 334Q734 191 633 90Q532-11 389-11Q246-11 145 90.50Q44 192 44 334Q44 477 145 578Q246 679 389 679Q532 679 633 578M613 110Q613 110 659.50 156.50Q706 203 706 334Q706 465 613 558Q520 651 389 651Q258 651 165 558Q72 465 72 334Q72 204 165 110.50Q258 17 389 17Q520 17 613 110M513 208L535 186Q478 120 390 120Q303 120 242.50 182.50Q182 245 182 336Q182 427 242.50 488Q303 549 390 549Q480 549 535 484L512 462Q493 488 459.50 503.50Q426 519 390 519Q319 519 267 467.50Q215 416 215 335Q215 256 267 203Q319 150 390 150Q426 150 460 166Q494 182 513 208Z"  horiz-adv-x="778" vert-adv-y="1000"  />

      
      <glyph glyph-name="uniaa" unicode="&#xaa;" d="M310 326L268 326L268 363Q226 318 158 318Q113 318 79.50 346.50Q46 375 46 423Q46 471 79.50 498.50Q113 526 158 526Q226 526 268 482L268 543Q268 576 243 594.50Q218 613 183 613Q121 613 83 565L61 593Q112 648 188 648Q242 648 276 622Q310 596 310 543L310 326M174 348Q235 348 268 390L268 455Q236 496 174 496Q137 496 113 475.50Q89 455 89 423Q89 390 113 369Q137 348 174 348Z"  horiz-adv-x="375" vert-adv-y="1000"  />

      
      <glyph glyph-name="uniab" unicode="&#xab;" d="M372 63L315 63L155 243L315 420L372 420L212 243L372 63M247 63L190 63L30 243L190 420L247 420L87 243L247 63Z"  horiz-adv-x="402" vert-adv-y="1000"  />

      
      <glyph glyph-name="uniac" unicode="&#xac;" d="M467 453L467 216L424 216L424 411L29 411L29 453L467 453Z"  horiz-adv-x="499" vert-adv-y="1000"  />

      
      <glyph glyph-name="uniad" unicode="&#xad;" d="M270 218L30 218L30 266L270 266L270 218Z"  horiz-adv-x="300" vert-adv-y="1000"  />

      
      <glyph glyph-name="uniae" unicode="&#xae;" d="M459 465Q459 377 397 315Q335 253 247 253Q159 253 97 315Q35 377 35 465Q35 553 97 615Q159 677 247 677Q336 677 397.50 615.50Q459 554 459 465M432 465Q432 542 378 596Q324 650 247 650Q170 650 116 596Q62 542 62 465Q62 389 116.50 334.50Q171 280 247 280Q323 280 377.50 334.50Q432 389 432 465M344 343L306 343L243 439L197 439L197 343L167 343L167 586L266 586Q298 586 319.50 565.50Q341 545 341 512Q341 477 318.50 458.50Q296 440 279 440L344 343M310 512Q310 531 296.50 544.50Q283 558 266 558L197 558L197 468L266 468Q282 468 296 481Q310 494 310 512Z"  horiz-adv-x="494" vert-adv-y="1000"  />

      
      <glyph glyph-name="uniaf" unicode="&#xaf;" d="M363 577L0 577L0 614L363 614L363 577Z"  horiz-adv-x="363" vert-adv-y="1000"  />

      
      <glyph glyph-name="unib0" unicode="&#xb0;" d="M223 642.50Q223 642.50 240 625.25Q257 608 257 560Q257 512 223 478.50Q189 445 140 445Q92 445 58.50 478.50Q25 512 25 560Q25 608 58.50 642.50Q92 677 140 677Q189 677 223 642.50M218 560Q218 592 195 615Q172 638 140 638Q109 638 86.50 615Q64 592 64 560Q64 528 86 506Q108 484 140 484Q172 484 195 506.50Q218 529 218 560Z"  horiz-adv-x="282" vert-adv-y="1000"  />

      
      <glyph glyph-name="unib1" unicode="&#xb1;" d="M467 323L271 323L271 105L226 105L226 323L29 323L29 364L226 364L226 576L271 576L271 364L467 364L467 323M467 0L29 0L29 41L467 41L467 0Z"  horiz-adv-x="496" vert-adv-y="1000"  />

      
      <glyph glyph-name="unib2" unicode="&#xb2;" d="M333 421L52 421L52 456Q174 543 230.50 600.50Q287 658 287 710Q287 750 260 769.50Q233 789 194 789Q119 789 81 737L54 765Q102 827 195 827Q250 827 290.50 798Q331 769 331 712Q331 652 276.50 593Q222 534 118 459L333 459L333 421Z"  horiz-adv-x="384" vert-adv-y="1000"  />

      
      <glyph glyph-name="unib3" unicode="&#xb3;" d="M334 529Q334 478 295 446Q256 414 190 414Q141 414 103 432Q65 450 46 479L72 507Q114 452 189 452Q236 452 262.50 472.50Q289 493 289 530Q289 570 258.50 589Q228 608 179 608Q147 608 141 607L141 646Q148 645 179 645Q225 645 254 662.50Q283 680 283 717Q283 751 255.50 770Q228 789 187 789Q122 789 76 739L51 766Q103 827 190 827Q250 827 288.50 798.50Q327 770 327 721Q327 680 299.50 656.50Q272 633 238 628Q272 625 303 599.50Q334 574 334 529Z"  horiz-adv-x="384" vert-adv-y="1000"  />

      
      <glyph glyph-name="unib4" unicode="&#xb4;" d="M216 700L44 556L0 556L154 700L216 700Z"  horiz-adv-x="216" vert-adv-y="1000"  />

      
      <glyph glyph-name="unib5" unicode="&#xb5;" d="M133 44L133-184L81-184L81 483L133 483L133 155Q133 33 251 33Q295 33 338.50 57Q382 81 407 115L407 483L459 483L459 99Q459 35 508 35Q520 35 528 37L532-9Q520-12 501-12Q420-12 408 74Q379 37 335.50 12.50Q292-12 247-12Q163-12 133 44Z"  horiz-adv-x="554" vert-adv-y="1000"  />

      
      <glyph glyph-name="unib6" unicode="&#xb6;" d="M368-100L330-100L330 630L237 630L237-100L199-100L199 323Q128 323 77.50 373.50Q27 424 27 495Q27 566 77.50 616.50Q128 667 199 667L368 667L368-100Z"  horiz-adv-x="449" vert-adv-y="1000"  />

      
      <glyph glyph-name="unib7" unicode="&#xb7;" d="M154 245Q154 227 140.50 214Q127 201 109 201Q91 201 78 214Q65 227 65 245Q65 262 78 275Q91 288 109 288Q127 288 140.50 275Q154 262 154 245Z"  horiz-adv-x="219" vert-adv-y="1000"  />

      
      <glyph glyph-name="unib8" unicode="&#xb8;" d="M97-189Q34-189 0-160L16-128Q51-156 96-156Q124-156 142.50-144Q161-132 161-111Q161-72 120-72Q95-72 80-89L52-73L83 11L121 11L95-57Q110-45 132-45Q161-45 179.50-63Q198-81 198-111Q198-146 169-167.50Q140-189 97-189Z"  horiz-adv-x="198" vert-adv-y="1000"  />

      
      <glyph glyph-name="unib9" unicode="&#xb9;" d="M154 421L108 421L108 762L44 693L17 722L114 821L154 821L154 421Z"  horiz-adv-x="214" vert-adv-y="1000"  />

      
      <glyph glyph-name="uniba" unicode="&#xba;" d="M202 318Q132 318 88 365.50Q44 413 44 483Q44 553 88 600.50Q132 648 202 648Q273 648 317 601Q361 554 361 483Q361 413 317 365.50Q273 318 202 318M202 355Q255 355 286 391.50Q317 428 317 483Q317 537 286 573.50Q255 610 202 610Q150 610 119.50 574Q89 538 89 483Q89 428 119.50 391.50Q150 355 202 355Z"  horiz-adv-x="405" vert-adv-y="1000"  />

      
      <glyph glyph-name="unibb" unicode="&#xbb;" d="M247 243L87 63L30 63L190 243L30 420L87 420L247 243M372 243L212 63L155 63L315 243L155 420L212 420L372 243Z"  horiz-adv-x="402" vert-adv-y="1000"  />

      
      <glyph glyph-name="unibc" unicode="&#xbc;" d="M154 267L108 267L108 608L44 539L17 568L114 667L154 667L154 267M701 107L641 107L641 0L597 0L597 107L401 107L401 142L580 400L641 400L641 144L701 144L701 107M597 144L597 359L447 144L597 144M568 667L141 0L96 0L522 667L568 667Z"  horiz-adv-x="742" vert-adv-y="1000"  />

      
      <glyph glyph-name="unibd" unicode="&#xbd;" d="M154 267L108 267L108 608L44 539L17 568L114 667L154 667L154 267M730 0L449 0L449 35Q571 122 627.50 179.50Q684 237 684 289Q684 329 657 348.50Q630 368 591 368Q516 368 478 316L451 344Q499 406 592 406Q647 406 687.50 377Q728 348 728 291Q728 231 673.50 172Q619 113 515 38L730 38L730 0M568 667L141 0L96 0L522 667L568 667Z"  horiz-adv-x="781" vert-adv-y="1000"  />

      
      <glyph glyph-name="unibe" unicode="&#xbe;" d="M818 107L758 107L758 0L714 0L714 107L518 107L518 142L697 400L758 400L758 144L818 144L818 107M714 144L714 359L564 144L714 144M685 667L258 0L213 0L639 667L685 667M334 375Q334 324 295 292Q256 260 190 260Q141 260 103 278Q65 296 46 325L72 353Q114 298 189 298Q236 298 262.50 318.50Q289 339 289 376Q289 416 258.50 435Q228 454 179 454Q147 454 141 453L141 492Q148 491 179 491Q225 491 254 508.50Q283 526 283 563Q283 597 255.50 616Q228 635 187 635Q122 635 76 585L51 612Q103 673 190 673Q250 673 288.50 644.50Q327 616 327 567Q327 526 299.50 502.50Q272 479 238 474Q272 471 303 445.50Q334 420 334 375Z"  horiz-adv-x="859" vert-adv-y="1000"  />

      
      <glyph glyph-name="unibf" unicode="&#xbf;" d="M250 304Q292 270 292 225Q292 189 272 160Q252 131 223 111Q194 91 165 71.50Q136 52 116 24.50Q96-3 96-37Q96-83 132-114Q168-145 231-145Q292-145 332.50-122Q373-99 406-55L442-92Q365-197 227-197Q140-197 88-152.50Q36-108 36-43Q36-1 57 33Q78 67 108 89Q138 111 168 131Q198 151 219 175.50Q240 200 240 229Q240 258 210 279L250 304M210 479Q210 479 216.50 485.50Q223 492 241 492Q259 492 272.50 479Q286 466 286 448Q286 431 272.50 418Q259 405 241 405Q223 405 210 418Q197 431 197 448Q197 466 210 479Z"  horiz-adv-x="393" vert-adv-y="1000"  />

      
      <glyph glyph-name="unic0" unicode="&#xc0;" d="M632 0L566 0L500 164L147 164L81 0L15 0L288 667L359 667L632 0M481 216L323 606L166 216L481 216M378 723L334 723L162 867L224 867L378 723Z"  horiz-adv-x="647" vert-adv-y="1000"  />

      
      <glyph glyph-name="unic1" unicode="&#xc1;" d="M632 0L566 0L500 164L147 164L81 0L15 0L288 667L359 667L632 0M481 216L323 606L166 216L481 216M486 867L314 723L270 723L424 867L486 867Z"  horiz-adv-x="647" vert-adv-y="1000"  />

      
      <glyph glyph-name="unic2" unicode="&#xc2;" d="M450 723L410 723L324 836L239 723L200 723L297 867L351 867L450 723M632 0L566 0L500 164L147 164L81 0L15 0L288 667L359 667L632 0M481 216L323 606L166 216L481 216Z"  horiz-adv-x="647" vert-adv-y="1000"  />

      
      <glyph glyph-name="unic3" unicode="&#xc3;" d="M632 0L566 0L500 164L147 164L81 0L15 0L288 667L359 667L632 0M481 216L323 606L166 216L481 216M385 721Q360 721 341.50 737Q323 753 314 772.50Q305 792 290.50 808Q276 824 259 824Q235 824 220 800Q205 776 205 727L170 727Q170 785 194.50 823Q219 861 263 861Q288 861 306.50 845Q325 829 333.50 810Q342 791 356.50 775Q371 759 388 759Q412 759 426.50 783Q441 807 441 855L477 855Q477 796 453 758.50Q429 721 385 721Z"  horiz-adv-x="647" vert-adv-y="1000"  />

      
      <glyph glyph-name="unic4" unicode="&#xc4;" d="M452 794Q452 794 457.50 788.50Q463 783 463 768Q463 753 452 742Q441 731 426 731Q411 731 400 742Q389 753 389 768Q389 783 400 794Q411 805 426 805Q441 805 452 794M248 794Q248 794 253.50 788.50Q259 783 259 768Q259 753 248 742Q237 731 222 731Q207 731 196 742Q185 753 185 768Q185 783 196 794Q207 805 222 805Q237 805 248 794M632 0L566 0L500 164L147 164L81 0L15 0L288 667L359 667L632 0M481 216L323 606L166 216L481 216Z"  horiz-adv-x="647" vert-adv-y="1000"  />

      
      <glyph glyph-name="unic5" unicode="&#xc5;" d="M632 0L566 0L500 164L147 164L81 0L15 0L288 667L359 667L632 0M481 216L323 606L166 216L481 216M325 691Q285 691 257 719Q229 747 229 787Q229 826 257 854.50Q285 883 325 883Q364 883 391.50 854.50Q419 826 419 787Q419 747 391.50 719Q364 691 325 691M280 742Q280 742 289.50 732.50Q299 723 325 723Q351 723 369.50 742Q388 761 388 787Q388 813 369.50 832Q351 851 325 851Q299 851 280 832Q261 813 261 787Q261 761 280 742Z"  horiz-adv-x="647" vert-adv-y="1000"  />

      
      <glyph glyph-name="unic6" unicode="&#xc6;" d="M879 0L456 0L456 164L182 164L80 0L14 0L435 667L879 667L879 615L514 615L514 368L872 368L872 316L514 316L514 52L879 52L879 0M456 216L456 606L211 216L456 216Z"  horiz-adv-x="939" vert-adv-y="1000"  />

      
      <glyph glyph-name="unic7" unicode="&#xc7;" d="M390-185Q327-185 293-156L309-124Q344-152 389-152Q417-152 435.50-140Q454-128 454-107Q454-68 413-68Q388-68 373-85L345-69L366-11Q233 0 145.50 95Q58 190 58 333Q58 485 155 581.50Q252 678 396 678Q544 678 639 560L591 529Q559 573 507 599.50Q455 626 396 626Q277 626 197.50 544Q118 462 118 333Q118 205 197.50 122.50Q277 40 396 40Q455 40 507 66.50Q559 93 591 137L639 107Q545-9 403-12L388-53Q403-41 425-41Q454-41 472.50-59Q491-77 491-107Q491-142 462-163.50Q433-185 390-185Z"  horiz-adv-x="672" vert-adv-y="1000"  />

      
      <glyph glyph-name="unic8" unicode="&#xc8;" d="M506 0L83 0L83 667L506 667L506 615L140 615L140 368L499 368L499 316L140 316L140 52L506 52L506 0M349 723L305 723L133 867L195 867L349 723Z"  horiz-adv-x="564" vert-adv-y="1000"  />

      
      <glyph glyph-name="unic9" unicode="&#xc9;" d="M456 867L284 723L240 723L394 867L456 867M506 0L83 0L83 667L506 667L506 615L140 615L140 368L499 368L499 316L140 316L140 52L506 52L506 0Z"  horiz-adv-x="564" vert-adv-y="1000"  />

      
      <glyph glyph-name="unica" unicode="&#xca;" d="M418 723L378 723L292 836L207 723L168 723L265 867L319 867L418 723M506 0L83 0L83 667L506 667L506 615L140 615L140 368L499 368L499 316L140 316L140 52L506 52L506 0Z"  horiz-adv-x="564" vert-adv-y="1000"  />

      
      <glyph glyph-name="unicb" unicode="&#xcb;" d="M421 794Q421 794 426.50 788.50Q432 783 432 768Q432 753 421 742Q410 731 395 731Q380 731 369 742Q358 753 358 768Q358 783 369 794Q380 805 395 805Q410 805 421 794M217 794Q217 794 222.50 788.50Q228 783 228 768Q228 753 217 742Q206 731 191 731Q176 731 165 742Q154 753 154 768Q154 783 165 794Q176 805 191 805Q206 805 217 794M506 0L83 0L83 667L506 667L506 615L140 615L140 368L499 368L499 316L140 316L140 52L506 52L506 0Z"  horiz-adv-x="564" vert-adv-y="1000"  />

      
      <glyph glyph-name="unicc" unicode="&#xcc;" d="M140 0L83 0L83 667L140 667L140 0M166 723L122 723L-50 867L12 867L166 723Z"  horiz-adv-x="223" vert-adv-y="1000"  />

      
      <glyph glyph-name="unicd" unicode="&#xcd;" d="M140 0L83 0L83 667L140 667L140 0M274 867L102 723L58 723L212 867L274 867Z"  horiz-adv-x="223" vert-adv-y="1000"  />

      
      <glyph glyph-name="unice" unicode="&#xce;" d="M238 723L198 723L112 836L27 723L-12 723L85 867L139 867L238 723M140 0L83 0L83 667L140 667L140 0Z"  horiz-adv-x="223" vert-adv-y="1000"  />

      
      <glyph glyph-name="unicf" unicode="&#xcf;" d="M240 794Q240 794 245.50 788.50Q251 783 251 768Q251 753 240 742Q229 731 214 731Q199 731 188 742Q177 753 177 768Q177 783 188 794Q199 805 214 805Q229 805 240 794M36 794Q36 794 41.50 788.50Q47 783 47 768Q47 753 36 742Q25 731 10 731Q-5 731-16 742Q-27 753-27 768Q-27 783-16 794Q-5 805 10 805Q25 805 36 794M140 0L83 0L83 667L140 667L140 0Z"  horiz-adv-x="223" vert-adv-y="1000"  />

      
      <glyph glyph-name="unid0" unicode="&#xd0;" d="M326 0L113 0L113 309L11 309L11 353L113 353L113 667L326 667Q477 667 570 570.50Q663 474 663 333Q663 191 570.50 95.50Q478 0 326 0M326 52Q454 52 528.50 132Q603 212 603 333Q603 454 529 534.50Q455 615 326 615L170 615L170 353L349 353L349 309L170 309L170 52L326 52Z"  horiz-adv-x="721" vert-adv-y="1000"  />

      
      <glyph glyph-name="unid1" unicode="&#xd1;" d="M410 721Q385 721 366.50 737Q348 753 339 772.50Q330 792 315.50 808Q301 824 284 824Q260 824 245 800Q230 776 230 727L195 727Q195 785 219.50 823Q244 861 288 861Q313 861 331.50 845Q350 829 358.50 810Q367 791 381.50 775Q396 759 413 759Q437 759 451.50 783Q466 807 466 855L502 855Q502 796 478 758.50Q454 721 410 721M616 0L560 0L140 573L140 0L83 0L83 667L141 667L559 102L559 667L616 667L616 0Z"  horiz-adv-x="699" vert-adv-y="1000"  />

      
      <glyph glyph-name="unid2" unicode="&#xd2;" d="M437 723L393 723L221 867L283 867L437 723M382-12Q237-12 147.50 86Q58 184 58 333Q58 482 147.50 580Q237 678 382 678Q526 678 616 580Q706 482 706 333Q706 184 616 86Q526-12 382-12M382 40Q500 40 573 122.50Q646 205 646 333Q646 462 573.50 544Q501 626 382 626Q262 626 190 544Q118 462 118 333Q118 205 190 122.50Q262 40 382 40Z"  horiz-adv-x="764" vert-adv-y="1000"  />

      
      <glyph glyph-name="unid3" unicode="&#xd3;" d="M544 867L372 723L328 723L482 867L544 867M382-12Q237-12 147.50 86Q58 184 58 333Q58 482 147.50 580Q237 678 382 678Q526 678 616 580Q706 482 706 333Q706 184 616 86Q526-12 382-12M382 40Q500 40 573 122.50Q646 205 646 333Q646 462 573.50 544Q501 626 382 626Q262 626 190 544Q118 462 118 333Q118 205 190 122.50Q262 40 382 40Z"  horiz-adv-x="764" vert-adv-y="1000"  />

      
      <glyph glyph-name="unid4" unicode="&#xd4;" d="M509 723L469 723L383 836L298 723L259 723L356 867L410 867L509 723M382-12Q237-12 147.50 86Q58 184 58 333Q58 482 147.50 580Q237 678 382 678Q526 678 616 580Q706 482 706 333Q706 184 616 86Q526-12 382-12M382 40Q500 40 573 122.50Q646 205 646 333Q646 462 573.50 544Q501 626 382 626Q262 626 190 544Q118 462 118 333Q118 205 190 122.50Q262 40 382 40Z"  horiz-adv-x="764" vert-adv-y="1000"  />

      
      <glyph glyph-name="unid5" unicode="&#xd5;" d="M382-12Q237-12 147.50 86Q58 184 58 333Q58 482 147.50 580Q237 678 382 678Q526 678 616 580Q706 482 706 333Q706 184 616 86Q526-12 382-12M382 40Q500 40 573 122.50Q646 205 646 333Q646 462 573.50 544Q501 626 382 626Q262 626 190 544Q118 462 118 333Q118 205 190 122.50Q262 40 382 40M444 721Q419 721 400.50 737Q382 753 373 772.50Q364 792 349.50 808Q335 824 318 824Q294 824 279 800Q264 776 264 727L229 727Q229 785 253.50 823Q278 861 322 861Q347 861 365.50 845Q384 829 392.50 810Q401 791 415.50 775Q430 759 447 759Q471 759 485.50 783Q500 807 500 855L536 855Q536 796 512 758.50Q488 721 444 721Z"  horiz-adv-x="764" vert-adv-y="1000"  />

      
      <glyph glyph-name="unid6" unicode="&#xd6;" d="M509 794Q509 794 514.50 788.50Q520 783 520 768Q520 753 509 742Q498 731 483 731Q468 731 457 742Q446 753 446 768Q446 783 457 794Q468 805 483 805Q498 805 509 794M305 794Q305 794 310.50 788.50Q316 783 316 768Q316 753 305 742Q294 731 279 731Q264 731 253 742Q242 753 242 768Q242 783 253 794Q264 805 279 805Q294 805 305 794M382-12Q237-12 147.50 86Q58 184 58 333Q58 482 147.50 580Q237 678 382 678Q526 678 616 580Q706 482 706 333Q706 184 616 86Q526-12 382-12M382 40Q500 40 573 122.50Q646 205 646 333Q646 462 573.50 544Q501 626 382 626Q262 626 190 544Q118 462 118 333Q118 205 190 122.50Q262 40 382 40Z"  horiz-adv-x="764" vert-adv-y="1000"  />

      
      <glyph glyph-name="unid7" unicode="&#xd7;" d="M400 153L248 305L97 153L67 182L219 334L67 486L97 515L248 363L400 515L429 486L277 334L429 182L400 153Z"  horiz-adv-x="496" vert-adv-y="1000"  />

      
      <glyph glyph-name="unid8" unicode="&#xd8;" d="M382-12Q289-12 214 32L194 0L143 0L179 56Q121 103 89.50 175Q58 247 58 333Q58 482 147.50 580Q237 678 382 678Q471 678 546 635L566 667L618 667L582 611Q641 564 673.50 491.50Q706 419 706 333Q706 184 616 86Q526-12 382-12M382 40Q500 40 573 122.50Q646 205 646 333Q646 482 553 564L243 77Q303 40 382 40M118 333Q118 186 209 103L517 590Q458 626 382 626Q262 626 190 544Q118 462 118 333Z"  horiz-adv-x="764" vert-adv-y="1000"  />

      
      <glyph glyph-name="unid9" unicode="&#xd9;" d="M343-12Q217-12 150 59.50Q83 131 83 256L83 667L141 667L141 257Q141 155 193.50 97.50Q246 40 343 40Q441 40 493 97Q545 154 545 257L545 667L603 667L603 256Q603 130 536.50 59Q470-12 343-12M398 723L354 723L182 867L244 867L398 723Z"  horiz-adv-x="686" vert-adv-y="1000"  />

      
      <glyph glyph-name="unida" unicode="&#xda;" d="M505 867L333 723L289 723L443 867L505 867M343-12Q217-12 150 59.50Q83 131 83 256L83 667L141 667L141 257Q141 155 193.50 97.50Q246 40 343 40Q441 40 493 97Q545 154 545 257L545 667L603 667L603 256Q603 130 536.50 59Q470-12 343-12Z"  horiz-adv-x="686" vert-adv-y="1000"  />

      
      <glyph glyph-name="unidb" unicode="&#xdb;" d="M471 723L431 723L345 836L260 723L221 723L318 867L372 867L471 723M343-12Q217-12 150 59.50Q83 131 83 256L83 667L141 667L141 257Q141 155 193.50 97.50Q246 40 343 40Q441 40 493 97Q545 154 545 257L545 667L603 667L603 256Q603 130 536.50 59Q470-12 343-12Z"  horiz-adv-x="686" vert-adv-y="1000"  />

      
      <glyph glyph-name="unidc" unicode="&#xdc;" d="M472 794Q472 794 477.50 788.50Q483 783 483 768Q483 753 472 742Q461 731 446 731Q431 731 420 742Q409 753 409 768Q409 783 420 794Q431 805 446 805Q461 805 472 794M268 794Q268 794 273.50 788.50Q279 783 279 768Q279 753 268 742Q257 731 242 731Q227 731 216 742Q205 753 205 768Q205 783 216 794Q227 805 242 805Q257 805 268 794M343-12Q217-12 150 59.50Q83 131 83 256L83 667L141 667L141 257Q141 155 193.50 97.50Q246 40 343 40Q441 40 493 97Q545 154 545 257L545 667L603 667L603 256Q603 130 536.50 59Q470-12 343-12Z"  horiz-adv-x="686" vert-adv-y="1000"  />

      
      <glyph glyph-name="unidd" unicode="&#xdd;" d="M338 0L280 0L280 285L15 667L84 667L309 339L534 667L603 667L338 285L338 0M471 867L299 723L255 723L409 867L471 867Z"  horiz-adv-x="618" vert-adv-y="1000"  />

      
      <glyph glyph-name="unide" unicode="&#xde;" d="M140 0L83 0L83 667L140 667L140 543L333 543Q426 543 480 486Q534 429 534 347Q534 265 479.50 209Q425 153 333 153L140 153L140 0M327 205Q393 205 433.50 244.50Q474 284 474 347Q474 410 433 450.50Q392 491 327 491L140 491L140 205L327 205Z"  horiz-adv-x="571" vert-adv-y="1000"  />

      
      <glyph glyph-name="unidf" unicode="&#xdf;" d="M557 131Q557 71 511 29.50Q465-12 377-12Q312-12 271.50 8Q231 28 196 65L227 103Q281 32 377 32Q439 32 472.50 60.50Q506 89 506 130Q506 166 475 187.50Q444 209 400 220Q356 231 312.50 243.50Q269 256 238 285Q207 314 207 362Q207 399 231.50 428Q256 457 285 472Q314 487 338.50 509Q363 531 363 555Q363 589 329.50 609.50Q296 630 255 630Q204 630 168.50 597Q133 564 133 509L133 0L81 0L81 509Q81 581 129 629Q177 677 255 677Q321 677 368.50 644.50Q416 612 416 559Q416 529 399.50 506Q383 483 360 468Q337 453 314 439Q291 425 274.50 405.50Q258 386 258 361Q258 328 289 309.50Q320 291 364 281Q408 271 451.50 258.50Q495 246 526 214Q557 182 557 131Z"  horiz-adv-x="578" vert-adv-y="1000"  />

      
      <glyph glyph-name="unie0" unicode="&#xe0;" d="M440 0L388 0L388 57Q325-12 224-12Q157-12 106 31.50Q55 75 55 149Q55 224 105.50 266.50Q156 309 224 309Q326 309 388 240L388 338Q388 390 351 419.50Q314 449 258 449Q169 449 107 378L78 414Q153 495 264 495Q342 495 391 456Q440 417 440 340L440 0M242 29Q337 29 388 95L388 201Q336 268 242 268Q183 268 146.50 234Q110 200 110 148Q110 96 146.50 62.50Q183 29 242 29M318 556L274 556L102 700L164 700L318 556Z"  horiz-adv-x="521" vert-adv-y="1000"  />

      
      <glyph glyph-name="unie1" unicode="&#xe1;" d="M440 0L388 0L388 57Q325-12 224-12Q157-12 106 31.50Q55 75 55 149Q55 224 105.50 266.50Q156 309 224 309Q326 309 388 240L388 338Q388 390 351 419.50Q314 449 258 449Q169 449 107 378L78 414Q153 495 264 495Q342 495 391 456Q440 417 440 340L440 0M242 29Q337 29 388 95L388 201Q336 268 242 268Q183 268 146.50 234Q110 200 110 148Q110 96 146.50 62.50Q183 29 242 29M426 700L254 556L210 556L364 700L426 700Z"  horiz-adv-x="521" vert-adv-y="1000"  />

      
      <glyph glyph-name="unie2" unicode="&#xe2;" d="M440 0L388 0L388 57Q325-12 224-12Q157-12 106 31.50Q55 75 55 149Q55 224 105.50 266.50Q156 309 224 309Q326 309 388 240L388 338Q388 390 351 419.50Q314 449 258 449Q169 449 107 378L78 414Q153 495 264 495Q342 495 391 456Q440 417 440 340L440 0M242 29Q337 29 388 95L388 201Q336 268 242 268Q183 268 146.50 234Q110 200 110 148Q110 96 146.50 62.50Q183 29 242 29M390 556L350 556L264 669L179 556L140 556L237 700L291 700L390 556Z"  horiz-adv-x="521" vert-adv-y="1000"  />

      
      <glyph glyph-name="unie3" unicode="&#xe3;" d="M440 0L388 0L388 57Q325-12 224-12Q157-12 106 31.50Q55 75 55 149Q55 224 105.50 266.50Q156 309 224 309Q326 309 388 240L388 338Q388 390 351 419.50Q314 449 258 449Q169 449 107 378L78 414Q153 495 264 495Q342 495 391 456Q440 417 440 340L440 0M242 29Q337 29 388 95L388 201Q336 268 242 268Q183 268 146.50 234Q110 200 110 148Q110 96 146.50 62.50Q183 29 242 29M325 554Q300 554 281.50 570Q263 586 254 605.50Q245 625 230.50 641Q216 657 199 657Q175 657 160 633Q145 609 145 560L110 560Q110 618 134.50 656Q159 694 203 694Q228 694 246.50 678Q265 662 273.50 643Q282 624 296.50 608Q311 592 328 592Q352 592 366.50 616Q381 640 381 688L417 688Q417 629 393 591.50Q369 554 325 554Z"  horiz-adv-x="521" vert-adv-y="1000"  />

      
      <glyph glyph-name="unie4" unicode="&#xe4;" d="M440 0L388 0L388 57Q325-12 224-12Q157-12 106 31.50Q55 75 55 149Q55 224 105.50 266.50Q156 309 224 309Q326 309 388 240L388 338Q388 390 351 419.50Q314 449 258 449Q169 449 107 378L78 414Q153 495 264 495Q342 495 391 456Q440 417 440 340L440 0M242 29Q337 29 388 95L388 201Q336 268 242 268Q183 268 146.50 234Q110 200 110 148Q110 96 146.50 62.50Q183 29 242 29M390 627Q390 627 395.50 621.50Q401 616 401 601Q401 586 390 575Q379 564 364 564Q349 564 338 575Q327 586 327 601Q327 616 338 627Q349 638 364 638Q379 638 390 627M186 627Q186 627 191.50 621.50Q197 616 197 601Q197 586 186 575Q175 564 160 564Q145 564 134 575Q123 586 123 601Q123 616 134 627Q145 638 160 638Q175 638 186 627Z"  horiz-adv-x="521" vert-adv-y="1000"  />

      
      <glyph glyph-name="unie5" unicode="&#xe5;" d="M440 0L388 0L388 57Q325-12 224-12Q157-12 106 31.50Q55 75 55 149Q55 224 105.50 266.50Q156 309 224 309Q326 309 388 240L388 338Q388 390 351 419.50Q314 449 258 449Q169 449 107 378L78 414Q153 495 264 495Q342 495 391 456Q440 417 440 340L440 0M242 29Q337 29 388 95L388 201Q336 268 242 268Q183 268 146.50 234Q110 200 110 148Q110 96 146.50 62.50Q183 29 242 29M263 548Q223 548 195 576Q167 604 167 644Q167 683 195 711.50Q223 740 263 740Q302 740 329.50 711.50Q357 683 357 644Q357 604 329.50 576Q302 548 263 548M218 599Q218 599 227.50 589.50Q237 580 263 580Q289 580 307.50 599Q326 618 326 644Q326 670 307.50 689Q289 708 263 708Q237 708 218 689Q199 670 199 644Q199 618 218 599Z"  horiz-adv-x="521" vert-adv-y="1000"  />

      
      <glyph glyph-name="unie6" unicode="&#xe6;" d="M844 225L465 225Q469 143 516 88Q563 33 639 33Q728 33 787 100L814 66Q742-12 639-12Q572-12 521 21Q470 54 443 117Q420 58 367.50 23Q315-12 248-12Q164-12 109.50 31Q55 74 55 149Q55 224 107 266.50Q159 309 234 309Q345 309 413 242L413 338Q413 391 374.50 420Q336 449 272 449Q175 449 107 378L78 414Q153 495 280 495Q343 495 391.50 467.50Q440 440 450 380Q476 431 522.50 463Q569 495 630 495Q731 495 787.50 422Q844 349 844 239L844 225M465 266L791 266Q791 337 749 393.50Q707 450 628 450Q555 450 511.50 393Q468 336 465 266M413 184L413 200Q356 268 254 268Q189 268 149.50 235Q110 202 110 151Q110 99 149.50 66Q189 33 254 33Q323 33 368 78.50Q413 124 413 184Z"  horiz-adv-x="897" vert-adv-y="1000"  />

      
      <glyph glyph-name="unie7" unicode="&#xe7;" d="M289-187Q226-187 192-158L208-126Q243-154 288-154Q316-154 334.50-142Q353-130 353-109Q353-70 312-70Q287-70 272-87L244-71L266-11Q170-3 111.50 68.50Q53 140 53 242Q53 350 118 422.50Q183 495 288 495Q394 495 459 413L423 381Q374 448 291 448Q208 448 158.50 389.50Q109 331 109 242Q109 153 158.50 94Q208 35 291 35Q373 35 423 103L459 71Q398-6 303-11L287-55Q302-43 324-43Q353-43 371.50-61Q390-79 390-109Q390-144 361-165.50Q332-187 289-187Z"  horiz-adv-x="494" vert-adv-y="1000"  />

      
      <glyph glyph-name="unie8" unicode="&#xe8;" d="M295-12Q189-12 121 59Q53 130 53 242Q53 348 119.50 421.50Q186 495 286 495Q392 495 453 421.50Q514 348 514 239L514 225L110 225Q114 143 165 88Q216 33 299 33Q395 33 457 100L484 66Q409-12 295-12M461 266Q460 336 414.50 393Q369 450 285 450Q206 450 159.50 393.50Q113 337 110 266L461 266M341 556L297 556L125 700L187 700L341 556Z"  horiz-adv-x="567" vert-adv-y="1000"  />

      
      <glyph glyph-name="unie9" unicode="&#xe9;" d="M448 700L276 556L232 556L386 700L448 700M295-12Q189-12 121 59Q53 130 53 242Q53 348 119.50 421.50Q186 495 286 495Q392 495 453 421.50Q514 348 514 239L514 225L110 225Q114 143 165 88Q216 33 299 33Q395 33 457 100L484 66Q409-12 295-12M461 266Q460 336 414.50 393Q369 450 285 450Q206 450 159.50 393.50Q113 337 110 266L461 266Z"  horiz-adv-x="567" vert-adv-y="1000"  />

      
      <glyph glyph-name="uniea" unicode="&#xea;" d="M413 556L373 556L287 669L202 556L163 556L260 700L314 700L413 556M295-12Q189-12 121 59Q53 130 53 242Q53 348 119.50 421.50Q186 495 286 495Q392 495 453 421.50Q514 348 514 239L514 225L110 225Q114 143 165 88Q216 33 299 33Q395 33 457 100L484 66Q409-12 295-12M461 266Q460 336 414.50 393Q369 450 285 450Q206 450 159.50 393.50Q113 337 110 266L461 266Z"  horiz-adv-x="567" vert-adv-y="1000"  />

      
      <glyph glyph-name="unieb" unicode="&#xeb;" d="M415 627Q415 627 420.50 621.50Q426 616 426 601Q426 586 415 575Q404 564 389 564Q374 564 363 575Q352 586 352 601Q352 616 363 627Q374 638 389 638Q404 638 415 627M211 627Q211 627 216.50 621.50Q222 616 222 601Q222 586 211 575Q200 564 185 564Q170 564 159 575Q148 586 148 601Q148 616 159 627Q170 638 185 638Q200 638 211 627M295-12Q189-12 121 59Q53 130 53 242Q53 348 119.50 421.50Q186 495 286 495Q392 495 453 421.50Q514 348 514 239L514 225L110 225Q114 143 165 88Q216 33 299 33Q395 33 457 100L484 66Q409-12 295-12M461 266Q460 336 414.50 393Q369 450 285 450Q206 450 159.50 393.50Q113 337 110 266L461 266Z"  horiz-adv-x="567" vert-adv-y="1000"  />

      
      <glyph glyph-name="uniec" unicode="&#xec;" d="M133 0L81 0L81 483L133 483L133 0M161 556L117 556L-55 700L7 700L161 556Z"  horiz-adv-x="214" vert-adv-y="1000"  />

      
      <glyph glyph-name="unied" unicode="&#xed;" d="M269 700L97 556L53 556L207 700L269 700M133 0L81 0L81 483L133 483L133 0Z"  horiz-adv-x="214" vert-adv-y="1000"  />

      
      <glyph glyph-name="uniee" unicode="&#xee;" d="M232 556L192 556L106 669L21 556L-18 556L79 700L133 700L232 556M133 0L81 0L81 483L133 483L133 0Z"  horiz-adv-x="214" vert-adv-y="1000"  />

      
      <glyph glyph-name="unief" unicode="&#xef;" d="M235 627Q235 627 240.50 621.50Q246 616 246 601Q246 586 235 575Q224 564 209 564Q194 564 183 575Q172 586 172 601Q172 616 183 627Q194 638 209 638Q224 638 235 627M31 627Q31 627 36.50 621.50Q42 616 42 601Q42 586 31 575Q20 564 5 564Q-10 564-21 575Q-32 586-32 601Q-32 616-21 627Q-10 638 5 638Q20 638 31 627M133 0L81 0L81 483L133 483L133 0Z"  horiz-adv-x="214" vert-adv-y="1000"  />

      
      <glyph glyph-name="unif0" unicode="&#xf0;" d="M130 510L116 544L237 597Q218 610 156 650L186 694Q248 656 294 622L403 670L417 637L326 597Q518 435 518 244Q518 133 454 60.50Q390-12 285-12Q182-12 117.50 59Q53 130 53 238Q53 345 115 416Q177 487 276 487Q372 487 433 400Q375 495 272 573L130 510M285 35Q367 35 414.50 94.50Q462 154 462 238Q462 321 414.50 380.50Q367 440 285 440Q204 440 156.50 380.50Q109 321 109 238Q109 154 156.50 94.50Q204 35 285 35Z"  horiz-adv-x="571" vert-adv-y="1000"  />

      
      <glyph glyph-name="unif1" unicode="&#xf1;" d="M459 0L407 0L407 327Q407 393 377 420.50Q347 448 290 448Q245 448 201 424Q157 400 133 365L133 0L81 0L81 483L133 483L133 410Q162 444 210 469.50Q258 495 307 495Q459 495 459 338L459 0M332 554Q307 554 288.50 570Q270 586 261 605.50Q252 625 237.50 641Q223 657 206 657Q182 657 167 633Q152 609 152 560L117 560Q117 618 141.50 656Q166 694 210 694Q235 694 253.50 678Q272 662 280.50 643Q289 624 303.50 608Q318 592 335 592Q359 592 373.50 616Q388 640 388 688L424 688Q424 629 400 591.50Q376 554 332 554Z"  horiz-adv-x="540" vert-adv-y="1000"  />

      
      <glyph glyph-name="unif2" unicode="&#xf2;" d="M285-12Q181-12 117 61Q53 134 53 242Q53 350 117 422.50Q181 495 285 495Q390 495 454 422.50Q518 350 518 242Q518 134 454 61Q390-12 285-12M285 35Q367 35 414.50 95.50Q462 156 462 242Q462 327 414.50 387.50Q367 448 285 448Q204 448 156.50 387.50Q109 327 109 242Q109 157 156.50 96Q204 35 285 35M340 556L296 556L124 700L186 700L340 556Z"  horiz-adv-x="571" vert-adv-y="1000"  />

      
      <glyph glyph-name="unif3" unicode="&#xf3;" d="M448 700L276 556L232 556L386 700L448 700M285-12Q181-12 117 61Q53 134 53 242Q53 350 117 422.50Q181 495 285 495Q390 495 454 422.50Q518 350 518 242Q518 134 454 61Q390-12 285-12M285 35Q367 35 414.50 95.50Q462 156 462 242Q462 327 414.50 387.50Q367 448 285 448Q204 448 156.50 387.50Q109 327 109 242Q109 157 156.50 96Q204 35 285 35Z"  horiz-adv-x="571" vert-adv-y="1000"  />

      
      <glyph glyph-name="unif4" unicode="&#xf4;" d="M412 556L372 556L286 669L201 556L162 556L259 700L313 700L412 556M285-12Q181-12 117 61Q53 134 53 242Q53 350 117 422.50Q181 495 285 495Q390 495 454 422.50Q518 350 518 242Q518 134 454 61Q390-12 285-12M285 35Q367 35 414.50 95.50Q462 156 462 242Q462 327 414.50 387.50Q367 448 285 448Q204 448 156.50 387.50Q109 327 109 242Q109 157 156.50 96Q204 35 285 35Z"  horiz-adv-x="571" vert-adv-y="1000"  />

      
      <glyph glyph-name="unif5" unicode="&#xf5;" d="M285-12Q181-12 117 61Q53 134 53 242Q53 350 117 422.50Q181 495 285 495Q390 495 454 422.50Q518 350 518 242Q518 134 454 61Q390-12 285-12M285 35Q367 35 414.50 95.50Q462 156 462 242Q462 327 414.50 387.50Q367 448 285 448Q204 448 156.50 387.50Q109 327 109 242Q109 157 156.50 96Q204 35 285 35M347 554Q322 554 303.50 570Q285 586 276 605.50Q267 625 252.50 641Q238 657 221 657Q197 657 182 633Q167 609 167 560L132 560Q132 618 156.50 656Q181 694 225 694Q250 694 268.50 678Q287 662 295.50 643Q304 624 318.50 608Q333 592 350 592Q374 592 388.50 616Q403 640 403 688L439 688Q439 629 415 591.50Q391 554 347 554Z"  horiz-adv-x="571" vert-adv-y="1000"  />

      
      <glyph glyph-name="unif6" unicode="&#xf6;" d="M414 627Q414 627 419.50 621.50Q425 616 425 601Q425 586 414 575Q403 564 388 564Q373 564 362 575Q351 586 351 601Q351 616 362 627Q373 638 388 638Q403 638 414 627M210 627Q210 627 215.50 621.50Q221 616 221 601Q221 586 210 575Q199 564 184 564Q169 564 158 575Q147 586 147 601Q147 616 158 627Q169 638 184 638Q199 638 210 627M285-12Q181-12 117 61Q53 134 53 242Q53 350 117 422.50Q181 495 285 495Q390 495 454 422.50Q518 350 518 242Q518 134 454 61Q390-12 285-12M285 35Q367 35 414.50 95.50Q462 156 462 242Q462 327 414.50 387.50Q367 448 285 448Q204 448 156.50 387.50Q109 327 109 242Q109 157 156.50 96Q204 35 285 35Z"  horiz-adv-x="571" vert-adv-y="1000"  />

      
      <glyph glyph-name="unif7" unicode="&#xf7;" d="M283.50 558.50Q283.50 558.50 289.25 552.75Q295 547 295 531Q295 515 283.50 503Q272 491 256 491Q240 491 228 503Q216 515 216 531Q216 547 227.50 558.50Q239 570 256 570Q272 570 283.50 558.50M482 316L29 316L29 358L482 358L482 316M283.50 166Q283.50 166 289.25 160Q295 154 295 138Q295 122 283.50 110.50Q272 99 256 99Q240 99 228 110.50Q216 122 216 138Q216 154 228 166Q240 178 256 178Q272 178 283.50 166Z"  horiz-adv-x="511" vert-adv-y="1000"  />

      
      <glyph glyph-name="unif8" unicode="&#xf8;" d="M118 0L74 0L119 59Q53 131 53 242Q53 350 117 422.50Q181 495 285 495Q363 495 420 452L444 483L488 483L447 430Q518 357 518 242Q518 134 454 61Q390-12 285-12Q204-12 144 35L118 0M285 35Q367 35 414.50 95.50Q462 156 462 242Q462 327 414 387L176 76Q220 35 285 35M109 242Q109 160 152 102L389 412Q345 448 285 448Q204 448 156.50 387.50Q109 327 109 242Z"  horiz-adv-x="571" vert-adv-y="1000"  />

      
      <glyph glyph-name="unif9" unicode="&#xf9;" d="M459 0L407 0L407 71Q374 35 328 11.50Q282-12 233-12Q157-12 119 25.50Q81 63 81 143L81 483L133 483L133 155Q133 88 163 61.50Q193 35 250 35Q295 35 338.50 58Q382 81 407 115L407 483L459 483L459 0M324 556L280 556L108 700L170 700L324 556Z"  horiz-adv-x="540" vert-adv-y="1000"  />

      
      <glyph glyph-name="unifa" unicode="&#xfa;" d="M432 700L260 556L216 556L370 700L432 700M459 0L407 0L407 71Q374 35 328 11.50Q282-12 233-12Q157-12 119 25.50Q81 63 81 143L81 483L133 483L133 155Q133 88 163 61.50Q193 35 250 35Q295 35 338.50 58Q382 81 407 115L407 483L459 483L459 0Z"  horiz-adv-x="540" vert-adv-y="1000"  />

      
      <glyph glyph-name="unifb" unicode="&#xfb;" d="M395 556L355 556L269 669L184 556L145 556L242 700L296 700L395 556M459 0L407 0L407 71Q374 35 328 11.50Q282-12 233-12Q157-12 119 25.50Q81 63 81 143L81 483L133 483L133 155Q133 88 163 61.50Q193 35 250 35Q295 35 338.50 58Q382 81 407 115L407 483L459 483L459 0Z"  horiz-adv-x="540" vert-adv-y="1000"  />

      
      <glyph glyph-name="unifc" unicode="&#xfc;" d="M400 627Q400 627 405.50 621.50Q411 616 411 601Q411 586 400 575Q389 564 374 564Q359 564 348 575Q337 586 337 601Q337 616 348 627Q359 638 374 638Q389 638 400 627M196 627Q196 627 201.50 621.50Q207 616 207 601Q207 586 196 575Q185 564 170 564Q155 564 144 575Q133 586 133 601Q133 616 144 627Q155 638 170 638Q185 638 196 627M459 0L407 0L407 71Q374 35 328 11.50Q282-12 233-12Q157-12 119 25.50Q81 63 81 143L81 483L133 483L133 155Q133 88 163 61.50Q193 35 250 35Q295 35 338.50 58Q382 81 407 115L407 483L459 483L459 0Z"  horiz-adv-x="540" vert-adv-y="1000"  />

      
      <glyph glyph-name="unifd" unicode="&#xfd;" d="M49-189L58-141Q76-149 100-149Q149-149 173-90L211-4L7 483L65 483L241 61L415 483L474 483L224-106Q186-196 100-196Q72-196 49-189M403 700L231 556L187 556L341 700L403 700Z"  horiz-adv-x="481" vert-adv-y="1000"  />

      
      <glyph glyph-name="unife" unicode="&#xfe;" d="M301-12Q197-12 133 78L133-184L81-184L81 667L133 667L133 407Q160 446 204.50 470.50Q249 495 301 495Q398 495 457.50 426.50Q517 358 517 242Q517 127 457.50 57.50Q398-12 301-12M292 35Q371 35 416 93Q461 151 461 242Q461 332 416 390Q371 448 292 448Q243 448 199 423Q155 398 133 362L133 123Q155 87 199.50 61Q244 35 292 35Z"  horiz-adv-x="567" vert-adv-y="1000"  />

      
      <glyph glyph-name="uniff" unicode="&#xff;" d="M49-189L58-141Q76-149 100-149Q149-149 173-90L211-4L7 483L65 483L241 61L415 483L474 483L224-106Q186-196 100-196Q72-196 49-189M369 627Q369 627 374.50 621.50Q380 616 380 601Q380 586 369 575Q358 564 343 564Q328 564 317 575Q306 586 306 601Q306 616 317 627Q328 638 343 638Q358 638 369 627M165 627Q165 627 170.50 621.50Q176 616 176 601Q176 586 165 575Q154 564 139 564Q124 564 113 575Q102 586 102 601Q102 616 113 627Q124 638 139 638Q154 638 165 627Z"  horiz-adv-x="481" vert-adv-y="1000"  />

      
      <glyph glyph-name="uni0100" unicode="&#x0100;" d="M632 0L566 0L500 164L147 164L81 0L15 0L288 667L359 667L632 0M481 216L323 606L166 216L481 216M504 744L141 744L141 781L504 781L504 744Z"  horiz-adv-x="647" vert-adv-y="1000"  />

      
      <glyph glyph-name="uni0101" unicode="&#x0101;" d="M440 0L388 0L388 57Q325-12 224-12Q157-12 106 31.50Q55 75 55 149Q55 224 105.50 266.50Q156 309 224 309Q326 309 388 240L388 338Q388 390 351 419.50Q314 449 258 449Q169 449 107 378L78 414Q153 495 264 495Q342 495 391 456Q440 417 440 340L440 0M242 29Q337 29 388 95L388 201Q336 268 242 268Q183 268 146.50 234Q110 200 110 148Q110 96 146.50 62.50Q183 29 242 29M441 577L78 577L78 614L441 614L441 577Z"  horiz-adv-x="521" vert-adv-y="1000"  />

      
      <glyph glyph-name="uni0102" unicode="&#x0102;" d="M632 0L566 0L500 164L147 164L81 0L15 0L288 667L359 667L632 0M481 216L323 606L166 216L481 216M498 796Q433 708 323 708Q214 708 147 796L176 821Q230 746 323 746Q415 746 470 821L498 796Z"  horiz-adv-x="647" vert-adv-y="1000"  />

      
      <glyph glyph-name="uni0103" unicode="&#x0103;" d="M440 0L388 0L388 57Q325-12 224-12Q157-12 106 31.50Q55 75 55 149Q55 224 105.50 266.50Q156 309 224 309Q326 309 388 240L388 338Q388 390 351 419.50Q314 449 258 449Q169 449 107 378L78 414Q153 495 264 495Q342 495 391 456Q440 417 440 340L440 0M242 29Q337 29 388 95L388 201Q336 268 242 268Q183 268 146.50 234Q110 200 110 148Q110 96 146.50 62.50Q183 29 242 29M435 629Q370 541 260 541Q151 541 84 629L113 654Q167 579 260 579Q352 579 407 654L435 629Z"  horiz-adv-x="521" vert-adv-y="1000"  />

      
      <glyph glyph-name="uni0104" unicode="&#x0104;" d="M656-109L687-125Q661-186 601-186Q564-186 540-164.50Q516-143 516-101Q516-43 572 0L566 0L500 164L147 164L81 0L15 0L288 667L359 667L632 0Q553-38 553-99Q553-153 601-153Q642-153 656-109M481 216L323 606L166 216L481 216Z"  horiz-adv-x="647" vert-adv-y="1000"  />

      
      <glyph glyph-name="uni0105" unicode="&#x0105;" d="M464-109L495-125Q469-186 409-186Q372-186 348-164.50Q324-143 324-101Q324-39 388 5L388 57Q325-12 224-12Q157-12 106 31.50Q55 75 55 149Q55 224 105.50 266.50Q156 309 224 309Q326 309 388 240L388 338Q388 390 351 419.50Q314 449 258 449Q169 449 107 378L78 414Q153 495 264 495Q342 495 391 456Q440 417 440 340L440 0Q361-38 361-99Q361-153 409-153Q450-153 464-109M242 29Q337 29 388 95L388 201Q336 268 242 268Q183 268 146.50 234Q110 200 110 148Q110 96 146.50 62.50Q183 29 242 29Z"  horiz-adv-x="521" vert-adv-y="1000"  />

      
      <glyph glyph-name="uni0106" unicode="&#x0106;" d="M558 867L386 723L342 723L496 867L558 867M396-12Q252-12 155 84.50Q58 181 58 333Q58 485 155 581.50Q252 678 396 678Q544 678 639 560L591 529Q559 573 507 599.50Q455 626 396 626Q277 626 197.50 544Q118 462 118 333Q118 205 197.50 122.50Q277 40 396 40Q455 40 507 66.50Q559 93 591 137L639 107Q543-12 396-12Z"  horiz-adv-x="672" vert-adv-y="1000"  />

      
      <glyph glyph-name="uni0107" unicode="&#x0107;" d="M450 700L278 556L234 556L388 700L450 700M288-12Q183-12 118 61Q53 134 53 242Q53 350 118 422.50Q183 495 288 495Q394 495 459 413L423 381Q374 448 291 448Q208 448 158.50 389.50Q109 331 109 242Q109 153 158.50 94Q208 35 291 35Q373 35 423 103L459 71Q394-12 288-12Z"  horiz-adv-x="494" vert-adv-y="1000"  />

      
      <glyph glyph-name="uni0108" unicode="&#x0108;" d="M521 723L481 723L395 836L310 723L271 723L368 867L422 867L521 723M396-12Q252-12 155 84.50Q58 181 58 333Q58 485 155 581.50Q252 678 396 678Q544 678 639 560L591 529Q559 573 507 599.50Q455 626 396 626Q277 626 197.50 544Q118 462 118 333Q118 205 197.50 122.50Q277 40 396 40Q455 40 507 66.50Q559 93 591 137L639 107Q543-12 396-12Z"  horiz-adv-x="672" vert-adv-y="1000"  />

      
      <glyph glyph-name="uni0109" unicode="&#x0109;" d="M414 556L374 556L288 669L203 556L164 556L261 700L315 700L414 556M288-12Q183-12 118 61Q53 134 53 242Q53 350 118 422.50Q183 495 288 495Q394 495 459 413L423 381Q374 448 291 448Q208 448 158.50 389.50Q109 331 109 242Q109 153 158.50 94Q208 35 291 35Q373 35 423 103L459 71Q394-12 288-12Z"  horiz-adv-x="494" vert-adv-y="1000"  />

      
      <glyph glyph-name="uni010A" unicode="&#x010A;" d="M396-12Q252-12 155 84.50Q58 181 58 333Q58 485 155 581.50Q252 678 396 678Q544 678 639 560L591 529Q559 573 507 599.50Q455 626 396 626Q277 626 197.50 544Q118 462 118 333Q118 205 197.50 122.50Q277 40 396 40Q455 40 507 66.50Q559 93 591 137L639 107Q543-12 396-12M398 728Q382 728 371 739Q360 750 360 766Q360 781 371 792.50Q382 804 398 804Q413 804 424 792.50Q435 781 435 766Q435 750 424 739Q413 728 398 728Z"  horiz-adv-x="672" vert-adv-y="1000"  />

      
      <glyph glyph-name="uni010B" unicode="&#x010B;" d="M288-12Q183-12 118 61Q53 134 53 242Q53 350 118 422.50Q183 495 288 495Q394 495 459 413L423 381Q374 448 291 448Q208 448 158.50 389.50Q109 331 109 242Q109 153 158.50 94Q208 35 291 35Q373 35 423 103L459 71Q394-12 288-12M291 561Q275 561 264 572Q253 583 253 599Q253 614 264 625.50Q275 637 291 637Q306 637 317 625.50Q328 614 328 599Q328 583 317 572Q306 561 291 561Z"  horiz-adv-x="494" vert-adv-y="1000"  />

      
      <glyph glyph-name="uni010C" unicode="&#x010C;" d="M425 723L371 723L271 867L310 867L398 754L481 867L521 867L425 723M396-12Q252-12 155 84.50Q58 181 58 333Q58 485 155 581.50Q252 678 396 678Q544 678 639 560L591 529Q559 573 507 599.50Q455 626 396 626Q277 626 197.50 544Q118 462 118 333Q118 205 197.50 122.50Q277 40 396 40Q455 40 507 66.50Q559 93 591 137L639 107Q543-12 396-12Z"  horiz-adv-x="672" vert-adv-y="1000"  />

      
      <glyph glyph-name="uni010D" unicode="&#x010D;" d="M318 556L264 556L164 700L203 700L291 587L374 700L414 700L318 556M288-12Q183-12 118 61Q53 134 53 242Q53 350 118 422.50Q183 495 288 495Q394 495 459 413L423 381Q374 448 291 448Q208 448 158.50 389.50Q109 331 109 242Q109 153 158.50 94Q208 35 291 35Q373 35 423 103L459 71Q394-12 288-12Z"  horiz-adv-x="494" vert-adv-y="1000"  />

      
      <glyph glyph-name="uni010E" unicode="&#x010E;" d="M375 723L321 723L221 867L260 867L348 754L431 867L471 867L375 723M296 0L83 0L83 667L296 667Q447 667 540 570.50Q633 474 633 333Q633 191 540.50 95.50Q448 0 296 0M296 52Q424 52 498.50 132Q573 212 573 333Q573 454 499 534.50Q425 615 296 615L140 615L140 52L296 52Z"  horiz-adv-x="692" vert-adv-y="1000"  />

      
      <glyph glyph-name="uni010F" unicode="&#x010F;" d="M629 620Q629 582 610 547.50Q591 513 562 492L535 514Q558 531 573.50 556Q589 581 590 603Q583 602 580 602Q564 602 554 612.50Q544 623 544 640Q544 656 555 667.50Q566 679 582 679Q602 679 615.50 663Q629 647 629 620M490 0L437 0L437 77Q410 38 365.50 13Q321-12 269-12Q172-12 112.50 57Q53 126 53 241Q53 355 113 425Q173 495 269 495Q373 495 437 405L437 667L490 667L490 0M278 35Q327 35 371 60Q415 85 437 121L437 360Q415 397 371 422.50Q327 448 278 448Q200 448 154.50 389.50Q109 331 109 241Q109 151 154.50 93Q200 35 278 35Z"  horiz-adv-x="625" vert-adv-y="1000"  />

      
      <glyph glyph-name="uni0110" unicode="&#x0110;" d="M326 0L113 0L113 309L11 309L11 353L113 353L113 667L326 667Q477 667 570 570.50Q663 474 663 333Q663 191 570.50 95.50Q478 0 326 0M326 52Q454 52 528.50 132Q603 212 603 333Q603 454 529 534.50Q455 615 326 615L170 615L170 353L349 353L349 309L170 309L170 52L326 52Z"  horiz-adv-x="721" vert-adv-y="1000"  />

      
      <glyph glyph-name="uni0111" unicode="&#x0111;" d="M490 0L437 0L437 77Q410 38 365.50 13Q321-12 269-12Q172-12 112.50 57Q53 126 53 241Q53 355 113 425Q173 495 269 495Q373 495 437 405L437 538L276 538L276 575L437 575L437 667L490 667L490 575L562 575L562 538L490 538L490 0M278 35Q327 35 371 60Q415 85 437 121L437 360Q415 397 371 422.50Q327 448 278 448Q200 448 154.50 389.50Q109 331 109 241Q109 151 154.50 93Q200 35 278 35Z"  horiz-adv-x="572" vert-adv-y="1000"  />

      
      <glyph glyph-name="uni0112" unicode="&#x0112;" d="M506 0L83 0L83 667L506 667L506 615L140 615L140 368L499 368L499 316L140 316L140 52L506 52L506 0M474 744L111 744L111 781L474 781L474 744Z"  horiz-adv-x="564" vert-adv-y="1000"  />

      
      <glyph glyph-name="uni0113" unicode="&#x0113;" d="M295-12Q189-12 121 59Q53 130 53 242Q53 348 119.50 421.50Q186 495 286 495Q392 495 453 421.50Q514 348 514 239L514 225L110 225Q114 143 165 88Q216 33 299 33Q395 33 457 100L484 66Q409-12 295-12M461 266Q460 336 414.50 393Q369 450 285 450Q206 450 159.50 393.50Q113 337 110 266L461 266M467 577L104 577L104 614L467 614L467 577Z"  horiz-adv-x="567" vert-adv-y="1000"  />

      
      <glyph glyph-name="uni0114" unicode="&#x0114;" d="M506 0L83 0L83 667L506 667L506 615L140 615L140 368L499 368L499 316L140 316L140 52L506 52L506 0M470 796Q405 708 295 708Q186 708 119 796L148 821Q202 746 295 746Q387 746 442 821L470 796Z"  horiz-adv-x="564" vert-adv-y="1000"  />

      
      <glyph glyph-name="uni0115" unicode="&#x0115;" d="M295-12Q189-12 121 59Q53 130 53 242Q53 348 119.50 421.50Q186 495 286 495Q392 495 453 421.50Q514 348 514 239L514 225L110 225Q114 143 165 88Q216 33 299 33Q395 33 457 100L484 66Q409-12 295-12M461 266Q460 336 414.50 393Q369 450 285 450Q206 450 159.50 393.50Q113 337 110 266L461 266M464 629Q399 541 289 541Q180 541 113 629L142 654Q196 579 289 579Q381 579 436 654L464 629Z"  horiz-adv-x="567" vert-adv-y="1000"  />

      
      <glyph glyph-name="uni0116" unicode="&#x0116;" d="M506 0L83 0L83 667L506 667L506 615L140 615L140 368L499 368L499 316L140 316L140 52L506 52L506 0M300 728Q284 728 273 739Q262 750 262 766Q262 781 273 792.50Q284 804 300 804Q315 804 326 792.50Q337 781 337 766Q337 750 326 739Q315 728 300 728Z"  horiz-adv-x="564" vert-adv-y="1000"  />

      
      <glyph glyph-name="uni0117" unicode="&#x0117;" d="M295-12Q189-12 121 59Q53 130 53 242Q53 348 119.50 421.50Q186 495 286 495Q392 495 453 421.50Q514 348 514 239L514 225L110 225Q114 143 165 88Q216 33 299 33Q395 33 457 100L484 66Q409-12 295-12M461 266Q460 336 414.50 393Q369 450 285 450Q206 450 159.50 393.50Q113 337 110 266L461 266M288 561Q272 561 261 572Q250 583 250 599Q250 614 261 625.50Q272 637 288 637Q303 637 314 625.50Q325 614 325 599Q325 583 314 572Q303 561 288 561Z"  horiz-adv-x="567" vert-adv-y="1000"  />

      
      <glyph glyph-name="uni0118" unicode="&#x0118;" d="M506 0Q427-38 427-99Q427-153 475-153Q516-153 530-109L561-125Q535-186 475-186Q438-186 414-164.50Q390-143 390-101Q390-43 446 0L83 0L83 667L506 667L506 615L140 615L140 368L499 368L499 316L140 316L140 52L506 52L506 0Z"  horiz-adv-x="564" vert-adv-y="1000"  />

      
      <glyph glyph-name="uni0119" unicode="&#x0119;" d="M295-12Q189-12 121 59Q53 130 53 242Q53 348 119.50 421.50Q186 495 286 495Q392 495 453 421.50Q514 348 514 239L514 225L110 225Q114 143 165 88Q216 33 299 33Q395 33 457 100L484 66Q436 17 379 0Q300-38 300-99Q300-153 348-153Q389-153 403-109L434-125Q408-186 348-186Q311-186 287-164.50Q263-143 263-101Q263-52 305-12L295-12M461 266Q460 336 414.50 393Q369 450 285 450Q206 450 159.50 393.50Q113 337 110 266L461 266Z"  horiz-adv-x="567" vert-adv-y="1000"  />

      
      <glyph glyph-name="uni011A" unicode="&#x011A;" d="M325 723L271 723L171 867L210 867L298 754L381 867L421 867L325 723M506 0L83 0L83 667L506 667L506 615L140 615L140 368L499 368L499 316L140 316L140 52L506 52L506 0Z"  horiz-adv-x="564" vert-adv-y="1000"  />

      
      <glyph glyph-name="uni011B" unicode="&#x011B;" d="M316 556L262 556L162 700L201 700L289 587L372 700L412 700L316 556M295-12Q189-12 121 59Q53 130 53 242Q53 348 119.50 421.50Q186 495 286 495Q392 495 453 421.50Q514 348 514 239L514 225L110 225Q114 143 165 88Q216 33 299 33Q395 33 457 100L484 66Q409-12 295-12M461 266Q460 336 414.50 393Q369 450 285 450Q206 450 159.50 393.50Q113 337 110 266L461 266Z"  horiz-adv-x="567" vert-adv-y="1000"  />

      
      <glyph glyph-name="uni011C" unicode="&#x011C;" d="M526 723L486 723L400 836L315 723L276 723L373 867L427 867L526 723M396-13Q253-13 155.50 84Q58 181 58 333Q58 485 155.50 581.50Q253 678 396 678Q548 678 647 564L604 533Q568 576 513.50 601Q459 626 396 626Q277 626 197.50 544Q118 462 118 333Q118 205 197.50 122Q277 39 396 39Q457 39 508 63Q559 87 592 120L592 280L340 280L340 331L649 331L649 98Q550-13 396-13Z"  horiz-adv-x="711" vert-adv-y="1000"  />

      
      <glyph glyph-name="uni011D" unicode="&#x011D;" d="M413 556L373 556L287 669L202 556L163 556L260 700L314 700L413 556M272-196Q209-196 166-180.50Q123-165 82-123L112-83Q143-120 180-135.50Q217-151 272-151Q344-151 390.50-112.50Q437-74 437 4L437 80Q410 41 365.50 15.50Q321-10 269-10Q172-10 112.50 58.50Q53 127 53 242Q53 356 113 425.50Q173 495 269 495Q373 495 437 405L437 483L490 483L490 5Q490-99 429.50-147.50Q369-196 272-196M278 37Q327 37 371 62.50Q415 88 437 125L437 360Q415 397 371 422.50Q327 448 278 448Q200 448 154.50 390Q109 332 109 242Q109 152 154.50 94.50Q200 37 278 37Z"  horiz-adv-x="570" vert-adv-y="1000"  />

      
      <glyph glyph-name="uni011E" unicode="&#x011E;" d="M396-13Q253-13 155.50 84Q58 181 58 333Q58 485 155.50 581.50Q253 678 396 678Q548 678 647 564L604 533Q568 576 513.50 601Q459 626 396 626Q277 626 197.50 544Q118 462 118 333Q118 205 197.50 122Q277 39 396 39Q457 39 508 63Q559 87 592 120L592 280L340 280L340 331L649 331L649 98Q550-13 396-13M574 796Q509 708 399 708Q290 708 223 796L252 821Q306 746 399 746Q491 746 546 821L574 796Z"  horiz-adv-x="711" vert-adv-y="1000"  />

      
      <glyph glyph-name="uni011F" unicode="&#x011F;" d="M272-196Q209-196 166-180.50Q123-165 82-123L112-83Q143-120 180-135.50Q217-151 272-151Q344-151 390.50-112.50Q437-74 437 4L437 80Q410 41 365.50 15.50Q321-10 269-10Q172-10 112.50 58.50Q53 127 53 242Q53 356 113 425.50Q173 495 269 495Q373 495 437 405L437 483L490 483L490 5Q490-99 429.50-147.50Q369-196 272-196M278 37Q327 37 371 62.50Q415 88 437 125L437 360Q415 397 371 422.50Q327 448 278 448Q200 448 154.50 390Q109 332 109 242Q109 152 154.50 94.50Q200 37 278 37M461 629Q396 541 286 541Q177 541 110 629L139 654Q193 579 286 579Q378 579 433 654L461 629Z"  horiz-adv-x="570" vert-adv-y="1000"  />

      
      <glyph glyph-name="uni0120" unicode="&#x0120;" d="M396-13Q253-13 155.50 84Q58 181 58 333Q58 485 155.50 581.50Q253 678 396 678Q548 678 647 564L604 533Q568 576 513.50 601Q459 626 396 626Q277 626 197.50 544Q118 462 118 333Q118 205 197.50 122Q277 39 396 39Q457 39 508 63Q559 87 592 120L592 280L340 280L340 331L649 331L649 98Q550-13 396-13M399 728Q383 728 372 739Q361 750 361 766Q361 781 372 792.50Q383 804 399 804Q414 804 425 792.50Q436 781 436 766Q436 750 425 739Q414 728 399 728Z"  horiz-adv-x="711" vert-adv-y="1000"  />

      
      <glyph glyph-name="uni0121" unicode="&#x0121;" d="M272-196Q209-196 166-180.50Q123-165 82-123L112-83Q143-120 180-135.50Q217-151 272-151Q344-151 390.50-112.50Q437-74 437 4L437 80Q410 41 365.50 15.50Q321-10 269-10Q172-10 112.50 58.50Q53 127 53 242Q53 356 113 425.50Q173 495 269 495Q373 495 437 405L437 483L490 483L490 5Q490-99 429.50-147.50Q369-196 272-196M278 37Q327 37 371 62.50Q415 88 437 125L437 360Q415 397 371 422.50Q327 448 278 448Q200 448 154.50 390Q109 332 109 242Q109 152 154.50 94.50Q200 37 278 37M285 561Q269 561 258 572Q247 583 247 599Q247 614 258 625.50Q269 637 285 637Q300 637 311 625.50Q322 614 322 599Q322 583 311 572Q300 561 285 561Z"  horiz-adv-x="570" vert-adv-y="1000"  />

      
      <glyph glyph-name="uni0122" unicode="&#x0122;" d="M444-137Q444-175 425-209.50Q406-244 377-265L350-243Q373-226 388.50-201Q404-176 405-154Q398-155 395-155Q379-155 369-144.50Q359-134 359-117Q359-101 370-89.50Q381-78 397-78Q417-78 430.50-94Q444-110 444-137M396-13Q253-13 155.50 84Q58 181 58 333Q58 485 155.50 581.50Q253 678 396 678Q548 678 647 564L604 533Q568 576 513.50 601Q459 626 396 626Q277 626 197.50 544Q118 462 118 333Q118 205 197.50 122Q277 39 396 39Q457 39 508 63Q559 87 592 120L592 280L340 280L340 331L649 331L649 98Q550-13 396-13Z"  horiz-adv-x="711" vert-adv-y="1000"  />

      
      <glyph glyph-name="uni0123" unicode="&#x0123;" d="M240 610Q240 652 259 689.50Q278 727 304 745L333 723Q310 706 294 681.50Q278 657 277 635L279 636Q281 636 282 636Q297 636 309 624Q321 612 321 597Q321 581 309.50 569Q298 557 281 557Q264 557 252 571.50Q240 586 240 610M272-196Q209-196 166-180.50Q123-165 82-123L112-83Q143-120 180-135.50Q217-151 272-151Q344-151 390.50-112.50Q437-74 437 4L437 80Q410 41 365.50 15.50Q321-10 269-10Q172-10 112.50 58.50Q53 127 53 242Q53 356 113 425.50Q173 495 269 495Q373 495 437 405L437 483L490 483L490 5Q490-99 429.50-147.50Q369-196 272-196M278 37Q327 37 371 62.50Q415 88 437 125L437 360Q415 397 371 422.50Q327 448 278 448Q200 448 154.50 390Q109 332 109 242Q109 152 154.50 94.50Q200 37 278 37Z"  horiz-adv-x="570" vert-adv-y="1000"  />

      
      <glyph glyph-name="uni0124" unicode="&#x0124;" d="M474 723L434 723L348 836L263 723L224 723L321 867L375 867L474 723M621 0L563 0L563 317L140 317L140 0L83 0L83 667L140 667L140 369L563 369L563 667L621 667L621 0Z"  horiz-adv-x="703" vert-adv-y="1000"  />

      
      <glyph glyph-name="uni0125" unicode="&#x0125;" d="M398 723L358 723L272 836L187 723L148 723L245 867L299 867L398 723M459 0L407 0L407 329Q407 395 377 421.50Q347 448 290 448Q245 448 201 424Q157 400 133 365L133 0L81 0L81 667L133 667L133 410Q162 444 210 469.50Q258 495 307 495Q459 495 459 340L459 0Z"  horiz-adv-x="540" vert-adv-y="1000"  />

      
      <glyph glyph-name="uni0126" unicode="&#x0126;" d="M632 0L574 0L574 317L151 317L151 0L94 0L94 500L11 500L11 537L94 537L94 667L151 667L151 537L574 537L574 667L632 667L632 537L713 537L713 500L632 500L632 0M151 369L574 369L574 500L151 500L151 369Z"  horiz-adv-x="724" vert-adv-y="1000"  />

      
      <glyph glyph-name="uni0127" unicode="&#x0127;" d="M296 538L134 538L134 410Q163 444 211 469.50Q259 495 308 495Q460 495 460 340L460 0L408 0L408 329Q408 395 378 421.50Q348 448 291 448Q246 448 202 424Q158 400 134 365L134 0L82 0L82 538L10 538L10 575L82 575L82 667L134 667L134 575L296 575L296 538Z"  horiz-adv-x="541" vert-adv-y="1000"  />

      
      <glyph glyph-name="uni0128" unicode="&#x0128;" d="M140 0L83 0L83 667L140 667L140 0M173 721Q148 721 129.50 737Q111 753 102 772.50Q93 792 78.50 808Q64 824 47 824Q23 824 8 800Q-7 776-7 727L-42 727Q-42 785-17.50 823Q7 861 51 861Q76 861 94.50 845Q113 829 121.50 810Q130 791 144.50 775Q159 759 176 759Q200 759 214.50 783Q229 807 229 855L265 855Q265 796 241 758.50Q217 721 173 721Z"  horiz-adv-x="223" vert-adv-y="1000"  />

      
      <glyph glyph-name="uni0129" unicode="&#x0129;" d="M133 0L81 0L81 483L133 483L133 0M168 554Q143 554 124.50 570Q106 586 97 605.50Q88 625 73.50 641Q59 657 42 657Q18 657 3 633Q-12 609-12 560L-47 560Q-47 618-22.50 656Q2 694 46 694Q71 694 89.50 678Q108 662 116.50 643Q125 624 139.50 608Q154 592 171 592Q195 592 209.50 616Q224 640 224 688L260 688Q260 629 236 591.50Q212 554 168 554Z"  horiz-adv-x="214" vert-adv-y="1000"  />

      
      <glyph glyph-name="uni012A" unicode="&#x012A;" d="M140 0L83 0L83 667L140 667L140 0M294 744L-69 744L-69 781L294 781L294 744Z"  horiz-adv-x="223" vert-adv-y="1000"  />

      
      <glyph glyph-name="uni012B" unicode="&#x012B;" d="M133 0L81 0L81 483L133 483L133 0M289 577L-74 577L-74 614L289 614L289 577Z"  horiz-adv-x="214" vert-adv-y="1000"  />

      
      <glyph glyph-name="uni012C" unicode="&#x012C;" d="M140 0L83 0L83 667L140 667L140 0M288 796Q223 708 113 708Q4 708-63 796L-34 821Q20 746 113 746Q205 746 260 821L288 796Z"  horiz-adv-x="223" vert-adv-y="1000"  />

      
      <glyph glyph-name="uni012D" unicode="&#x012D;" d="M133 0L81 0L81 483L133 483L133 0M283 629Q218 541 108 541Q-1 541-68 629L-39 654Q15 579 108 579Q200 579 255 654L283 629Z"  horiz-adv-x="214" vert-adv-y="1000"  />

      
      <glyph glyph-name="uni012E" unicode="&#x012E;" d="M164-109L195-125Q169-186 109-186Q72-186 48-164.50Q24-143 24-101Q24-41 83 2L83 667L140 667L140 0Q61-38 61-99Q61-153 109-153Q150-153 164-109Z"  horiz-adv-x="223" vert-adv-y="1000"  />

      
      <glyph glyph-name="uni012F" unicode="&#x012F;" d="M157-109L188-125Q162-186 102-186Q65-186 41-164.50Q17-143 17-101Q17-39 81 5L81 483L133 483L133 0Q54-38 54-99Q54-153 102-153Q143-153 157-109M107 559Q91 559 79 571Q67 583 67 599Q67 615 79 626.50Q91 638 107 638Q124 638 135.50 626.50Q147 615 147 599Q147 582 135.50 570.50Q124 559 107 559Z"  horiz-adv-x="214" vert-adv-y="1000"  />

      
      <glyph glyph-name="uni0130" unicode="&#x0130;" d="M140 0L83 0L83 667L140 667L140 0M113 728Q97 728 86 739Q75 750 75 766Q75 781 86 792.50Q97 804 113 804Q128 804 139 792.50Q150 781 150 766Q150 750 139 739Q128 728 113 728Z"  horiz-adv-x="223" vert-adv-y="1000"  />

      
      <glyph glyph-name="uni0131" unicode="&#x0131;" d="M133 0L81 0L81 483L133 483L133 0Z"  horiz-adv-x="214" vert-adv-y="1000"  />

      
      <glyph glyph-name="uni0132" unicode="&#x0132;" d="M140 0L83 0L83 667L140 667L140 0M408-12Q300-12 237 70L272 113Q328 40 405 40Q472 40 512 82.50Q552 125 552 193L552 667L610 667L610 193Q610 93 553 40.50Q496-12 408-12Z"  horiz-adv-x="693" vert-adv-y="1000"  />

      
      <glyph glyph-name="uni0133" unicode="&#x0133;" d="M107 559Q91 559 79 571Q67 583 67 599Q67 615 79 626.50Q91 638 107 638Q124 638 135.50 626.50Q147 615 147 599Q147 582 135.50 570.50Q124 559 107 559M133 0L81 0L81 483L133 483L133 0M321 559Q305 559 293 571Q281 583 281 599Q281 615 293 626.50Q305 638 321 638Q338 638 349.50 626.50Q361 615 361 599Q361 582 349.50 570.50Q338 559 321 559M216-196Q160-196 117-159L140-118Q171-151 211-151Q249-151 272-129Q295-107 295-62L295 483L347 483L347-62Q347-128 313-162Q279-196 216-196Z"  horiz-adv-x="427" vert-adv-y="1000"  />

      
      <glyph glyph-name="uni0134" unicode="&#x0134;" d="M483 723L443 723L357 836L272 723L233 723L330 867L384 867L483 723M185-12Q77-12 14 70L49 113Q105 40 182 40Q249 40 289 82.50Q329 125 329 193L329 667L387 667L387 193Q387 93 330 40.50Q273-12 185-12Z"  horiz-adv-x="470" vert-adv-y="1000"  />

      
      <glyph glyph-name="uni0135" unicode="&#x0135;" d="M233 556L193 556L107 669L22 556L-17 556L80 700L134 700L233 556M2-196Q-54-196-97-159L-74-118Q-43-151-3-151Q35-151 58-129Q81-107 81-62L81 483L133 483L133-62Q133-128 99-162Q65-196 2-196Z"  horiz-adv-x="214" vert-adv-y="1000"  />

      
      <glyph glyph-name="uni0136" unicode="&#x0136;" d="M345-137Q345-175 326-209.50Q307-244 278-265L251-243Q274-226 289.50-201Q305-176 306-154Q299-155 296-155Q280-155 270-144.50Q260-134 260-117Q260-101 271-89.50Q282-78 298-78Q318-78 331.50-94Q345-110 345-137M562 0L489 0L214 314L140 233L140 0L83 0L83 667L140 667L140 302L462 667L535 667L251 349L562 0Z"  horiz-adv-x="589" vert-adv-y="1000"  />

      
      <glyph glyph-name="uni0137" unicode="&#x0137;" d="M304-137Q304-175 285-209.50Q266-244 237-265L210-243Q233-226 248.50-201Q264-176 265-154Q258-155 255-155Q239-155 229-144.50Q219-134 219-117Q219-101 230-89.50Q241-78 257-78Q277-78 290.50-94Q304-110 304-137M486 0L416 0L223 230L133 145L133 0L81 0L81 667L133 667L133 207L418 483L487 483L262 265L486 0Z"  horiz-adv-x="505" vert-adv-y="1000"  />

      
      <glyph glyph-name="uni0138" unicode="&#x0138;" d="M486 0L416 0L223 230L133 145L133 0L81 0L81 483L133 483L133 207L418 483L487 483L262 265L486 0Z"  horiz-adv-x="505" vert-adv-y="1000"  />

      
      <glyph glyph-name="uni0139" unicode="&#x0139;" d="M435 867L263 723L219 723L373 867L435 867M463 0L83 0L83 667L140 667L140 52L463 52L463 0Z"  horiz-adv-x="504" vert-adv-y="1000"  />

      
      <glyph glyph-name="uni013A" unicode="&#x013A;" d="M269 867L97 723L53 723L207 867L269 867M133 0L81 0L81 667L133 667L133 0Z"  horiz-adv-x="214" vert-adv-y="1000"  />

      
      <glyph glyph-name="uni013B" unicode="&#x013B;" d="M316-137Q316-175 297-209.50Q278-244 249-265L222-243Q245-226 260.50-201Q276-176 277-154Q270-155 267-155Q251-155 241-144.50Q231-134 231-117Q231-101 242-89.50Q253-78 269-78Q289-78 302.50-94Q316-110 316-137M463 0L83 0L83 667L140 667L140 52L463 52L463 0Z"  horiz-adv-x="504" vert-adv-y="1000"  />

      
      <glyph glyph-name="uni013C" unicode="&#x013C;" d="M158-137Q158-175 139-209.50Q120-244 91-265L64-243Q87-226 102.50-201Q118-176 119-154Q112-155 109-155Q93-155 83-144.50Q73-134 73-117Q73-101 84-89.50Q95-78 111-78Q131-78 144.50-94Q158-110 158-137M133 0L81 0L81 667L133 667L133 0Z"  horiz-adv-x="214" vert-adv-y="1000"  />

      
      <glyph glyph-name="uni013D" unicode="&#x013D;" d="M327 620Q327 582 308 547.50Q289 513 260 492L233 514Q256 531 271.50 556Q287 581 288 603Q281 602 278 602Q262 602 252 612.50Q242 623 242 640Q242 656 253 667.50Q264 679 280 679Q300 679 313.50 663Q327 647 327 620M463 0L83 0L83 667L140 667L140 52L463 52L463 0Z"  horiz-adv-x="504" vert-adv-y="1000"  />

      
      <glyph glyph-name="uni013E" unicode="&#x013E;" d="M286 620Q286 582 267 547.50Q248 513 219 492L192 514Q215 531 230.50 556Q246 581 247 603Q240 602 237 602Q221 602 211 612.50Q201 623 201 640Q201 656 212 667.50Q223 679 239 679Q259 679 272.50 663Q286 647 286 620M133 0L81 0L81 667L133 667L133 0Z"  horiz-adv-x="264" vert-adv-y="1000"  />

      
      <glyph glyph-name="uni013F" unicode="&#x013F;" d="M463 0L83 0L83 667L140 667L140 52L463 52L463 0M402 342Q402 324 388.50 311Q375 298 357 298Q339 298 326 311Q313 324 313 342Q313 359 326 372Q339 385 357 385Q375 385 388.50 372Q402 359 402 342Z"  horiz-adv-x="504" vert-adv-y="1000"  />

      
      <glyph glyph-name="uni0140" unicode="&#x0140;" d="M133 0L81 0L81 667L133 667L133 0M288 245Q288 227 274.50 214Q261 201 243 201Q225 201 212 214Q199 227 199 245Q199 262 212 275Q225 288 243 288Q261 288 274.50 275Q288 262 288 245Z"  horiz-adv-x="273" vert-adv-y="1000"  />

      
      <glyph glyph-name="uni0141" unicode="&#x0141;" d="M11 233L11 286L105 340L105 667L162 667L162 373L267 435L267 382L162 320L162 52L485 52L485 0L105 0L105 287L11 233Z"  horiz-adv-x="526" vert-adv-y="1000"  />

      
      <glyph glyph-name="uni0142" unicode="&#x0142;" d="M11 238L11 284L113 342L113 667L165 667L165 372L266 430L266 384L165 326L165 0L113 0L113 296L11 238Z"  horiz-adv-x="277" vert-adv-y="1000"  />

      
      <glyph glyph-name="uni0143" unicode="&#x0143;" d="M526 867L354 723L310 723L464 867L526 867M616 0L560 0L140 573L140 0L83 0L83 667L141 667L559 102L559 667L616 667L616 0Z"  horiz-adv-x="699" vert-adv-y="1000"  />

      
      <glyph glyph-name="uni0144" unicode="&#x0144;" d="M432 700L260 556L216 556L370 700L432 700M459 0L407 0L407 327Q407 393 377 420.50Q347 448 290 448Q245 448 201 424Q157 400 133 365L133 0L81 0L81 483L133 483L133 410Q162 444 210 469.50Q258 495 307 495Q459 495 459 338L459 0Z"  horiz-adv-x="540" vert-adv-y="1000"  />

      
      <glyph glyph-name="uni0145" unicode="&#x0145;" d="M401-137Q401-175 382-209.50Q363-244 334-265L307-243Q330-226 345.50-201Q361-176 362-154Q355-155 352-155Q336-155 326-144.50Q316-134 316-117Q316-101 327-89.50Q338-78 354-78Q374-78 387.50-94Q401-110 401-137M616 0L560 0L140 573L140 0L83 0L83 667L141 667L559 102L559 667L616 667L616 0Z"  horiz-adv-x="699" vert-adv-y="1000"  />

      
      <glyph glyph-name="uni0146" unicode="&#x0146;" d="M320-137Q320-175 301-209.50Q282-244 253-265L226-243Q249-226 264.50-201Q280-176 281-154Q274-155 271-155Q255-155 245-144.50Q235-134 235-117Q235-101 246-89.50Q257-78 273-78Q293-78 306.50-94Q320-110 320-137M459 0L407 0L407 327Q407 393 377 420.50Q347 448 290 448Q245 448 201 424Q157 400 133 365L133 0L81 0L81 483L133 483L133 410Q162 444 210 469.50Q258 495 307 495Q459 495 459 338L459 0Z"  horiz-adv-x="540" vert-adv-y="1000"  />

      
      <glyph glyph-name="uni0147" unicode="&#x0147;" d="M378 723L324 723L224 867L263 867L351 754L434 867L474 867L378 723M616 0L560 0L140 573L140 0L83 0L83 667L141 667L559 102L559 667L616 667L616 0Z"  horiz-adv-x="699" vert-adv-y="1000"  />

      
      <glyph glyph-name="uni0148" unicode="&#x0148;" d="M299 556L245 556L145 700L184 700L272 587L355 700L395 700L299 556M459 0L407 0L407 327Q407 393 377 420.50Q347 448 290 448Q245 448 201 424Q157 400 133 365L133 0L81 0L81 483L133 483L133 410Q162 444 210 469.50Q258 495 307 495Q459 495 459 338L459 0Z"  horiz-adv-x="540" vert-adv-y="1000"  />

      
      <glyph glyph-name="uni0149" unicode="&#x0149;" d="M155 675Q155 637 136 602.50Q117 568 88 547L61 569Q84 586 99.50 611Q115 636 116 658Q109 657 106 657Q90 657 80 667.50Q70 678 70 695Q70 711 81 722.50Q92 734 108 734Q128 734 141.50 718Q155 702 155 675M459 0L407 0L407 327Q407 393 377 420.50Q347 448 290 448Q245 448 201 424Q157 400 133 365L133 0L81 0L81 483L133 483L133 410Q162 444 210 469.50Q258 495 307 495Q459 495 459 338L459 0Z"  horiz-adv-x="540" vert-adv-y="1000"  />

      
      <glyph glyph-name="uni014A" unicode="&#x014A;" d="M414-196Q306-196 243-114L278-71Q332-144 412-144Q478-144 517.50-104.50Q557-65 559 1L140 573L140 0L83 0L83 667L141 667L559 102L559 667L616 667L616 6Q616-93 559-144.50Q502-196 414-196Z"  horiz-adv-x="699" vert-adv-y="1000"  />

      
      <glyph glyph-name="uni014B" unicode="&#x014B;" d="M459 338L459-62Q459-128 425-162Q391-196 328-196Q271-196 230-159L252-116Q285-149 323-149Q361-149 384-127.50Q407-106 407-62L407 327Q407 393 377 420.50Q347 448 290 448Q245 448 201 424Q157 400 133 365L133 0L81 0L81 483L133 483L133 410Q162 444 210 469.50Q258 495 307 495Q459 495 459 338Z"  horiz-adv-x="540" vert-adv-y="1000"  />

      
      <glyph glyph-name="uni014C" unicode="&#x014C;" d="M563 744L200 744L200 781L563 781L563 744M382-12Q237-12 147.50 86Q58 184 58 333Q58 482 147.50 580Q237 678 382 678Q526 678 616 580Q706 482 706 333Q706 184 616 86Q526-12 382-12M382 40Q500 40 573 122.50Q646 205 646 333Q646 462 573.50 544Q501 626 382 626Q262 626 190 544Q118 462 118 333Q118 205 190 122.50Q262 40 382 40Z"  horiz-adv-x="764" vert-adv-y="1000"  />

      
      <glyph glyph-name="uni014D" unicode="&#x014D;" d="M467 577L104 577L104 614L467 614L467 577M285-12Q181-12 117 61Q53 134 53 242Q53 350 117 422.50Q181 495 285 495Q390 495 454 422.50Q518 350 518 242Q518 134 454 61Q390-12 285-12M285 35Q367 35 414.50 95.50Q462 156 462 242Q462 327 414.50 387.50Q367 448 285 448Q204 448 156.50 387.50Q109 327 109 242Q109 157 156.50 96Q204 35 285 35Z"  horiz-adv-x="571" vert-adv-y="1000"  />

      
      </font>
</defs>
</svg>
