<?xml version="1.0" standalone="no"?>
  <!DOCTYPE svg PUBLIC "-//W3C//DTD SVG 1.1//EN" "http://www.w3.org/Graphics/SVG/1.1/DTD/svg11.dtd" >
  <svg>
  <metadata>
  Created by font-carrier
  </metadata>
  <defs>
  <font id="ProximaNovaCond-Regular" horiz-adv-x="962" vert-adv-y="962" >
    <font-face
      
      font-family="Proxima Nova Cn Rg"
      
      font-weight="400"
      
      font-stretch="normal"
      
      units-per-em="1000"
      
      ascent="920"
      
      descent="-298"
      
    />
      <missing-glyph />

      

      
      <glyph glyph-name="uni21" unicode="&#x21;" d="M144 185L85 185L69 667L159 667L144 185M152 6Q152 6 144-2Q136-10 114-10Q92-10 76.50 6Q61 22 61 44Q61 65 76.50 81Q92 97 114 97Q136 97 152 81Q168 65 168 44Q168 22 152 6Z"  horiz-adv-x="228" vert-adv-y="1000"  />

      
      <glyph glyph-name="uni22" unicode="&#x22;" d="M117 414L80 414Q54 618 54 633Q54 651 67 664Q80 677 99 677Q117 677 130 664Q143 651 143 633L117 414M259 414L223 414Q197 618 197 633Q197 651 209.50 664Q222 677 241 677Q260 677 272.50 664Q285 651 285 633L259 414Z"  horiz-adv-x="340" vert-adv-y="1000"  />

      
      <glyph glyph-name="uni23" unicode="&#x23;" d="M263 0L204 0L256 182L165 182L114 0L55 0L106 182L19 182L33 233L122 233L178 434L89 434L102 484L193 484L244 667L303 667L252 484L342 484L393 667L452 667L400 484L487 484L475 434L385 434L329 233L419 233L406 182L314 182L263 0M269 233L327 434L237 434L180 233L269 233Z"  horiz-adv-x="507" vert-adv-y="1000"  />

      
      <glyph glyph-name="uni24" unicode="&#x24;" d="M213-100L213-11Q99-5 31 72L75 133Q129 67 213 60L213 310Q182 325 165 334.50Q148 344 123 362Q98 380 84.50 397.50Q71 415 61 442.50Q51 470 51 503Q51 572 96 620Q141 668 213 676L213 768L272 768L272 676Q363 667 420 608L378 548Q336 594 272 604L272 376Q309 358 331.50 343.50Q354 329 380.50 305Q407 281 420 248Q433 215 433 173Q433 103 391.50 53Q350 3 272-9L272-100L213-100M352 168Q352 234 272 280L272 64Q312 74 332 102.50Q352 131 352 168M132 507Q132 474 153 450.50Q174 427 213 406L213 604Q176 596 154 570.50Q132 545 132 507Z"  horiz-adv-x="468" vert-adv-y="1000"  />

      
      <glyph glyph-name="uni25" unicode="&#x25;" d="M273 394.50Q273 394.50 253.50 371.25Q234 348 171 348Q108 348 69 394.50Q30 441 30 512Q30 583 69 630Q108 677 171 677Q234 677 273 630Q312 583 312 512Q312 441 273 394.50M175 0L128 0L478 667L526 667L175 0M480-12Q417-12 378 34Q339 80 339 151Q339 223 378 270Q417 317 480 317Q542 317 581.50 269.50Q621 222 621 151Q621 81 581.50 34.50Q542-12 480-12M109.50 430Q109.50 430 121.25 413.50Q133 397 171 397Q209 397 232 430Q255 463 255 512Q255 562 232 595Q209 628 171 628Q133 628 109.50 595Q86 562 86 512Q86 463 109.50 430M418.50 69.50Q418.50 69.50 430.25 53.25Q442 37 480 37Q518 37 541.50 69.50Q565 102 565 151Q565 202 541.50 235Q518 268 480 268Q442 268 418.50 235Q395 202 395 151Q395 102 418.50 69.50Z"  horiz-adv-x="651" vert-adv-y="1000"  />

      
      <glyph glyph-name="uni26" unicode="&#x26;" d="M503 0L413 0Q400 15 360 66Q292-12 204-12Q131-12 84 36Q37 84 37 168Q37 237 69 283Q101 329 157 369Q113 459 113 518Q113 588 152 632.50Q191 677 251 677Q305 677 340.50 641.50Q376 606 376 547Q376 512 366 484Q356 456 331.50 431Q307 406 291 393.50Q275 381 240 356Q267 309 300 263Q327 221 359 178Q390 241 412 325L473 299Q440 192 400 124Q406 116 503 0M213 48Q270 48 322 115Q273 178 248 217Q207 278 186 315Q113 254 113 172Q113 114 142 81Q171 48 213 48M184 518Q184 471 214 408Q262 440 286.50 470.50Q311 501 311 545Q311 582 294 601.50Q277 621 252 621Q221 621 202.50 594Q184 567 184 518Z"  horiz-adv-x="520" vert-adv-y="1000"  />

      
      <glyph glyph-name="uni27" unicode="&#x27;" d="M117 414L80 414Q54 618 54 633Q54 651 67 664Q80 677 99 677Q117 677 130 664Q143 651 143 633L117 414Z"  horiz-adv-x="197" vert-adv-y="1000"  />

      
      <glyph glyph-name="uni28" unicode="&#x28;" d="M210-171L164-199Q46 3 46 243Q46 483 164 685L210 658Q167 554 146 458Q125 362 125 243Q125 35 210-171Z"  horiz-adv-x="229" vert-adv-y="1000"  />

      
      <glyph glyph-name="uni29" unicode="&#x29;" d="M64-199L18-171Q104 33 104 243Q104 362 82.50 458.50Q61 555 18 658L64 685Q183 484 183 243Q183 2 64-199Z"  horiz-adv-x="229" vert-adv-y="1000"  />

      
      <glyph glyph-name="uni2a" unicode="&#x2a;" d="M183 391L139 391L144 506L47 443L25 482L128 534L25 586L47 624L144 562L139 677L183 677L177 562L274 624L296 586L194 534L296 482L274 443L177 506L183 391Z"  horiz-adv-x="321" vert-adv-y="1000"  />

      
      <glyph glyph-name="uni2b" unicode="&#x2b;" d="M410 312L247 312L247 128L192 128L192 312L29 312L29 363L192 363L192 540L247 540L247 363L410 363L410 312Z"  horiz-adv-x="439" vert-adv-y="1000"  />

      
      <glyph glyph-name="uni2c" unicode="&#x2c;" d="M173 22Q173-21 150.50-61Q128-101 93-126L57-97Q81-80 99.50-54Q118-28 121-4Q120-4 115-4.50Q110-5 108-5Q88-5 74.50 9Q61 23 61 44Q61 66 76 81.50Q91 97 113 97Q138 97 155.50 77Q173 57 173 22Z"  horiz-adv-x="228" vert-adv-y="1000"  />

      
      <glyph glyph-name="uni2d" unicode="&#x2d;" d="M237 210L30 210L30 274L237 274L237 210Z"  horiz-adv-x="267" vert-adv-y="1000"  />

      
      <glyph glyph-name="uni2e" unicode="&#x2e;" d="M152 6Q152 6 144-2Q136-10 114-10Q92-10 76.50 6Q61 22 61 44Q61 65 76.50 81Q92 97 114 97Q136 97 152 81Q168 65 168 44Q168 22 152 6Z"  horiz-adv-x="228" vert-adv-y="1000"  />

      
      <glyph glyph-name="uni2f" unicode="&#x2f;" d="M56-20L0-20L192 687L248 687L56-20Z"  horiz-adv-x="248" vert-adv-y="1000"  />

      
      <glyph glyph-name="uni30" unicode="&#x30;" d="M354 19Q354 19 333 3.50Q312-12 256-12Q200-12 158 19Q116 50 92.50 101.50Q69 153 58 211Q47 269 47 333Q47 397 58 455.50Q69 514 92.50 565Q116 616 158 646.50Q200 677 256 677Q312 677 354 646.50Q396 616 419.50 565Q443 514 454 455.50Q465 397 465 333Q465 269 454 211Q443 153 419.50 101.50Q396 50 354 19M256 59Q293 59 319 82.50Q345 106 358.50 147.50Q372 189 378 234Q384 279 384 333Q384 606 256 606Q129 606 129 333Q129 59 256 59Z"  horiz-adv-x="512" vert-adv-y="1000"  />

      
      <glyph glyph-name="uni31" unicode="&#x31;" d="M245 0L166 0L166 562L63 452L15 502L175 667L245 667L245 0Z"  horiz-adv-x="315" vert-adv-y="1000"  />

      
      <glyph glyph-name="uni32" unicode="&#x32;" d="M430 0L53 0L53 65Q238 278 278 333Q344 429 346 495Q346 546 315 576Q284 606 239 606Q149 606 98 522L46 570Q115 677 240 677Q320 677 373.50 628Q427 579 427 495Q427 462 415 426Q403 390 388 360.50Q373 331 332.50 277.50Q292 224 263 188Q234 152 166 71L430 71L430 0Z"  horiz-adv-x="489" vert-adv-y="1000"  />

      
      <glyph glyph-name="uni33" unicode="&#x33;" d="M227-12Q159-12 107.50 19Q56 50 29 99L81 146Q135 59 224 59Q283 59 314 93Q345 127 345 186Q345 250 310 278.50Q275 307 218 307Q174 307 165 306L165 378Q174 377 216 377Q269 377 303 405.50Q337 434 337 489Q337 546 305.50 576Q274 606 222 606Q143 606 87 527L37 572Q103 677 227 677Q311 677 363.50 631.50Q416 586 416 500Q416 441 381 398.50Q346 356 297 345Q346 338 385.50 292.50Q425 247 425 180Q425 95 372.50 41.50Q320-12 227-12Z"  horiz-adv-x="473" vert-adv-y="1000"  />

      
      <glyph glyph-name="uni34" unicode="&#x34;" d="M366 0L287 0L287 171L23 171L23 240L264 667L366 667L366 241L439 241L439 171L366 171L366 0M287 241L287 581L96 241L287 241Z"  horiz-adv-x="462" vert-adv-y="1000"  />

      
      <glyph glyph-name="uni35" unicode="&#x35;" d="M248-12Q119-12 52 97L105 145Q155 59 246 59Q299 59 332 101.50Q365 144 365 204Q365 274 334.50 312.50Q304 351 251 351Q181 351 130 289L71 309L71 667L411 667L411 597L150 597L150 363Q197 421 273 421Q348 421 397 364Q446 307 446 206Q446 111 390.50 49.50Q335-12 248-12Z"  horiz-adv-x="491" vert-adv-y="1000"  />

      
      <glyph glyph-name="uni36" unicode="&#x36;" d="M258-12Q201-12 158.50 16.50Q116 45 92.50 94.50Q69 144 58 203.50Q47 263 47 333Q47 403 60 463Q73 523 99 572Q125 621 169.50 649Q214 677 272 677Q373 677 428 594L384 538Q344 606 273 606Q223 606 188.50 564.50Q154 523 140.50 465.50Q127 408 127 340Q127 328 128 320Q147 359 187 388.50Q227 418 275 418Q351 418 400.50 362.50Q450 307 450 205Q450 115 398 51.50Q346-12 258-12M254 59Q310 59 339.50 102Q369 145 369 203Q369 278 337.50 313.50Q306 349 255 349Q215 349 182 320Q149 291 129 247Q131 215 137.50 185.50Q144 156 157.50 125.50Q171 95 196 77Q221 59 254 59Z"  horiz-adv-x="492" vert-adv-y="1000"  />

      
      <glyph glyph-name="uni37" unicode="&#x37;" d="M184 0L99 0L308 597L26 597L26 667L397 667L397 612L184 0Z"  horiz-adv-x="422" vert-adv-y="1000"  />

      
      <glyph glyph-name="uni38" unicode="&#x38;" d="M243-12Q154-12 99.50 35.50Q45 83 45 164Q45 227 84.50 275Q124 323 178 344Q127 362 91 405Q55 448 55 507Q55 589 110 633Q165 677 243 677Q321 677 376.50 633Q432 589 432 507Q432 448 396 405.50Q360 363 309 344Q363 323 402 275Q441 227 441 165Q441 84 386 36Q331-12 243-12M243 374Q256 378 271.50 385.50Q287 393 306.50 407Q326 421 339 444.50Q352 468 352 497Q352 547 322 576.50Q292 606 243 606Q194 606 164 576.50Q134 547 134 497Q134 468 147 444.50Q160 421 179.50 407Q199 393 214.50 385.50Q230 378 243 374M159.50 89.50Q159.50 89.50 176.25 74.25Q193 59 243 59Q293 59 327 90Q361 121 361 174Q361 214 336.50 247Q312 280 286.50 294Q261 308 243 311Q211 306 168.50 268.50Q126 231 126 173Q126 120 159.50 89.50Z"  horiz-adv-x="486" vert-adv-y="1000"  />

      
      <glyph glyph-name="uni39" unicode="&#x39;" d="M219-11Q119-11 64 72L108 128Q148 60 219 60Q293 60 328.50 139Q364 218 364 326L364 347Q345 307 305 277.50Q265 248 217 248Q141 248 91.50 303.50Q42 359 42 461Q42 551 94 614.50Q146 678 234 678Q291 678 333.50 649.50Q376 621 399.50 571.50Q423 522 434 462.50Q445 403 445 333Q445 239 423 164Q401 89 348.50 39Q296-11 219-11M237 317Q277 317 309.50 346Q342 375 362 419Q360 451 353.50 480.50Q347 510 334 540.50Q321 571 296 589Q271 607 238 607Q182 607 152.50 564Q123 521 123 463Q123 388 154.50 352.50Q186 317 237 317Z"  horiz-adv-x="492" vert-adv-y="1000"  />

      
      <glyph glyph-name="uni3a" unicode="&#x3a;" d="M152 399.50Q152 399.50 144 391.75Q136 384 114 384Q92 384 76.50 399.50Q61 415 61 437Q61 459 76.50 474.50Q92 490 114 490Q136 490 152 474.50Q168 459 168 437Q168 415 152 399.50M152 6Q152 6 144-2Q136-10 114-10Q92-10 76.50 6Q61 22 61 44Q61 65 76.50 81Q92 97 114 97Q136 97 152 81Q168 65 168 44Q168 22 152 6Z"  horiz-adv-x="228" vert-adv-y="1000"  />

      
      <glyph glyph-name="uni3b" unicode="&#x3b;" d="M152 400Q152 400 144 392Q136 384 114 384Q92 384 76.50 400Q61 416 61 437Q61 459 76.50 474.50Q92 490 114 490Q136 490 152 474.50Q168 459 168 437Q168 416 152 400M173 24Q173-20 150.50-60Q128-100 93-125L57-95Q81-79 99.50-52.50Q118-26 121-2Q117-4 108-4Q88-4 74.50 10Q61 24 61 46Q61 67 76 82.50Q91 98 113 98Q138 98 155.50 78Q173 58 173 24Z"  horiz-adv-x="228" vert-adv-y="1000"  />

      
      <glyph glyph-name="uni3c" unicode="&#x3c;" d="M410 126L29 309L29 360L410 544L410 483L91 334L410 186L410 126Z"  horiz-adv-x="439" vert-adv-y="1000"  />

      
      <glyph glyph-name="uni3d" unicode="&#x3d;" d="M410 405L29 405L29 456L410 456L410 405M410 212L29 212L29 262L410 262L410 212Z"  horiz-adv-x="439" vert-adv-y="1000"  />

      
      <glyph glyph-name="uni3e" unicode="&#x3e;" d="M410 309L29 126L29 186L347 334L29 483L29 544L410 360L410 309Z"  horiz-adv-x="439" vert-adv-y="1000"  />

      
      <glyph glyph-name="uni3f" unicode="&#x3f;" d="M169 184Q136 217 136 266Q136 300 150.50 328.50Q165 357 186 377Q207 397 228.50 416.50Q250 436 264.50 461.50Q279 487 279 517Q279 554 253.50 580.50Q228 607 183 607Q116 607 70 550L28 601Q91 678 194 678Q268 678 314 635.50Q360 593 360 529Q360 490 344 457Q328 424 305.50 401.50Q283 379 260.50 358.50Q238 338 222 313.50Q206 289 206 262Q206 231 228 211L169 184M229.50 6Q229.50 6 221.75-2Q214-10 192-10Q170-10 154 6Q138 22 138 44Q138 65 154 81Q170 97 192 97Q214 97 229.50 81Q245 65 245 44Q245 22 229.50 6Z"  horiz-adv-x="387" vert-adv-y="1000"  />

      
      <glyph glyph-name="uni40" unicode="&#x40;" d="M307-70Q187-70 111 13.50Q35 97 35 230Q35 392 144.50 515.50Q254 639 398 639Q513 639 584.50 560.50Q656 482 656 358Q656 238 607 161.50Q558 85 495 85Q459 85 436.50 106.50Q414 128 412 161L412 167Q356 85 279 85Q225 85 191 122Q157 159 157 228Q157 333 219 416Q281 499 366 499Q403 499 429 478Q455 457 466 424L478 483L543 483L485 209Q483 197 483 186Q483 137 521 137Q540 137 562 159Q584 181 602.50 234Q621 287 621 357Q621 470 559 537.50Q497 605 396 605Q266 605 168 490.50Q70 376 70 231Q70 113 137 38Q204-37 312-37Q396-37 473 19L490-7Q403-70 307-70M301 139Q367 139 422 224L454 374Q446 403 426.50 424Q407 445 376 445Q312 445 268.50 377.50Q225 310 225 234Q225 190 244.50 164.50Q264 139 301 139Z"  horiz-adv-x="691" vert-adv-y="1000"  />

      
      <glyph glyph-name="uni41" unicode="&#x41;" d="M503 0L417 0L374 151L137 151L94 0L8 0L208 667L303 667L503 0M357 221L255 579L154 221L357 221Z"  horiz-adv-x="511" vert-adv-y="1000"  />

      
      <glyph glyph-name="uni42" unicode="&#x42;" d="M297 0L70 0L70 667L291 667Q369 667 412.50 620.50Q456 574 456 497Q456 436 428 396.50Q400 357 354 344Q402 337 434.50 289Q467 241 467 180Q467 97 423 48.50Q379 0 297 0M276 376Q325 376 349.50 406.50Q374 437 374 486Q374 535 349.50 566Q325 597 276 597L150 597L150 376L276 376M281 71Q332 71 358.50 101.50Q385 132 385 188Q385 239 358.50 272.50Q332 306 281 306L150 306L150 71L281 71Z"  horiz-adv-x="516" vert-adv-y="1000"  />

      
      <glyph glyph-name="uni43" unicode="&#x43;" d="M306-12Q188-12 117.50 84.50Q47 181 47 333Q47 485 117.50 581.50Q188 678 306 678Q433 678 501 548L435 517Q390 607 306 607Q226 607 177.50 530Q129 453 129 333Q129 213 177.50 136Q226 59 306 59Q393 59 436 158L503 127Q434-12 306-12Z"  horiz-adv-x="533" vert-adv-y="1000"  />

      
      <glyph glyph-name="uni44" unicode="&#x44;" d="M248 0L70 0L70 667L248 667Q374 667 445 574Q516 481 516 333Q516 185 445.50 92.50Q375 0 248 0M248 71Q337 71 385.50 143.50Q434 216 434 333Q434 451 386 524Q338 597 248 597L150 597L150 71L248 71Z"  horiz-adv-x="564" vert-adv-y="1000"  />

      
      <glyph glyph-name="uni45" unicode="&#x45;" d="M413 0L70 0L70 667L413 667L413 597L150 597L150 376L406 376L406 306L150 306L150 71L413 71L413 0Z"  horiz-adv-x="461" vert-adv-y="1000"  />

      
      <glyph glyph-name="uni46" unicode="&#x46;" d="M150 0L70 0L70 667L413 667L413 597L150 597L150 376L406 376L406 306L150 306L150 0Z"  horiz-adv-x="451" vert-adv-y="1000"  />

      
      <glyph glyph-name="uni47" unicode="&#x47;" d="M306-13Q189-13 118 82.50Q47 178 47 333Q47 488 118 583Q189 678 306 678Q435 678 504 552L440 519Q393 607 306 607Q226 607 177.50 531.50Q129 456 129 333Q129 211 177.50 135Q226 59 306 59Q385 59 431 115L431 271L272 271L272 341L507 341L507 85Q428-13 306-13Z"  horiz-adv-x="562" vert-adv-y="1000"  />

      
      <glyph glyph-name="uni48" unicode="&#x48;" d="M504 0L424 0L424 308L150 308L150 0L70 0L70 667L150 667L150 378L424 378L424 667L504 667L504 0Z"  horiz-adv-x="574" vert-adv-y="1000"  />

      
      <glyph glyph-name="uni49" unicode="&#x49;" d="M150 0L70 0L70 667L150 667L150 0Z"  horiz-adv-x="220" vert-adv-y="1000"  />

      
      <glyph glyph-name="uni4a" unicode="&#x4a;" d="M149-12Q63-12 9 49L45 111Q87 59 143 59Q193 59 221 89Q249 119 249 173L249 667L328 667L328 171Q328 80 279 34Q230-12 149-12Z"  horiz-adv-x="398" vert-adv-y="1000"  />

      
      <glyph glyph-name="uni4b" unicode="&#x4b;" d="M496 0L400 0L205 294L150 214L150 0L70 0L70 667L150 667L150 321L383 667L477 667L254 350L496 0Z"  horiz-adv-x="509" vert-adv-y="1000"  />

      
      <glyph glyph-name="uni4c" unicode="&#x4c;" d="M391 0L70 0L70 667L150 667L150 71L391 71L391 0Z"  horiz-adv-x="421" vert-adv-y="1000"  />

      
      <glyph glyph-name="uni4d" unicode="&#x4d;" d="M613 0L535 0L535 524L357 0L326 0L150 524L150 0L70 0L70 667L181 667L342 193L504 667L613 667L613 0Z"  horiz-adv-x="683" vert-adv-y="1000"  />

      
      <glyph glyph-name="uni4e" unicode="&#x4e;" d="M502 0L425 0L150 497L150 0L70 0L70 667L150 667L422 180L422 667L502 667L502 0Z"  horiz-adv-x="572" vert-adv-y="1000"  />

      
      <glyph glyph-name="uni4f" unicode="&#x4f;" d="M484.50 85.50Q484.50 85.50 450.75 36.75Q417-12 299-12Q181-12 114 85.50Q47 183 47 333Q47 483 114 580.50Q181 678 299 678Q417 678 484.50 580.50Q552 483 552 333Q552 183 484.50 85.50M174 136.50Q174 136.50 196.50 97.75Q219 59 299 59Q379 59 424.50 136.50Q470 214 470 333Q470 453 425 530Q380 607 299 607Q219 607 174 530Q129 453 129 333Q129 214 174 136.50Z"  horiz-adv-x="599" vert-adv-y="1000"  />

      
      <glyph glyph-name="uni50" unicode="&#x50;" d="M150 0L70 0L70 667L273 667Q361 667 409 610Q457 553 457 467Q457 382 408.50 324.50Q360 267 273 267L150 267L150 0M265 337Q316 337 345.50 373Q375 409 375 467Q375 525 345.50 561Q316 597 265 597L150 597L150 337L265 337Z"  horiz-adv-x="487" vert-adv-y="1000"  />

      
      <glyph glyph-name="uni51" unicode="&#x51;" d="M299-12Q181-12 114 85.50Q47 183 47 333Q47 483 114 580.50Q181 678 299 678Q417 678 484.50 580.50Q552 483 552 333Q552 159 466 62L504 3L448-33L414 19Q363-12 299-12M299 59Q339 59 374 81L295 204L352 240L421 131Q470 208 470 333Q470 453 425 530Q380 607 299 607Q219 607 174 530Q129 453 129 333Q129 214 174 136.50Q219 59 299 59Z"  horiz-adv-x="599" vert-adv-y="1000"  />

      
      <glyph glyph-name="uni52" unicode="&#x52;" d="M464 0L374 0L246 267L150 267L150 0L70 0L70 667L274 667Q355 667 406 613Q457 559 457 468Q457 385 418 337Q379 289 324 279L464 0M265 337Q316 337 345.50 373Q375 409 375 467Q375 525 345.50 561Q316 597 265 597L150 597L150 337L265 337Z"  horiz-adv-x="509" vert-adv-y="1000"  />

      
      <glyph glyph-name="uni53" unicode="&#x53;" d="M228-12Q103-12 29 72L73 133Q134 59 228 59Q288 59 319 90.50Q350 122 350 168Q350 212 319 243.50Q288 275 244 295Q200 315 155.50 338Q111 361 80 402.50Q49 444 49 503Q49 579 103 628.50Q157 678 240 678Q350 678 418 608L376 548Q323 607 238 607Q192 607 161 579Q130 551 130 507Q130 474 152.50 448.50Q175 423 208 407.50Q241 392 280.50 371Q320 350 353 328Q386 306 408.50 265.50Q431 225 431 173Q431 94 378.50 41Q326-12 228-12Z"  horiz-adv-x="470" vert-adv-y="1000"  />

      
      <glyph glyph-name="uni54" unicode="&#x54;" d="M262 0L183 0L183 597L25 597L25 667L421 667L421 597L262 597L262 0Z"  horiz-adv-x="446" vert-adv-y="1000"  />

      
      <glyph glyph-name="uni55" unicode="&#x55;" d="M284-12Q183-12 126.50 47.50Q70 107 70 216L70 667L150 667L150 215Q150 138 185 98.50Q220 59 284 59Q349 59 384 98.50Q419 138 419 215L419 667L498 667L498 216Q498 106 442 47Q386-12 284-12Z"  horiz-adv-x="569" vert-adv-y="1000"  />

      
      <glyph glyph-name="uni56" unicode="&#x56;" d="M303 0L208 0L8 667L94 667L255 95L417 667L503 667L303 0Z"  horiz-adv-x="511" vert-adv-y="1000"  />

      
      <glyph glyph-name="uni57" unicode="&#x57;" d="M551 0L466 0L357 526L249 0L164 0L16 667L101 667L210 123L324 667L391 667L505 123L614 667L699 667L551 0Z"  horiz-adv-x="715" vert-adv-y="1000"  />

      
      <glyph glyph-name="uni58" unicode="&#x58;" d="M502 0L410 0L255 276L100 0L8 0L207 341L19 667L112 667L255 405L398 667L491 667L303 341L502 0Z"  horiz-adv-x="510" vert-adv-y="1000"  />

      
      <glyph glyph-name="uni59" unicode="&#x59;" d="M289 0L210 0L210 282L4 667L93 667L250 359L407 667L495 667L289 282L289 0Z"  horiz-adv-x="499" vert-adv-y="1000"  />

      
      <glyph glyph-name="uni5a" unicode="&#x5a;" d="M422 0L40 0L40 67L320 597L40 597L40 667L415 667L415 601L134 71L422 71L422 0Z"  horiz-adv-x="462" vert-adv-y="1000"  />

      
      <glyph glyph-name="uni5b" unicode="&#x5b;" d="M195-190L37-190L37 678L195 678L195 625L93 625L93-137L195-137L195-190Z"  horiz-adv-x="213" vert-adv-y="1000"  />

      
      <glyph glyph-name="uni5c" unicode="&#x5c;" d="M193-20L1 687L57 687L249-20L193-20Z"  horiz-adv-x="248" vert-adv-y="1000"  />

      
      <glyph glyph-name="uni5d" unicode="&#x5d;" d="M175-190L17-190L17-137L119-137L119 625L17 625L17 678L175 678L175-190Z"  horiz-adv-x="213" vert-adv-y="1000"  />

      
      <glyph glyph-name="uni5e" unicode="&#x5e;" d="M362 333L304 333L190 610L77 333L19 333L163 667L218 667L362 333Z"  horiz-adv-x="381" vert-adv-y="1000"  />

      
      <glyph glyph-name="uni5f" unicode="&#x5f;" d="M425-93L-3-93L-3-40L425-40L425-93Z"  horiz-adv-x="422" vert-adv-y="1000"  />

      
      <glyph glyph-name="uni60" unicode="&#x60;" d="M186 556L134 556L0 700L73 700L186 556Z"  horiz-adv-x="186" vert-adv-y="1000"  />

      
      <glyph glyph-name="uni61" unicode="&#x61;" d="M386 0L314 0L314 52Q269-12 187-12Q126-12 83.50 32Q41 76 41 149Q41 222 83 265Q125 308 187 308Q271 308 314 246L314 330Q314 379 288 406Q262 433 215 433Q146 433 94 374L62 425Q129 495 226 495Q301 495 343.50 456.50Q386 418 386 338L386 0M210 40Q280 40 314 101L314 193Q281 255 210 255Q166 255 140 224.50Q114 194 114 148Q114 102 140 71Q166 40 210 40Z"  horiz-adv-x="451" vert-adv-y="1000"  />

      
      <glyph glyph-name="uni62" unicode="&#x62;" d="M137 130Q152 97 182.50 74.50Q213 52 246 52Q303 52 332.50 105Q362 158 362 241Q362 324 332.50 377.50Q303 431 246 431Q213 431 182.50 407.50Q152 384 137 351L137 130M137 0L66 0L66 667L137 667L137 413Q183 495 264 495Q345 495 391 425Q437 355 437 241Q437 126 391 57Q345-12 264-12Q226-12 192 10Q158 32 137 69L137 0Z"  horiz-adv-x="480" vert-adv-y="1000"  />

      
      <glyph glyph-name="uni63" unicode="&#x63;" d="M242-12Q151-12 96.50 60Q42 132 42 242Q42 352 96.50 423.50Q151 495 242 495Q328 495 380 431L341 382Q305 431 248 431Q186 431 151.50 377Q117 323 117 242Q117 161 151.50 106.50Q186 52 248 52Q304 52 341 101L380 52Q329-12 242-12Z"  horiz-adv-x="406" vert-adv-y="1000"  />

      
      <glyph glyph-name="uni64" unicode="&#x64;" d="M414 0L342 0L342 69Q321 32 287 10Q253-12 215-12Q135-12 88.50 57Q42 126 42 241Q42 355 88 425Q134 495 215 495Q253 495 287 474Q321 453 342 413L342 667L414 667L414 0M233 52Q267 52 297.50 75Q328 98 342 130L342 352Q328 385 297 408Q266 431 233 431Q176 431 146.50 377.50Q117 324 117 241Q117 158 146.50 105Q176 52 233 52Z"  horiz-adv-x="480" vert-adv-y="1000"  />

      
      <glyph glyph-name="uni65" unicode="&#x65;" d="M249-12Q154-12 98 58.50Q42 129 42 242Q42 350 95.50 422.50Q149 495 238 495Q330 495 379.50 423Q429 351 429 240L429 218L116 218Q118 143 155 95.50Q192 48 255 48Q323 48 370 107L408 65Q345-12 249-12M358 271Q357 336 327 385.50Q297 435 237 435Q179 435 148.50 384.50Q118 334 116 271L358 271Z"  horiz-adv-x="468" vert-adv-y="1000"  />

      
      <glyph glyph-name="uni66" unicode="&#x66;" d="M155 0L83 0L83 420L19 420L19 483L83 483L83 542Q83 605 115.50 641Q148 677 204 677Q257 677 290 645L262 594Q242 616 215 616Q155 616 155 542L155 483L237 483L237 420L155 420L155 0Z"  horiz-adv-x="254" vert-adv-y="1000"  />

      
      <glyph glyph-name="uni67" unicode="&#x67;" d="M223-196Q123-196 62-135L95-79Q143-135 221-135Q274-135 308-102.50Q342-70 342-4L342 77Q321 39 287 16.50Q253-6 215-6Q135-6 88.50 61.50Q42 129 42 244Q42 358 88 426.50Q134 495 215 495Q296 495 342 413L342 483L414 483L414 1Q414-103 360.50-149.50Q307-196 223-196M233 58Q266 58 297 81.50Q328 105 342 138L342 352Q328 385 297 408Q266 431 233 431Q176 431 146.50 378.50Q117 326 117 244Q117 162 146.50 110Q176 58 233 58Z"  horiz-adv-x="479" vert-adv-y="1000"  />

      
      <glyph glyph-name="uni68" unicode="&#x68;" d="M399 0L328 0L328 345Q328 431 250 431Q216 431 185.50 408.50Q155 386 137 354L137 0L66 0L66 667L137 667L137 414Q159 448 198 471.50Q237 495 278 495Q399 495 399 366L399 0Z"  horiz-adv-x="465" vert-adv-y="1000"  />

      
      <glyph glyph-name="uni69" unicode="&#x69;" d="M135.50 567.50Q135.50 567.50 128.25 560.25Q121 553 101 553Q81 553 66.50 567.50Q52 582 52 602Q52 622 66.50 636.50Q81 651 101 651Q121 651 135.50 636.50Q150 622 150 602Q150 582 135.50 567.50M137 0L66 0L66 483L137 483L137 0Z"  horiz-adv-x="203" vert-adv-y="1000"  />

      
      <glyph glyph-name="uni6a" unicode="&#x6a;" d="M135.50 567.50Q135.50 567.50 128.25 560.25Q121 553 101 553Q81 553 66.50 567.50Q52 582 52 602Q52 622 66.50 636.50Q81 651 101 651Q121 651 135.50 636.50Q150 622 150 602Q150 582 135.50 567.50M17-196Q-34-196-65-162L-39-109Q-18-135 10-135Q66-135 66-59L66 483L137 483L137-59Q137-196 17-196Z"  horiz-adv-x="203" vert-adv-y="1000"  />

      
      <glyph glyph-name="uni6b" unicode="&#x6b;" d="M423 0L338 0L205 218L137 131L137 0L66 0L66 667L137 667L137 221L338 483L423 483L254 266L423 0Z"  horiz-adv-x="438" vert-adv-y="1000"  />

      
      <glyph glyph-name="uni6c" unicode="&#x6c;" d="M137 0L66 0L66 667L137 667L137 0Z"  horiz-adv-x="203" vert-adv-y="1000"  />

      
      <glyph glyph-name="uni6d" unicode="&#x6d;" d="M626 0L554 0L554 350Q554 431 487 431Q456 431 426.50 408Q397 385 382 354L382 0L310 0L310 350Q310 431 242 431Q212 431 183 408.50Q154 386 137 354L137 0L66 0L66 483L137 483L137 414Q154 444 191.50 469.50Q229 495 269 495Q314 495 342.50 471.50Q371 448 378 409Q397 444 435 469.50Q473 495 514 495Q626 495 626 369L626 0Z"  horiz-adv-x="692" vert-adv-y="1000"  />

      
      <glyph glyph-name="uni6e" unicode="&#x6e;" d="M399 0L327 0L327 344Q327 431 250 431Q216 431 185.50 408.50Q155 386 137 354L137 0L66 0L66 483L137 483L137 414Q160 448 198 471.50Q236 495 277 495Q399 495 399 364L399 0Z"  horiz-adv-x="465" vert-adv-y="1000"  />

      
      <glyph glyph-name="uni6f" unicode="&#x6f;" d="M238-12Q146-12 94 61Q42 134 42 242Q42 349 94 422Q146 495 238 495Q331 495 383 422.50Q435 350 435 242Q435 134 383 61Q331-12 238-12M238 52Q298 52 329 107Q360 162 360 242Q360 321 329 376Q298 431 238 431Q179 431 148 376Q117 321 117 242Q117 162 148 107Q179 52 238 52Z"  horiz-adv-x="477" vert-adv-y="1000"  />

      
      <glyph glyph-name="uni70" unicode="&#x70;" d="M391 57.50Q391 57.50 368 22.75Q345-12 264-12Q183-12 137 70L137-184L66-184L66 483L137 483L137 414Q158 451 192 473Q226 495 264 495Q345 495 391 426Q437 357 437 242Q437 127 391 57.50M246 52Q303 52 332.50 105.50Q362 159 362 242Q362 325 332.50 378Q303 431 246 431Q213 431 182.50 408.50Q152 386 137 353L137 132Q152 99 182.50 75.50Q213 52 246 52Z"  horiz-adv-x="478" vert-adv-y="1000"  />

      
      <glyph glyph-name="uni71" unicode="&#x71;" d="M232 52Q265 52 295.50 75.50Q326 99 341 132L341 353Q326 386 295.50 408.50Q265 431 232 431Q175 431 145.50 378Q116 325 116 242Q116 159 145.50 105.50Q175 52 232 52M341 70Q295-12 214-12Q133-12 87 57.50Q41 127 41 242Q41 357 87 426Q133 495 214 495Q251 495 285.50 473Q320 451 341 414L341 483L412 483L412-184L341-184L341 70Z"  horiz-adv-x="478" vert-adv-y="1000"  />

      
      <glyph glyph-name="uni72" unicode="&#x72;" d="M137 0L66 0L66 483L137 483L137 406Q190 493 274 493L274 419Q262 422 250 422Q218 422 185.50 398Q153 374 137 343L137 0Z"  horiz-adv-x="291" vert-adv-y="1000"  />

      
      <glyph glyph-name="uni73" unicode="&#x73;" d="M190-12Q86-12 27 56L63 107Q113 46 189 46Q231 46 256.50 67.50Q282 89 282 124Q282 155 257 176Q232 197 197 210.50Q162 224 126.50 240Q91 256 66 287.50Q41 319 41 365Q41 421 83 458Q125 495 195 495Q285 495 342 433L308 384Q268 437 196 437Q157 437 133.50 417Q110 397 110 367Q110 339 135 320Q160 301 195 287.50Q230 274 265.50 257Q301 240 326 207Q351 174 351 126Q351 65 307 26.50Q263-12 190-12Z"  horiz-adv-x="387" vert-adv-y="1000"  />

      
      <glyph glyph-name="uni74" unicode="&#x74;" d="M177-12Q80-12 80 97L80 420L16 420L16 483L80 483L80 615L152 615L152 483L234 483L234 420L152 420L152 110Q152 52 191 52Q217 52 233 71L255 17Q226-12 177-12Z"  horiz-adv-x="263" vert-adv-y="1000"  />

      
      <glyph glyph-name="uni75" unicode="&#x75;" d="M399 0L327 0L327 67Q303 33 266.50 10.50Q230-12 187-12Q66-12 66 117L66 483L137 483L137 138Q137 52 214 52Q249 52 279.50 73.50Q310 95 327 127L327 483L399 483L399 0Z"  horiz-adv-x="465" vert-adv-y="1000"  />

      
      <glyph glyph-name="uni76" unicode="&#x76;" d="M243 0L164 0L6 483L84 483L204 85L325 483L402 483L243 0Z"  horiz-adv-x="408" vert-adv-y="1000"  />

      
      <glyph glyph-name="uni77" unicode="&#x77;" d="M496 0L422 0L319 388L215 0L142 0L13 483L88 483L182 97L284 483L352 483L455 97L550 483L625 483L496 0Z"  horiz-adv-x="638" vert-adv-y="1000"  />

      
      <glyph glyph-name="uni78" unicode="&#x78;" d="M394 0L314 0L203 194L92 0L12 0L159 246L20 483L100 483L203 299L306 483L386 483L247 246L394 0Z"  horiz-adv-x="406" vert-adv-y="1000"  />

      
      <glyph glyph-name="uni79" unicode="&#x79;" d="M41-189L52-125Q65-132 84-132Q106-132 118.50-121.50Q131-111 141-84L167-10L6 483L84 483L204 87L325 483L402 483L209-102Q192-153 162.50-174.50Q133-196 89-196Q60-196 41-189Z"  horiz-adv-x="408" vert-adv-y="1000"  />

      
      <glyph glyph-name="uni7a" unicode="&#x7a;" d="M344 0L43 0L43 56L252 420L43 420L43 483L340 483L340 428L131 63L344 63L344 0Z"  horiz-adv-x="387" vert-adv-y="1000"  />

      
      <glyph glyph-name="uni7b" unicode="&#x7b;" d="M214-190L168-190Q124-190 91-157Q58-124 58-71L58 150Q58 180 44.50 200Q31 220 6 220L6 268Q31 268 44.50 288Q58 308 58 338L58 558Q58 611 91 644.50Q124 678 168 678L214 678L214 625L168 625Q146 625 130 606Q114 587 114 558L114 332Q114 263 69 244Q114 225 114 156L114-71Q114-99 130-118Q146-137 168-137L214-137L214-190Z"  horiz-adv-x="231" vert-adv-y="1000"  />

      
      <glyph glyph-name="uni7c" unicode="&#x7c;" d="M124-20L70-20L70 687L124 687L124-20Z"  horiz-adv-x="194" vert-adv-y="1000"  />

      
      <glyph glyph-name="uni7d" unicode="&#x7d;" d="M17-190L17-137L63-137Q85-137 101-118Q117-99 117-71L117 156Q117 224 163 244Q117 264 117 332L117 558Q117 587 101 606Q85 625 63 625L17 625L17 678L63 678Q107 678 140.50 644.50Q174 611 174 558L174 338Q174 308 187.50 288Q201 268 226 268L226 220Q201 220 187.50 200Q174 180 174 150L174-71Q174-124 140.50-157Q107-190 63-190L17-190Z"  horiz-adv-x="231" vert-adv-y="1000"  />

      
      <glyph glyph-name="uni7e" unicode="&#x7e;" d="M367 667L421 661Q417 613 411 577Q405 541 392.50 503Q380 465 356 444.50Q332 424 298 424Q260 424 237 454Q214 484 207 519.50Q200 555 186.50 585Q173 615 151 615Q120 615 105 568.50Q90 522 81 423L27 429Q31 478 37.50 514Q44 550 57 587.50Q70 625 93.50 645.50Q117 666 151 666Q182 666 202.50 646Q223 626 232.50 598Q242 570 249.50 542Q257 514 268.50 494Q280 474 298 474Q329 474 344 520.50Q359 567 367 667Z"  horiz-adv-x="449" vert-adv-y="1000"  />

      
      <glyph glyph-name="unia1" unicode="&#xa1;" d="M70-184L85 298L144 298L160-184L70-184M61 440Q61 461 76.50 477Q92 493 114 493Q136 493 152 477Q168 461 168 440Q168 418 152 402.50Q136 387 114 387Q92 387 76.50 402.50Q61 418 61 440Z"  horiz-adv-x="228" vert-adv-y="1000"  />

      
      <glyph glyph-name="unia2" unicode="&#xa2;" d="M212-100L212-9Q134 3 88 72.50Q42 142 42 242Q42 342 88 411Q134 480 212 492L212 565L268 565L268 493Q336 485 380 431L341 382Q310 423 268 429L268 53Q311 61 341 101L380 52Q337-3 268-11L268-100L212-100M117 242Q117 173 141.50 122.50Q166 72 212 57L212 425Q166 410 141.50 360Q117 310 117 242Z"  horiz-adv-x="406" vert-adv-y="1000"  />

      
      <glyph glyph-name="unia3" unicode="&#xa3;" d="M25 269L25 321L111 321Q90 352 80 367.50Q70 383 59 416Q48 449 48 484Q48 563 103.50 620Q159 677 239 677Q299 677 344 647.50Q389 618 408 564L345 530Q333 565 307 587.50Q281 610 244 610Q198 610 165.50 575Q133 540 133 482Q133 455 140.50 430Q148 405 154.50 392Q161 379 177.50 354Q194 329 199 321L312 321L312 269L221 269Q227 248 227 223Q227 182 207 145Q187 108 156 85Q178 94 202 94Q230 94 266.50 76Q303 58 325 58Q350 58 372.50 69.50Q395 81 405 96L437 33Q398-13 320-13Q279-13 239 9Q199 31 172 31Q132 31 74-7L45 52Q97 80 126 121.50Q155 163 155 208Q155 238 142 269L25 269Z"  horiz-adv-x="449" vert-adv-y="1000"  />

      
      <glyph glyph-name="unia4" unicode="&#xa4;" d="M247 95Q177 95 128 136L58 65L13 109L88 183Q51 245 51 333Q51 421 89 483L13 559L57 604L130 530Q180 570 247 570Q314 570 364 530L437 604L481 559L405 483Q443 421 443 333Q443 245 404 182L481 107L437 63L364 135Q314 95 247 95M247 162Q308 162 339.50 211.50Q371 261 371 333Q371 404 339.50 453.50Q308 503 247 503Q187 503 155 453.50Q123 404 123 333Q123 262 155 212Q187 162 247 162Z"  horiz-adv-x="494" vert-adv-y="1000"  />

      
      <glyph glyph-name="unia5" unicode="&#xa5;" d="M289 0L210 0L210 123L22 123L22 174L210 174L210 282L22 282L22 333L182 333L4 667L93 667L250 359L407 667L495 667L316 333L477 333L477 282L289 282L289 174L477 174L477 123L289 123L289 0Z"  horiz-adv-x="499" vert-adv-y="1000"  />

      
      <glyph glyph-name="unia6" unicode="&#xa6;" d="M124-20L70-20L70 296L124 296L124-20M124 371L70 371L70 687L124 687L124 371Z"  horiz-adv-x="194" vert-adv-y="1000"  />

      
      <glyph glyph-name="unia7" unicode="&#xa7;" d="M351 307Q351 223 269 186Q351 138 351 57Q351-4 306-42.50Q261-81 190-81Q90-81 28-12L63 36Q115-27 188-27Q229-27 255.50-4Q282 19 282 54Q282 86 257 108.50Q232 131 197 145Q162 159 126.50 175Q91 191 66 222.50Q41 254 41 300Q41 343 69 375Q97 407 141 418Q41 468 41 551Q41 605 83 641Q125 677 191 677Q287 677 341 614L308 570Q263 623 195 623Q157 623 133.50 603Q110 583 110 551Q110 521 135 500.50Q160 480 195 466.50Q230 453 265.50 436.50Q301 420 326 387.50Q351 355 351 307M283 297Q283 361 199 394Q108 374 108 308Q108 274 134 253Q160 232 215 208Q283 240 283 297Z"  horiz-adv-x="389" vert-adv-y="1000"  />

      
      <glyph glyph-name="unia8" unicode="&#xa8;" d="M266 603Q266 585 252.50 572Q239 559 221 559Q202 559 189 572Q176 585 176 603Q176 622 189 635Q202 648 221 648Q239 648 252.50 635Q266 622 266 603M92 603Q92 585 79 572Q66 559 47 559Q29 559 15.50 572Q2 585 2 603Q2 622 15.50 635Q29 648 47 648Q66 648 79 635Q92 622 92 603Z"  horiz-adv-x="268" vert-adv-y="1000"  />

      
      <glyph glyph-name="unia9" unicode="&#xa9;" d="M633 578Q633 578 683.50 527.50Q734 477 734 334Q734 191 633 90Q532-11 389-11Q246-11 145 90.50Q44 192 44 334Q44 477 145 578Q246 679 389 679Q532 679 633 578M611.50 112Q611.50 112 657.75 158Q704 204 704 334Q704 464 611.50 556.50Q519 649 389 649Q259 649 167 556.50Q75 464 75 334Q75 204 167 112Q259 20 389 20Q519 20 611.50 112M512 211L538 187Q481 121 392 121Q305 121 244 183Q183 245 183 335Q183 426 243.50 487Q304 548 392 548Q482 548 537 483L512 458Q492 484 459.50 500Q427 516 392 516Q321 516 270 465Q219 414 219 335Q219 258 270.50 205.50Q322 153 392 153Q428 153 460 169Q492 185 512 211Z"  horiz-adv-x="778" vert-adv-y="1000"  />

      
      <glyph glyph-name="uniaa" unicode="&#xaa;" d="M276 326L221 326L221 360Q189 318 133 318Q92 318 63 346.50Q34 375 34 422Q34 470 62.50 497.50Q91 525 133 525Q189 525 221 485L221 538Q221 570 202.50 586.50Q184 603 154 603Q106 603 72 562L48 600Q95 648 163 648Q276 648 276 536L276 326M152 356Q199 356 221 394L221 451Q200 489 152 489Q124 489 106.50 470Q89 451 89 423Q89 393 106.50 374.50Q124 356 152 356Z"  horiz-adv-x="329" vert-adv-y="1000"  />

      
      <glyph glyph-name="uniab" unicode="&#xab;" d="M352 63L285 63L160 243L285 420L352 420L227 243L352 63M222 63L155 63L30 243L155 420L222 420L97 243L222 63Z"  horiz-adv-x="382" vert-adv-y="1000"  />

      
      <glyph glyph-name="uniac" unicode="&#xac;" d="M410 456L410 212L356 212L356 405L29 405L29 456L410 456Z"  horiz-adv-x="441" vert-adv-y="1000"  />

      
      <glyph glyph-name="uniad" unicode="&#xad;" d="M237 210L30 210L30 274L237 274L237 210Z"  horiz-adv-x="267" vert-adv-y="1000"  />

      
      <glyph glyph-name="uniae" unicode="&#xae;" d="M459 465Q459 377 397 315Q335 253 247 253Q159 253 97 315Q35 377 35 465Q35 553 97 615Q159 677 247 677Q336 677 397.50 615.50Q459 554 459 465M430 465Q430 542 377 595Q324 648 247 648Q170 648 116.50 595Q63 542 63 465Q63 389 117 335Q171 281 247 281Q323 281 376.50 335Q430 389 430 465M345 343L305 343L242 439L198 439L198 343L166 343L166 586L265 586Q297 586 319.50 565.50Q342 545 342 512Q342 477 319.50 458.50Q297 440 280 440L345 343M309 512Q309 531 295.50 544.50Q282 558 265 558L198 558L198 468L265 468Q281 468 295 481Q309 494 309 512Z"  horiz-adv-x="494" vert-adv-y="1000"  />

      
      <glyph glyph-name="uniaf" unicode="&#xaf;" d="M306 573L0 573L0 619L306 619L306 573Z"  horiz-adv-x="306" vert-adv-y="1000"  />

      
      <glyph glyph-name="unib0" unicode="&#xb0;" d="M229.50 641.50Q229.50 641.50 247.25 623.75Q265 606 265 556Q265 506 229.50 470.50Q194 435 144 435Q94 435 58.50 470.50Q23 506 23 556Q23 606 58.50 641.50Q94 677 144 677Q194 677 229.50 641.50M219 556Q219 586 197 608Q175 630 144 630Q113 630 91.50 608Q70 586 70 556Q70 525 91.50 503.50Q113 482 144 482Q175 482 197 503.50Q219 525 219 556Z"  horiz-adv-x="289" vert-adv-y="1000"  />

      
      <glyph glyph-name="unib1" unicode="&#xb1;" d="M410 318L247 318L247 134L192 134L192 318L29 318L29 369L192 369L192 546L247 546L247 369L410 369L410 318M410 22L29 22L29 73L410 73L410 22Z"  horiz-adv-x="439" vert-adv-y="1000"  />

      
      <glyph glyph-name="unib2" unicode="&#xb2;" d="M291 421L41 421L41 465Q157 579 194 625.50Q231 672 231 713Q231 745 211 762Q191 779 162 779Q103 779 71 728L36 763Q82 827 164 827Q218 827 253.50 798Q289 769 289 716Q289 668 252.50 618Q216 568 119 469L291 469L291 421Z"  horiz-adv-x="326" vert-adv-y="1000"  />

      
      <glyph glyph-name="unib3" unicode="&#xb3;" d="M293 530Q293 478 258 446Q223 414 162 414Q72 414 31 480L66 514Q101 462 160 462Q196 462 215.50 481Q235 500 235 533Q235 603 152 603Q125 603 119 602L119 650Q125 649 151 649Q229 649 229 714Q229 746 209.50 762.50Q190 779 158 779Q104 779 70 731L35 764Q80 827 162 827Q218 827 252.50 799Q287 771 287 720Q287 684 264 659Q241 634 210 628Q241 624 267 597Q293 570 293 530Z"  horiz-adv-x="326" vert-adv-y="1000"  />

      
      <glyph glyph-name="unib4" unicode="&#xb4;" d="M186 700L52 556L0 556L113 700L186 700Z"  horiz-adv-x="186" vert-adv-y="1000"  />

      
      <glyph glyph-name="unib5" unicode="&#xb5;" d="M137 22L137-184L66-184L66 483L137 483L137 138Q137 50 216 50Q250 50 280 72.50Q310 95 327 127L327 483L399 483L399 106Q399 52 438 52Q449 52 454 53L460-8Q442-12 424-12Q342-12 330 73Q310 35 278 11.50Q246-12 210-12Q158-12 137 22Z"  horiz-adv-x="476" vert-adv-y="1000"  />

      
      <glyph glyph-name="unib6" unicode="&#xb6;" d="M377-100L332-100L332 623L243 623L243-100L199-100L199 323Q128 323 77.50 373.50Q27 424 27 495Q27 566 77.50 616.50Q128 667 199 667L377 667L377-100Z"  horiz-adv-x="449" vert-adv-y="1000"  />

      
      <glyph glyph-name="unib7" unicode="&#xb7;" d="M168 245Q168 223 152 207Q136 191 114 191Q92 191 76.50 207Q61 223 61 245Q61 266 76.50 282Q92 298 114 298Q136 298 152 282Q168 266 168 245Z"  horiz-adv-x="228" vert-adv-y="1000"  />

      
      <glyph glyph-name="unib8" unicode="&#xb8;" d="M89-191Q38-191 0-161L18-124Q49-152 88-152Q110-152 126-140.50Q142-129 142-110Q142-76 109-76Q89-76 76-91L44-73L75 11L118 11L92-56Q104-45 125-45Q151-45 168-63Q185-81 185-111Q185-146 157.50-168.50Q130-191 89-191Z"  horiz-adv-x="185" vert-adv-y="1000"  />

      
      <glyph glyph-name="unib9" unicode="&#xb9;" d="M169 421L111 421L111 746L48 680L14 715L118 821L169 821L169 421Z"  horiz-adv-x="225" vert-adv-y="1000"  />

      
      <glyph glyph-name="uniba" unicode="&#xba;" d="M173 318Q109 318 72.50 365.50Q36 413 36 483Q36 553 72.50 600.50Q109 648 173 648Q238 648 274.50 600.50Q311 553 311 483Q311 413 274.50 365.50Q238 318 173 318M173 364Q213 364 233.50 398Q254 432 254 483Q254 534 233.50 567Q213 600 173 600Q134 600 113.50 567Q93 534 93 483Q93 432 113.50 398Q134 364 173 364Z"  horiz-adv-x="347" vert-adv-y="1000"  />

      
      <glyph glyph-name="unibb" unicode="&#xbb;" d="M222 243L97 63L30 63L155 243L30 420L97 420L222 243M352 243L227 63L160 63L285 243L160 420L227 420L352 243Z"  horiz-adv-x="382" vert-adv-y="1000"  />

      
      <glyph glyph-name="unibc" unicode="&#xbc;" d="M169 267L111 267L111 592L48 526L14 561L118 667L169 667L169 267M647 101L600 101L600 0L542 0L542 101L374 101L374 146L524 400L600 400L600 148L647 148L647 101M542 148L542 341L428 148L542 148M516 667L166 0L118 0L468 667L516 667Z"  horiz-adv-x="673" vert-adv-y="1000"  />

      
      <glyph glyph-name="unibd" unicode="&#xbd;" d="M169 267L111 267L111 592L48 526L14 561L118 667L169 667L169 267M672 0L422 0L422 44Q538 158 575 204.50Q612 251 612 292Q612 324 592 341Q572 358 543 358Q484 358 452 307L417 342Q463 406 545 406Q599 406 634.50 377Q670 348 670 295Q670 247 633.50 197Q597 147 500 48L672 48L672 0M516 667L166 0L118 0L468 667L516 667Z"  horiz-adv-x="707" vert-adv-y="1000"  />

      
      <glyph glyph-name="unibe" unicode="&#xbe;" d="M720 101L673 101L673 0L615 0L615 101L447 101L447 146L597 400L673 400L673 148L720 148L720 101M615 148L615 341L501 148L615 148M588 667L238 0L190 0L540 667L588 667M293 376Q293 324 258 292Q223 260 162 260Q72 260 31 326L66 360Q101 308 160 308Q196 308 215.50 327Q235 346 235 379Q235 449 152 449Q125 449 119 448L119 496Q125 495 151 495Q229 495 229 560Q229 592 209.50 608.50Q190 625 158 625Q104 625 70 577L35 610Q80 673 162 673Q218 673 252.50 645Q287 617 287 566Q287 530 264 505Q241 480 210 474Q241 470 267 443Q293 416 293 376Z"  horiz-adv-x="745" vert-adv-y="1000"  />

      
      <glyph glyph-name="unibf" unicode="&#xbf;" d="M218 297Q251 263 251 214Q251 173 228.50 138.50Q206 104 179.50 83.50Q153 63 130.50 31.50Q108 0 108-37Q108-73 134-99.50Q160-126 204-126Q272-126 318-69L359-121Q296-197 194-197Q119-197 73.50-154.50Q28-112 28-49Q28-10 44 23Q60 56 82.50 78.50Q105 101 127.50 121.50Q150 142 166 167Q182 192 182 219Q182 249 159 270L218 297M157.50 477Q157.50 477 165.25 485Q173 493 195 493Q217 493 233 477Q249 461 249 439Q249 418 233 402.50Q217 387 195 387Q173 387 157.50 402.50Q142 418 142 439Q142 461 157.50 477Z"  horiz-adv-x="332" vert-adv-y="1000"  />

      
      <glyph glyph-name="unic0" unicode="&#xc0;" d="M503 0L417 0L374 151L137 151L94 0L8 0L208 667L303 667L503 0M357 221L255 579L154 221L357 221M302 723L250 723L116 867L189 867L302 723Z"  horiz-adv-x="511" vert-adv-y="1000"  />

      
      <glyph glyph-name="unic1" unicode="&#xc1;" d="M503 0L417 0L374 151L137 151L94 0L8 0L208 667L303 667L503 0M357 221L255 579L154 221L357 221M395 867L261 723L209 723L322 867L395 867Z"  horiz-adv-x="511" vert-adv-y="1000"  />

      
      <glyph glyph-name="unic2" unicode="&#xc2;" d="M373 723L326 723L255 828L186 723L140 723L220 867L290 867L373 723M503 0L417 0L374 151L137 151L94 0L8 0L208 667L303 667L503 0M357 221L255 579L154 221L357 221Z"  horiz-adv-x="511" vert-adv-y="1000"  />

      
      <glyph glyph-name="unic3" unicode="&#xc3;" d="M503 0L417 0L374 151L137 151L94 0L8 0L208 667L303 667L503 0M357 221L255 579L154 221L357 221M306 721Q284 721 268.50 735.50Q253 750 245.50 768Q238 786 227 800.50Q216 815 203 815Q185 815 174 793Q163 771 163 727L121 727Q121 787 143 824Q165 861 206 861Q228 861 243.50 846.50Q259 832 266.50 814.50Q274 797 285 782.50Q296 768 309 768Q349 768 349 855L391 855Q391 795 369 758Q347 721 306 721Z"  horiz-adv-x="511" vert-adv-y="1000"  />

      
      <glyph glyph-name="unic4" unicode="&#xc4;" d="M388 770Q388 752 374.50 739Q361 726 343 726Q324 726 311 739Q298 752 298 770Q298 789 311 802Q324 815 343 815Q361 815 374.50 802Q388 789 388 770M214 770Q214 752 201 739Q188 726 169 726Q151 726 137.50 739Q124 752 124 770Q124 789 137.50 802Q151 815 169 815Q188 815 201 802Q214 789 214 770M503 0L417 0L374 151L137 151L94 0L8 0L208 667L303 667L503 0M357 221L255 579L154 221L357 221Z"  horiz-adv-x="511" vert-adv-y="1000"  />

      
      <glyph glyph-name="unic5" unicode="&#xc5;" d="M503 0L417 0L374 151L137 151L94 0L8 0L208 667L303 667L503 0M357 221L255 579L154 221L357 221M256 691Q218 691 191.50 717.50Q165 744 165 782Q165 820 191.50 846.50Q218 873 256 873Q293 873 319.50 846.50Q346 820 346 782Q346 744 319.50 717.50Q293 691 256 691M218.50 744.50Q218.50 744.50 226.25 736.75Q234 729 256 729Q278 729 293 744.50Q308 760 308 782Q308 804 293 819.50Q278 835 256 835Q234 835 218.50 819.50Q203 804 203 782Q203 760 218.50 744.50Z"  horiz-adv-x="511" vert-adv-y="1000"  />

      
      <glyph glyph-name="unic6" unicode="&#xc6;" d="M702 0L360 0L360 151L165 151L96 0L11 0L327 667L702 667L702 597L439 597L439 376L695 376L695 306L439 306L439 71L702 71L702 0M360 221L360 579L195 221L360 221Z"  horiz-adv-x="751" vert-adv-y="1000"  />

      
      <glyph glyph-name="unic7" unicode="&#xc7;" d="M300-187Q248-187 211-157L229-120Q260-148 299-148Q321-148 337-136.50Q353-125 353-106Q353-72 320-72Q300-72 287-87L255-69L276-10Q171 3 109 97Q47 191 47 333Q47 485 117.50 581.50Q188 678 306 678Q433 678 501 548L435 517Q390 607 306 607Q226 607 177.50 530Q129 453 129 333Q129 213 177.50 136Q226 59 306 59Q393 59 436 158L503 127Q436-5 318-11L303-52Q315-41 336-41Q362-41 379-59Q396-77 396-107Q396-142 368.50-164.50Q341-187 300-187Z"  horiz-adv-x="533" vert-adv-y="1000"  />

      
      <glyph glyph-name="unic8" unicode="&#xc8;" d="M413 0L70 0L70 667L413 667L413 597L150 597L150 376L406 376L406 306L150 306L150 71L413 71L413 0M288 723L236 723L102 867L175 867L288 723Z"  horiz-adv-x="461" vert-adv-y="1000"  />

      
      <glyph glyph-name="unic9" unicode="&#xc9;" d="M381 867L247 723L195 723L308 867L381 867M413 0L70 0L70 667L413 667L413 597L150 597L150 376L406 376L406 306L150 306L150 71L413 71L413 0Z"  horiz-adv-x="461" vert-adv-y="1000"  />

      
      <glyph glyph-name="unica" unicode="&#xca;" d="M359 723L312 723L241 828L172 723L126 723L206 867L276 867L359 723M413 0L70 0L70 667L413 667L413 597L150 597L150 376L406 376L406 306L150 306L150 71L413 71L413 0Z"  horiz-adv-x="461" vert-adv-y="1000"  />

      
      <glyph glyph-name="unicb" unicode="&#xcb;" d="M374 770Q374 752 360.50 739Q347 726 329 726Q310 726 297 739Q284 752 284 770Q284 789 297 802Q310 815 329 815Q347 815 360.50 802Q374 789 374 770M200 770Q200 752 187 739Q174 726 155 726Q137 726 123.50 739Q110 752 110 770Q110 789 123.50 802Q137 815 155 815Q174 815 187 802Q200 789 200 770M413 0L70 0L70 667L413 667L413 597L150 597L150 376L406 376L406 306L150 306L150 71L413 71L413 0Z"  horiz-adv-x="461" vert-adv-y="1000"  />

      
      <glyph glyph-name="unicc" unicode="&#xcc;" d="M150 0L70 0L70 667L150 667L150 0M157 723L105 723L-29 867L44 867L157 723Z"  horiz-adv-x="220" vert-adv-y="1000"  />

      
      <glyph glyph-name="unicd" unicode="&#xcd;" d="M150 0L70 0L70 667L150 667L150 0M250 867L116 723L64 723L177 867L250 867Z"  horiz-adv-x="220" vert-adv-y="1000"  />

      
      <glyph glyph-name="unice" unicode="&#xce;" d="M228 723L181 723L110 828L41 723L-5 723L75 867L145 867L228 723M150 0L70 0L70 667L150 667L150 0Z"  horiz-adv-x="220" vert-adv-y="1000"  />

      
      <glyph glyph-name="unicf" unicode="&#xcf;" d="M243 770Q243 752 229.50 739Q216 726 198 726Q179 726 166 739Q153 752 153 770Q153 789 166 802Q179 815 198 815Q216 815 229.50 802Q243 789 243 770M69 770Q69 752 56 739Q43 726 24 726Q6 726-7.50 739Q-21 752-21 770Q-21 789-7.50 802Q6 815 24 815Q43 815 56 802Q69 789 69 770M150 0L70 0L70 667L150 667L150 0Z"  horiz-adv-x="220" vert-adv-y="1000"  />

      
      <glyph glyph-name="unid0" unicode="&#xd0;" d="M272 0L94 0L94 301L16 301L16 358L94 358L94 667L272 667Q398 667 469 574Q540 481 540 333Q540 185 469.50 92.50Q399 0 272 0M272 71Q361 71 409.50 143.50Q458 216 458 333Q458 451 410 524Q362 597 272 597L174 597L174 358L298 358L298 301L174 301L174 71L272 71Z"  horiz-adv-x="587" vert-adv-y="1000"  />

      
      <glyph glyph-name="unid1" unicode="&#xd1;" d="M334 721Q312 721 296.50 735.50Q281 750 273.50 768Q266 786 255 800.50Q244 815 231 815Q213 815 202 793Q191 771 191 727L149 727Q149 787 171 824Q193 861 234 861Q256 861 271.50 846.50Q287 832 294.50 814.50Q302 797 313 782.50Q324 768 337 768Q377 768 377 855L419 855Q419 795 397 758Q375 721 334 721M502 0L425 0L150 497L150 0L70 0L70 667L150 667L422 180L422 667L502 667L502 0Z"  horiz-adv-x="572" vert-adv-y="1000"  />

      
      <glyph glyph-name="unid2" unicode="&#xd2;" d="M346 723L294 723L160 867L233 867L346 723M484.50 85.50Q484.50 85.50 450.75 36.75Q417-12 299-12Q181-12 114 85.50Q47 183 47 333Q47 483 114 580.50Q181 678 299 678Q417 678 484.50 580.50Q552 483 552 333Q552 183 484.50 85.50M174 136.50Q174 136.50 196.50 97.75Q219 59 299 59Q379 59 424.50 136.50Q470 214 470 333Q470 453 425 530Q380 607 299 607Q219 607 174 530Q129 453 129 333Q129 214 174 136.50Z"  horiz-adv-x="599" vert-adv-y="1000"  />

      
      <glyph glyph-name="unid3" unicode="&#xd3;" d="M439 867L305 723L253 723L366 867L439 867M484.50 85.50Q484.50 85.50 450.75 36.75Q417-12 299-12Q181-12 114 85.50Q47 183 47 333Q47 483 114 580.50Q181 678 299 678Q417 678 484.50 580.50Q552 483 552 333Q552 183 484.50 85.50M174 136.50Q174 136.50 196.50 97.75Q219 59 299 59Q379 59 424.50 136.50Q470 214 470 333Q470 453 425 530Q380 607 299 607Q219 607 174 530Q129 453 129 333Q129 214 174 136.50Z"  horiz-adv-x="599" vert-adv-y="1000"  />

      
      <glyph glyph-name="unid4" unicode="&#xd4;" d="M418 723L371 723L300 828L231 723L185 723L265 867L335 867L418 723M484.50 85.50Q484.50 85.50 450.75 36.75Q417-12 299-12Q181-12 114 85.50Q47 183 47 333Q47 483 114 580.50Q181 678 299 678Q417 678 484.50 580.50Q552 483 552 333Q552 183 484.50 85.50M174 136.50Q174 136.50 196.50 97.75Q219 59 299 59Q379 59 424.50 136.50Q470 214 470 333Q470 453 425 530Q380 607 299 607Q219 607 174 530Q129 453 129 333Q129 214 174 136.50Z"  horiz-adv-x="599" vert-adv-y="1000"  />

      
      <glyph glyph-name="unid5" unicode="&#xd5;" d="M484.50 85.50Q484.50 85.50 450.75 36.75Q417-12 299-12Q181-12 114 85.50Q47 183 47 333Q47 483 114 580.50Q181 678 299 678Q417 678 484.50 580.50Q552 483 552 333Q552 183 484.50 85.50M174 136.50Q174 136.50 196.50 97.75Q219 59 299 59Q379 59 424.50 136.50Q470 214 470 333Q470 453 425 530Q380 607 299 607Q219 607 174 530Q129 453 129 333Q129 214 174 136.50M350 721Q328 721 312.50 735.50Q297 750 289.50 768Q282 786 271 800.50Q260 815 247 815Q229 815 218 793Q207 771 207 727L165 727Q165 787 187 824Q209 861 250 861Q272 861 287.50 846.50Q303 832 310.50 814.50Q318 797 329 782.50Q340 768 353 768Q393 768 393 855L435 855Q435 795 413 758Q391 721 350 721Z"  horiz-adv-x="599" vert-adv-y="1000"  />

      
      <glyph glyph-name="unid6" unicode="&#xd6;" d="M431 770Q431 752 417.50 739Q404 726 386 726Q367 726 354 739Q341 752 341 770Q341 789 354 802Q367 815 386 815Q404 815 417.50 802Q431 789 431 770M257 770Q257 752 244 739Q231 726 212 726Q194 726 180.50 739Q167 752 167 770Q167 789 180.50 802Q194 815 212 815Q231 815 244 802Q257 789 257 770M484.50 85.50Q484.50 85.50 450.75 36.75Q417-12 299-12Q181-12 114 85.50Q47 183 47 333Q47 483 114 580.50Q181 678 299 678Q417 678 484.50 580.50Q552 483 552 333Q552 183 484.50 85.50M174 136.50Q174 136.50 196.50 97.75Q219 59 299 59Q379 59 424.50 136.50Q470 214 470 333Q470 453 425 530Q380 607 299 607Q219 607 174 530Q129 453 129 333Q129 214 174 136.50Z"  horiz-adv-x="599" vert-adv-y="1000"  />

      
      <glyph glyph-name="unid7" unicode="&#xd7;" d="M347 170L219 298L92 170L55 206L183 334L55 462L92 498L219 370L347 498L383 462L255 334L383 206L347 170Z"  horiz-adv-x="439" vert-adv-y="1000"  />

      
      <glyph glyph-name="unid8" unicode="&#xd8;" d="M299-12Q221-12 164 33L146 0L87 0L125 70Q47 166 47 333Q47 483 114 580.50Q181 678 299 678Q375 678 432 634L450 667L509 667L471 597Q552 499 552 333Q552 183 484.50 85.50Q417-12 299-12M299 59Q379 59 424.50 136.50Q470 214 470 333Q470 448 429 521L201 101Q241 59 299 59M129 333Q129 221 167 148L395 567Q353 607 299 607Q219 607 174 530Q129 453 129 333Z"  horiz-adv-x="599" vert-adv-y="1000"  />

      
      <glyph glyph-name="unid9" unicode="&#xd9;" d="M284-12Q183-12 126.50 47.50Q70 107 70 216L70 667L150 667L150 215Q150 138 185 98.50Q220 59 284 59Q349 59 384 98.50Q419 138 419 215L419 667L498 667L498 216Q498 106 442 47Q386-12 284-12M331 723L279 723L145 867L218 867L331 723Z"  horiz-adv-x="569" vert-adv-y="1000"  />

      
      <glyph glyph-name="unida" unicode="&#xda;" d="M424 867L290 723L238 723L351 867L424 867M284-12Q183-12 126.50 47.50Q70 107 70 216L70 667L150 667L150 215Q150 138 185 98.50Q220 59 284 59Q349 59 384 98.50Q419 138 419 215L419 667L498 667L498 216Q498 106 442 47Q386-12 284-12Z"  horiz-adv-x="569" vert-adv-y="1000"  />

      
      <glyph glyph-name="unidb" unicode="&#xdb;" d="M402 723L355 723L284 828L215 723L169 723L249 867L319 867L402 723M284-12Q183-12 126.50 47.50Q70 107 70 216L70 667L150 667L150 215Q150 138 185 98.50Q220 59 284 59Q349 59 384 98.50Q419 138 419 215L419 667L498 667L498 216Q498 106 442 47Q386-12 284-12Z"  horiz-adv-x="569" vert-adv-y="1000"  />

      
      <glyph glyph-name="unidc" unicode="&#xdc;" d="M417 770Q417 752 403.50 739Q390 726 372 726Q353 726 340 739Q327 752 327 770Q327 789 340 802Q353 815 372 815Q390 815 403.50 802Q417 789 417 770M243 770Q243 752 230 739Q217 726 198 726Q180 726 166.50 739Q153 752 153 770Q153 789 166.50 802Q180 815 198 815Q217 815 230 802Q243 789 243 770M284-12Q183-12 126.50 47.50Q70 107 70 216L70 667L150 667L150 215Q150 138 185 98.50Q220 59 284 59Q349 59 384 98.50Q419 138 419 215L419 667L498 667L498 216Q498 106 442 47Q386-12 284-12Z"  horiz-adv-x="569" vert-adv-y="1000"  />

      
      <glyph glyph-name="unidd" unicode="&#xdd;" d="M289 0L210 0L210 282L4 667L93 667L250 359L407 667L495 667L289 282L289 0M389 867L255 723L203 723L316 867L389 867Z"  horiz-adv-x="499" vert-adv-y="1000"  />

      
      <glyph glyph-name="unide" unicode="&#xde;" d="M150 0L70 0L70 667L150 667L150 547L273 547Q361 547 409 489.50Q457 432 457 346Q457 261 408.50 204Q360 147 273 147L150 147L150 0M265 218Q316 218 345.50 253Q375 288 375 346Q375 404 345.50 440.50Q316 477 265 477L150 477L150 218L265 218Z"  horiz-adv-x="487" vert-adv-y="1000"  />

      
      <glyph glyph-name="unidf" unicode="&#xdf;" d="M507 126Q507 68 464.50 28Q422-12 350-12Q296-12 260.50 5.50Q225 23 194 57L228 108Q274 47 345 47Q386 47 410.50 69Q435 91 435 125Q435 156 411.50 176.50Q388 197 354 211Q320 225 286.50 240.50Q253 256 229.50 286.50Q206 317 206 362Q206 389 218.50 412Q231 435 249 450Q267 465 285 479Q303 493 315.50 509.50Q328 526 328 545Q328 575 302 594Q276 613 240 613Q197 613 169.50 586Q142 559 142 509L142 0L71 0L71 509Q71 582 117.50 629.50Q164 677 241 677Q308 677 354 642Q400 607 400 552Q400 516 380.50 488.50Q361 461 338 446Q315 431 295.50 410Q276 389 276 365Q276 337 300 318Q324 299 358 286Q392 273 425.50 256.50Q459 240 483 207Q507 174 507 126Z"  horiz-adv-x="524" vert-adv-y="1000"  />

      
      <glyph glyph-name="unie0" unicode="&#xe0;" d="M386 0L314 0L314 52Q269-12 187-12Q126-12 83.50 32Q41 76 41 149Q41 222 83 265Q125 308 187 308Q271 308 314 246L314 330Q314 379 288 406Q262 433 215 433Q146 433 94 374L62 425Q129 495 226 495Q301 495 343.50 456.50Q386 418 386 338L386 0M210 40Q280 40 314 101L314 193Q281 255 210 255Q166 255 140 224.50Q114 194 114 148Q114 102 140 71Q166 40 210 40M273 556L221 556L87 700L160 700L273 556Z"  horiz-adv-x="451" vert-adv-y="1000"  />

      
      <glyph glyph-name="unie1" unicode="&#xe1;" d="M386 0L314 0L314 52Q269-12 187-12Q126-12 83.50 32Q41 76 41 149Q41 222 83 265Q125 308 187 308Q271 308 314 246L314 330Q314 379 288 406Q262 433 215 433Q146 433 94 374L62 425Q129 495 226 495Q301 495 343.50 456.50Q386 418 386 338L386 0M210 40Q280 40 314 101L314 193Q281 255 210 255Q166 255 140 224.50Q114 194 114 148Q114 102 140 71Q166 40 210 40M365 700L231 556L179 556L292 700L365 700Z"  horiz-adv-x="451" vert-adv-y="1000"  />

      
      <glyph glyph-name="unie2" unicode="&#xe2;" d="M386 0L314 0L314 52Q269-12 187-12Q126-12 83.50 32Q41 76 41 149Q41 222 83 265Q125 308 187 308Q271 308 314 246L314 330Q314 379 288 406Q262 433 215 433Q146 433 94 374L62 425Q129 495 226 495Q301 495 343.50 456.50Q386 418 386 338L386 0M210 40Q280 40 314 101L314 193Q281 255 210 255Q166 255 140 224.50Q114 194 114 148Q114 102 140 71Q166 40 210 40M345 556L298 556L227 661L158 556L112 556L192 700L262 700L345 556Z"  horiz-adv-x="451" vert-adv-y="1000"  />

      
      <glyph glyph-name="unie3" unicode="&#xe3;" d="M386 0L314 0L314 52Q269-12 187-12Q126-12 83.50 32Q41 76 41 149Q41 222 83 265Q125 308 187 308Q271 308 314 246L314 330Q314 379 288 406Q262 433 215 433Q146 433 94 374L62 425Q129 495 226 495Q301 495 343.50 456.50Q386 418 386 338L386 0M210 40Q280 40 314 101L314 193Q281 255 210 255Q166 255 140 224.50Q114 194 114 148Q114 102 140 71Q166 40 210 40M277 554Q255 554 239.50 568.50Q224 583 216.50 601Q209 619 198 633.50Q187 648 174 648Q156 648 145 626Q134 604 134 560L92 560Q92 620 114 657Q136 694 177 694Q199 694 214.50 679.50Q230 665 237.50 647.50Q245 630 256 615.50Q267 601 280 601Q320 601 320 688L362 688Q362 628 340 591Q318 554 277 554Z"  horiz-adv-x="451" vert-adv-y="1000"  />

      
      <glyph glyph-name="unie4" unicode="&#xe4;" d="M386 0L314 0L314 52Q269-12 187-12Q126-12 83.50 32Q41 76 41 149Q41 222 83 265Q125 308 187 308Q271 308 314 246L314 330Q314 379 288 406Q262 433 215 433Q146 433 94 374L62 425Q129 495 226 495Q301 495 343.50 456.50Q386 418 386 338L386 0M210 40Q280 40 314 101L314 193Q281 255 210 255Q166 255 140 224.50Q114 194 114 148Q114 102 140 71Q166 40 210 40M358 603Q358 585 344.50 572Q331 559 313 559Q294 559 281 572Q268 585 268 603Q268 622 281 635Q294 648 313 648Q331 648 344.50 635Q358 622 358 603M184 603Q184 585 171 572Q158 559 139 559Q121 559 107.50 572Q94 585 94 603Q94 622 107.50 635Q121 648 139 648Q158 648 171 635Q184 622 184 603Z"  horiz-adv-x="451" vert-adv-y="1000"  />

      
      <glyph glyph-name="unie5" unicode="&#xe5;" d="M386 0L314 0L314 52Q269-12 187-12Q126-12 83.50 32Q41 76 41 149Q41 222 83 265Q125 308 187 308Q271 308 314 246L314 330Q314 379 288 406Q262 433 215 433Q146 433 94 374L62 425Q129 495 226 495Q301 495 343.50 456.50Q386 418 386 338L386 0M210 40Q280 40 314 101L314 193Q281 255 210 255Q166 255 140 224.50Q114 194 114 148Q114 102 140 71Q166 40 210 40M290.50 570.50Q290.50 570.50 277.25 557.25Q264 544 227 544Q190 544 163 571Q136 598 136 635Q136 672 163 699Q190 726 227 726Q264 726 290.50 699.50Q317 673 317 635Q317 597 290.50 570.50M189.50 597.50Q189.50 597.50 197.25 589.75Q205 582 227 582Q249 582 264 597.50Q279 613 279 635Q279 657 264 672.50Q249 688 227 688Q205 688 189.50 672.50Q174 657 174 635Q174 613 189.50 597.50Z"  horiz-adv-x="451" vert-adv-y="1000"  />

      
      <glyph glyph-name="unie6" unicode="&#xe6;" d="M697 218L400 218Q402 143 436.50 95.50Q471 48 530 48Q595 48 639 108L677 65Q614-12 525-12Q417-12 366 91Q345 45 303 16.50Q261-12 205-12Q132-12 86.50 31Q41 74 41 148Q41 221 84 264.50Q127 308 193 308Q281 308 329 247L329 330Q329 379 301.50 406Q274 433 224 433Q150 433 94 374L62 425Q131 495 230 495Q285 495 323 470Q361 445 371 399Q418 495 515 495Q603 495 650 423Q697 351 697 239L697 218M399 271L626 271Q626 336 598.50 385.50Q571 435 513 435Q458 435 429.50 384.50Q401 334 399 271M329 174L329 193Q291 255 217 255Q170 255 142 227Q114 199 114 151Q114 103 142 75Q170 47 217 47Q266 47 297.50 84Q329 121 329 174Z"  horiz-adv-x="736" vert-adv-y="1000"  />

      
      <glyph glyph-name="unie7" unicode="&#xe7;" d="M242-189Q190-189 153-159L171-122Q202-150 241-150Q263-150 279-138.50Q295-127 295-108Q295-74 262-74Q242-74 229-89L197-71L219-10Q138-1 90 69.50Q42 140 42 242Q42 352 96.50 423.50Q151 495 242 495Q328 495 380 431L341 382Q305 431 248 431Q186 431 151.50 377Q117 323 117 242Q117 161 151.50 106.50Q186 52 248 52Q304 52 341 101L380 52Q334-6 261-11L245-54Q257-43 278-43Q304-43 321-61Q338-79 338-109Q338-144 310.50-166.50Q283-189 242-189Z"  horiz-adv-x="406" vert-adv-y="1000"  />

      
      <glyph glyph-name="unie8" unicode="&#xe8;" d="M249-12Q154-12 98 58.50Q42 129 42 242Q42 350 95.50 422.50Q149 495 238 495Q330 495 379.50 423Q429 351 429 240L429 218L116 218Q118 143 155 95.50Q192 48 255 48Q323 48 370 107L408 65Q345-12 249-12M358 271Q357 336 327 385.50Q297 435 237 435Q179 435 148.50 384.50Q118 334 116 271L358 271M285 556L233 556L99 700L172 700L285 556Z"  horiz-adv-x="468" vert-adv-y="1000"  />

      
      <glyph glyph-name="unie9" unicode="&#xe9;" d="M377 700L243 556L191 556L304 700L377 700M249-12Q154-12 98 58.50Q42 129 42 242Q42 350 95.50 422.50Q149 495 238 495Q330 495 379.50 423Q429 351 429 240L429 218L116 218Q118 143 155 95.50Q192 48 255 48Q323 48 370 107L408 65Q345-12 249-12M358 271Q357 336 327 385.50Q297 435 237 435Q179 435 148.50 384.50Q118 334 116 271L358 271Z"  horiz-adv-x="468" vert-adv-y="1000"  />

      
      <glyph glyph-name="uniea" unicode="&#xea;" d="M356 556L309 556L238 661L169 556L123 556L203 700L273 700L356 556M249-12Q154-12 98 58.50Q42 129 42 242Q42 350 95.50 422.50Q149 495 238 495Q330 495 379.50 423Q429 351 429 240L429 218L116 218Q118 143 155 95.50Q192 48 255 48Q323 48 370 107L408 65Q345-12 249-12M358 271Q357 336 327 385.50Q297 435 237 435Q179 435 148.50 384.50Q118 334 116 271L358 271Z"  horiz-adv-x="468" vert-adv-y="1000"  />

      
      <glyph glyph-name="unieb" unicode="&#xeb;" d="M370 603Q370 585 356.50 572Q343 559 325 559Q306 559 293 572Q280 585 280 603Q280 622 293 635Q306 648 325 648Q343 648 356.50 635Q370 622 370 603M196 603Q196 585 183 572Q170 559 151 559Q133 559 119.50 572Q106 585 106 603Q106 622 119.50 635Q133 648 151 648Q170 648 183 635Q196 622 196 603M249-12Q154-12 98 58.50Q42 129 42 242Q42 350 95.50 422.50Q149 495 238 495Q330 495 379.50 423Q429 351 429 240L429 218L116 218Q118 143 155 95.50Q192 48 255 48Q323 48 370 107L408 65Q345-12 249-12M358 271Q357 336 327 385.50Q297 435 237 435Q179 435 148.50 384.50Q118 334 116 271L358 271Z"  horiz-adv-x="468" vert-adv-y="1000"  />

      
      <glyph glyph-name="uniec" unicode="&#xec;" d="M137 0L66 0L66 483L137 483L137 0M148 556L96 556L-38 700L35 700L148 556Z"  horiz-adv-x="203" vert-adv-y="1000"  />

      
      <glyph glyph-name="unied" unicode="&#xed;" d="M241 700L107 556L55 556L168 700L241 700M137 0L66 0L66 483L137 483L137 0Z"  horiz-adv-x="203" vert-adv-y="1000"  />

      
      <glyph glyph-name="uniee" unicode="&#xee;" d="M218 556L171 556L100 661L31 556L-15 556L65 700L135 700L218 556M137 0L66 0L66 483L137 483L137 0Z"  horiz-adv-x="203" vert-adv-y="1000"  />

      
      <glyph glyph-name="unief" unicode="&#xef;" d="M233 603Q233 585 219.50 572Q206 559 188 559Q169 559 156 572Q143 585 143 603Q143 622 156 635Q169 648 188 648Q206 648 219.50 635Q233 622 233 603M59 603Q59 585 46 572Q33 559 14 559Q-4 559-17.50 572Q-31 585-31 603Q-31 622-17.50 635Q-4 648 14 648Q33 648 46 635Q59 622 59 603M137 0L66 0L66 483L137 483L137 0Z"  horiz-adv-x="203" vert-adv-y="1000"  />

      
      <glyph glyph-name="unif0" unicode="&#xf0;" d="M120 505L102 545L213 594Q175 632 155 649L206 695Q248 657 277 622L369 663L386 624L306 588Q435 425 435 251Q435 135 383.50 61.50Q332-12 238-12Q146-12 94 58.50Q42 129 42 235Q42 339 90.50 409.50Q139 480 222 480Q297 480 342 405Q306 488 243 560L120 505M238 52Q298 52 329 105Q360 158 360 235Q360 311 329 363.50Q298 416 238 416Q179 416 148 363Q117 310 117 235Q117 159 148 105.50Q179 52 238 52Z"  horiz-adv-x="477" vert-adv-y="1000"  />

      
      <glyph glyph-name="unif1" unicode="&#xf1;" d="M399 0L327 0L327 344Q327 431 250 431Q216 431 185.50 408.50Q155 386 137 354L137 0L66 0L66 483L137 483L137 414Q160 448 198 471.50Q236 495 277 495Q399 495 399 364L399 0M284 554Q262 554 246.50 568.50Q231 583 223.50 601Q216 619 205 633.50Q194 648 181 648Q163 648 152 626Q141 604 141 560L99 560Q99 620 121 657Q143 694 184 694Q206 694 221.50 679.50Q237 665 244.50 647.50Q252 630 263 615.50Q274 601 287 601Q327 601 327 688L369 688Q369 628 347 591Q325 554 284 554Z"  horiz-adv-x="465" vert-adv-y="1000"  />

      
      <glyph glyph-name="unif2" unicode="&#xf2;" d="M238-12Q146-12 94 61Q42 134 42 242Q42 349 94 422Q146 495 238 495Q331 495 383 422.50Q435 350 435 242Q435 134 383 61Q331-12 238-12M238 52Q298 52 329 107Q360 162 360 242Q360 321 329 376Q298 431 238 431Q179 431 148 376Q117 321 117 242Q117 162 148 107Q179 52 238 52M286 556L234 556L100 700L173 700L286 556Z"  horiz-adv-x="477" vert-adv-y="1000"  />

      
      <glyph glyph-name="unif3" unicode="&#xf3;" d="M378 700L244 556L192 556L305 700L378 700M238-12Q146-12 94 61Q42 134 42 242Q42 349 94 422Q146 495 238 495Q331 495 383 422.50Q435 350 435 242Q435 134 383 61Q331-12 238-12M238 52Q298 52 329 107Q360 162 360 242Q360 321 329 376Q298 431 238 431Q179 431 148 376Q117 321 117 242Q117 162 148 107Q179 52 238 52Z"  horiz-adv-x="477" vert-adv-y="1000"  />

      
      <glyph glyph-name="unif4" unicode="&#xf4;" d="M356 556L309 556L238 661L169 556L123 556L203 700L273 700L356 556M238-12Q146-12 94 61Q42 134 42 242Q42 349 94 422Q146 495 238 495Q331 495 383 422.50Q435 350 435 242Q435 134 383 61Q331-12 238-12M238 52Q298 52 329 107Q360 162 360 242Q360 321 329 376Q298 431 238 431Q179 431 148 376Q117 321 117 242Q117 162 148 107Q179 52 238 52Z"  horiz-adv-x="477" vert-adv-y="1000"  />

      
      <glyph glyph-name="unif5" unicode="&#xf5;" d="M238-12Q146-12 94 61Q42 134 42 242Q42 349 94 422Q146 495 238 495Q331 495 383 422.50Q435 350 435 242Q435 134 383 61Q331-12 238-12M238 52Q298 52 329 107Q360 162 360 242Q360 321 329 376Q298 431 238 431Q179 431 148 376Q117 321 117 242Q117 162 148 107Q179 52 238 52M289 554Q267 554 251.50 568.50Q236 583 228.50 601Q221 619 210 633.50Q199 648 186 648Q168 648 157 626Q146 604 146 560L104 560Q104 620 126 657Q148 694 189 694Q211 694 226.50 679.50Q242 665 249.50 647.50Q257 630 268 615.50Q279 601 292 601Q332 601 332 688L374 688Q374 628 352 591Q330 554 289 554Z"  horiz-adv-x="477" vert-adv-y="1000"  />

      
      <glyph glyph-name="unif6" unicode="&#xf6;" d="M371 603Q371 585 357.50 572Q344 559 326 559Q307 559 294 572Q281 585 281 603Q281 622 294 635Q307 648 326 648Q344 648 357.50 635Q371 622 371 603M197 603Q197 585 184 572Q171 559 152 559Q134 559 120.50 572Q107 585 107 603Q107 622 120.50 635Q134 648 152 648Q171 648 184 635Q197 622 197 603M238-12Q146-12 94 61Q42 134 42 242Q42 349 94 422Q146 495 238 495Q331 495 383 422.50Q435 350 435 242Q435 134 383 61Q331-12 238-12M238 52Q298 52 329 107Q360 162 360 242Q360 321 329 376Q298 431 238 431Q179 431 148 376Q117 321 117 242Q117 162 148 107Q179 52 238 52Z"  horiz-adv-x="477" vert-adv-y="1000"  />

      
      <glyph glyph-name="unif7" unicode="&#xf7;" d="M267 502Q267 484 254 470.50Q241 457 222 457Q203 457 190 470.50Q177 484 177 502Q177 521 190 534Q203 547 222 547Q241 547 254 534Q267 521 267 502M414 312L29 312L29 363L414 363L414 312M267 168Q267 149 254 136Q241 123 222 123Q203 123 190 136Q177 149 177 168Q177 186 190 199.50Q203 213 222 213Q241 213 254 199.50Q267 186 267 168Z"  horiz-adv-x="443" vert-adv-y="1000"  />

      
      <glyph glyph-name="unif8" unicode="&#xf8;" d="M104 0L55 0L94 60Q42 132 42 242Q42 349 94 422Q146 495 238 495Q304 495 351 456L368 483L418 483L380 425Q435 355 435 242Q435 134 383 61Q331-12 238-12Q170-12 123 29L104 0M238 52Q298 52 329 107Q360 162 360 242Q360 308 337 359L161 88Q192 52 238 52M117 242Q117 176 138 127L313 398Q282 431 238 431Q179 431 148 376Q117 321 117 242Z"  horiz-adv-x="477" vert-adv-y="1000"  />

      
      <glyph glyph-name="unif9" unicode="&#xf9;" d="M399 0L327 0L327 67Q303 33 266.50 10.50Q230-12 187-12Q66-12 66 117L66 483L137 483L137 138Q137 52 214 52Q249 52 279.50 73.50Q310 95 327 127L327 483L399 483L399 0M279 556L227 556L93 700L166 700L279 556Z"  horiz-adv-x="465" vert-adv-y="1000"  />

      
      <glyph glyph-name="unifa" unicode="&#xfa;" d="M371 700L237 556L185 556L298 700L371 700M399 0L327 0L327 67Q303 33 266.50 10.50Q230-12 187-12Q66-12 66 117L66 483L137 483L137 138Q137 52 214 52Q249 52 279.50 73.50Q310 95 327 127L327 483L399 483L399 0Z"  horiz-adv-x="465" vert-adv-y="1000"  />

      
      <glyph glyph-name="unifb" unicode="&#xfb;" d="M349 556L302 556L231 661L162 556L116 556L196 700L266 700L349 556M399 0L327 0L327 67Q303 33 266.50 10.50Q230-12 187-12Q66-12 66 117L66 483L137 483L137 138Q137 52 214 52Q249 52 279.50 73.50Q310 95 327 127L327 483L399 483L399 0Z"  horiz-adv-x="465" vert-adv-y="1000"  />

      
      <glyph glyph-name="unifc" unicode="&#xfc;" d="M366 603Q366 585 352.50 572Q339 559 321 559Q302 559 289 572Q276 585 276 603Q276 622 289 635Q302 648 321 648Q339 648 352.50 635Q366 622 366 603M192 603Q192 585 179 572Q166 559 147 559Q129 559 115.50 572Q102 585 102 603Q102 622 115.50 635Q129 648 147 648Q166 648 179 635Q192 622 192 603M399 0L327 0L327 67Q303 33 266.50 10.50Q230-12 187-12Q66-12 66 117L66 483L137 483L137 138Q137 52 214 52Q249 52 279.50 73.50Q310 95 327 127L327 483L399 483L399 0Z"  horiz-adv-x="465" vert-adv-y="1000"  />

      
      <glyph glyph-name="unifd" unicode="&#xfd;" d="M41-189L52-125Q65-132 84-132Q106-132 118.50-121.50Q131-111 141-84L167-10L6 483L84 483L204 87L325 483L402 483L209-102Q192-153 162.50-174.50Q133-196 89-196Q60-196 41-189M343 700L209 556L157 556L270 700L343 700Z"  horiz-adv-x="408" vert-adv-y="1000"  />

      
      <glyph glyph-name="unife" unicode="&#xfe;" d="M264-12Q181-12 137 68L137-184L66-184L66 667L137 667L137 416Q158 453 191.50 474Q225 495 264 495Q345 495 391 426Q437 357 437 242Q437 127 391 57.50Q345-12 264-12M246 52Q303 52 332.50 105.50Q362 159 362 242Q362 325 332.50 378Q303 431 246 431Q213 431 182.50 408.50Q152 386 137 353L137 132Q152 99 182.50 75.50Q213 52 246 52Z"  horiz-adv-x="478" vert-adv-y="1000"  />

      
      <glyph glyph-name="uniff" unicode="&#xff;" d="M41-189L52-125Q65-132 84-132Q106-132 118.50-121.50Q131-111 141-84L167-10L6 483L84 483L204 87L325 483L402 483L209-102Q192-153 162.50-174.50Q133-196 89-196Q60-196 41-189M337 603Q337 585 323.50 572Q310 559 292 559Q273 559 260 572Q247 585 247 603Q247 622 260 635Q273 648 292 648Q310 648 323.50 635Q337 622 337 603M163 603Q163 585 150 572Q137 559 118 559Q100 559 86.50 572Q73 585 73 603Q73 622 86.50 635Q100 648 118 648Q137 648 150 635Q163 622 163 603Z"  horiz-adv-x="408" vert-adv-y="1000"  />

      
      <glyph glyph-name="uni0100" unicode="&#x0100;" d="M503 0L417 0L374 151L137 151L94 0L8 0L208 667L303 667L503 0M357 221L255 579L154 221L357 221M408 740L102 740L102 786L408 786L408 740Z"  horiz-adv-x="511" vert-adv-y="1000"  />

      
      <glyph glyph-name="uni0101" unicode="&#x0101;" d="M386 0L314 0L314 52Q269-12 187-12Q126-12 83.50 32Q41 76 41 149Q41 222 83 265Q125 308 187 308Q271 308 314 246L314 330Q314 379 288 406Q262 433 215 433Q146 433 94 374L62 425Q129 495 226 495Q301 495 343.50 456.50Q386 418 386 338L386 0M210 40Q280 40 314 101L314 193Q281 255 210 255Q166 255 140 224.50Q114 194 114 148Q114 102 140 71Q166 40 210 40M379 573L73 573L73 619L379 619L379 573Z"  horiz-adv-x="451" vert-adv-y="1000"  />

      
      <glyph glyph-name="uni0102" unicode="&#x0102;" d="M503 0L417 0L374 151L137 151L94 0L8 0L208 667L303 667L503 0M357 221L255 579L154 221L357 221M403 786Q347 712 256 712Q164 712 108 786L145 816Q184 759 256 759Q327 759 366 816L403 786Z"  horiz-adv-x="511" vert-adv-y="1000"  />

      
      <glyph glyph-name="uni0103" unicode="&#x0103;" d="M386 0L314 0L314 52Q269-12 187-12Q126-12 83.50 32Q41 76 41 149Q41 222 83 265Q125 308 187 308Q271 308 314 246L314 330Q314 379 288 406Q262 433 215 433Q146 433 94 374L62 425Q129 495 226 495Q301 495 343.50 456.50Q386 418 386 338L386 0M210 40Q280 40 314 101L314 193Q281 255 210 255Q166 255 140 224.50Q114 194 114 148Q114 102 140 71Q166 40 210 40M373 619Q317 545 226 545Q134 545 78 619L115 649Q154 592 226 592Q297 592 336 649L373 619Z"  horiz-adv-x="451" vert-adv-y="1000"  />

      
      <glyph glyph-name="uni0104" unicode="&#x0104;" d="M511-110L547-130Q525-186 469-186Q433-186 411-165.50Q389-145 389-105Q389-46 441 0L417 0L374 151L137 151L94 0L8 0L208 667L303 667L503 0Q432-41 432-103Q432-148 469-148Q500-148 511-110M357 221L255 579L154 221L357 221Z"  horiz-adv-x="511" vert-adv-y="1000"  />

      
      <glyph glyph-name="uni0105" unicode="&#x0105;" d="M394-110L430-130Q408-186 352-186Q316-186 294-165.50Q272-145 272-105Q272-46 324 0L314 0L314 52Q269-12 187-12Q126-12 83.50 32Q41 76 41 149Q41 222 83 265Q125 308 187 308Q271 308 314 246L314 330Q314 379 288 406Q262 433 215 433Q146 433 94 374L62 425Q129 495 226 495Q301 495 343.50 456.50Q386 418 386 338L386 0Q315-41 315-103Q315-148 352-148Q383-148 394-110M210 40Q280 40 314 101L314 193Q281 255 210 255Q166 255 140 224.50Q114 194 114 148Q114 102 140 71Q166 40 210 40Z"  horiz-adv-x="451" vert-adv-y="1000"  />

      
      <glyph glyph-name="uni0106" unicode="&#x0106;" d="M445 867L311 723L259 723L372 867L445 867M306-12Q188-12 117.50 84.50Q47 181 47 333Q47 485 117.50 581.50Q188 678 306 678Q433 678 501 548L435 517Q390 607 306 607Q226 607 177.50 530Q129 453 129 333Q129 213 177.50 136Q226 59 306 59Q393 59 436 158L503 127Q434-12 306-12Z"  horiz-adv-x="533" vert-adv-y="1000"  />

      
      <glyph glyph-name="uni0107" unicode="&#x0107;" d="M381 700L247 556L195 556L308 700L381 700M242-12Q151-12 96.50 60Q42 132 42 242Q42 352 96.50 423.50Q151 495 242 495Q328 495 380 431L341 382Q305 431 248 431Q186 431 151.50 377Q117 323 117 242Q117 161 151.50 106.50Q186 52 248 52Q304 52 341 101L380 52Q329-12 242-12Z"  horiz-adv-x="406" vert-adv-y="1000"  />

      
      <glyph glyph-name="uni0108" unicode="&#x0108;" d="M423 723L376 723L305 828L236 723L190 723L270 867L340 867L423 723M306-12Q188-12 117.50 84.50Q47 181 47 333Q47 485 117.50 581.50Q188 678 306 678Q433 678 501 548L435 517Q390 607 306 607Q226 607 177.50 530Q129 453 129 333Q129 213 177.50 136Q226 59 306 59Q393 59 436 158L503 127Q434-12 306-12Z"  horiz-adv-x="533" vert-adv-y="1000"  />

      
      <glyph glyph-name="uni0109" unicode="&#x0109;" d="M360 556L313 556L242 661L173 556L127 556L207 700L277 700L360 556M242-12Q151-12 96.50 60Q42 132 42 242Q42 352 96.50 423.50Q151 495 242 495Q328 495 380 431L341 382Q305 431 248 431Q186 431 151.50 377Q117 323 117 242Q117 161 151.50 106.50Q186 52 248 52Q304 52 341 101L380 52Q329-12 242-12Z"  horiz-adv-x="406" vert-adv-y="1000"  />

      
      <glyph glyph-name="uni010A" unicode="&#x010A;" d="M306-12Q188-12 117.50 84.50Q47 181 47 333Q47 485 117.50 581.50Q188 678 306 678Q433 678 501 548L435 517Q390 607 306 607Q226 607 177.50 530Q129 453 129 333Q129 213 177.50 136Q226 59 306 59Q393 59 436 158L503 127Q434-12 306-12M306 723Q288 723 274 736.50Q260 750 260 769Q260 787 274 800.50Q288 814 306 814Q325 814 338 801Q351 788 351 769Q351 750 338 736.50Q325 723 306 723Z"  horiz-adv-x="533" vert-adv-y="1000"  />

      
      <glyph glyph-name="uni010B" unicode="&#x010B;" d="M242-12Q151-12 96.50 60Q42 132 42 242Q42 352 96.50 423.50Q151 495 242 495Q328 495 380 431L341 382Q305 431 248 431Q186 431 151.50 377Q117 323 117 242Q117 161 151.50 106.50Q186 52 248 52Q304 52 341 101L380 52Q329-12 242-12M244 556Q226 556 212 569.50Q198 583 198 602Q198 620 212 633.50Q226 647 244 647Q263 647 276 634Q289 621 289 602Q289 583 276 569.50Q263 556 244 556Z"  horiz-adv-x="406" vert-adv-y="1000"  />

      
      <glyph glyph-name="uni010C" unicode="&#x010C;" d="M343 723L273 723L190 867L236 867L308 761L376 867L423 867L343 723M306-12Q188-12 117.50 84.50Q47 181 47 333Q47 485 117.50 581.50Q188 678 306 678Q433 678 501 548L435 517Q390 607 306 607Q226 607 177.50 530Q129 453 129 333Q129 213 177.50 136Q226 59 306 59Q393 59 436 158L503 127Q434-12 306-12Z"  horiz-adv-x="533" vert-adv-y="1000"  />

      
      <glyph glyph-name="uni010D" unicode="&#x010D;" d="M280 556L210 556L127 700L173 700L245 594L313 700L360 700L280 556M242-12Q151-12 96.50 60Q42 132 42 242Q42 352 96.50 423.50Q151 495 242 495Q328 495 380 431L341 382Q305 431 248 431Q186 431 151.50 377Q117 323 117 242Q117 161 151.50 106.50Q186 52 248 52Q304 52 341 101L380 52Q329-12 242-12Z"  horiz-adv-x="406" vert-adv-y="1000"  />

      
      <glyph glyph-name="uni010E" unicode="&#x010E;" d="M317 723L247 723L164 867L210 867L282 761L350 867L397 867L317 723M248 0L70 0L70 667L248 667Q374 667 445 574Q516 481 516 333Q516 185 445.50 92.50Q375 0 248 0M248 71Q337 71 385.50 143.50Q434 216 434 333Q434 451 386 524Q338 597 248 597L150 597L150 71L248 71Z"  horiz-adv-x="564" vert-adv-y="1000"  />

      
      <glyph glyph-name="uni010F" unicode="&#x010F;" d="M560 614Q560 575 540 539Q520 503 489 481L458 506Q481 522 497 546.50Q513 571 515 593L510 592Q506 592 504 592Q487 592 475 604Q463 616 463 634Q463 653 476 666.50Q489 680 508 680Q530 680 545 662Q560 644 560 614M414 0L342 0L342 69Q321 32 287 10Q253-12 215-12Q135-12 88.50 57Q42 126 42 241Q42 355 88 425Q134 495 215 495Q253 495 287 474Q321 453 342 413L342 667L414 667L414 0M233 52Q267 52 297.50 75Q328 98 342 130L342 352Q328 385 297 408Q266 431 233 431Q176 431 146.50 377.50Q117 324 117 241Q117 158 146.50 105Q176 52 233 52Z"  horiz-adv-x="555" vert-adv-y="1000"  />

      
      <glyph glyph-name="uni0110" unicode="&#x0110;" d="M272 0L94 0L94 301L16 301L16 358L94 358L94 667L272 667Q398 667 469 574Q540 481 540 333Q540 185 469.50 92.50Q399 0 272 0M272 71Q361 71 409.50 143.50Q458 216 458 333Q458 451 410 524Q362 597 272 597L174 597L174 358L298 358L298 301L174 301L174 71L272 71Z"  horiz-adv-x="587" vert-adv-y="1000"  />

      
      <glyph glyph-name="uni0111" unicode="&#x0111;" d="M414 0L342 0L342 69Q321 32 287 10Q253-12 215-12Q135-12 88.50 57Q42 126 42 241Q42 355 88 425Q134 495 215 495Q253 495 287 474Q321 453 342 413L342 536L204 536L204 582L342 582L342 667L414 667L414 582L474 582L474 536L414 536L414 0M233 52Q267 52 297.50 75Q328 98 342 130L342 352Q328 385 297 408Q266 431 233 431Q176 431 146.50 377.50Q117 324 117 241Q117 158 146.50 105Q176 52 233 52Z"  horiz-adv-x="484" vert-adv-y="1000"  />

      
      <glyph glyph-name="uni0112" unicode="&#x0112;" d="M413 0L70 0L70 667L413 667L413 597L150 597L150 376L406 376L406 306L150 306L150 71L413 71L413 0M395 740L89 740L89 786L395 786L395 740Z"  horiz-adv-x="461" vert-adv-y="1000"  />

      
      <glyph glyph-name="uni0113" unicode="&#x0113;" d="M249-12Q154-12 98 58.50Q42 129 42 242Q42 350 95.50 422.50Q149 495 238 495Q330 495 379.50 423Q429 351 429 240L429 218L116 218Q118 143 155 95.50Q192 48 255 48Q323 48 370 107L408 65Q345-12 249-12M358 271Q357 336 327 385.50Q297 435 237 435Q179 435 148.50 384.50Q118 334 116 271L358 271M391 573L85 573L85 619L391 619L391 573Z"  horiz-adv-x="468" vert-adv-y="1000"  />

      
      <glyph glyph-name="uni0114" unicode="&#x0114;" d="M413 0L70 0L70 667L413 667L413 597L150 597L150 376L406 376L406 306L150 306L150 71L413 71L413 0M391 786Q335 712 244 712Q152 712 96 786L133 816Q172 759 244 759Q315 759 354 816L391 786Z"  horiz-adv-x="461" vert-adv-y="1000"  />

      
      <glyph glyph-name="uni0115" unicode="&#x0115;" d="M249-12Q154-12 98 58.50Q42 129 42 242Q42 350 95.50 422.50Q149 495 238 495Q330 495 379.50 423Q429 351 429 240L429 218L116 218Q118 143 155 95.50Q192 48 255 48Q323 48 370 107L408 65Q345-12 249-12M358 271Q357 336 327 385.50Q297 435 237 435Q179 435 148.50 384.50Q118 334 116 271L358 271M387 619Q331 545 240 545Q148 545 92 619L129 649Q168 592 240 592Q311 592 350 649L387 619Z"  horiz-adv-x="468" vert-adv-y="1000"  />

      
      <glyph glyph-name="uni0116" unicode="&#x0116;" d="M413 0L70 0L70 667L413 667L413 597L150 597L150 376L406 376L406 306L150 306L150 71L413 71L413 0M247 723Q229 723 215 736.50Q201 750 201 769Q201 787 215 800.50Q229 814 247 814Q266 814 279 801Q292 788 292 769Q292 750 279 736.50Q266 723 247 723Z"  horiz-adv-x="461" vert-adv-y="1000"  />

      
      <glyph glyph-name="uni0117" unicode="&#x0117;" d="M249-12Q154-12 98 58.50Q42 129 42 242Q42 350 95.50 422.50Q149 495 238 495Q330 495 379.50 423Q429 351 429 240L429 218L116 218Q118 143 155 95.50Q192 48 255 48Q323 48 370 107L408 65Q345-12 249-12M358 271Q357 336 327 385.50Q297 435 237 435Q179 435 148.50 384.50Q118 334 116 271L358 271M239 556Q221 556 207 569.50Q193 583 193 602Q193 620 207 633.50Q221 647 239 647Q258 647 271 634Q284 621 284 602Q284 583 271 569.50Q258 556 239 556Z"  horiz-adv-x="468" vert-adv-y="1000"  />

      
      <glyph glyph-name="uni0118" unicode="&#x0118;" d="M413 0Q342-41 342-103Q342-148 379-148Q410-148 421-110L457-130Q435-186 379-186Q343-186 321-165.50Q299-145 299-105Q299-46 351 0L70 0L70 667L413 667L413 597L150 597L150 376L406 376L406 306L150 306L150 71L413 71L413 0Z"  horiz-adv-x="461" vert-adv-y="1000"  />

      
      <glyph glyph-name="uni0119" unicode="&#x0119;" d="M327-110L363-130Q341-186 285-186Q249-186 227-165.50Q205-145 205-105Q205-54 245-12Q151-11 96.50 59.50Q42 130 42 242Q42 350 95.50 422.50Q149 495 238 495Q330 495 379.50 423Q429 351 429 240L429 218L116 218Q118 143 155 95.50Q192 48 255 48Q323 48 370 107L408 65Q372 20 319 0Q248-41 248-103Q248-148 285-148Q316-148 327-110M358 271Q357 336 327 385.50Q297 435 237 435Q179 435 148.50 384.50Q118 334 116 271L358 271Z"  horiz-adv-x="468" vert-adv-y="1000"  />

      
      <glyph glyph-name="uni011A" unicode="&#x011A;" d="M278 723L208 723L125 867L171 867L243 761L311 867L358 867L278 723M413 0L70 0L70 667L413 667L413 597L150 597L150 376L406 376L406 306L150 306L150 71L413 71L413 0Z"  horiz-adv-x="461" vert-adv-y="1000"  />

      
      <glyph glyph-name="uni011B" unicode="&#x011B;" d="M275 556L205 556L122 700L168 700L240 594L308 700L355 700L275 556M249-12Q154-12 98 58.50Q42 129 42 242Q42 350 95.50 422.50Q149 495 238 495Q330 495 379.50 423Q429 351 429 240L429 218L116 218Q118 143 155 95.50Q192 48 255 48Q323 48 370 107L408 65Q345-12 249-12M358 271Q357 336 327 385.50Q297 435 237 435Q179 435 148.50 384.50Q118 334 116 271L358 271Z"  horiz-adv-x="468" vert-adv-y="1000"  />

      
      <glyph glyph-name="uni011C" unicode="&#x011C;" d="M425 723L378 723L307 828L238 723L192 723L272 867L342 867L425 723M306-13Q189-13 118 82.50Q47 178 47 333Q47 488 118 583Q189 678 306 678Q435 678 504 552L440 519Q393 607 306 607Q226 607 177.50 531.50Q129 456 129 333Q129 211 177.50 135Q226 59 306 59Q385 59 431 115L431 271L272 271L272 341L507 341L507 85Q428-13 306-13Z"  horiz-adv-x="562" vert-adv-y="1000"  />

      
      <glyph glyph-name="uni011D" unicode="&#x011D;" d="M358 556L311 556L240 661L171 556L125 556L205 700L275 700L358 556M223-196Q123-196 62-135L95-79Q143-135 221-135Q274-135 308-102.50Q342-70 342-4L342 77Q321 39 287 16.50Q253-6 215-6Q135-6 88.50 61.50Q42 129 42 244Q42 358 88 426.50Q134 495 215 495Q296 495 342 413L342 483L414 483L414 1Q414-103 360.50-149.50Q307-196 223-196M233 58Q266 58 297 81.50Q328 105 342 138L342 352Q328 385 297 408Q266 431 233 431Q176 431 146.50 378.50Q117 326 117 244Q117 162 146.50 110Q176 58 233 58Z"  horiz-adv-x="479" vert-adv-y="1000"  />

      
      <glyph glyph-name="uni011E" unicode="&#x011E;" d="M306-13Q189-13 118 82.50Q47 178 47 333Q47 488 118 583Q189 678 306 678Q435 678 504 552L440 519Q393 607 306 607Q226 607 177.50 531.50Q129 456 129 333Q129 211 177.50 135Q226 59 306 59Q385 59 431 115L431 271L272 271L272 341L507 341L507 85Q428-13 306-13M455 786Q399 712 308 712Q216 712 160 786L197 816Q236 759 308 759Q379 759 418 816L455 786Z"  horiz-adv-x="562" vert-adv-y="1000"  />

      
      <glyph glyph-name="uni011F" unicode="&#x011F;" d="M223-196Q123-196 62-135L95-79Q143-135 221-135Q274-135 308-102.50Q342-70 342-4L342 77Q321 39 287 16.50Q253-6 215-6Q135-6 88.50 61.50Q42 129 42 244Q42 358 88 426.50Q134 495 215 495Q296 495 342 413L342 483L414 483L414 1Q414-103 360.50-149.50Q307-196 223-196M233 58Q266 58 297 81.50Q328 105 342 138L342 352Q328 385 297 408Q266 431 233 431Q176 431 146.50 378.50Q117 326 117 244Q117 162 146.50 110Q176 58 233 58M388 619Q332 545 241 545Q149 545 93 619L130 649Q169 592 241 592Q312 592 351 649L388 619Z"  horiz-adv-x="479" vert-adv-y="1000"  />

      
      <glyph glyph-name="uni0120" unicode="&#x0120;" d="M306-13Q189-13 118 82.50Q47 178 47 333Q47 488 118 583Q189 678 306 678Q435 678 504 552L440 519Q393 607 306 607Q226 607 177.50 531.50Q129 456 129 333Q129 211 177.50 135Q226 59 306 59Q385 59 431 115L431 271L272 271L272 341L507 341L507 85Q428-13 306-13M307 723Q289 723 275 736.50Q261 750 261 769Q261 787 275 800.50Q289 814 307 814Q326 814 339 801Q352 788 352 769Q352 750 339 736.50Q326 723 307 723Z"  horiz-adv-x="562" vert-adv-y="1000"  />

      
      <glyph glyph-name="uni0121" unicode="&#x0121;" d="M223-196Q123-196 62-135L95-79Q143-135 221-135Q274-135 308-102.50Q342-70 342-4L342 77Q321 39 287 16.50Q253-6 215-6Q135-6 88.50 61.50Q42 129 42 244Q42 358 88 426.50Q134 495 215 495Q296 495 342 413L342 483L414 483L414 1Q414-103 360.50-149.50Q307-196 223-196M233 58Q266 58 297 81.50Q328 105 342 138L342 352Q328 385 297 408Q266 431 233 431Q176 431 146.50 378.50Q117 326 117 244Q117 162 146.50 110Q176 58 233 58M240 556Q222 556 208 569.50Q194 583 194 602Q194 620 208 633.50Q222 647 240 647Q259 647 272 634Q285 621 285 602Q285 583 272 569.50Q259 556 240 556Z"  horiz-adv-x="479" vert-adv-y="1000"  />

      
      <glyph glyph-name="uni0122" unicode="&#x0122;" d="M356-138Q356-177 336-213Q316-249 285-271L254-246Q277-230 293-205.50Q309-181 311-159L306-160Q302-160 300-160Q283-160 271-148Q259-136 259-118Q259-99 272-85.50Q285-72 304-72Q326-72 341-90Q356-108 356-138M306-13Q189-13 118 82.50Q47 178 47 333Q47 488 118 583Q189 678 306 678Q435 678 504 552L440 519Q393 607 306 607Q226 607 177.50 531.50Q129 456 129 333Q129 211 177.50 135Q226 59 306 59Q385 59 431 115L431 271L272 271L272 341L507 341L507 85Q428-13 306-13Z"  horiz-adv-x="562" vert-adv-y="1000"  />

      
      <glyph glyph-name="uni0123" unicode="&#x0123;" d="M190 611Q190 654 210 692.50Q230 731 259 751L291 725Q269 710 252 686Q235 662 234 640L236 640Q238 641 239 641Q256 641 270 628Q284 615 284 597Q284 579 270.50 565.50Q257 552 238 552Q219 552 204.50 567Q190 582 190 611M223-196Q123-196 62-135L95-79Q143-135 221-135Q274-135 308-102.50Q342-70 342-4L342 77Q321 39 287 16.50Q253-6 215-6Q135-6 88.50 61.50Q42 129 42 244Q42 358 88 426.50Q134 495 215 495Q296 495 342 413L342 483L414 483L414 1Q414-103 360.50-149.50Q307-196 223-196M233 58Q266 58 297 81.50Q328 105 342 138L342 352Q328 385 297 408Q266 431 233 431Q176 431 146.50 378.50Q117 326 117 244Q117 162 146.50 110Q176 58 233 58Z"  horiz-adv-x="479" vert-adv-y="1000"  />

      
      <glyph glyph-name="uni0124" unicode="&#x0124;" d="M402 723L355 723L284 828L215 723L169 723L249 867L319 867L402 723M504 0L424 0L424 308L150 308L150 0L70 0L70 667L150 667L150 378L424 378L424 667L504 667L504 0Z"  horiz-adv-x="574" vert-adv-y="1000"  />

      
      <glyph glyph-name="uni0125" unicode="&#x0125;" d="M350 723L303 723L232 828L163 723L117 723L197 867L267 867L350 723M399 0L328 0L328 345Q328 431 250 431Q216 431 185.50 408.50Q155 386 137 354L137 0L66 0L66 667L137 667L137 414Q159 448 198 471.50Q237 495 278 495Q399 495 399 366L399 0Z"  horiz-adv-x="465" vert-adv-y="1000"  />

      
      <glyph glyph-name="uni0126" unicode="&#x0126;" d="M520 0L440 0L440 308L166 308L166 0L86 0L86 500L16 500L16 546L86 546L86 667L166 667L166 546L440 546L440 667L520 667L520 546L582 546L582 500L520 500L520 0M166 378L440 378L440 500L166 500L166 378Z"  horiz-adv-x="605" vert-adv-y="1000"  />

      
      <glyph glyph-name="uni0127" unicode="&#x0127;" d="M285 536L145 536L145 414Q168 448 206.50 471.50Q245 495 286 495Q407 495 407 366L407 0L336 0L336 345Q336 431 258 431Q224 431 193.50 408.50Q163 386 145 354L145 0L74 0L74 536L15 536L15 582L74 582L74 667L145 667L145 582L285 582L285 536Z"  horiz-adv-x="473" vert-adv-y="1000"  />

      
      <glyph glyph-name="uni0128" unicode="&#x0128;" d="M150 0L70 0L70 667L150 667L150 0M161 721Q139 721 123.50 735.50Q108 750 100.50 768Q93 786 82 800.50Q71 815 58 815Q40 815 29 793Q18 771 18 727L-24 727Q-24 787-2 824Q20 861 61 861Q83 861 98.50 846.50Q114 832 121.50 814.50Q129 797 140 782.50Q151 768 164 768Q204 768 204 855L246 855Q246 795 224 758Q202 721 161 721Z"  horiz-adv-x="220" vert-adv-y="1000"  />

      
      <glyph glyph-name="uni0129" unicode="&#x0129;" d="M137 0L66 0L66 483L137 483L137 0M152 554Q130 554 114.50 568.50Q99 583 91.50 601Q84 619 73 633.50Q62 648 49 648Q31 648 20 626Q9 604 9 560L-33 560Q-33 620-11 657Q11 694 52 694Q74 694 89.50 679.50Q105 665 112.50 647.50Q120 630 131 615.50Q142 601 155 601Q195 601 195 688L237 688Q237 628 215 591Q193 554 152 554Z"  horiz-adv-x="203" vert-adv-y="1000"  />

      
      <glyph glyph-name="uni012A" unicode="&#x012A;" d="M150 0L70 0L70 667L150 667L150 0M263 740L-43 740L-43 786L263 786L263 740Z"  horiz-adv-x="220" vert-adv-y="1000"  />

      
      <glyph glyph-name="uni012B" unicode="&#x012B;" d="M137 0L66 0L66 483L137 483L137 0M255 573L-51 573L-51 619L255 619L255 573Z"  horiz-adv-x="203" vert-adv-y="1000"  />

      
      <glyph glyph-name="uni012C" unicode="&#x012C;" d="M150 0L70 0L70 667L150 667L150 0M258 786Q202 712 111 712Q19 712-37 786L0 816Q39 759 111 759Q182 759 221 816L258 786Z"  horiz-adv-x="220" vert-adv-y="1000"  />

      
      <glyph glyph-name="uni012D" unicode="&#x012D;" d="M137 0L66 0L66 483L137 483L137 0M249 619Q193 545 102 545Q10 545-46 619L-9 649Q30 592 102 592Q173 592 212 649L249 619Z"  horiz-adv-x="203" vert-adv-y="1000"  />

      
      <glyph glyph-name="uni012E" unicode="&#x012E;" d="M157-110L193-130Q171-186 115-186Q79-186 57-165.50Q35-145 35-105Q35-46 87 0L70 0L70 667L150 667L150 0L149 0Q78-41 78-103Q78-148 115-148Q146-148 157-110Z"  horiz-adv-x="220" vert-adv-y="1000"  />

      
      <glyph glyph-name="uni012F" unicode="&#x012F;" d="M145-110L181-130Q159-186 103-186Q67-186 45-165.50Q23-145 23-105Q23-46 75 0L66 0L66 483L137 483L137 0Q66-41 66-103Q66-148 103-148Q134-148 145-110M135.50 567.50Q135.50 567.50 128.25 560.25Q121 553 101 553Q81 553 66.50 567.50Q52 582 52 602Q52 622 66.50 636.50Q81 651 101 651Q121 651 135.50 636.50Q150 622 150 602Q150 582 135.50 567.50Z"  horiz-adv-x="203" vert-adv-y="1000"  />

      
      <glyph glyph-name="uni0130" unicode="&#x0130;" d="M150 0L70 0L70 667L150 667L150 0M111 723Q93 723 79 736.50Q65 750 65 769Q65 787 79 800.50Q93 814 111 814Q130 814 143 801Q156 788 156 769Q156 750 143 736.50Q130 723 111 723Z"  horiz-adv-x="220" vert-adv-y="1000"  />

      
      <glyph glyph-name="uni0131" unicode="&#x0131;" d="M137 0L66 0L66 483L137 483L137 0Z"  horiz-adv-x="203" vert-adv-y="1000"  />

      
      <glyph glyph-name="uni0132" unicode="&#x0132;" d="M150 0L70 0L70 667L150 667L150 0M369-12Q283-12 229 49L265 111Q307 59 363 59Q413 59 441 89Q469 119 469 173L469 667L548 667L548 171Q548 80 499 34Q450-12 369-12Z"  horiz-adv-x="618" vert-adv-y="1000"  />

      
      <glyph glyph-name="uni0133" unicode="&#x0133;" d="M135.50 567.50Q135.50 567.50 128.25 560.25Q121 553 101 553Q81 553 66.50 567.50Q52 582 52 602Q52 622 66.50 636.50Q81 651 101 651Q121 651 135.50 636.50Q150 622 150 602Q150 582 135.50 567.50M137 0L66 0L66 483L137 483L137 0M338.50 567.50Q338.50 567.50 331.25 560.25Q324 553 304 553Q284 553 269.50 567.50Q255 582 255 602Q255 622 269.50 636.50Q284 651 304 651Q324 651 338.50 636.50Q353 622 353 602Q353 582 338.50 567.50M220-196Q169-196 138-162L164-109Q185-135 213-135Q269-135 269-59L269 483L340 483L340-59Q340-196 220-196Z"  horiz-adv-x="406" vert-adv-y="1000"  />

      
      <glyph glyph-name="uni0134" unicode="&#x0134;" d="M405 723L358 723L287 828L218 723L172 723L252 867L322 867L405 723M149-12Q63-12 9 49L45 111Q87 59 143 59Q193 59 221 89Q249 119 249 173L249 667L328 667L328 171Q328 80 279 34Q230-12 149-12Z"  horiz-adv-x="398" vert-adv-y="1000"  />

      
      <glyph glyph-name="uni0135" unicode="&#x0135;" d="M220 556L173 556L102 661L33 556L-13 556L67 700L137 700L220 556M17-196Q-34-196-65-162L-39-109Q-18-135 10-135Q66-135 66-59L66 483L137 483L137-59Q137-196 17-196Z"  horiz-adv-x="203" vert-adv-y="1000"  />

      
      <glyph glyph-name="uni0136" unicode="&#x0136;" d="M312-138Q312-177 292-213Q272-249 241-271L210-246Q233-230 249-205.50Q265-181 267-159L262-160Q258-160 256-160Q239-160 227-148Q215-136 215-118Q215-99 228-85.50Q241-72 260-72Q282-72 297-90Q312-108 312-138M496 0L400 0L205 294L150 214L150 0L70 0L70 667L150 667L150 321L383 667L477 667L254 350L496 0Z"  horiz-adv-x="512" vert-adv-y="1000"  />

      
      <glyph glyph-name="uni0137" unicode="&#x0137;" d="M275-138Q275-177 255-213Q235-249 204-271L173-246Q196-230 212-205.50Q228-181 230-159L226-160Q221-160 219-160Q202-160 190-148Q178-136 178-118Q178-99 191-85.50Q204-72 223-72Q245-72 260-90Q275-108 275-138M423 0L338 0L205 218L137 131L137 0L66 0L66 667L137 667L137 221L338 483L423 483L254 266L423 0Z"  horiz-adv-x="438" vert-adv-y="1000"  />

      
      <glyph glyph-name="uni0138" unicode="&#x0138;" d="M423 0L338 0L205 218L137 131L137 0L66 0L66 483L137 483L137 221L338 483L423 483L254 266L423 0Z"  horiz-adv-x="438" vert-adv-y="1000"  />

      
      <glyph glyph-name="uni0139" unicode="&#x0139;" d="M370 867L236 723L184 723L297 867L370 867M391 0L70 0L70 667L150 667L150 71L391 71L391 0Z"  horiz-adv-x="421" vert-adv-y="1000"  />

      
      <glyph glyph-name="uni013A" unicode="&#x013A;" d="M241 867L107 723L55 723L168 867L241 867M137 0L66 0L66 667L137 667L137 0Z"  horiz-adv-x="203" vert-adv-y="1000"  />

      
      <glyph glyph-name="uni013B" unicode="&#x013B;" d="M274-138Q274-177 254-213Q234-249 203-271L172-246Q195-230 211-205.50Q227-181 229-159L224-160Q220-160 218-160Q201-160 189-148Q177-136 177-118Q177-99 190-85.50Q203-72 222-72Q244-72 259-90Q274-108 274-138M391 0L70 0L70 667L150 667L150 71L391 71L391 0Z"  horiz-adv-x="421" vert-adv-y="1000"  />

      
      <glyph glyph-name="uni013C" unicode="&#x013C;" d="M158-138Q158-177 138-213Q118-249 87-271L56-246Q79-230 95-205.50Q111-181 113-159L108-160Q104-160 102-160Q85-160 73-148Q61-136 61-118Q61-99 74-85.50Q87-72 106-72Q128-72 143-90Q158-108 158-138M137 0L66 0L66 667L137 667L137 0Z"  horiz-adv-x="203" vert-adv-y="1000"  />

      
      <glyph glyph-name="uni013D" unicode="&#x013D;" d="M321 614Q321 575 301 539Q281 503 250 481L219 506Q242 522 258 546.50Q274 571 276 593L272 592Q267 592 265 592Q248 592 236 604Q224 616 224 634Q224 653 237 666.50Q250 680 269 680Q291 680 306 662Q321 644 321 614M391 0L70 0L70 667L150 667L150 71L391 71L391 0Z"  horiz-adv-x="421" vert-adv-y="1000"  />

      
      <glyph glyph-name="uni013E" unicode="&#x013E;" d="M297 614Q297 575 277 539Q257 503 226 481L195 506Q218 522 234 546.50Q250 571 252 593L248 592Q243 592 241 592Q224 592 212 604Q200 616 200 634Q200 653 213 666.50Q226 680 245 680Q267 680 282 662Q297 644 297 614M137 0L66 0L66 667L137 667L137 0Z"  horiz-adv-x="276" vert-adv-y="1000"  />

      
      <glyph glyph-name="uni013F" unicode="&#x013F;" d="M391 0L70 0L70 667L150 667L150 71L391 71L391 0M379 342Q379 320 363 304Q347 288 325 288Q303 288 287.50 304Q272 320 272 342Q272 363 287.50 379Q303 395 325 395Q347 395 363 379Q379 363 379 342Z"  horiz-adv-x="436" vert-adv-y="1000"  />

      
      <glyph glyph-name="uni0140" unicode="&#x0140;" d="M137 0L66 0L66 667L137 667L137 0M304 245Q304 223 288 207Q272 191 250 191Q228 191 212.50 207Q197 223 197 245Q197 266 212.50 282Q228 298 250 298Q272 298 288 282Q304 266 304 245Z"  horiz-adv-x="297" vert-adv-y="1000"  />

      
      <glyph glyph-name="uni0141" unicode="&#x0141;" d="M16 234L16 303L86 344L86 667L166 667L166 390L244 436L244 366L166 321L166 71L407 71L407 0L86 0L86 274L16 234Z"  horiz-adv-x="438" vert-adv-y="1000"  />

      
      <glyph glyph-name="uni0142" unicode="&#x0142;" d="M16 245L16 303L92 346L92 667L163 667L163 387L238 430L238 372L163 329L163 0L92 0L92 288L16 245Z"  horiz-adv-x="254" vert-adv-y="1000"  />

      
      <glyph glyph-name="uni0143" unicode="&#x0143;" d="M429 867L295 723L243 723L356 867L429 867M502 0L425 0L150 497L150 0L70 0L70 667L150 667L422 180L422 667L502 667L502 0Z"  horiz-adv-x="572" vert-adv-y="1000"  />

      
      <glyph glyph-name="uni0144" unicode="&#x0144;" d="M371 700L237 556L185 556L298 700L371 700M399 0L327 0L327 344Q327 431 250 431Q216 431 185.50 408.50Q155 386 137 354L137 0L66 0L66 483L137 483L137 414Q160 448 198 471.50Q236 495 277 495Q399 495 399 364L399 0Z"  horiz-adv-x="465" vert-adv-y="1000"  />

      
      <glyph glyph-name="uni0145" unicode="&#x0145;" d="M342-138Q342-177 322-213Q302-249 271-271L240-246Q263-230 279-205.50Q295-181 297-159L292-160Q288-160 286-160Q269-160 257-148Q245-136 245-118Q245-99 258-85.50Q271-72 290-72Q312-72 327-90Q342-108 342-138M502 0L425 0L150 497L150 0L70 0L70 667L150 667L422 180L422 667L502 667L502 0Z"  horiz-adv-x="572" vert-adv-y="1000"  />

      
      <glyph glyph-name="uni0146" unicode="&#x0146;" d="M287-138Q287-177 267-213Q247-249 216-271L185-246Q208-230 224-205.50Q240-181 242-159L238-160Q233-160 231-160Q214-160 202-148Q190-136 190-118Q190-99 203-85.50Q216-72 235-72Q257-72 272-90Q287-108 287-138M399 0L327 0L327 344Q327 431 250 431Q216 431 185.50 408.50Q155 386 137 354L137 0L66 0L66 483L137 483L137 414Q160 448 198 471.50Q236 495 277 495Q399 495 399 364L399 0Z"  horiz-adv-x="465" vert-adv-y="1000"  />

      
      <glyph glyph-name="uni0147" unicode="&#x0147;" d="M322 723L252 723L169 867L215 867L287 761L355 867L402 867L322 723M502 0L425 0L150 497L150 0L70 0L70 667L150 667L422 180L422 667L502 667L502 0Z"  horiz-adv-x="572" vert-adv-y="1000"  />

      
      <glyph glyph-name="uni0148" unicode="&#x0148;" d="M269 556L199 556L116 700L162 700L234 594L302 700L349 700L269 556M399 0L327 0L327 344Q327 431 250 431Q216 431 185.50 408.50Q155 386 137 354L137 0L66 0L66 483L137 483L137 414Q160 448 198 471.50Q236 495 277 495Q399 495 399 364L399 0Z"  horiz-adv-x="465" vert-adv-y="1000"  />

      
      <glyph glyph-name="uni0149" unicode="&#x0149;" d="M151 676Q151 637 131 601Q111 565 80 543L49 568Q72 584 88 608.50Q104 633 106 655L102 654Q97 654 95 654Q78 654 66 666Q54 678 54 696Q54 715 67 728.50Q80 742 99 742Q121 742 136 724Q151 706 151 676M399 0L327 0L327 344Q327 431 250 431Q216 431 185.50 408.50Q155 386 137 354L137 0L66 0L66 483L137 483L137 414Q160 448 198 471.50Q236 495 277 495Q399 495 399 364L399 0Z"  horiz-adv-x="465" vert-adv-y="1000"  />

      
      <glyph glyph-name="uni014A" unicode="&#x014A;" d="M323-196Q237-196 183-135L219-74Q259-126 317-126Q366-126 394-96Q422-66 422-12L422 5L150 509L150 0L70 0L70 667L150 667L422 168L422 667L502 667L502-14Q502-105 453-150.50Q404-196 323-196Z"  horiz-adv-x="572" vert-adv-y="1000"  />

      
      <glyph glyph-name="uni014B" unicode="&#x014B;" d="M399 364L399-59Q399-196 279-196Q230-196 197-162L223-107Q243-132 272-132Q327-132 327-59L327 344Q327 431 250 431Q216 431 185.50 408.50Q155 386 137 354L137 0L66 0L66 483L137 483L137 414Q160 448 198 471.50Q236 495 277 495Q399 495 399 364Z"  horiz-adv-x="465" vert-adv-y="1000"  />

      
      <glyph glyph-name="uni014C" unicode="&#x014C;" d="M452 740L146 740L146 786L452 786L452 740M484.50 85.50Q484.50 85.50 450.75 36.75Q417-12 299-12Q181-12 114 85.50Q47 183 47 333Q47 483 114 580.50Q181 678 299 678Q417 678 484.50 580.50Q552 483 552 333Q552 183 484.50 85.50M174 136.50Q174 136.50 196.50 97.75Q219 59 299 59Q379 59 424.50 136.50Q470 214 470 333Q470 453 425 530Q380 607 299 607Q219 607 174 530Q129 453 129 333Q129 214 174 136.50Z"  horiz-adv-x="599" vert-adv-y="1000"  />

      
      <glyph glyph-name="uni014D" unicode="&#x014D;" d="M392 573L86 573L86 619L392 619L392 573M238-12Q146-12 94 61Q42 134 42 242Q42 349 94 422Q146 495 238 495Q331 495 383 422.50Q435 350 435 242Q435 134 383 61Q331-12 238-12M238 52Q298 52 329 107Q360 162 360 242Q360 321 329 376Q298 431 238 431Q179 431 148 376Q117 321 117 242Q117 162 148 107Q179 52 238 52Z"  horiz-adv-x="477" vert-adv-y="1000"  />

      
      <glyph glyph-name="uni014E" unicode="&#x014E;" d="M484.50 85.50Q484.50 85.50 450.75 36.75Q417-12 299-12Q181-12 114 85.50Q47 183 47 333Q47 483 114 580.50Q181 678 299 678Q417 678 484.50 580.50Q552 483 552 333Q552 183 484.50 85.50M174 136.50Q174 136.50 196.50 97.75Q219 59 299 59Q379 59 424.50 136.50Q470 214 470 333Q470 453 425 530Q380 607 299 607Q219 607 174 530Q129 453 129 333Q129 214 174 136.50M447 786Q391 712 300 712Q208 712 152 786L189 816Q228 759 300 759Q371 759 410 816L447 786Z"  horiz-adv-x="599" vert-adv-y="1000"  />

      
      <glyph glyph-name="uni014F" unicode="&#x014F;" d="M238-12Q146-12 94 61Q42 134 42 242Q42 349 94 422Q146 495 238 495Q331 495 383 422.50Q435 350 435 242Q435 134 383 61Q331-12 238-12M238 52Q298 52 329 107Q360 162 360 242Q360 321 329 376Q298 431 238 431Q179 431 148 376Q117 321 117 242Q117 162 148 107Q179 52 238 52M386 619Q330 545 239 545Q147 545 91 619L128 649Q167 592 239 592Q310 592 349 649L386 619Z"  horiz-adv-x="477" vert-adv-y="1000"  />

      
      <glyph glyph-name="uni0150" unicode="&#x0150;" d="M340 867L244 723L201 723L276 867L340 867M469 867L373 723L330 723L405 867L469 867M484.50 85.50Q484.50 85.50 450.75 36.75Q417-12 299-12Q181-12 114 85.50Q47 183 47 333Q47 483 114 580.50Q181 678 299 678Q417 678 484.50 580.50Q552 483 552 333Q552 183 484.50 85.50M174 136.50Q174 136.50 196.50 97.75Q219 59 299 59Q379 59 424.50 136.50Q470 214 470 333Q470 453 425 530Q380 607 299 607Q219 607 174 530Q129 453 129 333Q129 214 174 136.50Z"  horiz-adv-x="599" vert-adv-y="1000"  />

      
      <glyph glyph-name="uni0151" unicode="&#x0151;" d="M279 700L183 556L140 556L215 700L279 700M408 700L312 556L269 556L344 700L408 700M238-12Q146-12 94 61Q42 134 42 242Q42 349 94 422Q146 495 238 495Q331 495 383 422.50Q435 350 435 242Q435 134 383 61Q331-12 238-12M238 52Q298 52 329 107Q360 162 360 242Q360 321 329 376Q298 431 238 431Q179 431 148 376Q117 321 117 242Q117 162 148 107Q179 52 238 52Z"  horiz-adv-x="477" vert-adv-y="1000"  />

      
      </font>
</defs>
</svg>
