<?xml version="1.0" standalone="no"?>
  <!DOCTYPE svg PUBLIC "-//W3C//DTD SVG 1.1//EN" "http://www.w3.org/Graphics/SVG/1.1/DTD/svg11.dtd" >
  <svg>
  <metadata>
  Created by font-carrier
  </metadata>
  <defs>
  <font id="ProximaNovaExCn-BoldIt" horiz-adv-x="866" vert-adv-y="866" >
    <font-face
      
      font-family="Proxima Nova ExCn Rg"
      
      font-weight="400"
      
      font-stretch="normal"
      
      units-per-em="1000"
      
      ascent="920"
      
      descent="-298"
      
    />
      <missing-glyph />

      

      
      <glyph glyph-name="uni21" unicode="&#x21;" d="M166 209L68 209L149 667L287 667L166 209M77-11Q49-11 29.50 8.50Q10 28 10 56Q10 89 34 113Q58 137 90 137Q118 137 138 117Q158 97 158 69Q158 36 134 12.50Q110-11 77-11Z"  horiz-adv-x="248" vert-adv-y="1000"  />

      
      <glyph glyph-name="uni22" unicode="&#x22;" d="M164 386L114 386Q126 591 126 604Q127 635 147.50 656Q168 677 198 677Q221 677 237 661Q253 645 253 621Q253 616 252 610Q251 604 249 598.50Q247 593 247 592L164 386M336 386L287 386Q298 591 298 604Q299 635 319.50 656Q340 677 370 677Q393 677 409.50 661Q426 645 426 621Q426 610 419 592L336 386Z"  horiz-adv-x="389" vert-adv-y="1000"  />

      
      <glyph glyph-name="uni23" unicode="&#x23;" d="M211 0L126 0L206 173L143 173L65 0L-20 0L59 173L-1 173L32 246L92 246L171 421L111 421L142 493L204 493L282 667L367 667L289 493L351 493L429 667L513 667L435 493L494 493L463 421L402 421L322 246L386 246L352 173L289 173L211 0M238 246L317 421L255 421L176 246L238 246Z"  horiz-adv-x="455" vert-adv-y="1000"  />

      
      <glyph glyph-name="uni24" unicode="&#x24;" d="M83-100L103-7Q19 7-22 64L50 157Q66 132 94.50 116Q123 100 151 100Q183 100 206 125Q229 150 229 191Q229 214 213.50 237.50Q198 261 176 283Q154 305 131.50 329.50Q109 354 93.50 388.50Q78 423 78 462Q78 544 129 604.50Q180 665 256 676L276 768L362 768L340 671Q402 654 438 614L371 521Q337 566 283 566Q250 566 230.50 542.50Q211 519 211 486Q211 460 234.50 429.50Q258 399 286 373Q314 347 337.50 304Q361 261 361 213Q361 130 313.50 67.50Q266 5 189-8L169-100L83-100Z"  horiz-adv-x="389" vert-adv-y="1000"  />

      
      <glyph glyph-name="uni25" unicode="&#x25;" d="M126 0L75 0L501 667L552 667L126 0M396-12Q343-12 313 23.50Q283 59 283 113Q283 198 330 258.50Q377 319 438 319Q491 319 521 284Q551 249 551 195Q551 110 504 49Q457-12 396-12M401 59Q428 59 451 98Q474 137 474 188Q474 249 432 249Q406 249 382.50 210Q359 171 359 120Q359 59 401 59M188 346Q135 346 105 381.50Q75 417 75 470Q75 555 122 616Q169 677 230 677Q283 677 313 641.50Q343 606 343 553Q343 468 296 407Q249 346 188 346M194 416Q220 416 243.50 455Q267 494 267 545Q267 606 225 606Q198 606 174.50 567Q151 528 151 477Q151 416 194 416Z"  horiz-adv-x="587" vert-adv-y="1000"  />

      
      <glyph glyph-name="uni26" unicode="&#x26;" d="M388 0L275 0Q272 6 262 31Q203-12 142-12Q80-12 42 26Q4 64 4 132Q4 219 44 274Q84 329 155 377Q146 426 146 470Q146 555 194.50 616Q243 677 307 677Q359 677 390.50 645.50Q422 614 422 554Q422 516 410 485Q398 454 370 426.50Q342 399 323 384.50Q304 370 263 343Q275 301 282 280L303 213Q327 257 358 328L439 280Q391 178 340 111Q349 89 388 0M169 78Q200 78 231 111Q213 161 199 207Q186 245 178 277Q120 221 120 149Q120 119 133 98.50Q146 78 169 78M245 466Q245 446 246 436Q323 492 323 553Q323 595 298 595Q277 595 261 554.50Q245 514 245 466Z"  horiz-adv-x="447" vert-adv-y="1000"  />

      
      <glyph glyph-name="uni27" unicode="&#x27;" d="M164 386L114 386Q126 591 126 604Q127 635 147.50 656Q168 677 198 677Q221 677 237 661Q253 645 253 621Q253 616 252 610Q251 604 249 598.50Q247 593 247 592L164 386Z"  horiz-adv-x="218" vert-adv-y="1000"  />

      
      <glyph glyph-name="uni28" unicode="&#x28;" d="M147-170L58-199Q22-88 22 36Q22 384 253 685L327 641Q241 496 189.50 320Q138 144 138-21Q138-89 147-170Z"  horiz-adv-x="258" vert-adv-y="1000"  />

      
      <glyph glyph-name="uni29" unicode="&#x29;" d="M110 656L199 685Q235 574 235 450Q235 102 4-199L-70-155Q16-10 67.50 166Q119 342 119 507Q119 588 110 656Z"  horiz-adv-x="258" vert-adv-y="1000"  />

      
      <glyph glyph-name="uni2a" unicode="&#x2a;" d="M217 373L159 373L189 487L82 438L65 491L174 530L87 591L127 637L207 568L226 677L285 677L254 562L361 612L378 559L270 519L356 459L316 413L236 482L217 373Z"  horiz-adv-x="321" vert-adv-y="1000"  />

      
      <glyph glyph-name="uni2b" unicode="&#x2b;" d="M366 302L243 302L210 156L132 156L165 302L42 302L57 373L181 373L211 512L290 512L259 373L382 373L366 302Z"  horiz-adv-x="383" vert-adv-y="1000"  />

      
      <glyph glyph-name="uni2c" unicode="&#x2c;" d="M162 62Q162 8 122-45.50Q82-99 23-128L-18-85Q11-71 38-48Q65-25 76-1Q75-2 66-2Q42-2 26 14Q10 30 10 58Q10 90 35 113.50Q60 137 91 137Q120 137 141 117Q162 97 162 62Z"  horiz-adv-x="248" vert-adv-y="1000"  />

      
      <glyph glyph-name="uni2d" unicode="&#x2d;" d="M200 194L19 194L40 290L221 290L200 194Z"  horiz-adv-x="241" vert-adv-y="1000"  />

      
      <glyph glyph-name="uni2e" unicode="&#x2e;" d="M77-11Q49-11 29.50 8.50Q10 28 10 56Q10 89 34 113Q58 137 91 137Q119 137 138.50 117Q158 97 158 69Q158 36 134 12.50Q110-11 77-11Z"  horiz-adv-x="248" vert-adv-y="1000"  />

      
      <glyph glyph-name="uni2f" unicode="&#x2f;" d="M23-20L-59-20L244 687L327 687L23-20Z"  horiz-adv-x="227" vert-adv-y="1000"  />

      
      <glyph glyph-name="uni30" unicode="&#x30;" d="M190-12Q118-12 74.50 42.50Q31 97 31 199Q31 309 65 418Q99 527 163.50 602Q228 677 303 677Q375 677 418 622.50Q461 568 461 466Q461 357 427 247.50Q393 138 329 63Q265-12 190-12M201 100Q239 100 272 177.50Q305 255 321 343Q337 431 337 488Q337 565 290 565Q253 565 220 488Q187 411 170.50 322.50Q154 234 154 178Q154 100 201 100Z"  horiz-adv-x="454" vert-adv-y="1000"  />

      
      <glyph glyph-name="uni31" unicode="&#x31;" d="M242 0L116 0L227 504L114 408L58 484L280 667L389 667L242 0Z"  horiz-adv-x="348" vert-adv-y="1000"  />

      
      <glyph glyph-name="uni32" unicode="&#x32;" d="M354 0L-13 0L16 127Q52 163 101.50 212Q151 261 175 284.50Q199 308 231 341.50Q263 375 277.50 392.50Q292 410 307 432Q322 454 327 470Q332 486 332 502Q332 531 315.50 548Q299 565 269 565Q209 565 159 502L95 584Q175 677 282 677Q363 677 413.50 634.50Q464 592 464 517Q464 475 450 437Q436 399 398.50 350Q361 301 318.50 256Q276 211 196 129Q184 117 178 111L378 111L354 0Z"  horiz-adv-x="441" vert-adv-y="1000"  />

      
      <glyph glyph-name="uni33" unicode="&#x33;" d="M188-12Q118-12 62 23Q6 58-13 122L89 186Q100 144 126.50 122Q153 100 188 100Q230 100 253.50 137.50Q277 175 277 221Q277 252 257.50 268Q238 284 208 284Q182 284 172 283L197 396Q204 395 248 395Q290 395 312.50 428Q335 461 335 505Q335 565 263 565Q206 565 167 510L99 584Q179 677 284 677Q364 677 414 638.50Q464 600 464 530Q464 460 420 405.50Q376 351 316 339Q360 324 380.50 289Q401 254 401 211Q401 120 339 54Q277-12 188-12Z"  horiz-adv-x="440" vert-adv-y="1000"  />

      
      <glyph glyph-name="uni34" unicode="&#x34;" d="M311 0L185 0L217 147L-7 147L20 268L305 667L458 667L367 257L418 257L393 147L343 147L311 0M241 257L300 517L122 257L241 257Z"  horiz-adv-x="431" vert-adv-y="1000"  />

      
      <glyph glyph-name="uni35" unicode="&#x35;" d="M188-12Q40-12-6 121L94 184Q104 144 129 122Q154 100 187 100Q228 100 258 148Q288 196 288 255Q288 286 272.50 304.50Q257 323 227 323Q183 323 144 276L57 308L138 667L478 667L454 556L239 556L200 381Q238 426 297 426Q353 426 386.50 385Q420 344 420 272Q420 158 354.50 73Q289-12 188-12Z"  horiz-adv-x="446" vert-adv-y="1000"  />

      
      <glyph glyph-name="uni36" unicode="&#x36;" d="M198-12Q115-12 71.50 43Q28 98 28 196Q28 260 45.50 338Q63 416 97 494Q131 572 191 624.50Q251 677 325 677Q376 677 415.50 652.50Q455 628 475 586L391 504Q376 565 318 565Q273 565 237.50 509Q202 453 180 372Q178 366 174 347Q196 383 229 405Q262 427 296 427Q350 427 384.50 387.50Q419 348 419 280Q419 211 393.50 145.50Q368 80 316 34Q264-12 198-12M201 100Q240 100 264 153.50Q288 207 288 257Q288 287 275 305.50Q262 324 236 324Q192 324 157 251Q149 217 149 181Q149 100 201 100Z"  horiz-adv-x="442" vert-adv-y="1000"  />

      
      <glyph glyph-name="uni37" unicode="&#x37;" d="M155 0L16 0L299 556L86 556L111 667L466 667L446 580L155 0Z"  horiz-adv-x="390" vert-adv-y="1000"  />

      
      <glyph glyph-name="uni38" unicode="&#x38;" d="M193-12Q4-12 4 138Q4 205 44.50 265Q85 325 162 353Q131 371 110 407Q89 443 89 484Q89 564 149.50 620.50Q210 677 290 677Q364 677 416 641.50Q468 606 468 530Q468 458 426 405Q384 352 321 336Q400 287 400 193Q400 104 342 46Q284-12 193-12M251 384Q339 417 339 508Q339 565 286 565Q253 565 232 534.50Q211 504 211 461Q211 436 223.50 415.50Q236 395 251 384M192 100Q226 100 251 133.50Q276 167 276 216Q276 249 261.50 271Q247 293 232 300Q194 288 164.50 251.50Q135 215 135 163Q135 132 150.50 116Q166 100 192 100Z"  horiz-adv-x="441" vert-adv-y="1000"  />

      
      <glyph glyph-name="uni39" unicode="&#x39;" d="M283 678Q366 678 409.50 623Q453 568 453 470Q453 406 435 328Q417 250 383.50 172Q350 94 290 41.50Q230-11 156-11Q105-11 65.50 13.50Q26 38 6 80L90 162Q96 134 115 117.50Q134 101 162 101Q208 101 243.50 157Q279 213 300 293Q304 306 307 319Q285 283 252 261Q219 239 184 239Q131 239 97 278.50Q63 318 63 386Q63 455 88 520.50Q113 586 165 632Q217 678 283 678M280 566Q241 566 217 512.50Q193 459 193 409Q193 379 205.50 360.50Q218 342 244 342Q288 342 325 415Q332 457 332 485Q332 566 280 566Z"  horiz-adv-x="442" vert-adv-y="1000"  />

      
      <glyph glyph-name="uni3a" unicode="&#x3a;" d="M77-11Q49-11 29.50 8.50Q10 28 10 56Q10 89 34 113Q58 137 91 137Q119 137 138.50 117Q158 97 158 69Q158 36 134 12.50Q110-11 77-11M155 342Q127 342 107.50 362Q88 382 88 410Q88 442 112 466Q136 490 168 490Q196 490 216 470Q236 450 236 422Q236 389 212 365.50Q188 342 155 342Z"  horiz-adv-x="248" vert-adv-y="1000"  />

      
      <glyph glyph-name="uni3b" unicode="&#x3b;" d="M162 62Q162 8 122-45.50Q82-99 23-128L-18-85Q11-71 38-48Q65-25 76-1Q75-2 66-2Q42-2 26 14Q10 30 10 58Q10 90 35 113.50Q60 137 91 137Q120 137 141 117Q162 97 162 62M156 342Q128 342 108 362Q88 382 88 410Q88 442 112 466Q136 490 169 490Q197 490 216.50 470Q236 450 236 422Q236 389 212 365.50Q188 342 156 342Z"  horiz-adv-x="248" vert-adv-y="1000"  />

      
      <glyph glyph-name="uni3c" unicode="&#x3c;" d="M334 156L40 294L58 375L413 514L393 425L132 330L352 237L334 156Z"  horiz-adv-x="383" vert-adv-y="1000"  />

      
      <glyph glyph-name="uni3d" unicode="&#x3d;" d="M387 393L62 393L78 465L402 465L387 393M344 203L19 203L35 275L360 275L344 203Z"  horiz-adv-x="383" vert-adv-y="1000"  />

      
      <glyph glyph-name="uni3e" unicode="&#x3e;" d="M364 294L9 156L29 244L291 338L71 433L88 514L383 375L364 294Z"  horiz-adv-x="383" vert-adv-y="1000"  />

      
      <glyph glyph-name="uni3f" unicode="&#x3f;" d="M210 234L109 199Q99 222 99 260Q99 299 114 332Q129 365 150.50 388Q172 411 193.50 431.50Q215 452 230 475Q245 498 245 522Q245 542 232.50 556.50Q220 571 198 571Q165 571 142 549L107 631Q165 678 237 678Q297 678 336.50 643Q376 608 376 555Q376 515 358.50 479.50Q341 444 315.50 418.50Q290 393 264.50 369.50Q239 346 221.50 320.50Q204 295 204 270Q204 248 210 234M118-11Q90-11 70.50 8.50Q51 28 51 56Q51 89 75 113Q99 137 131 137Q159 137 179 117Q199 97 199 69Q199 36 175 12.50Q151-11 118-11Z"  horiz-adv-x="325" vert-adv-y="1000"  />

      
      <glyph glyph-name="uni40" unicode="&#x40;" d="M291-70Q179-70 117 6.50Q55 83 55 215Q55 323 102 420.50Q149 518 230 578.50Q311 639 404 639Q500 639 560 573.50Q620 508 620 397Q620 270 570 177.50Q520 85 452 85Q418 85 395 103Q372 121 367 152L366 160Q318 85 253 85Q213 85 185.50 115Q158 145 158 213Q158 282 181 346.50Q204 411 248.50 454.50Q293 498 348 498Q404 498 421 433L431 484L531 484L478 231Q475 216 475 203Q475 162 503 162Q517 162 534 188.50Q551 215 565 271.50Q579 328 579 396Q579 494 531.50 547.50Q484 601 402 601Q320 601 248 544.50Q176 488 135.50 399.50Q95 311 95 216Q95 104 146 35.50Q197-33 296-33Q370-33 443 22L463-7Q378-70 291-70M303 165Q320 165 335 176Q350 187 357.50 198Q365 209 376 228L406 366Q394 417 364 417Q319 417 291 355.50Q263 294 263 230Q263 165 303 165Z"  horiz-adv-x="635" vert-adv-y="1000"  />

      
      <glyph glyph-name="uni41" unicode="&#x41;" d="M370 0L244 0L251 123L125 123L79 0L-54 0L232 667L377 667L370 0M260 234L277 526L165 234L260 234Z"  horiz-adv-x="424" vert-adv-y="1000"  />

      
      <glyph glyph-name="uni42" unicode="&#x42;" d="M223 0L-2 0L145 667L311 667Q386 667 427.50 626.50Q469 586 469 523Q469 455 431 399Q393 343 333 334Q371 323 390 289Q409 255 409 213Q409 129 360.50 64.50Q312 0 223 0M211 395L257 395Q293 395 314 427.50Q335 460 335 498Q335 556 274 556L247 556L211 395M198 111Q235 111 259 144Q283 177 283 223Q283 284 222 284L187 284L148 111L198 111Z"  horiz-adv-x="452" vert-adv-y="1000"  />

      
      <glyph glyph-name="uni43" unicode="&#x43;" d="M203-12Q120-12 75 43.50Q30 99 30 200Q30 249 39.50 309Q49 369 71 435Q93 501 124.50 554.50Q156 608 205.50 643Q255 678 313 678Q394 678 433 623Q472 568 475 487L358 465Q353 566 305 566Q262 566 226.50 492.50Q191 419 175 336.50Q159 254 159 197Q159 100 210 100Q252 100 293 181L394 139Q323-12 203-12Z"  horiz-adv-x="429" vert-adv-y="1000"  />

      
      <glyph glyph-name="uni44" unicode="&#x44;" d="M165 0L-2 0L145 667L308 667Q378 667 427.50 610.50Q477 554 477 450Q477 414 470.50 370.50Q464 327 450.50 274.50Q437 222 412.50 174.50Q388 127 355 87.50Q322 48 273 24Q224 0 165 0M148 111L187 111Q228 111 261.50 151.50Q295 192 313 250Q331 308 340 360.50Q349 413 349 448Q349 502 330.50 529Q312 556 284 556L247 556L148 111Z"  horiz-adv-x="476" vert-adv-y="1000"  />

      
      <glyph glyph-name="uni45" unicode="&#x45;" d="M290 0L-2 0L145 667L437 667L413 556L247 556L211 395L370 395L345 284L187 284L148 111L314 111L290 0Z"  horiz-adv-x="378" vert-adv-y="1000"  />

      
      <glyph glyph-name="uni46" unicode="&#x46;" d="M124 0L-2 0L145 667L437 667L413 556L247 556L211 395L370 395L345 284L187 284L124 0Z"  horiz-adv-x="376" vert-adv-y="1000"  />

      
      <glyph glyph-name="uni47" unicode="&#x47;" d="M203-12Q119-12 74.50 44Q30 100 30 200Q30 253 40 314.50Q50 376 73 441Q96 506 128 558.50Q160 611 208.50 644.50Q257 678 313 678Q392 678 429 628.50Q466 579 469 503L362 477Q358 566 306 566Q274 566 245 524.50Q216 483 198 423Q180 363 169.50 302Q159 241 159 197Q159 145 171 122.50Q183 100 210 100Q243 100 278 144L301 252L226 252L251 363L437 363L378 98Q307-12 203-12Z"  horiz-adv-x="453" vert-adv-y="1000"  />

      
      <glyph glyph-name="uni48" unicode="&#x48;" d="M378 0L252 0L315 288L187 288L124 0L-2 0L145 667L271 667L212 398L340 398L399 667L525 667L378 0Z"  horiz-adv-x="484" vert-adv-y="1000"  />

      
      <glyph glyph-name="uni49" unicode="&#x49;" d="M124 0L-2 0L145 667L271 667L124 0Z"  horiz-adv-x="230" vert-adv-y="1000"  />

      
      <glyph glyph-name="uni4a" unicode="&#x4a;" d="M87-12Q5-12-37 31L14 131Q36 100 76 100Q139 100 155 173L265 667L391 667L280 167Q259 73 213 30.50Q167-12 87-12Z"  horiz-adv-x="348" vert-adv-y="1000"  />

      
      <glyph glyph-name="uni4b" unicode="&#x4b;" d="M414 0L281 0L223 257L161 170L124 0L-2 0L145 667L271 667L207 376L404 667L549 667L317 353L414 0Z"  horiz-adv-x="471" vert-adv-y="1000"  />

      
      <glyph glyph-name="uni4c" unicode="&#x4c;" d="M290 0L-2 0L145 667L271 667L148 111L314 111L290 0Z"  horiz-adv-x="365" vert-adv-y="1000"  />

      
      <glyph glyph-name="uni4d" unicode="&#x4d;" d="M510 0L386 0L476 408L275 0L233 0L214 408L124 0L-2 0L145 667L303 667L319 312L497 667L657 667L510 0Z"  horiz-adv-x="616" vert-adv-y="1000"  />

      
      <glyph glyph-name="uni4e" unicode="&#x4e;" d="M378 0L259 0L205 370L124 0L-2 0L145 667L271 667L320 312L399 667L525 667L378 0Z"  horiz-adv-x="484" vert-adv-y="1000"  />

      
      <glyph glyph-name="uni4f" unicode="&#x4f;" d="M203-12Q117-12 73.50 47Q30 106 30 200Q30 263 46.50 340Q63 417 95 495Q127 573 184.50 625.50Q242 678 313 678Q399 678 442.50 618Q486 558 486 464Q486 401 469.50 324Q453 247 421 169.50Q389 92 331.50 40Q274-12 203-12M210 100Q242 100 271 142.50Q300 185 318 245Q336 305 346.50 365.50Q357 426 357 467Q357 566 305 566Q273 566 244 523.50Q215 481 197 420.50Q179 360 169 299.50Q159 239 159 197Q159 100 210 100Z"  horiz-adv-x="478" vert-adv-y="1000"  />

      
      <glyph glyph-name="uni50" unicode="&#x50;" d="M124 0L-2 0L145 667L311 667Q382 667 426 619.50Q470 572 470 498Q470 395 407.50 320Q345 245 231 245L178 245L124 0M202 356L241 356Q286 356 312.50 395.50Q339 435 339 486Q339 520 323.50 538Q308 556 282 556L247 556L202 356Z"  horiz-adv-x="441" vert-adv-y="1000"  />

      
      <glyph glyph-name="uni51" unicode="&#x51;" d="M203-12Q117-12 73.50 47Q30 106 30 200Q30 263 46.50 340Q63 417 95 495Q127 573 184.50 625.50Q242 678 313 678Q399 678 442.50 618Q486 558 486 464Q486 353 441 219.50Q396 86 313 25L320-18L226-35L222-11Q219-11 212.50-11.50Q206-12 203-12M185 220L279 236L289 173Q319 232 338 320.50Q357 409 357 467Q357 566 305 566Q273 566 244 523.50Q215 481 197 420.50Q179 360 169 299.50Q159 239 159 197Q159 105 204 100L185 220Z"  horiz-adv-x="478" vert-adv-y="1000"  />

      
      <glyph glyph-name="uni52" unicode="&#x52;" d="M372 0L241 0L223 245L178 245L124 0L-2 0L145 667L311 667Q380 667 425 618.50Q470 570 470 498Q470 418 431 352.50Q392 287 341 268L372 0M202 356L242 356Q286 356 312 395Q338 434 338 486Q338 556 282 556L247 556L202 356Z"  horiz-adv-x="460" vert-adv-y="1000"  />

      
      <glyph glyph-name="uni53" unicode="&#x53;" d="M151-12Q97-12 49.50 9Q2 30-22 64L50 157Q66 132 94.50 116Q123 100 151 100Q183 100 206 125Q229 150 229 191Q229 214 213.50 237.50Q198 261 176 283Q154 305 131.50 329.50Q109 354 93.50 388.50Q78 423 78 462Q78 552 138 615Q198 678 284 678Q328 678 369.50 661.50Q411 645 438 614L371 521Q337 566 283 566Q250 566 230.50 542.50Q211 519 211 486Q211 460 234.50 429.50Q258 399 286 373Q314 347 337.50 304Q361 261 361 213Q361 119 302 53.50Q243-12 151-12Z"  horiz-adv-x="396" vert-adv-y="1000"  />

      
      <glyph glyph-name="uni54" unicode="&#x54;" d="M191 0L65 0L188 556L87 556L111 667L439 667L415 556L314 556L191 0Z"  horiz-adv-x="364" vert-adv-y="1000"  />

      
      <glyph glyph-name="uni55" unicode="&#x55;" d="M209-12Q135-12 86 33.50Q37 79 37 154Q37 175 42 198L145 667L271 667L165 187Q162 166 162 158Q162 130 177.50 114.50Q193 99 218 99Q275 99 294 187L399 667L525 667L421 193Q398 89 342 38.50Q286-12 209-12Z"  horiz-adv-x="484" vert-adv-y="1000"  />

      
      <glyph glyph-name="uni56" unicode="&#x56;" d="M230 0L85 0L93 667L219 667L190 162L384 667L517 667L230 0Z"  horiz-adv-x="424" vert-adv-y="1000"  />

      
      <glyph glyph-name="uni57" unicode="&#x57;" d="M437 0L309 0L349 430L199 0L71 0L104 667L230 667L187 220L350 667L449 667L415 220L568 667L698 667L437 0Z"  horiz-adv-x="616" vert-adv-y="1000"  />

      
      <glyph glyph-name="uni58" unicode="&#x58;" d="M386 0L254 0L218 223L90 0L-55 0L171 347L100 667L233 667L261 455L379 667L525 667L309 334L386 0Z"  horiz-adv-x="438" vert-adv-y="1000"  />

      
      <glyph glyph-name="uni59" unicode="&#x59;" d="M224 0L99 0L159 276L89 667L217 667L243 398L389 667L527 667L285 276L224 0Z"  horiz-adv-x="430" vert-adv-y="1000"  />

      
      <glyph glyph-name="uni5a" unicode="&#x5a;" d="M293 0L-25 0L-2 106L260 556L98 556L123 667L433 667L410 565L145 111L317 111L293 0Z"  horiz-adv-x="376" vert-adv-y="1000"  />

      
      <glyph glyph-name="uni5b" unicode="&#x5b;" d="M90-190L-61-190L131 678L283 678L266 602L197 602L38-114L107-114L90-190Z"  horiz-adv-x="205" vert-adv-y="1000"  />

      
      <glyph glyph-name="uni5c" unicode="&#x5c;" d="M89-20L89 687L168 687L168-20L89-20Z"  horiz-adv-x="227" vert-adv-y="1000"  />

      
      <glyph glyph-name="uni5d" unicode="&#x5d;" d="M73-190L-79-190L-62-114L8-114L166 602L97 602L113 678L266 678L73-190Z"  horiz-adv-x="205" vert-adv-y="1000"  />

      
      <glyph glyph-name="uni5e" unicode="&#x5e;" d="M337 333L258 333L244 576L123 333L38 333L220 667L303 667L337 333Z"  horiz-adv-x="337" vert-adv-y="1000"  />

      
      <glyph glyph-name="uni5f" unicode="&#x5f;" d="M202-117L-82-117L-65-40L219-40L202-117Z"  horiz-adv-x="279" vert-adv-y="1000"  />

      
      <glyph glyph-name="uni60" unicode="&#x60;" d="M247 556L175 556L101 700L199 700L247 556Z"  horiz-adv-x="178" vert-adv-y="1000"  />

      
      <glyph glyph-name="uni61" unicode="&#x61;" d="M208 495Q283 495 304 421L318 483L430 483L323 0L210 0L224 58Q178-12 121-12Q69-12 41.50 27.50Q14 67 14 142Q14 211 34 289.50Q54 368 100.50 431.50Q147 495 208 495M234 395Q201 395 176 348.50Q151 302 141 249.50Q131 197 131 157Q131 88 179 88Q215 88 243 145L286 337Q282 363 267.50 379Q253 395 234 395Z"  horiz-adv-x="423" vert-adv-y="1000"  />

      
      <glyph glyph-name="uni62" unicode="&#x62;" d="M213-12Q139-12 118 62L105 0L-8 0L139 667L252 667L198 425Q244 495 301 495Q407 495 407 341Q407 291 395 232.50Q383 174 360 118Q337 62 298.50 25Q260-12 213-12M188 88Q220 88 245 134.50Q270 181 280.50 234Q291 287 291 326Q291 395 243 395Q226 395 208 378.50Q190 362 179 338L136 146Q140 120 154 104Q168 88 188 88Z"  horiz-adv-x="423" vert-adv-y="1000"  />

      
      <glyph glyph-name="uni63" unicode="&#x63;" d="M179-12Q103-12 60 34.50Q17 81 17 168Q17 243 43 316.50Q69 390 123.50 442.50Q178 495 247 495Q325 495 369 446L315 361Q295 395 256 395Q203 395 168.50 324Q134 253 134 180Q134 88 205 88Q237 88 264 115L283 25Q240-12 179-12Z"  horiz-adv-x="344" vert-adv-y="1000"  />

      
      <glyph glyph-name="uni64" unicode="&#x64;" d="M208 495Q283 495 304 421L358 667L471 667L323 0L210 0L224 58Q178-12 121-12Q69-12 41.50 27.50Q14 67 14 142Q14 211 34 289.50Q54 368 100.50 431.50Q147 495 208 495M234 395Q201 395 176 348.50Q151 302 141 249.50Q131 197 131 157Q131 88 179 88Q215 88 243 145L286 337Q282 363 267.50 379Q253 395 234 395Z"  horiz-adv-x="423" vert-adv-y="1000"  />

      
      <glyph glyph-name="uni65" unicode="&#x65;" d="M182-12Q104-12 60.50 35.50Q17 83 17 170Q17 217 31 271Q45 325 71.50 376Q98 427 142.50 461Q187 495 241 495Q316 495 353 452Q390 409 390 330Q390 285 371 204L126 204Q121 186 121 163Q121 129 140.50 104.50Q160 80 203 80Q246 80 286 122L326 52Q265-12 182-12M141 284L282 284Q288 316 288 333Q288 364 273 383.50Q258 403 233 403Q196 403 172.50 366.50Q149 330 141 284Z"  horiz-adv-x="404" vert-adv-y="1000"  />

      
      <glyph glyph-name="uni66" unicode="&#x66;" d="M120 0L7 0L93 385L48 385L70 483L114 483L124 533Q156 677 269 677Q335 677 363 647L317 563Q304 579 285 579Q249 579 237 533L227 483L288 483L266 385L205 385L120 0Z"  horiz-adv-x="250" vert-adv-y="1000"  />

      
      <glyph glyph-name="uni67" unicode="&#x67;" d="M120-196Q15-196-37-135L22-49Q56-98 117-98Q188-98 212 8L228 75Q186 5 125 5Q73 5 44.50 42Q16 79 16 151Q16 200 27 256Q38 312 60 367.50Q82 423 121 459Q160 495 209 495Q239 495 268 475.50Q297 456 304 421L318 483L430 483L326 16Q300-101 248-148.50Q196-196 120-196M181 105Q199 105 216.50 121.50Q234 138 246 162L285 337Q281 361 266 378Q251 395 232 395Q187 395 160 318Q133 241 133 174Q133 105 181 105Z"  horiz-adv-x="423" vert-adv-y="1000"  />

      
      <glyph glyph-name="uni68" unicode="&#x68;" d="M321 0L207 0L284 343Q284 344 285 352.50Q286 361 286 363Q286 395 256 395Q216 395 177 331L105 0L-9 0L139 667L252 667L198 423Q251 495 320 495Q362 495 385.50 472.50Q409 450 409 414Q409 405 405 385L321 0Z"  horiz-adv-x="420" vert-adv-y="1000"  />

      
      <glyph glyph-name="uni69" unicode="&#x69;" d="M174 540Q147 540 129 557Q111 574 111 599Q111 634 136 655.50Q161 677 190 677Q217 677 234.50 659.50Q252 642 252 618Q252 583 227.50 561.50Q203 540 174 540M105 0L-9 0L99 483L212 483L105 0Z"  horiz-adv-x="204" vert-adv-y="1000"  />

      
      <glyph glyph-name="uni6a" unicode="&#x6a;" d="M-55-196Q-107-196-129-168L-85-85Q-78-98-61-98Q-30-98-19-42L99 483L212 483L94-42Q77-123 43.50-159.50Q10-196-55-196M174 540Q147 540 129 557Q111 574 111 599Q111 634 136 655.50Q161 677 190 677Q217 677 234.50 659.50Q252 642 252 618Q252 583 227.50 561.50Q203 540 174 540Z"  horiz-adv-x="204" vert-adv-y="1000"  />

      
      <glyph glyph-name="uni6b" unicode="&#x6b;" d="M344 0L222 0L192 196L129 113L105 0L-9 0L139 667L252 667L163 267L320 483L446 483L284 269L344 0Z"  horiz-adv-x="403" vert-adv-y="1000"  />

      
      <glyph glyph-name="uni6c" unicode="&#x6c;" d="M105 0L-9 0L139 667L252 667L105 0Z"  horiz-adv-x="204" vert-adv-y="1000"  />

      
      <glyph glyph-name="uni6d" unicode="&#x6d;" d="M536 0L423 0L499 343Q499 344 500.50 352Q502 360 502 363Q502 395 471 395Q450 395 429 376Q408 357 393 331L321 0L207 0L284 343Q284 345 285 353Q286 361 286 364Q286 395 256 395Q217 395 177 331L105 0L-9 0L99 483L212 483L198 423Q220 454 253 474.50Q286 495 320 495Q359 495 384 474Q409 453 409 423Q409 419 408 415Q432 450 466 472.50Q500 495 535 495Q576 495 600 473.50Q624 452 624 414Q624 406 621 385L536 0Z"  horiz-adv-x="636" vert-adv-y="1000"  />

      
      <glyph glyph-name="uni6e" unicode="&#x6e;" d="M321 0L207 0L284 343Q284 345 285 353Q286 361 286 363Q286 395 256 395Q216 395 177 331L105 0L-9 0L99 483L212 483L198 423Q251 495 320 495Q361 495 385 473Q409 451 409 414Q409 397 405 385L321 0Z"  horiz-adv-x="420" vert-adv-y="1000"  />

      
      <glyph glyph-name="uni6f" unicode="&#x6f;" d="M173-12Q97-12 57 34Q17 80 17 165Q17 238 42 312Q67 386 120 440.50Q173 495 242 495Q318 495 358 449Q398 403 398 318Q398 245 373 171Q348 97 295 42.50Q242-12 173-12M180 88Q225 88 254.50 171Q284 254 284 320Q284 395 236 395Q204 395 178.50 349.50Q153 304 142 252Q131 200 131 162Q131 88 180 88Z"  horiz-adv-x="417" vert-adv-y="1000"  />

      
      <glyph glyph-name="uni70" unicode="&#x70;" d="M213-12Q139-12 118 62L64-184L-49-184L99 483L212 483L198 425Q244 495 301 495Q407 495 407 341Q407 291 395 232.50Q383 174 360 118Q337 62 298.50 25Q260-12 213-12M188 88Q220 88 245 134.50Q270 181 280.50 234Q291 287 291 326Q291 395 243 395Q226 395 208 378.50Q190 362 179 338L136 146Q140 120 154 104Q168 88 188 88Z"  horiz-adv-x="423" vert-adv-y="1000"  />

      
      <glyph glyph-name="uni71" unicode="&#x71;" d="M208 495Q283 495 304 421L317 483L430 483L282-184L169-184L224 58Q178-12 121-12Q69-12 41.50 27.50Q14 67 14 142Q14 211 34 289.50Q54 368 100.50 431.50Q147 495 208 495M234 395Q201 395 176 348.50Q151 302 141 249.50Q131 197 131 157Q131 88 179 88Q215 88 243 145L286 337Q282 363 267.50 379Q253 395 234 395Z"  horiz-adv-x="423" vert-adv-y="1000"  />

      
      <glyph glyph-name="uni72" unicode="&#x72;" d="M105 0L-9 0L99 483L212 483L198 421Q242 495 323 495L297 383Q285 387 271 387Q217 387 176 323L105 0Z"  horiz-adv-x="280" vert-adv-y="1000"  />

      
      <glyph glyph-name="uni73" unicode="&#x73;" d="M133-12Q81-12 38 8.50Q-5 29-24 59L38 132Q72 77 134 77Q160 77 178 94Q196 111 196 135Q196 155 173 176Q150 197 123 213.50Q96 230 73 262Q50 294 50 335Q50 401 93.50 448Q137 495 214 495Q256 495 295 477.50Q334 460 359 429L300 358Q290 376 264.50 391Q239 406 213 406Q188 406 173 392Q158 378 158 355Q158 337 181.50 317Q205 297 233 280Q261 263 284.50 230Q308 197 308 156Q308 87 259.50 37.50Q211-12 133-12Z"  horiz-adv-x="346" vert-adv-y="1000"  />

      
      <glyph glyph-name="uni74" unicode="&#x74;" d="M139-12Q27-12 27 75Q27 94 32 117L93 385L47 385L69 483L114 483L143 615L256 615L227 483L288 483L266 385L205 385L150 137Q147 116 147 114Q147 88 173 88Q186 88 198 96L200 4Q179-12 139-12Z"  horiz-adv-x="258" vert-adv-y="1000"  />

      
      <glyph glyph-name="uni75" unicode="&#x75;" d="M99 483L212 483L136 141Q132 123 132 119Q132 88 163 88Q204 88 240 150L314 483L428 483L321 0L207 0L221 61Q169-12 99-12Q58-12 34 10Q10 32 10 69Q10 86 14 98L99 483Z"  horiz-adv-x="420" vert-adv-y="1000"  />

      
      <glyph glyph-name="uni76" unicode="&#x76;" d="M197 0L75 0L55 483L171 483L164 141L309 483L432 483L197 0Z"  horiz-adv-x="380" vert-adv-y="1000"  />

      
      <glyph glyph-name="uni77" unicode="&#x77;" d="M437 0L319 0L322 329L181 0L62 0L58 483L172 483L160 153L297 483L404 483L400 153L535 483L656 483L437 0Z"  horiz-adv-x="608" vert-adv-y="1000"  />

      
      <glyph glyph-name="uni78" unicode="&#x78;" d="M314 0L197 0L171 160L73 0L-51 0L115 243L61 483L177 483L200 327L293 483L416 483L255 243L314 0Z"  horiz-adv-x="372" vert-adv-y="1000"  />

      
      <glyph glyph-name="uni79" unicode="&#x79;" d="M-54-184L-17-91Q-10-96 6-96Q29-96 47-62L74-8L55 483L171 483L164 143L309 483L432 483L155-85Q122-149 91-172.50Q60-196 15-196Q-28-196-54-184Z"  horiz-adv-x="380" vert-adv-y="1000"  />

      
      <glyph glyph-name="uni7a" unicode="&#x7a;" d="M254 0L-27 0L-9 85L197 385L58 385L80 483L357 483L339 401L131 99L276 99L254 0Z"  horiz-adv-x="335" vert-adv-y="1000"  />

      
      <glyph glyph-name="uni7b" unicode="&#x7b;" d="M106-190L85-190Q45-190 14.50-164Q-16-138-17-97Q-17-91-14-70L34 144Q36 154 36 162Q36 184 25.50 197.50Q15 211-4 211L11 277Q63 277 78 344L126 559Q153 678 270 678L299 678L281 602L253 602Q217 602 208 559L156 324Q148 288 133.50 267Q119 246 91 235Q120 220 120 180Q120 162 116 146L70-65L67-83Q67-97 75.50-105.50Q84-114 95-114L123-114L106-190Z"  horiz-adv-x="220" vert-adv-y="1000"  />

      
      <glyph glyph-name="uni7c" unicode="&#x7c;" d="M148-20L72-20L72 687L148 687L148-20Z"  horiz-adv-x="181" vert-adv-y="1000"  />

      
      <glyph glyph-name="uni7d" unicode="&#x7d;" d="M113 678L133 678Q173 678 204.50 651.50Q236 625 236 584Q236 572 232 558L185 344Q183 334 183 325Q183 303 193.50 290Q204 277 222 277L207 211Q156 211 141 144L93-71Q66-190-52-190L-80-190L-63-114L-35-114Q1-114 10-71L62 164Q70 200 84.50 221Q99 242 127 253Q98 268 98 309Q98 327 102 343L149 553Q151 565 151 571Q151 585 143.50 593.50Q136 602 124 602L96 602L113 678Z"  horiz-adv-x="220" vert-adv-y="1000"  />

      
      <glyph glyph-name="uni7e" unicode="&#x7e;" d="M405 667L481 660Q436 415 318 415Q277 415 258.50 443Q240 471 241 505Q242 539 238 567Q234 595 219 595Q181 595 142 414L65 421Q112 666 230 666Q270 666 288 637.50Q306 609 305 575.50Q304 542 308 513.50Q312 485 327 485Q366 485 405 667Z"  horiz-adv-x="416" vert-adv-y="1000"  />

      
      <glyph glyph-name="unia1" unicode="&#xa1;" d="M82 274L180 274L99-184L-38-184L82 274M172 494Q200 494 219.50 474.50Q239 455 239 427Q239 394 215 370Q191 346 158 346Q130 346 110.50 366Q91 386 91 414Q91 447 115 470.50Q139 494 172 494Z"  horiz-adv-x="248" vert-adv-y="1000"  />

      
      <glyph glyph-name="unia2" unicode="&#xa2;" d="M92-100L114-1Q17 34 17 168Q17 280 74 380Q131 480 223 493L240 565L323 565L305 486Q344 473 369 446L315 361Q295 395 256 395Q203 395 168.50 324Q134 253 134 180Q134 88 205 88Q237 88 264 115L283 25Q244-8 194-11L175-100L92-100Z"  horiz-adv-x="344" vert-adv-y="1000"  />

      
      <glyph glyph-name="unia3" unicode="&#xa3;" d="M37 276L53 349L105 349Q92 395 92 437Q92 539 158.50 608Q225 677 308 677Q375 677 420 640Q465 603 467 534L358 503Q355 574 309 574Q276 574 251 528.50Q226 483 226 420Q226 395 237 349L309 349L293 276L239 276Q232 225 208.50 182.50Q185 140 152 117Q171 126 187 126Q210 126 240 113Q270 100 288 100Q327 100 355 130L367 28Q327-12 264-12Q223-12 178.50 8.50Q134 29 110 29Q73 29 25-7L7 79Q56 107 88.50 158Q121 209 121 262Q121 271 120 276L37 276Z"  horiz-adv-x="424" vert-adv-y="1000"  />

      
      <glyph glyph-name="unia4" unicode="&#xa4;" d="M212 100Q156 100 120 124L40 59L-19 134L63 200Q52 229 52 274Q52 402 120 487L67 557L143 619L196 549Q233 565 270 565Q322 565 360 542L444 610L503 534L419 466Q431 432 431 390Q431 264 362 178L416 109L340 47L286 116Q249 100 212 100M161 278Q161 197 219 197Q261 197 291.50 255.50Q322 314 322 386Q322 468 265 468Q221 468 191 409Q161 350 161 278Z"  horiz-adv-x="441" vert-adv-y="1000"  />

      
      <glyph glyph-name="unia5" unicode="&#xa5;" d="M224 0L99 0L124 117L-4 117L12 189L140 189L159 276L31 276L47 347L146 347L89 667L217 667L243 398L389 667L527 667L329 347L426 347L411 276L285 276L266 189L391 189L375 117L250 117L224 0Z"  horiz-adv-x="430" vert-adv-y="1000"  />

      
      <glyph glyph-name="unia6" unicode="&#xa6;" d="M148-20L72-20L72 296L148 296L148-20M148 371L72 371L72 687L148 687L148 371Z"  horiz-adv-x="181" vert-adv-y="1000"  />

      
      <glyph glyph-name="unia7" unicode="&#xa7;" d="M345 336Q345 231 243 186Q290 148 290 90Q290 19 241-31Q192-81 119-81Q-2-81-45-15L17 57Q49 3 112 3Q141 3 160.50 24Q180 45 180 74Q180 98 157.50 119.50Q135 141 108.50 156.50Q82 172 59.50 203.50Q37 235 37 277Q37 326 66.50 364.50Q96 403 146 416Q92 457 92 521Q92 588 138.50 632.50Q185 677 251 677Q356 677 405 612L345 550Q314 597 258 597Q233 597 216 578.50Q199 560 199 535Q199 512 222 490Q245 468 272 451.50Q299 435 322 404.50Q345 374 345 336M240 308Q240 346 209 375Q141 362 141 298Q141 254 185 227Q240 249 240 308Z"  horiz-adv-x="347" vert-adv-y="1000"  />

      
      <glyph glyph-name="unia8" unicode="&#xa8;" d="M363 616Q363 589 342 568.50Q321 548 293 548Q270 548 254.50 563.50Q239 579 239 603Q239 629 260 650Q281 671 308 671Q331 671 347 655Q363 639 363 616M201 616Q201 589 179.50 568.50Q158 548 131 548Q108 548 92 563.50Q76 579 76 603Q76 629 97 650Q118 671 146 671Q169 671 185 655Q201 639 201 616Z"  horiz-adv-x="278" vert-adv-y="1000"  />

      
      <glyph glyph-name="unia9" unicode="&#xa9;" d="M652.50 577.50Q652.50 577.50 703.25 526.75Q754 476 754 334Q754 192 652.50 90.50Q551-11 408-11Q266-11 165 90Q64 191 64 334Q64 477 165 578Q266 679 408 679Q551 679 652.50 577.50M627.50 115.50Q627.50 115.50 673.25 161.25Q719 207 719 334Q719 461 627.50 552.50Q536 644 408 644Q281 644 190 553Q99 462 99 334Q99 206 190 115Q281 24 408 24Q536 24 627.50 115.50M506 209L529 176Q467 123 392 123Q305 123 252.50 175Q200 227 200 307Q200 407 271 476.50Q342 546 434 546Q543 546 593 466L557 440Q521 508 433 508Q361 508 302.50 450Q244 392 244 308Q244 246 284.50 203Q325 160 392 160Q457 160 506 209Z"  horiz-adv-x="778" vert-adv-y="1000"  />

      
      <glyph glyph-name="uniaa" unicode="&#xaa;" d="M224 582Q194 582 173.50 532.50Q153 483 153 435Q153 384 187 384Q211 384 233 423L259 547Q257 562 247 572Q237 582 224 582M280 640L363 640L294 326L211 326L219 365Q189 318 146 318Q111 318 89.50 345Q68 372 68 428Q68 505 106 576.50Q144 648 203 648Q251 648 272 602L280 640Z"  horiz-adv-x="313" vert-adv-y="1000"  />

      
      <glyph glyph-name="uniab" unicode="&#xab;" d="M165 63L79 63L29 243L159 420L249 420L116 239L165 63M312 63L226 63L176 243L306 420L396 420L263 239L312 63Z"  horiz-adv-x="385" vert-adv-y="1000"  />

      
      <glyph glyph-name="uniac" unicode="&#xac;" d="M402 465L344 203L271 203L312 393L62 393L78 465L402 465Z"  horiz-adv-x="383" vert-adv-y="1000"  />

      
      <glyph glyph-name="uniad" unicode="&#xad;" d="M200 194L19 194L40 290L221 290L200 194Z"  horiz-adv-x="241" vert-adv-y="1000"  />

      
      <glyph glyph-name="uniae" unicode="&#xae;" d="M508 465Q508 377 445.50 315Q383 253 295 253Q207 253 145.50 315Q84 377 84 465Q84 553 146 615Q208 677 296 677Q384 677 446 615.50Q508 554 508 465M477 465Q477 540 423.50 593Q370 646 295 646Q220 646 167.50 593.50Q115 541 115 465Q115 390 167.50 337Q220 284 295 284Q370 284 423.50 337.50Q477 391 477 465M369 343L329 343L287 439L243 439L222 343L188 343L241 586L333 586Q364 586 384.50 568Q405 550 405 522Q405 487 380 463.50Q355 440 325 440L369 343M369 518Q369 536 357.50 546.50Q346 557 327 557L269 557L249 469L315 469Q337 469 353 483Q369 497 369 518Z"  horiz-adv-x="494" vert-adv-y="1000"  />

      
      <glyph glyph-name="uniaf" unicode="&#xaf;" d="M329 564L71 564L85 630L343 630L329 564Z"  horiz-adv-x="258" vert-adv-y="1000"  />

      
      <glyph glyph-name="unib0" unicode="&#xb0;" d="M351 545Q351 491 312 452.50Q273 414 219 414Q164 414 126 452.50Q88 491 88 545Q88 600 126 638.50Q164 677 219 677Q273 677 312 638.50Q351 600 351 545M288 545Q288 573 267.50 593.50Q247 614 219 614Q191 614 171 593.50Q151 573 151 545Q151 517 170.50 497.50Q190 478 218 478Q246 478 267 498Q288 518 288 545Z"  horiz-adv-x="305" vert-adv-y="1000"  />

      
      <glyph glyph-name="unib1" unicode="&#xb1;" d="M366 302L243 302L210 156L132 156L165 302L42 302L57 373L181 373L211 512L290 512L259 373L382 373L366 302M306 27L-20 27L-4 98L321 98L306 27Z"  horiz-adv-x="383" vert-adv-y="1000"  />

      
      <glyph glyph-name="unib2" unicode="&#xb2;" d="M315 421L67 421L82 489Q212 598 252 641Q292 684 292 717Q292 736 280 747Q268 758 247 758Q205 758 170 713L128 768Q182 827 254 827Q308 827 343.50 800Q379 773 379 725Q379 675 339.50 629.50Q300 584 188 490L330 490L315 421Z"  horiz-adv-x="293" vert-adv-y="1000"  />

      
      <glyph glyph-name="unib3" unicode="&#xb3;" d="M340 541Q340 492 302.50 453Q265 414 205 414Q159 414 123.50 432.50Q88 451 72 484L136 532Q154 483 201 483Q227 483 242 504Q257 525 257 551Q257 591 213 591Q190 591 184 590L199 659Q204 658 231 658Q258 658 274.50 674.50Q291 691 291 718Q291 737 278.50 747.50Q266 758 245 758Q204 758 173 719L129 767Q181 827 253 827Q310 827 343.50 802Q377 777 377 731Q377 693 351.50 660Q326 627 283 621Q340 605 340 541Z"  horiz-adv-x="293" vert-adv-y="1000"  />

      
      <glyph glyph-name="unib4" unicode="&#xb4;" d="M279 700L141 556L67 556L178 700L279 700Z"  horiz-adv-x="178" vert-adv-y="1000"  />

      
      <glyph glyph-name="unib5" unicode="&#xb5;" d="M106 4L65-184L-49-184L99 483L212 483L135 137Q130 114 137.50 100.50Q145 87 163 87Q204 87 240 149L314 483L428 483L348 127Q340 88 365 88Q372 88 380 90L368-5Q340-12 314-12Q268-12 251 8Q234 28 236 74Q220 34 194.50 11Q169-12 143-12Q120-12 106 4Z"  horiz-adv-x="432" vert-adv-y="1000"  />

      
      <glyph glyph-name="unib6" unicode="&#xb6;" d="M319-100L261-100L419 609L338 609L179-100L122-100L216 323Q159 323 119 367.50Q79 412 79 479Q79 552 135.50 609.50Q192 667 273 667L489 667L319-100Z"  horiz-adv-x="449" vert-adv-y="1000"  />

      
      <glyph glyph-name="unib7" unicode="&#xb7;" d="M117 170Q89 170 69.50 190Q50 210 50 238Q50 271 74 295Q98 319 131 319Q159 319 178.50 299Q198 279 198 251Q198 218 174 194Q150 170 117 170Z"  horiz-adv-x="248" vert-adv-y="1000"  />

      
      <glyph glyph-name="unib8" unicode="&#xb8;" d="M4-195Q-53-195-89-156L-58-112Q-34-144 4-144Q22-144 34-132.50Q46-121 46-105Q46-82 24-82Q10-82 0-95L-38-71L12 11L69 11L29-53Q39-43 53-43Q75-43 89.50-59Q104-75 104-101Q104-141 75.50-168Q47-195 4-195Z"  horiz-adv-x="182" vert-adv-y="1000"  />

      
      <glyph glyph-name="unib9" unicode="&#xb9;" d="M240 421L153 421L216 707L150 652L110 703L253 821L328 821L240 421Z"  horiz-adv-x="244" vert-adv-y="1000"  />

      
      <glyph glyph-name="uniba" unicode="&#xba;" d="M185 318Q130 318 100.50 351Q71 384 71 439Q71 514 114 581Q157 648 228 648Q283 648 312.50 615Q342 582 342 527Q342 452 299 385Q256 318 185 318M189 385Q221 385 240 438Q259 491 259 531Q259 580 223 580Q191 580 172.50 527Q154 474 154 434Q154 385 189 385Z"  horiz-adv-x="308" vert-adv-y="1000"  />

      
      <glyph glyph-name="unibb" unicode="&#xbb;" d="M73 420L159 420L209 240L79 63L-11 63L122 244L73 420M220 420L306 420L356 240L226 63L136 63L269 244L220 420Z"  horiz-adv-x="385" vert-adv-y="1000"  />

      
      <glyph glyph-name="unibc" unicode="&#xbc;" d="M206 267L119 267L182 553L116 498L76 549L219 667L294 667L206 267M601 90L567 90L548 0L462 0L481 90L334 90L348 157L532 400L636 400L583 158L616 158L601 90M496 158L529 302L422 158L496 158M581 667L155 0L105 0L530 667L581 667Z"  horiz-adv-x="648" vert-adv-y="1000"  />

      
      <glyph glyph-name="unibd" unicode="&#xbd;" d="M206 267L119 267L182 553L116 498L76 549L219 667L294 667L206 267M612 0L364 0L379 68Q509 177 549 220Q589 263 589 296Q589 315 577 326Q565 337 544 337Q502 337 467 292L425 347Q479 406 551 406Q605 406 640.50 379Q676 352 676 304Q676 254 636.50 208.50Q597 163 485 69L627 69L612 0M581 667L155 0L105 0L530 667L581 667Z"  horiz-adv-x="683" vert-adv-y="1000"  />

      
      <glyph glyph-name="unibe" unicode="&#xbe;" d="M637 90L603 90L584 0L498 0L517 90L370 90L384 157L568 400L672 400L619 158L652 158L637 90M532 158L565 302L458 158L532 158M617 667L191 0L141 0L566 667L617 667M306 387Q306 338 268.50 299Q231 260 171 260Q125 260 89.50 278.50Q54 297 38 330L102 378Q120 329 167 329Q193 329 208 350Q223 371 223 397Q223 437 179 437Q156 437 150 436L165 505Q170 504 197 504Q224 504 240.50 520.50Q257 537 257 564Q257 583 244.50 593.50Q232 604 211 604Q170 604 139 565L95 613Q147 673 219 673Q276 673 309.50 648Q343 623 343 577Q343 539 317.50 506Q292 473 249 467Q306 451 306 387Z"  horiz-adv-x="684" vert-adv-y="1000"  />

      
      <glyph glyph-name="unibf" unicode="&#xbf;" d="M113 249L216 283Q225 259 225 222Q225 184 210 151Q195 118 173.50 95Q152 72 130.50 51.50Q109 31 94 8Q79-15 79-39Q79-60 91.50-74.50Q104-89 125-89Q156-89 182-67L217-148Q159-195 87-195Q27-195-13-160Q-53-125-53-73Q-53-33-35.50 3Q-18 39 7.50 64.50Q33 90 58.50 113.50Q84 137 101.50 162.50Q119 188 119 213Q119 234 113 249M206 494Q234 494 253.50 474Q273 454 273 426Q273 393 249 369.50Q225 346 192 346Q164 346 144.50 366Q125 386 125 414Q125 447 149 470.50Q173 494 206 494Z"  horiz-adv-x="287" vert-adv-y="1000"  />

      
      <glyph glyph-name="unic0" unicode="&#xc0;" d="M370 0L244 0L251 123L125 123L79 0L-54 0L232 667L377 667L370 0M260 234L277 526L165 234L260 234M362 723L290 723L216 867L314 867L362 723Z"  horiz-adv-x="424" vert-adv-y="1000"  />

      
      <glyph glyph-name="unic1" unicode="&#xc1;" d="M370 0L244 0L251 123L125 123L79 0L-54 0L232 667L377 667L370 0M260 234L277 526L165 234L260 234M483 867L345 723L271 723L382 867L483 867Z"  horiz-adv-x="424" vert-adv-y="1000"  />

      
      <glyph glyph-name="unic2" unicode="&#xc2;" d="M433 723L373 723L338 815L268 723L203 723L298 867L400 867L433 723M370 0L244 0L251 123L125 123L79 0L-54 0L232 667L377 667L370 0M260 234L277 526L165 234L260 234Z"  horiz-adv-x="424" vert-adv-y="1000"  />

      
      <glyph glyph-name="unic3" unicode="&#xc3;" d="M370 0L244 0L251 123L125 123L79 0L-54 0L232 667L377 667L370 0M260 234L277 526L165 234L260 234M370 721Q349 721 336 732.50Q323 744 319 758Q315 772 307.50 783.50Q300 795 289 795Q265 795 251 727L191 727Q221 861 295 861Q316 861 329 849.50Q342 838 346.50 824Q351 810 358.50 798.50Q366 787 377 787Q399 787 415 855L475 855Q445 721 370 721Z"  horiz-adv-x="424" vert-adv-y="1000"  />

      
      <glyph glyph-name="unic4" unicode="&#xc4;" d="M473 783Q473 756 452 735.50Q431 715 403 715Q380 715 364.50 730.50Q349 746 349 770Q349 796 370 817Q391 838 418 838Q441 838 457 822Q473 806 473 783M311 783Q311 756 289.50 735.50Q268 715 241 715Q218 715 202 730.50Q186 746 186 770Q186 796 207 817Q228 838 256 838Q279 838 295 822Q311 806 311 783M370 0L244 0L251 123L125 123L79 0L-54 0L232 667L377 667L370 0M260 234L277 526L165 234L260 234Z"  horiz-adv-x="424" vert-adv-y="1000"  />

      
      <glyph glyph-name="unic5" unicode="&#xc5;" d="M370 0L244 0L251 123L125 123L79 0L-54 0L232 667L377 667L370 0M260 234L277 526L165 234L260 234M321 691Q286 691 263.50 714Q241 737 241 772Q241 812 271 841.50Q301 871 340 871Q375 871 397.50 848Q420 825 420 790Q420 751 390 721Q360 691 321 691M326 741Q344 741 357.50 754.50Q371 768 371 786Q371 801 361 811.50Q351 822 337 822Q319 822 305.50 808.50Q292 795 292 777Q292 762 301.50 751.50Q311 741 326 741Z"  horiz-adv-x="424" vert-adv-y="1000"  />

      
      <glyph glyph-name="unic6" unicode="&#xc6;" d="M522 0L230 0L257 123L146 123L83 0L-49 0L322 667L669 667L644 556L479 556L443 395L602 395L578 284L419 284L381 111L546 111L522 0M282 234L344 514L201 234L282 234Z"  horiz-adv-x="607" vert-adv-y="1000"  />

      
      <glyph glyph-name="unic7" unicode="&#xc7;" d="M153-195Q96-195 60-156L91-112Q115-144 153-144Q171-144 183-132.50Q195-121 195-105Q195-82 173-82Q159-82 149-95L111-71L151-5Q92 11 61 63.50Q30 116 30 200Q30 249 39.50 309Q49 369 71 435Q93 501 124.50 554.50Q156 608 205.50 643Q255 678 313 678Q394 678 433 623Q472 568 475 487L358 465Q353 566 305 566Q262 566 226.50 492.50Q191 419 175 336.50Q159 254 159 197Q159 100 210 100Q252 100 293 181L394 139Q323-12 203-12L178-53Q188-43 202-43Q224-43 238.50-59Q253-75 253-101Q253-141 224.50-168Q196-195 153-195Z"  horiz-adv-x="429" vert-adv-y="1000"  />

      
      <glyph glyph-name="unic8" unicode="&#xc8;" d="M290 0L-2 0L145 667L437 667L413 556L247 556L211 395L370 395L345 284L187 284L148 111L314 111L290 0M348 723L276 723L202 867L300 867L348 723Z"  horiz-adv-x="378" vert-adv-y="1000"  />

      
      <glyph glyph-name="unic9" unicode="&#xc9;" d="M470 867L332 723L258 723L369 867L470 867M290 0L-2 0L145 667L437 667L413 556L247 556L211 395L370 395L345 284L187 284L148 111L314 111L290 0Z"  horiz-adv-x="378" vert-adv-y="1000"  />

      
      <glyph glyph-name="unica" unicode="&#xca;" d="M420 723L360 723L325 815L255 723L190 723L285 867L387 867L420 723M290 0L-2 0L145 667L437 667L413 556L247 556L211 395L370 395L345 284L187 284L148 111L314 111L290 0Z"  horiz-adv-x="378" vert-adv-y="1000"  />

      
      <glyph glyph-name="unicb" unicode="&#xcb;" d="M459 783Q459 756 438 735.50Q417 715 389 715Q366 715 350.50 730.50Q335 746 335 770Q335 796 356 817Q377 838 404 838Q427 838 443 822Q459 806 459 783M297 783Q297 756 275.50 735.50Q254 715 227 715Q204 715 188 730.50Q172 746 172 770Q172 796 193 817Q214 838 242 838Q265 838 281 822Q297 806 297 783M290 0L-2 0L145 667L437 667L413 556L247 556L211 395L370 395L345 284L187 284L148 111L314 111L290 0Z"  horiz-adv-x="378" vert-adv-y="1000"  />

      
      <glyph glyph-name="unicc" unicode="&#xcc;" d="M124 0L-2 0L145 667L271 667L124 0M264 723L192 723L118 867L216 867L264 723Z"  horiz-adv-x="230" vert-adv-y="1000"  />

      
      <glyph glyph-name="unicd" unicode="&#xcd;" d="M124 0L-2 0L145 667L271 667L124 0M386 867L248 723L174 723L285 867L386 867Z"  horiz-adv-x="230" vert-adv-y="1000"  />

      
      <glyph glyph-name="unice" unicode="&#xce;" d="M336 723L276 723L241 815L171 723L106 723L201 867L303 867L336 723M124 0L-2 0L145 667L271 667L124 0Z"  horiz-adv-x="230" vert-adv-y="1000"  />

      
      <glyph glyph-name="unicf" unicode="&#xcf;" d="M376 783Q376 756 355 735.50Q334 715 306 715Q283 715 267.50 730.50Q252 746 252 770Q252 796 273 817Q294 838 321 838Q344 838 360 822Q376 806 376 783M214 783Q214 756 192.50 735.50Q171 715 144 715Q121 715 105 730.50Q89 746 89 770Q89 796 110 817Q131 838 159 838Q182 838 198 822Q214 806 214 783M124 0L-2 0L145 667L271 667L124 0Z"  horiz-adv-x="230" vert-adv-y="1000"  />

      
      <glyph glyph-name="unid0" unicode="&#xd0;" d="M188 0L21 0L83 283L24 283L47 384L105 384L168 667L331 667Q401 667 450.50 610.50Q500 554 500 450Q500 414 493.50 370.50Q487 327 473.50 274.50Q460 222 435.50 174.50Q411 127 378 87.50Q345 48 296 24Q247 0 188 0M279 283L209 283L171 111L210 111Q251 111 284.50 151.50Q318 192 336 250Q354 308 363 360.50Q372 413 372 448Q372 502 353.50 529Q335 556 307 556L270 556L232 384L301 384L279 283Z"  horiz-adv-x="498" vert-adv-y="1000"  />

      
      <glyph glyph-name="unid1" unicode="&#xd1;" d="M401 721Q380 721 367 732.50Q354 744 350 758Q346 772 338.50 783.50Q331 795 320 795Q296 795 282 727L222 727Q252 861 326 861Q347 861 360 849.50Q373 838 377.50 824Q382 810 389.50 798.50Q397 787 408 787Q430 787 446 855L506 855Q476 721 401 721M378 0L259 0L205 370L124 0L-2 0L145 667L271 667L320 312L399 667L525 667L378 0Z"  horiz-adv-x="484" vert-adv-y="1000"  />

      
      <glyph glyph-name="unid2" unicode="&#xd2;" d="M388 723L316 723L242 867L340 867L388 723M203-12Q117-12 73.50 47Q30 106 30 200Q30 263 46.50 340Q63 417 95 495Q127 573 184.50 625.50Q242 678 313 678Q399 678 442.50 618Q486 558 486 464Q486 401 469.50 324Q453 247 421 169.50Q389 92 331.50 40Q274-12 203-12M210 100Q242 100 271 142.50Q300 185 318 245Q336 305 346.50 365.50Q357 426 357 467Q357 566 305 566Q273 566 244 523.50Q215 481 197 420.50Q179 360 169 299.50Q159 239 159 197Q159 100 210 100Z"  horiz-adv-x="478" vert-adv-y="1000"  />

      
      <glyph glyph-name="unid3" unicode="&#xd3;" d="M511 867L373 723L299 723L410 867L511 867M203-12Q117-12 73.50 47Q30 106 30 200Q30 263 46.50 340Q63 417 95 495Q127 573 184.50 625.50Q242 678 313 678Q399 678 442.50 618Q486 558 486 464Q486 401 469.50 324Q453 247 421 169.50Q389 92 331.50 40Q274-12 203-12M210 100Q242 100 271 142.50Q300 185 318 245Q336 305 346.50 365.50Q357 426 357 467Q357 566 305 566Q273 566 244 523.50Q215 481 197 420.50Q179 360 169 299.50Q159 239 159 197Q159 100 210 100Z"  horiz-adv-x="478" vert-adv-y="1000"  />

      
      <glyph glyph-name="unid4" unicode="&#xd4;" d="M460 723L400 723L365 815L295 723L230 723L325 867L427 867L460 723M203-12Q117-12 73.50 47Q30 106 30 200Q30 263 46.50 340Q63 417 95 495Q127 573 184.50 625.50Q242 678 313 678Q399 678 442.50 618Q486 558 486 464Q486 401 469.50 324Q453 247 421 169.50Q389 92 331.50 40Q274-12 203-12M210 100Q242 100 271 142.50Q300 185 318 245Q336 305 346.50 365.50Q357 426 357 467Q357 566 305 566Q273 566 244 523.50Q215 481 197 420.50Q179 360 169 299.50Q159 239 159 197Q159 100 210 100Z"  horiz-adv-x="478" vert-adv-y="1000"  />

      
      <glyph glyph-name="unid5" unicode="&#xd5;" d="M203-12Q117-12 73.50 47Q30 106 30 200Q30 263 46.50 340Q63 417 95 495Q127 573 184.50 625.50Q242 678 313 678Q399 678 442.50 618Q486 558 486 464Q486 401 469.50 324Q453 247 421 169.50Q389 92 331.50 40Q274-12 203-12M210 100Q242 100 271 142.50Q300 185 318 245Q336 305 346.50 365.50Q357 426 357 467Q357 566 305 566Q273 566 244 523.50Q215 481 197 420.50Q179 360 169 299.50Q159 239 159 197Q159 100 210 100M397 721Q376 721 363 732.50Q350 744 346 758Q342 772 334.50 783.50Q327 795 316 795Q292 795 278 727L218 727Q248 861 322 861Q343 861 356 849.50Q369 838 373.50 824Q378 810 385.50 798.50Q393 787 404 787Q426 787 442 855L502 855Q472 721 397 721Z"  horiz-adv-x="478" vert-adv-y="1000"  />

      
      <glyph glyph-name="unid6" unicode="&#xd6;" d="M500 783Q500 756 479 735.50Q458 715 430 715Q407 715 391.50 730.50Q376 746 376 770Q376 796 397 817Q418 838 445 838Q468 838 484 822Q500 806 500 783M338 783Q338 756 316.50 735.50Q295 715 268 715Q245 715 229 730.50Q213 746 213 770Q213 796 234 817Q255 838 283 838Q306 838 322 822Q338 806 338 783M203-12Q117-12 73.50 47Q30 106 30 200Q30 263 46.50 340Q63 417 95 495Q127 573 184.50 625.50Q242 678 313 678Q399 678 442.50 618Q486 558 486 464Q486 401 469.50 324Q453 247 421 169.50Q389 92 331.50 40Q274-12 203-12M210 100Q242 100 271 142.50Q300 185 318 245Q336 305 346.50 365.50Q357 426 357 467Q357 566 305 566Q273 566 244 523.50Q215 481 197 420.50Q179 360 169 299.50Q159 239 159 197Q159 100 210 100Z"  horiz-adv-x="478" vert-adv-y="1000"  />

      
      <glyph glyph-name="unid7" unicode="&#xd7;" d="M281 185L204 283L79 181L35 236L162 339L85 437L141 483L217 385L343 488L387 432L262 329L337 231L281 185Z"  horiz-adv-x="383" vert-adv-y="1000"  />

      
      <glyph glyph-name="unid8" unicode="&#xd8;" d="M203-12Q128-12 85 33L62 0L-12 0L50 88Q30 134 30 200Q30 263 46.50 340Q63 417 95 495Q127 573 184.50 625.50Q242 678 313 678Q386 678 431 631L456 667L529 667L466 577Q486 526 486 464Q486 401 469.50 324Q453 247 421 169.50Q389 92 331.50 40Q274-12 203-12M305 566Q268 566 235.50 510Q203 454 186 384.50Q169 315 162 247L352 518Q341 566 305 566M210 100Q246 100 278.50 155.50Q311 211 329 280.50Q347 350 354 417L164 145Q175 100 210 100Z"  horiz-adv-x="478" vert-adv-y="1000"  />

      
      <glyph glyph-name="unid9" unicode="&#xd9;" d="M209-12Q135-12 86 33.50Q37 79 37 154Q37 175 42 198L145 667L271 667L165 187Q162 166 162 158Q162 130 177.50 114.50Q193 99 218 99Q275 99 294 187L399 667L525 667L421 193Q398 89 342 38.50Q286-12 209-12M391 723L319 723L245 867L343 867L391 723Z"  horiz-adv-x="484" vert-adv-y="1000"  />

      
      <glyph glyph-name="unida" unicode="&#xda;" d="M513 867L375 723L301 723L412 867L513 867M209-12Q135-12 86 33.50Q37 79 37 154Q37 175 42 198L145 667L271 667L165 187Q162 166 162 158Q162 130 177.50 114.50Q193 99 218 99Q275 99 294 187L399 667L525 667L421 193Q398 89 342 38.50Q286-12 209-12Z"  horiz-adv-x="484" vert-adv-y="1000"  />

      
      <glyph glyph-name="unidb" unicode="&#xdb;" d="M464 723L404 723L369 815L299 723L234 723L329 867L431 867L464 723M209-12Q135-12 86 33.50Q37 79 37 154Q37 175 42 198L145 667L271 667L165 187Q162 166 162 158Q162 130 177.50 114.50Q193 99 218 99Q275 99 294 187L399 667L525 667L421 193Q398 89 342 38.50Q286-12 209-12Z"  horiz-adv-x="484" vert-adv-y="1000"  />

      
      <glyph glyph-name="unidc" unicode="&#xdc;" d="M502 783Q502 756 481 735.50Q460 715 432 715Q409 715 393.50 730.50Q378 746 378 770Q378 796 399 817Q420 838 447 838Q470 838 486 822Q502 806 502 783M340 783Q340 756 318.50 735.50Q297 715 270 715Q247 715 231 730.50Q215 746 215 770Q215 796 236 817Q257 838 285 838Q308 838 324 822Q340 806 340 783M209-12Q135-12 86 33.50Q37 79 37 154Q37 175 42 198L145 667L271 667L165 187Q162 166 162 158Q162 130 177.50 114.50Q193 99 218 99Q275 99 294 187L399 667L525 667L421 193Q398 89 342 38.50Q286-12 209-12Z"  horiz-adv-x="484" vert-adv-y="1000"  />

      
      <glyph glyph-name="unidd" unicode="&#xdd;" d="M224 0L99 0L159 276L89 667L217 667L243 398L389 667L527 667L285 276L224 0M488 867L350 723L276 723L387 867L488 867Z"  horiz-adv-x="430" vert-adv-y="1000"  />

      
      <glyph glyph-name="unide" unicode="&#xde;" d="M124 0L-2 0L145 667L271 667L247 556L286 556Q356 556 400.50 509Q445 462 445 387Q445 325 421.50 269.50Q398 214 342 174Q286 134 206 134L154 134L124 0M216 245Q260 245 287 284Q314 323 314 375Q314 408 298.50 427Q283 446 257 446L222 446L178 245L216 245Z"  horiz-adv-x="441" vert-adv-y="1000"  />

      
      <glyph glyph-name="unidf" unicode="&#xdf;" d="M483 156Q483 92 436.50 40Q390-12 316-12Q214-12 162 57L219 130Q253 79 303 79Q326 79 343 96Q360 113 360 138Q360 154 347 169Q334 184 316 197.50Q298 211 280 226.50Q262 242 249 266.50Q236 291 236 321Q236 356 250 383Q264 410 284 426Q304 442 324 456Q344 470 358 487Q372 504 372 525Q372 548 354 562.50Q336 577 305 577Q238 577 218 490L110 0L-2 0L105 490Q124 575 178 626Q232 677 314 677Q387 677 438 637.50Q489 598 489 537Q489 508 479 484.50Q469 461 453.50 446Q438 431 420 417Q402 403 386.50 392.50Q371 382 361 369Q351 356 351 341Q351 325 364.50 311Q378 297 397.50 284Q417 271 436.50 255.50Q456 240 469.50 214Q483 188 483 156Z"  horiz-adv-x="517" vert-adv-y="1000"  />

      
      <glyph glyph-name="unie0" unicode="&#xe0;" d="M208 495Q283 495 304 421L318 483L430 483L323 0L210 0L224 58Q178-12 121-12Q69-12 41.50 27.50Q14 67 14 142Q14 211 34 289.50Q54 368 100.50 431.50Q147 495 208 495M234 395Q201 395 176 348.50Q151 302 141 249.50Q131 197 131 157Q131 88 179 88Q215 88 243 145L286 337Q282 363 267.50 379Q253 395 234 395M322 556L250 556L176 700L274 700L322 556Z"  horiz-adv-x="423" vert-adv-y="1000"  />

      
      <glyph glyph-name="unie1" unicode="&#xe1;" d="M208 495Q283 495 304 421L318 483L430 483L323 0L210 0L224 58Q178-12 121-12Q69-12 41.50 27.50Q14 67 14 142Q14 211 34 289.50Q54 368 100.50 431.50Q147 495 208 495M234 395Q201 395 176 348.50Q151 302 141 249.50Q131 197 131 157Q131 88 179 88Q215 88 243 145L286 337Q282 363 267.50 379Q253 395 234 395M443 700L305 556L231 556L342 700L443 700Z"  horiz-adv-x="423" vert-adv-y="1000"  />

      
      <glyph glyph-name="unie2" unicode="&#xe2;" d="M208 495Q283 495 304 421L318 483L430 483L323 0L210 0L224 58Q178-12 121-12Q69-12 41.50 27.50Q14 67 14 142Q14 211 34 289.50Q54 368 100.50 431.50Q147 495 208 495M234 395Q201 395 176 348.50Q151 302 141 249.50Q131 197 131 157Q131 88 179 88Q215 88 243 145L286 337Q282 363 267.50 379Q253 395 234 395M393 556L333 556L298 648L228 556L163 556L258 700L360 700L393 556Z"  horiz-adv-x="423" vert-adv-y="1000"  />

      
      <glyph glyph-name="unie3" unicode="&#xe3;" d="M208 495Q283 495 304 421L318 483L430 483L323 0L210 0L224 58Q178-12 121-12Q69-12 41.50 27.50Q14 67 14 142Q14 211 34 289.50Q54 368 100.50 431.50Q147 495 208 495M234 395Q201 395 176 348.50Q151 302 141 249.50Q131 197 131 157Q131 88 179 88Q215 88 243 145L286 337Q282 363 267.50 379Q253 395 234 395M330 554Q309 554 296 565.50Q283 577 279 591Q275 605 267.50 616.50Q260 628 249 628Q225 628 211 560L151 560Q181 694 255 694Q276 694 289 682.50Q302 671 306.50 657Q311 643 318.50 631.50Q326 620 337 620Q359 620 375 688L435 688Q405 554 330 554Z"  horiz-adv-x="423" vert-adv-y="1000"  />

      
      <glyph glyph-name="unie4" unicode="&#xe4;" d="M208 495Q283 495 304 421L318 483L430 483L323 0L210 0L224 58Q178-12 121-12Q69-12 41.50 27.50Q14 67 14 142Q14 211 34 289.50Q54 368 100.50 431.50Q147 495 208 495M234 395Q201 395 176 348.50Q151 302 141 249.50Q131 197 131 157Q131 88 179 88Q215 88 243 145L286 337Q282 363 267.50 379Q253 395 234 395M432 616Q432 589 411 568.50Q390 548 362 548Q339 548 323.50 563.50Q308 579 308 603Q308 629 329 650Q350 671 377 671Q400 671 416 655Q432 639 432 616M270 616Q270 589 248.50 568.50Q227 548 200 548Q177 548 161 563.50Q145 579 145 603Q145 629 166 650Q187 671 215 671Q238 671 254 655Q270 639 270 616Z"  horiz-adv-x="423" vert-adv-y="1000"  />

      
      <glyph glyph-name="unie5" unicode="&#xe5;" d="M208 495Q283 495 304 421L318 483L430 483L323 0L210 0L224 58Q178-12 121-12Q69-12 41.50 27.50Q14 67 14 142Q14 211 34 289.50Q54 368 100.50 431.50Q147 495 208 495M234 395Q201 395 176 348.50Q151 302 141 249.50Q131 197 131 157Q131 88 179 88Q215 88 243 145L286 337Q282 363 267.50 379Q253 395 234 395M283 529Q248 529 225.50 552Q203 575 203 610Q203 650 233 679.50Q263 709 302 709Q337 709 359.50 686Q382 663 382 628Q382 589 352 559Q322 529 283 529M288 579Q306 579 319.50 592.50Q333 606 333 624Q333 639 323 649.50Q313 660 299 660Q281 660 267.50 646.50Q254 633 254 615Q254 600 263.50 589.50Q273 579 288 579Z"  horiz-adv-x="423" vert-adv-y="1000"  />

      
      <glyph glyph-name="unie6" unicode="&#xe6;" d="M234 395Q201 395 176 348.50Q151 302 141 249.50Q131 197 131 157Q131 88 179 88Q215 88 243 145L286 337Q282 363 267.50 379Q253 395 234 395M341 80L323 0L210 0L224 58Q178-12 121-12Q69-12 41.50 27.50Q14 67 14 142Q14 211 34 289.50Q54 368 100.50 431.50Q147 495 208 495Q283 495 304 421L318 483L430 483L419 429Q463 495 523 495Q633 493 633 339Q633 276 614 204L370 204Q366 185 366 163Q366 129 386.50 105.50Q407 82 449 82Q491 82 531 125L570 46Q517-12 451-12Q358-12 341 80M387 284L525 284Q531 309 531 333Q531 364 517 383.50Q503 403 478 403Q441 403 417.50 366Q394 329 387 284Z"  horiz-adv-x="648" vert-adv-y="1000"  />

      
      <glyph glyph-name="unie7" unicode="&#xe7;" d="M128-195Q71-195 35-156L66-112Q90-144 128-144Q146-144 158-132.50Q170-121 170-105Q170-82 148-82Q134-82 124-95L86-71L126-5Q17 25 17 168Q17 243 43 316.50Q69 390 123.50 442.50Q178 495 247 495Q325 495 369 446L315 361Q295 395 256 395Q203 395 168.50 324Q134 253 134 180Q134 88 205 88Q237 88 264 115L283 25Q240-12 179-12L178-12L153-53Q163-43 177-43Q199-43 213.50-59Q228-75 228-101Q228-141 199.50-168Q171-195 128-195Z"  horiz-adv-x="344" vert-adv-y="1000"  />

      
      <glyph glyph-name="unie8" unicode="&#xe8;" d="M182-12Q104-12 60.50 35.50Q17 83 17 170Q17 217 31 271Q45 325 71.50 376Q98 427 142.50 461Q187 495 241 495Q316 495 353 452Q390 409 390 330Q390 285 371 204L126 204Q121 186 121 163Q121 129 140.50 104.50Q160 80 203 80Q246 80 286 122L326 52Q265-12 182-12M141 284L282 284Q288 316 288 333Q288 364 273 383.50Q258 403 233 403Q196 403 172.50 366.50Q149 330 141 284M325 556L253 556L179 700L277 700L325 556Z"  horiz-adv-x="404" vert-adv-y="1000"  />

      
      <glyph glyph-name="unie9" unicode="&#xe9;" d="M448 700L310 556L236 556L347 700L448 700M182-12Q104-12 60.50 35.50Q17 83 17 170Q17 217 31 271Q45 325 71.50 376Q98 427 142.50 461Q187 495 241 495Q316 495 353 452Q390 409 390 330Q390 285 371 204L126 204Q121 186 121 163Q121 129 140.50 104.50Q160 80 203 80Q246 80 286 122L326 52Q265-12 182-12M141 284L282 284Q288 316 288 333Q288 364 273 383.50Q258 403 233 403Q196 403 172.50 366.50Q149 330 141 284Z"  horiz-adv-x="404" vert-adv-y="1000"  />

      
      <glyph glyph-name="uniea" unicode="&#xea;" d="M396 556L336 556L301 648L231 556L166 556L261 700L363 700L396 556M182-12Q104-12 60.50 35.50Q17 83 17 170Q17 217 31 271Q45 325 71.50 376Q98 427 142.50 461Q187 495 241 495Q316 495 353 452Q390 409 390 330Q390 285 371 204L126 204Q121 186 121 163Q121 129 140.50 104.50Q160 80 203 80Q246 80 286 122L326 52Q265-12 182-12M141 284L282 284Q288 316 288 333Q288 364 273 383.50Q258 403 233 403Q196 403 172.50 366.50Q149 330 141 284Z"  horiz-adv-x="404" vert-adv-y="1000"  />

      
      <glyph glyph-name="unieb" unicode="&#xeb;" d="M436 616Q436 589 415 568.50Q394 548 366 548Q343 548 327.50 563.50Q312 579 312 603Q312 629 333 650Q354 671 381 671Q404 671 420 655Q436 639 436 616M274 616Q274 589 252.50 568.50Q231 548 204 548Q181 548 165 563.50Q149 579 149 603Q149 629 170 650Q191 671 219 671Q242 671 258 655Q274 639 274 616M182-12Q104-12 60.50 35.50Q17 83 17 170Q17 217 31 271Q45 325 71.50 376Q98 427 142.50 461Q187 495 241 495Q316 495 353 452Q390 409 390 330Q390 285 371 204L126 204Q121 186 121 163Q121 129 140.50 104.50Q160 80 203 80Q246 80 286 122L326 52Q265-12 182-12M141 284L282 284Q288 316 288 333Q288 364 273 383.50Q258 403 233 403Q196 403 172.50 366.50Q149 330 141 284Z"  horiz-adv-x="404" vert-adv-y="1000"  />

      
      <glyph glyph-name="uniec" unicode="&#xec;" d="M105 0L-9 0L99 483L212 483L105 0M215 556L143 556L69 700L167 700L215 556Z"  horiz-adv-x="204" vert-adv-y="1000"  />

      
      <glyph glyph-name="unied" unicode="&#xed;" d="M337 700L199 556L125 556L236 700L337 700M105 0L-9 0L99 483L212 483L105 0Z"  horiz-adv-x="204" vert-adv-y="1000"  />

      
      <glyph glyph-name="uniee" unicode="&#xee;" d="M287 556L227 556L192 648L122 556L57 556L152 700L254 700L287 556M105 0L-9 0L99 483L212 483L105 0Z"  horiz-adv-x="204" vert-adv-y="1000"  />

      
      <glyph glyph-name="unief" unicode="&#xef;" d="M326 616Q326 589 305 568.50Q284 548 256 548Q233 548 217.50 563.50Q202 579 202 603Q202 629 223 650Q244 671 271 671Q294 671 310 655Q326 639 326 616M164 616Q164 589 142.50 568.50Q121 548 94 548Q71 548 55 563.50Q39 579 39 603Q39 629 60 650Q81 671 109 671Q132 671 148 655Q164 639 164 616M105 0L-9 0L99 483L212 483L105 0Z"  horiz-adv-x="204" vert-adv-y="1000"  />

      
      <glyph glyph-name="unif0" unicode="&#xf0;" d="M192 500L180 555L283 586Q273 638 261 667L372 702Q384 664 395 619L463 639L475 585L406 564Q415 498 415 429Q415 373 407.50 315Q400 257 381.50 197.50Q363 138 336.50 92Q310 46 268.50 17Q227-12 177-12Q97-12 56 34Q15 80 15 160Q15 225 37.50 293.50Q60 362 106.50 413.50Q153 465 212 465Q249 465 272.50 443.50Q296 422 303 386Q301 464 292 530L192 500M180 88Q209 88 233 126Q257 164 268 210Q279 256 279 294Q279 323 267 344.50Q255 366 228 366Q198 366 174.50 326.50Q151 287 140.50 241.50Q130 196 130 161Q130 88 180 88Z"  horiz-adv-x="417" vert-adv-y="1000"  />

      
      <glyph glyph-name="unif1" unicode="&#xf1;" d="M321 0L207 0L284 343Q284 345 285 353Q286 361 286 363Q286 395 256 395Q216 395 177 331L105 0L-9 0L99 483L212 483L198 423Q251 495 320 495Q361 495 385 473Q409 451 409 414Q409 397 405 385L321 0M332 554Q311 554 298 565.50Q285 577 281 591Q277 605 269.50 616.50Q262 628 251 628Q227 628 213 560L153 560Q183 694 257 694Q278 694 291 682.50Q304 671 308.50 657Q313 643 320.50 631.50Q328 620 339 620Q361 620 377 688L437 688Q407 554 332 554Z"  horiz-adv-x="420" vert-adv-y="1000"  />

      
      <glyph glyph-name="unif2" unicode="&#xf2;" d="M173-12Q97-12 57 34Q17 80 17 165Q17 238 42 312Q67 386 120 440.50Q173 495 242 495Q318 495 358 449Q398 403 398 318Q398 245 373 171Q348 97 295 42.50Q242-12 173-12M180 88Q225 88 254.50 171Q284 254 284 320Q284 395 236 395Q204 395 178.50 349.50Q153 304 142 252Q131 200 131 162Q131 88 180 88M322 556L250 556L176 700L274 700L322 556Z"  horiz-adv-x="417" vert-adv-y="1000"  />

      
      <glyph glyph-name="unif3" unicode="&#xf3;" d="M444 700L306 556L232 556L343 700L444 700M173-12Q97-12 57 34Q17 80 17 165Q17 238 42 312Q67 386 120 440.50Q173 495 242 495Q318 495 358 449Q398 403 398 318Q398 245 373 171Q348 97 295 42.50Q242-12 173-12M180 88Q225 88 254.50 171Q284 254 284 320Q284 395 236 395Q204 395 178.50 349.50Q153 304 142 252Q131 200 131 162Q131 88 180 88Z"  horiz-adv-x="417" vert-adv-y="1000"  />

      
      <glyph glyph-name="unif4" unicode="&#xf4;" d="M394 556L334 556L299 648L229 556L164 556L259 700L361 700L394 556M173-12Q97-12 57 34Q17 80 17 165Q17 238 42 312Q67 386 120 440.50Q173 495 242 495Q318 495 358 449Q398 403 398 318Q398 245 373 171Q348 97 295 42.50Q242-12 173-12M180 88Q225 88 254.50 171Q284 254 284 320Q284 395 236 395Q204 395 178.50 349.50Q153 304 142 252Q131 200 131 162Q131 88 180 88Z"  horiz-adv-x="417" vert-adv-y="1000"  />

      
      <glyph glyph-name="unif5" unicode="&#xf5;" d="M173-12Q97-12 57 34Q17 80 17 165Q17 238 42 312Q67 386 120 440.50Q173 495 242 495Q318 495 358 449Q398 403 398 318Q398 245 373 171Q348 97 295 42.50Q242-12 173-12M180 88Q225 88 254.50 171Q284 254 284 320Q284 395 236 395Q204 395 178.50 349.50Q153 304 142 252Q131 200 131 162Q131 88 180 88M331 554Q310 554 297 565.50Q284 577 280 591Q276 605 268.50 616.50Q261 628 250 628Q226 628 212 560L152 560Q182 694 256 694Q277 694 290 682.50Q303 671 307.50 657Q312 643 319.50 631.50Q327 620 338 620Q360 620 376 688L436 688Q406 554 331 554Z"  horiz-adv-x="417" vert-adv-y="1000"  />

      
      <glyph glyph-name="unif6" unicode="&#xf6;" d="M433 616Q433 589 412 568.50Q391 548 363 548Q340 548 324.50 563.50Q309 579 309 603Q309 629 330 650Q351 671 378 671Q401 671 417 655Q433 639 433 616M271 616Q271 589 249.50 568.50Q228 548 201 548Q178 548 162 563.50Q146 579 146 603Q146 629 167 650Q188 671 216 671Q239 671 255 655Q271 639 271 616M173-12Q97-12 57 34Q17 80 17 165Q17 238 42 312Q67 386 120 440.50Q173 495 242 495Q318 495 358 449Q398 403 398 318Q398 245 373 171Q348 97 295 42.50Q242-12 173-12M180 88Q225 88 254.50 171Q284 254 284 320Q284 395 236 395Q204 395 178.50 349.50Q153 304 142 252Q131 200 131 162Q131 88 180 88Z"  horiz-adv-x="417" vert-adv-y="1000"  />

      
      <glyph glyph-name="unif7" unicode="&#xf7;" d="M358 302L42 302L57 373L373 373L358 302M170 135Q148 135 133 149.50Q118 164 118 186Q118 211 136.50 229.50Q155 248 180 248Q202 248 217 232.50Q232 217 232 196Q232 171 213.50 153Q195 135 170 135M235 425Q213 425 198 440Q183 455 183 477Q183 502 201.50 520Q220 538 245 538Q267 538 282 523Q297 508 297 486Q297 461 278.50 443Q260 425 235 425Z"  horiz-adv-x="374" vert-adv-y="1000"  />

      
      <glyph glyph-name="unif8" unicode="&#xf8;" d="M45 0L-22 0L34 69Q17 109 17 165Q17 238 42 312Q67 386 120 440.50Q173 495 242 495Q309 495 350 457L371 483L437 483L380 413Q398 374 398 318Q398 245 373 171Q348 97 295 42.50Q242-12 173-12Q105-12 65 25L45 0M180 88Q208 88 231 124.50Q254 161 266 205.50Q278 250 282 293L138 115Q149 88 180 88M236 395Q195 395 167.50 328.50Q140 262 132 190L277 367Q266 395 236 395Z"  horiz-adv-x="417" vert-adv-y="1000"  />

      
      <glyph glyph-name="unif9" unicode="&#xf9;" d="M99 483L212 483L136 141Q132 123 132 119Q132 88 163 88Q204 88 240 150L314 483L428 483L321 0L207 0L221 61Q169-12 99-12Q58-12 34 10Q10 32 10 69Q10 86 14 98L99 483M325 556L253 556L179 700L277 700L325 556Z"  horiz-adv-x="420" vert-adv-y="1000"  />

      
      <glyph glyph-name="unifa" unicode="&#xfa;" d="M445 700L307 556L233 556L344 700L445 700M99 483L212 483L136 141Q132 123 132 119Q132 88 163 88Q204 88 240 150L314 483L428 483L321 0L207 0L221 61Q169-12 99-12Q58-12 34 10Q10 32 10 69Q10 86 14 98L99 483Z"  horiz-adv-x="420" vert-adv-y="1000"  />

      
      <glyph glyph-name="unifb" unicode="&#xfb;" d="M395 556L335 556L300 648L230 556L165 556L260 700L362 700L395 556M99 483L212 483L136 141Q132 123 132 119Q132 88 163 88Q204 88 240 150L314 483L428 483L321 0L207 0L221 61Q169-12 99-12Q58-12 34 10Q10 32 10 69Q10 86 14 98L99 483Z"  horiz-adv-x="420" vert-adv-y="1000"  />

      
      <glyph glyph-name="unifc" unicode="&#xfc;" d="M435 616Q435 589 414 568.50Q393 548 365 548Q342 548 326.50 563.50Q311 579 311 603Q311 629 332 650Q353 671 380 671Q403 671 419 655Q435 639 435 616M273 616Q273 589 251.50 568.50Q230 548 203 548Q180 548 164 563.50Q148 579 148 603Q148 629 169 650Q190 671 218 671Q241 671 257 655Q273 639 273 616M99 483L212 483L136 141Q132 123 132 119Q132 88 163 88Q204 88 240 150L314 483L428 483L321 0L207 0L221 61Q169-12 99-12Q58-12 34 10Q10 32 10 69Q10 86 14 98L99 483Z"  horiz-adv-x="420" vert-adv-y="1000"  />

      
      <glyph glyph-name="unifd" unicode="&#xfd;" d="M-54-184L-17-91Q-10-96 6-96Q29-96 47-62L74-8L55 483L171 483L164 143L309 483L432 483L155-85Q122-149 91-172.50Q60-196 15-196Q-28-196-54-184M421 700L283 556L209 556L320 700L421 700Z"  horiz-adv-x="380" vert-adv-y="1000"  />

      
      <glyph glyph-name="unife" unicode="&#xfe;" d="M213-12Q139-12 118 62L64-184L-49-184L139 667L252 667L198 425Q244 495 301 495Q407 495 407 341Q407 291 395 232.50Q383 174 360 118Q337 62 298.50 25Q260-12 213-12M188 88Q220 88 245 134.50Q270 181 280.50 234Q291 287 291 326Q291 395 243 395Q226 395 208 378.50Q190 362 179 338L136 146Q140 120 154 104Q168 88 188 88Z"  horiz-adv-x="423" vert-adv-y="1000"  />

      
      <glyph glyph-name="uniff" unicode="&#xff;" d="M-54-184L-17-91Q-10-96 6-96Q29-96 47-62L74-8L55 483L171 483L164 143L309 483L432 483L155-85Q122-149 91-172.50Q60-196 15-196Q-28-196-54-184M411 616Q411 589 390 568.50Q369 548 341 548Q318 548 302.50 563.50Q287 579 287 603Q287 629 308 650Q329 671 356 671Q379 671 395 655Q411 639 411 616M249 616Q249 589 227.50 568.50Q206 548 179 548Q156 548 140 563.50Q124 579 124 603Q124 629 145 650Q166 671 194 671Q217 671 233 655Q249 639 249 616Z"  horiz-adv-x="380" vert-adv-y="1000"  />

      
      <glyph glyph-name="uni0100" unicode="&#x0100;" d="M370 0L244 0L251 123L125 123L79 0L-54 0L232 667L377 667L370 0M260 234L277 526L165 234L260 234M449 731L191 731L205 797L463 797L449 731Z"  horiz-adv-x="424" vert-adv-y="1000"  />

      
      <glyph glyph-name="uni0101" unicode="&#x0101;" d="M208 495Q283 495 304 421L318 483L430 483L323 0L210 0L224 58Q178-12 121-12Q69-12 41.50 27.50Q14 67 14 142Q14 211 34 289.50Q54 368 100.50 431.50Q147 495 208 495M234 395Q201 395 176 348.50Q151 302 141 249.50Q131 197 131 157Q131 88 179 88Q215 88 243 145L286 337Q282 363 267.50 379Q253 395 234 395M408 564L150 564L164 630L422 630L408 564Z"  horiz-adv-x="423" vert-adv-y="1000"  />

      
      <glyph glyph-name="uni0102" unicode="&#x0102;" d="M370 0L244 0L251 123L125 123L79 0L-54 0L232 667L377 667L370 0M260 234L277 526L165 234L260 234M451 775Q391 712 313 712Q236 712 202 775L261 815Q277 778 324 778Q371 778 403 815L451 775Z"  horiz-adv-x="424" vert-adv-y="1000"  />

      
      <glyph glyph-name="uni0103" unicode="&#x0103;" d="M208 495Q283 495 304 421L318 483L430 483L323 0L210 0L224 58Q178-12 121-12Q69-12 41.50 27.50Q14 67 14 142Q14 211 34 289.50Q54 368 100.50 431.50Q147 495 208 495M234 395Q201 395 176 348.50Q151 302 141 249.50Q131 197 131 157Q131 88 179 88Q215 88 243 145L286 337Q282 363 267.50 379Q253 395 234 395M411 608Q351 545 273 545Q196 545 162 608L221 648Q237 611 284 611Q331 611 363 648L411 608Z"  horiz-adv-x="423" vert-adv-y="1000"  />

      
      <glyph glyph-name="uni0104" unicode="&#x0104;" d="M339-109L380-138Q350-186 303-186Q270-186 250-169.50Q230-153 230-121Q230-58 295 0L244 0L251 123L125 123L79 0L-54 0L232 667L377 667L370 0Q287-53 287-115Q287-137 308-137Q328-137 339-109M260 234L277 526L165 234L260 234Z"  horiz-adv-x="424" vert-adv-y="1000"  />

      
      <glyph glyph-name="uni0105" unicode="&#x0105;" d="M292-109L333-138Q303-186 256-186Q223-186 203-169.50Q183-153 183-121Q183-58 248 0L210 0L224 58Q178-12 121-12Q69-12 41.50 27.50Q14 67 14 142Q14 211 34 289.50Q54 368 100.50 431.50Q147 495 208 495Q283 495 304 421L318 483L430 483L323 0Q240-53 240-115Q240-137 261-137Q282-137 292-109M234 395Q201 395 176 348.50Q151 302 141 249.50Q131 197 131 157Q131 88 179 88Q215 88 243 145L286 337Q282 363 267.50 379Q253 395 234 395Z"  horiz-adv-x="423" vert-adv-y="1000"  />

      
      <glyph glyph-name="uni0106" unicode="&#x0106;" d="M512 872L374 728L300 728L411 872L512 872M203-12Q120-12 75 43.50Q30 99 30 200Q30 249 39.50 309Q49 369 71 435Q93 501 124.50 554.50Q156 608 205.50 643Q255 678 313 678Q394 678 433 623Q472 568 475 487L358 465Q353 566 305 566Q262 566 226.50 492.50Q191 419 175 336.50Q159 254 159 197Q159 100 210 100Q252 100 293 181L394 139Q323-12 203-12Z"  horiz-adv-x="429" vert-adv-y="1000"  />

      
      <glyph glyph-name="uni0107" unicode="&#x0107;" d="M452 700L314 556L240 556L351 700L452 700M179-12Q103-12 60 34.50Q17 81 17 168Q17 243 43 316.50Q69 390 123.50 442.50Q178 495 247 495Q325 495 369 446L315 361Q295 395 256 395Q203 395 168.50 324Q134 253 134 180Q134 88 205 88Q237 88 264 115L283 25Q240-12 179-12Z"  horiz-adv-x="344" vert-adv-y="1000"  />

      
      <glyph glyph-name="uni0108" unicode="&#x0108;" d="M460 723L400 723L365 815L295 723L230 723L325 867L427 867L460 723M203-12Q120-12 75 43.50Q30 99 30 200Q30 249 39.50 309Q49 369 71 435Q93 501 124.50 554.50Q156 608 205.50 643Q255 678 313 678Q394 678 433 623Q472 568 475 487L358 465Q353 566 305 566Q262 566 226.50 492.50Q191 419 175 336.50Q159 254 159 197Q159 100 210 100Q252 100 293 181L394 139Q323-12 203-12Z"  horiz-adv-x="429" vert-adv-y="1000"  />

      
      <glyph glyph-name="uni0109" unicode="&#x0109;" d="M401 556L341 556L306 648L236 556L171 556L266 700L368 700L401 556M179-12Q103-12 60 34.50Q17 81 17 168Q17 243 43 316.50Q69 390 123.50 442.50Q178 495 247 495Q325 495 369 446L315 361Q295 395 256 395Q203 395 168.50 324Q134 253 134 180Q134 88 205 88Q237 88 264 115L283 25Q240-12 179-12Z"  horiz-adv-x="344" vert-adv-y="1000"  />

      
      <glyph glyph-name="uni010A" unicode="&#x010A;" d="M203-12Q120-12 75 43.50Q30 99 30 200Q30 249 39.50 309Q49 369 71 435Q93 501 124.50 554.50Q156 608 205.50 643Q255 678 313 678Q394 678 433 623Q472 568 475 487L358 465Q353 566 305 566Q262 566 226.50 492.50Q191 419 175 336.50Q159 254 159 197Q159 100 210 100Q252 100 293 181L394 139Q323-12 203-12M419 783Q419 755 398 734.50Q377 714 349 714Q325 714 309.50 730Q294 746 294 769Q294 797 315 817.50Q336 838 364 838Q388 838 403.50 822Q419 806 419 783Z"  horiz-adv-x="429" vert-adv-y="1000"  />

      
      <glyph glyph-name="uni010B" unicode="&#x010B;" d="M179-12Q103-12 60 34.50Q17 81 17 168Q17 243 43 316.50Q69 390 123.50 442.50Q178 495 247 495Q325 495 369 446L315 361Q295 395 256 395Q203 395 168.50 324Q134 253 134 180Q134 88 205 88Q237 88 264 115L283 25Q240-12 179-12M360 616Q360 588 339 567.50Q318 547 290 547Q266 547 250.50 563Q235 579 235 602Q235 630 256 650.50Q277 671 305 671Q329 671 344.50 655Q360 639 360 616Z"  horiz-adv-x="344" vert-adv-y="1000"  />

      
      <glyph glyph-name="uni010C" unicode="&#x010C;" d="M399 723L297 723L263 867L324 867L357 775L429 867L493 867L399 723M203-12Q120-12 75 43.50Q30 99 30 200Q30 249 39.50 309Q49 369 71 435Q93 501 124.50 554.50Q156 608 205.50 643Q255 678 313 678Q394 678 433 623Q472 568 475 487L358 465Q353 566 305 566Q262 566 226.50 492.50Q191 419 175 336.50Q159 254 159 197Q159 100 210 100Q252 100 293 181L394 139Q323-12 203-12Z"  horiz-adv-x="429" vert-adv-y="1000"  />

      
      <glyph glyph-name="uni010D" unicode="&#x010D;" d="M338 556L236 556L202 700L263 700L296 608L368 700L432 700L338 556M179-12Q103-12 60 34.50Q17 81 17 168Q17 243 43 316.50Q69 390 123.50 442.50Q178 495 247 495Q325 495 369 446L315 361Q295 395 256 395Q203 395 168.50 324Q134 253 134 180Q134 88 205 88Q237 88 264 115L283 25Q240-12 179-12Z"  horiz-adv-x="344" vert-adv-y="1000"  />

      
      <glyph glyph-name="uni010E" unicode="&#x010E;" d="M405 723L303 723L269 867L330 867L363 775L435 867L499 867L405 723M165 0L-2 0L145 667L308 667Q378 667 427.50 610.50Q477 554 477 450Q477 414 470.50 370.50Q464 327 450.50 274.50Q437 222 412.50 174.50Q388 127 355 87.50Q322 48 273 24Q224 0 165 0M148 111L187 111Q228 111 261.50 151.50Q295 192 313 250Q331 308 340 360.50Q349 413 349 448Q349 502 330.50 529Q312 556 284 556L247 556L148 111Z"  horiz-adv-x="476" vert-adv-y="1000"  />

      
      <glyph glyph-name="uni010F" unicode="&#x010F;" d="M620 619Q620 575 587.50 530.50Q555 486 507 462L474 497Q534 526 553 570Q551 569 544 569Q526 569 512.50 582Q499 595 499 616Q499 642 519 661Q539 680 564 680Q588 680 604 664Q620 648 620 619M208 495Q283 495 304 421L358 667L471 667L323 0L210 0L224 58Q178-12 121-12Q69-12 41.50 27.50Q14 67 14 142Q14 211 34 289.50Q54 368 100.50 431.50Q147 495 208 495M234 395Q201 395 176 348.50Q151 302 141 249.50Q131 197 131 157Q131 88 179 88Q215 88 243 145L286 337Q282 363 267.50 379Q253 395 234 395Z"  horiz-adv-x="536" vert-adv-y="1000"  />

      
      <glyph glyph-name="uni0110" unicode="&#x0110;" d="M188 0L21 0L83 283L24 283L47 384L105 384L168 667L331 667Q401 667 450.50 610.50Q500 554 500 450Q500 414 493.50 370.50Q487 327 473.50 274.50Q460 222 435.50 174.50Q411 127 378 87.50Q345 48 296 24Q247 0 188 0M279 283L209 283L171 111L210 111Q251 111 284.50 151.50Q318 192 336 250Q354 308 363 360.50Q372 413 372 448Q372 502 353.50 529Q335 556 307 556L270 556L232 384L301 384L279 283Z"  horiz-adv-x="498" vert-adv-y="1000"  />

      
      <glyph glyph-name="uni0111" unicode="&#x0111;" d="M208 495Q283 495 304 421L328 531L211 531L226 597L342 597L358 667L471 667L455 597L495 597L481 531L441 531L323 0L210 0L224 58Q178-12 121-12Q69-12 41.50 27.50Q14 67 14 142Q14 211 34 289.50Q54 368 100.50 431.50Q147 495 208 495M234 395Q201 395 176 348.50Q151 302 141 249.50Q131 197 131 157Q131 88 179 88Q215 88 243 145L286 337Q282 363 267.50 379Q253 395 234 395Z"  horiz-adv-x="425" vert-adv-y="1000"  />

      
      <glyph glyph-name="uni0112" unicode="&#x0112;" d="M290 0L-2 0L145 667L437 667L413 556L247 556L211 395L370 395L345 284L187 284L148 111L314 111L290 0M434 731L176 731L190 797L448 797L434 731Z"  horiz-adv-x="378" vert-adv-y="1000"  />

      
      <glyph glyph-name="uni0113" unicode="&#x0113;" d="M182-12Q104-12 60.50 35.50Q17 83 17 170Q17 217 31 271Q45 325 71.50 376Q98 427 142.50 461Q187 495 241 495Q316 495 353 452Q390 409 390 330Q390 285 371 204L126 204Q121 186 121 163Q121 129 140.50 104.50Q160 80 203 80Q246 80 286 122L326 52Q265-12 182-12M141 284L282 284Q288 316 288 333Q288 364 273 383.50Q258 403 233 403Q196 403 172.50 366.50Q149 330 141 284M413 564L155 564L169 630L427 630L413 564Z"  horiz-adv-x="404" vert-adv-y="1000"  />

      
      <glyph glyph-name="uni0114" unicode="&#x0114;" d="M290 0L-2 0L145 667L437 667L413 556L247 556L211 395L370 395L345 284L187 284L148 111L314 111L290 0M437 775Q377 712 299 712Q222 712 188 775L247 815Q263 778 310 778Q357 778 389 815L437 775Z"  horiz-adv-x="378" vert-adv-y="1000"  />

      
      <glyph glyph-name="uni0115" unicode="&#x0115;" d="M182-12Q104-12 60.50 35.50Q17 83 17 170Q17 217 31 271Q45 325 71.50 376Q98 427 142.50 461Q187 495 241 495Q316 495 353 452Q390 409 390 330Q390 285 371 204L126 204Q121 186 121 163Q121 129 140.50 104.50Q160 80 203 80Q246 80 286 122L326 52Q265-12 182-12M141 284L282 284Q288 316 288 333Q288 364 273 383.50Q258 403 233 403Q196 403 172.50 366.50Q149 330 141 284M415 608Q355 545 277 545Q200 545 166 608L225 648Q241 611 288 611Q335 611 367 648L415 608Z"  horiz-adv-x="404" vert-adv-y="1000"  />

      
      <glyph glyph-name="uni0116" unicode="&#x0116;" d="M290 0L-2 0L145 667L437 667L413 556L247 556L211 395L370 395L345 284L187 284L148 111L314 111L290 0M379 787Q379 759 358 738.50Q337 718 309 718Q285 718 269.50 734Q254 750 254 773Q254 801 275 821.50Q296 842 324 842Q348 842 363.50 826Q379 810 379 787Z"  horiz-adv-x="378" vert-adv-y="1000"  />

      
      <glyph glyph-name="uni0117" unicode="&#x0117;" d="M182-12Q104-12 60.50 35.50Q17 83 17 170Q17 217 31 271Q45 325 71.50 376Q98 427 142.50 461Q187 495 241 495Q316 495 353 452Q390 409 390 330Q390 285 371 204L126 204Q121 186 121 163Q121 129 140.50 104.50Q160 80 203 80Q246 80 286 122L326 52Q265-12 182-12M141 284L282 284Q288 316 288 333Q288 364 273 383.50Q258 403 233 403Q196 403 172.50 366.50Q149 330 141 284M356 616Q356 588 335 567.50Q314 547 286 547Q262 547 246.50 563Q231 579 231 602Q231 630 252 650.50Q273 671 301 671Q325 671 340.50 655Q356 639 356 616Z"  horiz-adv-x="404" vert-adv-y="1000"  />

      
      <glyph glyph-name="uni0118" unicode="&#x0118;" d="M290 0Q207-53 207-115Q207-137 228-137Q248-137 259-109L300-138Q270-186 223-186Q190-186 170-169.50Q150-153 150-121Q150-58 215 0L-2 0L145 667L437 667L413 556L247 556L211 395L370 395L345 284L187 284L148 111L314 111L290 0Z"  horiz-adv-x="378" vert-adv-y="1000"  />

      
      <glyph glyph-name="uni0119" unicode="&#x0119;" d="M217-109L258-138Q228-186 181-186Q148-186 128-169.50Q108-153 108-121Q108-63 161-11Q92-5 54.50 42Q17 89 17 170Q17 217 31 271Q45 325 71.50 376Q98 427 142.50 461Q187 495 241 495Q316 495 353 452Q390 409 390 330Q390 285 371 204L126 204Q121 186 121 163Q121 129 140.50 104.50Q160 80 203 80Q246 80 286 122L326 52Q290 15 248 0Q165-53 165-115Q165-137 186-137Q206-137 217-109M141 284L282 284Q288 316 288 333Q288 364 273 383.50Q258 403 233 403Q196 403 172.50 366.50Q149 330 141 284Z"  horiz-adv-x="404" vert-adv-y="1000"  />

      
      <glyph glyph-name="uni011A" unicode="&#x011A;" d="M357 723L255 723L221 867L282 867L315 775L387 867L451 867L357 723M290 0L-2 0L145 667L437 667L413 556L247 556L211 395L370 395L345 284L187 284L148 111L314 111L290 0Z"  horiz-adv-x="378" vert-adv-y="1000"  />

      
      <glyph glyph-name="uni011B" unicode="&#x011B;" d="M335 556L233 556L199 700L260 700L293 608L365 700L429 700L335 556M182-12Q104-12 60.50 35.50Q17 83 17 170Q17 217 31 271Q45 325 71.50 376Q98 427 142.50 461Q187 495 241 495Q316 495 353 452Q390 409 390 330Q390 285 371 204L126 204Q121 186 121 163Q121 129 140.50 104.50Q160 80 203 80Q246 80 286 122L326 52Q265-12 182-12M141 284L282 284Q288 316 288 333Q288 364 273 383.50Q258 403 233 403Q196 403 172.50 366.50Q149 330 141 284Z"  horiz-adv-x="404" vert-adv-y="1000"  />

      
      <glyph glyph-name="uni011C" unicode="&#x011C;" d="M461 723L401 723L366 815L296 723L231 723L326 867L428 867L461 723M203-12Q119-12 74.50 44Q30 100 30 200Q30 253 40 314.50Q50 376 73 441Q96 506 128 558.50Q160 611 208.50 644.50Q257 678 313 678Q392 678 429 628.50Q466 579 469 503L362 477Q358 566 306 566Q274 566 245 524.50Q216 483 198 423Q180 363 169.50 302Q159 241 159 197Q159 145 171 122.50Q183 100 210 100Q243 100 278 144L301 252L226 252L251 363L437 363L378 98Q307-12 203-12Z"  horiz-adv-x="453" vert-adv-y="1000"  />

      
      <glyph glyph-name="uni011D" unicode="&#x011D;" d="M387 548L327 548L292 640L222 548L157 548L252 692L354 692L387 548M120-196Q15-196-37-135L22-49Q56-98 117-98Q188-98 212 8L228 75Q186 5 125 5Q73 5 44.50 42Q16 79 16 151Q16 200 27 256Q38 312 60 367.50Q82 423 121 459Q160 495 209 495Q239 495 268 475.50Q297 456 304 421L318 483L430 483L326 16Q300-101 248-148.50Q196-196 120-196M181 105Q199 105 216.50 121.50Q234 138 246 162L285 337Q281 361 266 378Q251 395 232 395Q187 395 160 318Q133 241 133 174Q133 105 181 105Z"  horiz-adv-x="423" vert-adv-y="1000"  />

      
      <glyph glyph-name="uni011E" unicode="&#x011E;" d="M203-12Q119-12 74.50 44Q30 100 30 200Q30 253 40 314.50Q50 376 73 441Q96 506 128 558.50Q160 611 208.50 644.50Q257 678 313 678Q392 678 429 628.50Q466 579 469 503L362 477Q358 566 306 566Q274 566 245 524.50Q216 483 198 423Q180 363 169.50 302Q159 241 159 197Q159 145 171 122.50Q183 100 210 100Q243 100 278 144L301 252L226 252L251 363L437 363L378 98Q307-12 203-12M478 775Q418 712 340 712Q263 712 229 775L288 815Q304 778 351 778Q398 778 430 815L478 775Z"  horiz-adv-x="453" vert-adv-y="1000"  />

      
      <glyph glyph-name="uni011F" unicode="&#x011F;" d="M120-196Q15-196-37-135L22-49Q56-98 117-98Q188-98 212 8L228 75Q186 5 125 5Q73 5 44.50 42Q16 79 16 151Q16 200 27 256Q38 312 60 367.50Q82 423 121 459Q160 495 209 495Q239 495 268 475.50Q297 456 304 421L318 483L430 483L326 16Q300-101 248-148.50Q196-196 120-196M181 105Q199 105 216.50 121.50Q234 138 246 162L285 337Q281 361 266 378Q251 395 232 395Q187 395 160 318Q133 241 133 174Q133 105 181 105M409 608Q349 545 271 545Q194 545 160 608L219 648Q235 611 282 611Q329 611 361 648L409 608Z"  horiz-adv-x="423" vert-adv-y="1000"  />

      
      <glyph glyph-name="uni0120" unicode="&#x0120;" d="M203-12Q119-12 74.50 44Q30 100 30 200Q30 253 40 314.50Q50 376 73 441Q96 506 128 558.50Q160 611 208.50 644.50Q257 678 313 678Q392 678 429 628.50Q466 579 469 503L362 477Q358 566 306 566Q274 566 245 524.50Q216 483 198 423Q180 363 169.50 302Q159 241 159 197Q159 145 171 122.50Q183 100 210 100Q243 100 278 144L301 252L226 252L251 363L437 363L378 98Q307-12 203-12M419 783Q419 755 398 734.50Q377 714 349 714Q325 714 309.50 730Q294 746 294 769Q294 797 315 817.50Q336 838 364 838Q388 838 403.50 822Q419 806 419 783Z"  horiz-adv-x="453" vert-adv-y="1000"  />

      
      <glyph glyph-name="uni0121" unicode="&#x0121;" d="M120-196Q15-196-37-135L22-49Q56-98 117-98Q188-98 212 8L228 75Q186 5 125 5Q73 5 44.50 42Q16 79 16 151Q16 200 27 256Q38 312 60 367.50Q82 423 121 459Q160 495 209 495Q239 495 268 475.50Q297 456 304 421L318 483L430 483L326 16Q300-101 248-148.50Q196-196 120-196M181 105Q199 105 216.50 121.50Q234 138 246 162L285 337Q281 361 266 378Q251 395 232 395Q187 395 160 318Q133 241 133 174Q133 105 181 105M350 616Q350 588 329 567.50Q308 547 280 547Q256 547 240.50 563Q225 579 225 602Q225 630 246 650.50Q267 671 295 671Q319 671 334.50 655Q350 639 350 616Z"  horiz-adv-x="423" vert-adv-y="1000"  />

      
      <glyph glyph-name="uni0122" unicode="&#x0122;" d="M215-121Q215-165 182.50-209.50Q150-254 102-278L69-243Q129-214 148-170Q146-171 139-171Q121-171 107.50-158Q94-145 94-124Q94-98 114-79Q134-60 159-60Q183-60 199-76Q215-92 215-121M203-12Q119-12 74.50 44Q30 100 30 200Q30 253 40 314.50Q50 376 73 441Q96 506 128 558.50Q160 611 208.50 644.50Q257 678 313 678Q392 678 429 628.50Q466 579 469 503L362 477Q358 566 306 566Q274 566 245 524.50Q216 483 198 423Q180 363 169.50 302Q159 241 159 197Q159 145 171 122.50Q183 100 210 100Q243 100 278 144L301 252L226 252L251 363L437 363L378 98Q307-12 203-12Z"  horiz-adv-x="453" vert-adv-y="1000"  />

      
      <glyph glyph-name="uni0123" unicode="&#x0123;" d="M226 608Q226 652 259 697.50Q292 743 341 767L373 731Q348 718 325.50 698.50Q303 679 295 659L302 659Q322 659 335.50 645.50Q349 632 349 610Q349 585 328.50 566Q308 547 283 547Q259 547 242.50 563Q226 579 226 608M120-196Q15-196-37-135L22-49Q56-98 117-98Q188-98 212 8L228 75Q186 5 125 5Q73 5 44.50 42Q16 79 16 151Q16 200 27 256Q38 312 60 367.50Q82 423 121 459Q160 495 209 495Q239 495 268 475.50Q297 456 304 421L318 483L430 483L326 16Q300-101 248-148.50Q196-196 120-196M181 105Q199 105 216.50 121.50Q234 138 246 162L285 337Q281 361 266 378Q251 395 232 395Q187 395 160 318Q133 241 133 174Q133 105 181 105Z"  horiz-adv-x="423" vert-adv-y="1000"  />

      
      <glyph glyph-name="uni0124" unicode="&#x0124;" d="M463 723L403 723L368 815L298 723L233 723L328 867L430 867L463 723M378 0L252 0L315 288L187 288L124 0L-2 0L145 667L271 667L212 398L340 398L399 667L525 667L378 0Z"  horiz-adv-x="484" vert-adv-y="1000"  />

      
      <glyph glyph-name="uni0125" unicode="&#x0125;" d="M433 723L373 723L338 815L268 723L203 723L298 867L400 867L433 723M321 0L207 0L284 343Q284 344 285 352.50Q286 361 286 363Q286 395 256 395Q216 395 177 331L105 0L-9 0L139 667L252 667L198 423Q251 495 320 495Q362 495 385.50 472.50Q409 450 409 414Q409 405 405 385L321 0Z"  horiz-adv-x="420" vert-adv-y="1000"  />

      
      <glyph glyph-name="uni0126" unicode="&#x0126;" d="M391 0L265 0L328 288L200 288L137 0L11 0L121 501L70 501L84 567L136 567L158 667L284 667L262 567L390 567L412 667L538 667L516 567L565 567L550 501L501 501L391 0M225 398L353 398L375 501L247 501L225 398Z"  horiz-adv-x="509" vert-adv-y="1000"  />

      
      <glyph glyph-name="uni0127" unicode="&#x0127;" d="M324 0L210 0L287 343Q287 344 288 352.50Q289 361 289 363Q289 395 259 395Q219 395 180 331L108 0L-6 0L111 530L70 530L85 596L126 596L142 667L255 667L239 596L356 596L342 530L224 530L201 423Q254 495 323 495Q365 495 388.50 472.50Q412 450 412 414Q412 405 408 385L324 0Z"  horiz-adv-x="423" vert-adv-y="1000"  />

      
      <glyph glyph-name="uni0128" unicode="&#x0128;" d="M124 0L-2 0L145 667L271 667L124 0M274 721Q253 721 240 732.50Q227 744 223 758Q219 772 211.50 783.50Q204 795 193 795Q169 795 155 727L95 727Q125 861 199 861Q220 861 233 849.50Q246 838 250.50 824Q255 810 262.50 798.50Q270 787 281 787Q303 787 319 855L379 855Q349 721 274 721Z"  horiz-adv-x="230" vert-adv-y="1000"  />

      
      <glyph glyph-name="uni0129" unicode="&#x0129;" d="M105 0L-9 0L99 483L212 483L105 0M224 554Q203 554 190 565.50Q177 577 173 591Q169 605 161.50 616.50Q154 628 143 628Q119 628 105 560L45 560Q75 694 149 694Q170 694 183 682.50Q196 671 200.50 657Q205 643 212.50 631.50Q220 620 231 620Q253 620 269 688L329 688Q299 554 224 554Z"  horiz-adv-x="204" vert-adv-y="1000"  />

      
      <glyph glyph-name="uni012A" unicode="&#x012A;" d="M124 0L-2 0L145 667L271 667L124 0M352 731L94 731L108 797L366 797L352 731Z"  horiz-adv-x="230" vert-adv-y="1000"  />

      
      <glyph glyph-name="uni012B" unicode="&#x012B;" d="M105 0L-9 0L99 483L212 483L105 0M303 564L45 564L59 630L317 630L303 564Z"  horiz-adv-x="204" vert-adv-y="1000"  />

      
      <glyph glyph-name="uni012C" unicode="&#x012C;" d="M124 0L-2 0L145 667L271 667L124 0M354 775Q294 712 216 712Q139 712 105 775L164 815Q180 778 227 778Q274 778 306 815L354 775Z"  horiz-adv-x="230" vert-adv-y="1000"  />

      
      <glyph glyph-name="uni012D" unicode="&#x012D;" d="M105 0L-9 0L99 483L212 483L105 0M305 608Q245 545 167 545Q90 545 56 608L115 648Q131 611 178 611Q225 611 257 648L305 608Z"  horiz-adv-x="204" vert-adv-y="1000"  />

      
      <glyph glyph-name="uni012E" unicode="&#x012E;" d="M93-109L134-138Q104-186 57-186Q24-186 4-169.50Q-16-153-16-121Q-16-58 49 0L-2 0L145 667L271 667L124 0Q41-53 41-115Q41-137 62-137Q82-137 93-109Z"  horiz-adv-x="230" vert-adv-y="1000"  />

      
      <glyph glyph-name="uni012F" unicode="&#x012F;" d="M74-109L115-138Q85-186 38-186Q5-186-15-169.50Q-35-153-35-121Q-35-58 30 0L-9 0L99 483L212 483L105 0Q22-53 22-115Q22-137 43-137Q63-137 74-109M174 540Q147 540 129 557Q111 574 111 599Q111 634 136 655.50Q161 677 190 677Q217 677 234.50 659.50Q252 642 252 618Q252 583 227.50 561.50Q203 540 174 540Z"  horiz-adv-x="204" vert-adv-y="1000"  />

      
      <glyph glyph-name="uni0130" unicode="&#x0130;" d="M124 0L-2 0L145 667L271 667L124 0M295 783Q295 755 274 734.50Q253 714 225 714Q201 714 185.50 730Q170 746 170 769Q170 797 191 817.50Q212 838 240 838Q264 838 279.50 822Q295 806 295 783Z"  horiz-adv-x="230" vert-adv-y="1000"  />

      
      <glyph glyph-name="uni0131" unicode="&#x0131;" d="M105 0L-9 0L99 483L212 483L105 0Z"  horiz-adv-x="204" vert-adv-y="1000"  />

      
      <glyph glyph-name="uni0132" unicode="&#x0132;" d="M124 0L-2 0L145 667L271 667L124 0M317-12Q235-12 193 31L244 131Q266 100 306 100Q369 100 385 173L495 667L621 667L510 167Q489 73 443 30.50Q397-12 317-12Z"  horiz-adv-x="578" vert-adv-y="1000"  />

      
      <glyph glyph-name="uni0133" unicode="&#x0133;" d="M174 540Q147 540 129 557Q111 574 111 599Q111 634 136 655.50Q161 677 190 677Q217 677 234.50 659.50Q252 642 252 618Q252 583 227.50 561.50Q203 540 174 540M105 0L-9 0L99 483L212 483L105 0M149-196Q97-196 75-168L119-85Q126-98 143-98Q174-98 185-42L303 483L416 483L298-42Q281-123 247.50-159.50Q214-196 149-196M378 540Q351 540 333 557Q315 574 315 599Q315 634 340 655.50Q365 677 394 677Q421 677 438.50 659.50Q456 642 456 618Q456 583 431.50 561.50Q407 540 378 540Z"  horiz-adv-x="408" vert-adv-y="1000"  />

      
      <glyph glyph-name="uni0134" unicode="&#x0134;" d="M454 723L394 723L359 815L289 723L224 723L319 867L421 867L454 723M87-12Q5-12-37 31L14 131Q36 100 76 100Q139 100 155 173L265 667L391 667L280 167Q259 73 213 30.50Q167-12 87-12Z"  horiz-adv-x="348" vert-adv-y="1000"  />

      
      <glyph glyph-name="uni0135" unicode="&#x0135;" d="M287 556L227 556L192 648L122 556L57 556L152 700L254 700L287 556M-55-196Q-107-196-129-168L-85-85Q-78-98-61-98Q-30-98-19-42L99 483L212 483L94-42Q77-123 43.50-159.50Q10-196-55-196Z"  horiz-adv-x="204" vert-adv-y="1000"  />

      
      <glyph glyph-name="uni0136" unicode="&#x0136;" d="M234-121Q234-165 201.50-209.50Q169-254 121-278L88-243Q148-214 167-170Q165-171 158-171Q140-171 126.50-158Q113-145 113-124Q113-98 133-79Q153-60 178-60Q202-60 218-76Q234-92 234-121M414 0L281 0L223 257L161 170L124 0L-2 0L145 667L271 667L207 376L404 667L549 667L317 353L414 0Z"  horiz-adv-x="471" vert-adv-y="1000"  />

      
      <glyph glyph-name="uni0137" unicode="&#x0137;" d="M192-121Q192-165 159.50-209.50Q127-254 79-278L46-243Q106-214 125-170Q123-171 116-171Q98-171 84.50-158Q71-145 71-124Q71-98 91-79Q111-60 136-60Q160-60 176-76Q192-92 192-121M344 0L222 0L192 196L129 113L105 0L-9 0L139 667L252 667L163 267L320 483L446 483L284 269L344 0Z"  horiz-adv-x="403" vert-adv-y="1000"  />

      
      <glyph glyph-name="uni0138" unicode="&#x0138;" d="M344 0L222 0L192 196L129 113L105 0L-9 0L99 483L212 483L163 267L320 483L446 483L284 269L344 0Z"  horiz-adv-x="403" vert-adv-y="1000"  />

      
      <glyph glyph-name="uni0139" unicode="&#x0139;" d="M470 867L332 723L258 723L369 867L470 867M290 0L-2 0L145 667L271 667L148 111L314 111L290 0Z"  horiz-adv-x="365" vert-adv-y="1000"  />

      
      <glyph glyph-name="uni013A" unicode="&#x013A;" d="M374 867L236 723L162 723L273 867L374 867M105 0L-9 0L139 667L252 667L105 0Z"  horiz-adv-x="204" vert-adv-y="1000"  />

      
      <glyph glyph-name="uni013B" unicode="&#x013B;" d="M182-121Q182-165 149.50-209.50Q117-254 69-278L36-243Q96-214 115-170Q113-171 106-171Q88-171 74.50-158Q61-145 61-124Q61-98 81-79Q101-60 126-60Q150-60 166-76Q182-92 182-121M290 0L-2 0L145 667L271 667L148 111L314 111L290 0Z"  horiz-adv-x="365" vert-adv-y="1000"  />

      
      <glyph glyph-name="uni013C" unicode="&#x013C;" d="M77-121Q77-165 44.50-209.50Q12-254-36-278L-69-243Q-9-214 10-170Q8-171 1-171Q-17-171-30.50-158Q-44-145-44-124Q-44-98-24-79Q-4-60 21-60Q45-60 61-76Q77-92 77-121M105 0L-9 0L139 667L252 667L105 0Z"  horiz-adv-x="204" vert-adv-y="1000"  />

      
      <glyph glyph-name="uni013D" unicode="&#x013D;" d="M427 620Q427 576 394.50 531.50Q362 487 314 463L281 498Q341 527 360 571Q358 570 351 570Q333 570 319.50 583Q306 596 306 617Q306 643 326 662Q346 681 371 681Q395 681 411 665Q427 649 427 620M290 0L-2 0L145 667L271 667L148 111L314 111L290 0Z"  horiz-adv-x="365" vert-adv-y="1000"  />

      
      <glyph glyph-name="uni013E" unicode="&#x013E;" d="M414 620Q414 576 381.50 531.50Q349 487 301 463L268 498Q328 527 347 571Q345 570 338 570Q320 570 306.50 583Q293 596 293 617Q293 643 313 662Q333 681 358 681Q382 681 398 665Q414 649 414 620M105 0L-9 0L139 667L252 667L105 0Z"  horiz-adv-x="316" vert-adv-y="1000"  />

      
      <glyph glyph-name="uni013F" unicode="&#x013F;" d="M290 0L-2 0L145 667L271 667L148 111L314 111L290 0M344 267Q316 267 296.50 287Q277 307 277 335Q277 368 301 392Q325 416 358 416Q386 416 405.50 396Q425 376 425 348Q425 315 401 291Q377 267 344 267Z"  horiz-adv-x="429" vert-adv-y="1000"  />

      
      <glyph glyph-name="uni0140" unicode="&#x0140;" d="M105 0L-9 0L139 667L252 667L105 0M273 170Q245 170 225.50 190Q206 210 206 238Q206 271 230 295Q254 319 287 319Q315 319 334.50 299Q354 279 354 251Q354 218 330 194Q306 170 273 170Z"  horiz-adv-x="357" vert-adv-y="1000"  />

      
      <glyph glyph-name="uni0141" unicode="&#x0141;" d="M10 219L33 323L85 349L155 667L281 667L227 422L293 456L270 352L204 318L158 111L324 111L300 0L8 0L62 245L10 219Z"  horiz-adv-x="374" vert-adv-y="1000"  />

      
      <glyph glyph-name="uni0142" unicode="&#x0142;" d="M13 234L32 318L86 346L158 667L271 667L214 411L268 438L250 355L196 327L124 0L10 0L68 262L13 234Z"  horiz-adv-x="241" vert-adv-y="1000"  />

      
      <glyph glyph-name="uni0143" unicode="&#x0143;" d="M515 867L377 723L303 723L414 867L515 867M378 0L259 0L205 370L124 0L-2 0L145 667L271 667L320 312L399 667L525 667L378 0Z"  horiz-adv-x="484" vert-adv-y="1000"  />

      
      <glyph glyph-name="uni0144" unicode="&#x0144;" d="M446 700L308 556L234 556L345 700L446 700M321 0L207 0L284 343Q284 345 285 353Q286 361 286 363Q286 395 256 395Q216 395 177 331L105 0L-9 0L99 483L212 483L198 423Q251 495 320 495Q361 495 385 473Q409 451 409 414Q409 397 405 385L321 0Z"  horiz-adv-x="420" vert-adv-y="1000"  />

      
      <glyph glyph-name="uni0145" unicode="&#x0145;" d="M220-121Q220-165 187.50-209.50Q155-254 107-278L74-243Q134-214 153-170Q151-171 144-171Q126-171 112.50-158Q99-145 99-124Q99-98 119-79Q139-60 164-60Q188-60 204-76Q220-92 220-121M378 0L259 0L205 370L124 0L-2 0L145 667L271 667L320 312L399 667L525 667L378 0Z"  horiz-adv-x="484" vert-adv-y="1000"  />

      
      <glyph glyph-name="uni0146" unicode="&#x0146;" d="M186-121Q186-165 153.50-209.50Q121-254 73-278L40-243Q100-214 119-170Q117-171 110-171Q92-171 78.50-158Q65-145 65-124Q65-98 85-79Q105-60 130-60Q154-60 170-76Q186-92 186-121M321 0L207 0L284 343Q284 345 285 353Q286 361 286 363Q286 395 256 395Q216 395 177 331L105 0L-9 0L99 483L212 483L198 423Q251 495 320 495Q361 495 385 473Q409 451 409 414Q409 397 405 385L321 0Z"  horiz-adv-x="420" vert-adv-y="1000"  />

      
      <glyph glyph-name="uni0147" unicode="&#x0147;" d="M402 723L300 723L266 867L327 867L360 775L432 867L496 867L402 723M378 0L259 0L205 370L124 0L-2 0L145 667L271 667L320 312L399 667L525 667L378 0Z"  horiz-adv-x="484" vert-adv-y="1000"  />

      
      <glyph glyph-name="uni0148" unicode="&#x0148;" d="M332 556L230 556L196 700L257 700L290 608L362 700L426 700L332 556M321 0L207 0L284 343Q284 345 285 353Q286 361 286 363Q286 395 256 395Q216 395 177 331L105 0L-9 0L99 483L212 483L198 423Q251 495 320 495Q361 495 385 473Q409 451 409 414Q409 397 405 385L321 0Z"  horiz-adv-x="420" vert-adv-y="1000"  />

      
      <glyph glyph-name="uni0149" unicode="&#x0149;" d="M247 698Q247 654 214.50 609.50Q182 565 134 541L101 576Q161 605 180 649Q178 648 171 648Q153 648 139.50 661Q126 674 126 695Q126 721 146 740Q166 759 191 759Q215 759 231 743Q247 727 247 698M321 0L207 0L284 343Q284 345 285 353Q286 361 286 363Q286 395 256 395Q216 395 177 331L105 0L-9 0L99 483L212 483L198 423Q251 495 320 495Q361 495 385 473Q409 451 409 414Q409 397 405 385L321 0Z"  horiz-adv-x="420" vert-adv-y="1000"  />

      
      <glyph glyph-name="uni014A" unicode="&#x014A;" d="M181-196Q101-196 57-153L106-58Q127-87 170-87Q234-87 249-14L256 20L205 370L124 0L-2 0L145 667L271 667L320 312L399 667L525 667L374-17Q353-111 307.50-153.50Q262-196 181-196Z"  horiz-adv-x="484" vert-adv-y="1000"  />

      
      <glyph glyph-name="uni014B" unicode="&#x014B;" d="M405 385L311-40Q292-125 257-160.50Q222-196 161-196Q112-196 87-168L131-83Q138-96 154-96Q185-96 198-40L284 343Q286 357 286 363Q286 395 256 395Q215 395 177 331L105 0L-9 0L99 483L212 483L197 420Q220 452 252.50 473.50Q285 495 320 495Q361 495 385 473Q409 451 409 414Q409 403 405 385Z"  horiz-adv-x="420" vert-adv-y="1000"  />

      
      <glyph glyph-name="uni014C" unicode="&#x014C;" d="M476 731L218 731L232 797L490 797L476 731M203-12Q117-12 73.50 47Q30 106 30 200Q30 263 46.50 340Q63 417 95 495Q127 573 184.50 625.50Q242 678 313 678Q399 678 442.50 618Q486 558 486 464Q486 401 469.50 324Q453 247 421 169.50Q389 92 331.50 40Q274-12 203-12M210 100Q242 100 271 142.50Q300 185 318 245Q336 305 346.50 365.50Q357 426 357 467Q357 566 305 566Q273 566 244 523.50Q215 481 197 420.50Q179 360 169 299.50Q159 239 159 197Q159 100 210 100Z"  horiz-adv-x="478" vert-adv-y="1000"  />

      
      <glyph glyph-name="uni014D" unicode="&#x014D;" d="M410 564L152 564L166 630L424 630L410 564M173-12Q97-12 57 34Q17 80 17 165Q17 238 42 312Q67 386 120 440.50Q173 495 242 495Q318 495 358 449Q398 403 398 318Q398 245 373 171Q348 97 295 42.50Q242-12 173-12M180 88Q225 88 254.50 171Q284 254 284 320Q284 395 236 395Q204 395 178.50 349.50Q153 304 142 252Q131 200 131 162Q131 88 180 88Z"  horiz-adv-x="417" vert-adv-y="1000"  />

      
      <glyph glyph-name="uni014E" unicode="&#x014E;" d="M203-12Q117-12 73.50 47Q30 106 30 200Q30 263 46.50 340Q63 417 95 495Q127 573 184.50 625.50Q242 678 313 678Q399 678 442.50 618Q486 558 486 464Q486 401 469.50 324Q453 247 421 169.50Q389 92 331.50 40Q274-12 203-12M210 100Q242 100 271 142.50Q300 185 318 245Q336 305 346.50 365.50Q357 426 357 467Q357 566 305 566Q273 566 244 523.50Q215 481 197 420.50Q179 360 169 299.50Q159 239 159 197Q159 100 210 100M478 775Q418 712 340 712Q263 712 229 775L288 815Q304 778 351 778Q398 778 430 815L478 775Z"  horiz-adv-x="478" vert-adv-y="1000"  />

      
      <glyph glyph-name="uni014F" unicode="&#x014F;" d="M173-12Q97-12 57 34Q17 80 17 165Q17 238 42 312Q67 386 120 440.50Q173 495 242 495Q318 495 358 449Q398 403 398 318Q398 245 373 171Q348 97 295 42.50Q242-12 173-12M180 88Q225 88 254.50 171Q284 254 284 320Q284 395 236 395Q204 395 178.50 349.50Q153 304 142 252Q131 200 131 162Q131 88 180 88M412 608Q352 545 274 545Q197 545 163 608L222 648Q238 611 285 611Q332 611 364 648L412 608Z"  horiz-adv-x="417" vert-adv-y="1000"  />

      
      </font>
</defs>
</svg>
