<?xml version="1.0" standalone="no"?>
  <!DOCTYPE svg PUBLIC "-//W3C//DTD SVG 1.1//EN" "http://www.w3.org/Graphics/SVG/1.1/DTD/svg11.dtd" >
  <svg>
  <metadata>
  Created by font-carrier
  </metadata>
  <defs>
  <font id="ProximaNovaExCn-SemiboldIt" horiz-adv-x="855" vert-adv-y="855" >
    <font-face
      
      font-family="Proxima Nova ExCn Lt"
      
      font-weight="400"
      
      font-stretch="normal"
      
      units-per-em="1000"
      
      ascent="920"
      
      descent="-298"
      
    />
      <missing-glyph />

      

      
      <glyph glyph-name="uni21" unicode="&#x21;" d="M150 198L70 198L156 667L271 667L150 198M71-11Q47-11 30 6Q13 23 13 48Q13 76 33.50 97Q54 118 83 118Q108 118 125 100.50Q142 83 142 59Q142 30 121 9.50Q100-11 71-11Z"  horiz-adv-x="239" vert-adv-y="1000"  />

      
      <glyph glyph-name="uni22" unicode="&#x22;" d="M158 399L115 399Q131 603 131 613Q133 641 150.50 659Q168 677 194 677Q214 677 228 663Q242 649 242 628Q242 624 241 619Q240 614 238 609Q236 604 236 602L158 399M318 399L275 399Q290 603 290 613Q292 641 309.50 659Q327 677 353 677Q373 677 387 663Q401 649 401 628Q401 617 395 602L318 399Z"  horiz-adv-x="366" vert-adv-y="1000"  />

      
      <glyph glyph-name="uni23" unicode="&#x23;" d="M194 0L121 0L203 177L136 177L56 0L-16 0L64 177L1 177L29 240L93 240L178 427L113 427L140 489L205 489L286 667L358 667L278 489L344 489L424 667L496 667L416 489L479 489L452 427L388 427L302 240L369 240L341 177L274 177L194 0M230 240L315 427L250 427L165 240L230 240Z"  horiz-adv-x="441" vert-adv-y="1000"  />

      
      <glyph glyph-name="uni24" unicode="&#x24;" d="M81-100L102-9Q18 6-20 61L42 138Q58 113 85 97Q112 81 140 81Q176 81 203 111Q230 141 230 190Q230 221 207 254Q184 287 156.50 313.50Q129 340 106 382.50Q83 425 83 472Q83 551 132 609Q181 667 253 676L274 768L347 768L325 672Q382 658 417 618L360 541Q327 585 275 585Q239 585 216 557Q193 529 193 490Q193 467 208 442Q223 417 244.50 393Q266 369 287 343Q308 317 323 281.50Q338 246 338 207Q338 125 292.50 64.50Q247 4 175-9L154-100L81-100Z"  horiz-adv-x="369" vert-adv-y="1000"  />

      
      <glyph glyph-name="uni25" unicode="&#x25;" d="M121 0L75 0L498 667L545 667L121 0M388-12Q336-12 307.50 23Q279 58 279 111Q279 196 325 257Q371 318 431 318Q483 318 511.50 283Q540 248 540 195Q540 110 493.50 49Q447-12 388-12M392 49Q422 49 447.50 91Q473 133 473 189Q473 258 427 258Q397 258 371 215.50Q345 173 345 117Q345 49 392 49M188 347Q136 347 107.50 382Q79 417 79 470Q79 555 125 616Q171 677 230 677Q282 677 310.50 642Q339 607 339 554Q339 469 293 408Q247 347 188 347M192 407Q221 407 247 449.50Q273 492 273 548Q273 616 226 616Q196 616 170.50 574Q145 532 145 476Q145 407 192 407Z"  horiz-adv-x="580" vert-adv-y="1000"  />

      
      <glyph glyph-name="uni26" unicode="&#x26;" d="M364 0L269 0L254 38Q196-12 134-12Q77-12 42.50 23.50Q8 59 8 124Q8 185 31 235Q54 285 82.50 313.50Q111 342 155 374Q147 427 147 468Q147 553 192.50 615Q238 677 298 677Q344 677 372 648Q400 619 400 563Q400 532 390 503.50Q380 475 369 456.50Q358 438 331.50 414Q305 390 292.50 380Q280 370 246 345Q250 326 265 273L287 197Q311 240 347 322L416 283Q366 174 318 109Q343 48 364 0M155 64Q188 64 228 109Q211 157 195 211Q182 254 174 287Q105 221 105 137Q105 105 118.50 84.50Q132 64 155 64M231 462Q231 439 232 428Q273 460 295 491Q317 522 317 563Q317 588 310.50 597.50Q304 607 290 607Q267 607 249 561.50Q231 516 231 462Z"  horiz-adv-x="426" vert-adv-y="1000"  />

      
      <glyph glyph-name="uni27" unicode="&#x27;" d="M158 399L115 399Q131 603 131 613Q133 641 150.50 659Q168 677 194 677Q214 677 228 663Q242 649 242 628Q242 624 241 619Q240 614 238 609Q236 604 236 602L158 399Z"  horiz-adv-x="208" vert-adv-y="1000"  />

      
      <glyph glyph-name="uni28" unicode="&#x28;" d="M125-176L53-199Q21-95 21 25Q21 378 248 685L308 649Q222 502 169.50 322Q117 142 117-26Q117-102 125-176Z"  horiz-adv-x="237" vert-adv-y="1000"  />

      
      <glyph glyph-name="uni29" unicode="&#x29;" d="M111 662L183 685Q215 579 215 461Q215 108-12-199L-72-163Q14-16 66.50 164Q119 344 119 512Q119 588 111 662Z"  horiz-adv-x="237" vert-adv-y="1000"  />

      
      <glyph glyph-name="uni2a" unicode="&#x2a;" d="M212 381L160 381L191 497L82 447L67 494L178 534L90 595L125 636L206 566L226 677L278 677L247 561L355 611L370 564L260 524L348 463L312 422L231 492L212 381Z"  horiz-adv-x="313" vert-adv-y="1000"  />

      
      <glyph glyph-name="uni2b" unicode="&#x2b;" d="M365 306L238 306L204 157L137 157L170 306L43 306L56 368L184 368L215 511L283 511L252 368L379 368L365 306Z"  horiz-adv-x="381" vert-adv-y="1000"  />

      
      <glyph glyph-name="uni2c" unicode="&#x2c;" d="M145 52Q145 2 108-48Q71-98 18-124L-18-86Q11-72 36.50-49Q62-26 71-2Q70-3 62-3Q42-3 27.50 11.50Q13 26 13 49Q13 77 34.50 97.50Q56 118 83 118Q109 118 127 100.50Q145 83 145 52Z"  horiz-adv-x="239" vert-adv-y="1000"  />

      
      <glyph glyph-name="uni2d" unicode="&#x2d;" d="M199 201L20 201L38 282L216 282L199 201Z"  horiz-adv-x="238" vert-adv-y="1000"  />

      
      <glyph glyph-name="uni2e" unicode="&#x2e;" d="M71-11Q46-11 29.50 6Q13 23 13 48Q13 76 33.50 97Q54 118 83 118Q108 118 125 100.50Q142 83 142 59Q142 30 121 9.50Q100-11 71-11Z"  horiz-adv-x="239" vert-adv-y="1000"  />

      
      <glyph glyph-name="uni2f" unicode="&#x2f;" d="M11-20L-59-20L244 687L315 687L11-20Z"  horiz-adv-x="216" vert-adv-y="1000"  />

      
      <glyph glyph-name="uni30" unicode="&#x30;" d="M179-12Q114-12 74.50 39Q35 90 35 187Q35 295 67 407Q99 519 160.50 598Q222 677 295 677Q361 677 400.50 626.50Q440 576 440 478Q440 370 408 258Q376 146 314 67Q252-12 179-12M189 81Q230 81 266 162.50Q302 244 319.50 338.50Q337 433 337 496Q337 584 285 584Q244 584 208 502.50Q172 421 154.50 327Q137 233 137 169Q137 81 189 81Z"  horiz-adv-x="436" vert-adv-y="1000"  />

      
      <glyph glyph-name="uni31" unicode="&#x31;" d="M213 0L109 0L226 531L109 430L62 494L269 667L360 667L213 0Z"  horiz-adv-x="324" vert-adv-y="1000"  />

      
      <glyph glyph-name="uni32" unicode="&#x32;" d="M328 0L-8 0L15 106Q46 140 85.50 182.50Q125 225 147.50 249Q170 273 198 304Q226 335 241 353Q256 371 274 393Q292 415 300.50 429Q309 443 317 459Q325 475 328 488.50Q331 502 331 515Q331 547 313.50 565.50Q296 584 266 584Q206 584 157 517L101 584Q177 677 276 677Q349 677 395 637.50Q441 598 441 528Q441 451 385.50 372Q330 293 164 109Q153 98 148 92L348 92L328 0Z"  horiz-adv-x="419" vert-adv-y="1000"  />

      
      <glyph glyph-name="uni33" unicode="&#x33;" d="M174-12Q109-12 58.50 23Q8 58-9 122L77 173Q98 81 174 81Q219 81 245 125.50Q271 170 271 224Q271 259 250.50 277Q230 295 200 295Q175 295 166 293L187 388Q194 387 236 387Q281 387 306 426Q331 465 331 517Q331 584 259 584Q201 584 161 522L103 583Q175 677 276 677Q349 677 394 640Q439 603 439 536Q439 466 397 409Q355 352 295 339Q374 312 374 213Q374 123 316 55.50Q258-12 174-12Z"  horiz-adv-x="418" vert-adv-y="1000"  />

      
      <glyph glyph-name="uni34" unicode="&#x34;" d="M283 0L179 0L213 158L-5 158L17 259L302 667L430 667L337 250L389 250L369 158L317 158L283 0M233 250L298 539L103 250L233 250Z"  horiz-adv-x="403" vert-adv-y="1000"  />

      
      <glyph glyph-name="uni35" unicode="&#x35;" d="M174-12Q39-12-1 121L84 171Q92 128 115.50 104.50Q139 81 174 81Q217 81 250 138Q283 195 283 263Q283 297 267.50 316.50Q252 336 222 336Q177 336 135 286L63 315L142 667L453 667L433 575L226 575L182 376Q219 422 277 422Q329 422 360.50 383Q392 344 392 276Q392 162 330 75Q268-12 174-12Z"  horiz-adv-x="423" vert-adv-y="1000"  />

      
      <glyph glyph-name="uni36" unicode="&#x36;" d="M184-12Q108-12 70 40Q32 92 32 182Q32 242 48.50 321Q65 400 96.50 482.50Q128 565 185.50 621Q243 677 314 677Q362 677 399.50 651Q437 625 452 581L380 515Q368 584 308 584Q218 584 161 361Q160 358 156 337Q179 375 211 398.50Q243 422 277 422Q328 422 360.50 384.50Q393 347 393 280Q393 213 369.50 147.50Q346 82 296.50 35Q247-12 184-12M188 81Q218 81 241.50 114.50Q265 148 275 189Q285 230 285 264Q285 296 271.50 316Q258 336 230 336Q182 336 140 250Q132 208 132 170Q132 81 188 81Z"  horiz-adv-x="421" vert-adv-y="1000"  />

      
      <glyph glyph-name="uni37" unicode="&#x37;" d="M133 0L18 0L300 575L92 575L112 667L438 667L422 595L133 0Z"  horiz-adv-x="364" vert-adv-y="1000"  />

      
      <glyph glyph-name="uni38" unicode="&#x38;" d="M179-12Q8-12 8 131Q8 200 48 260.50Q88 321 164 352Q134 371 114 407.50Q94 444 94 485Q94 562 150 619.50Q206 677 282 677Q349 677 396 642.50Q443 608 443 536Q443 462 401 409Q359 356 298 337Q334 314 353.50 275Q373 236 373 193Q373 104 318.50 46Q264-12 179-12M239 378Q278 393 307 428Q336 463 336 520Q336 550 321 567Q306 584 278 584Q243 584 219.50 549Q196 514 196 465Q196 438 209 414Q222 390 239 378M178 81Q214 81 242 119Q270 157 270 211Q270 248 254.50 273.50Q239 299 223 307Q181 294 149 251.50Q117 209 117 152Q117 117 133.50 99Q150 81 178 81Z"  horiz-adv-x="419" vert-adv-y="1000"  />

      
      <glyph glyph-name="uni39" unicode="&#x39;" d="M276 678Q352 678 390 626Q428 574 428 484Q428 438 418.50 377.50Q409 317 386.50 248Q364 179 333 122Q302 65 252.50 27Q203-11 146-11Q98-11 60.50 15Q23 41 7 85L79 151Q84 119 103 100.50Q122 82 151 82Q241 82 298 305Q303 322 304 329Q253 244 182 244Q131 244 99 281.50Q67 319 67 386Q67 453 90.50 518.50Q114 584 163.50 631Q213 678 276 678M272 585Q242 585 218.50 551.50Q195 518 185 477Q175 436 175 402Q175 330 229 330Q278 330 320 416Q328 458 328 496Q328 585 272 585Z"  horiz-adv-x="421" vert-adv-y="1000"  />

      
      <glyph glyph-name="uni3a" unicode="&#x3a;" d="M72-11Q47-11 30 6Q13 23 13 48Q13 76 33.50 97Q54 118 83 118Q108 118 125 100.50Q142 83 142 59Q142 30 121.50 9.50Q101-11 72-11M154 361Q129 361 112 378Q95 395 95 420Q95 448 115.50 469Q136 490 165 490Q190 490 207 472.50Q224 455 224 431Q224 402 203.50 381.50Q183 361 154 361Z"  horiz-adv-x="239" vert-adv-y="1000"  />

      
      <glyph glyph-name="uni3b" unicode="&#x3b;" d="M145 52Q145 2 108-48Q71-98 18-124L-18-86Q11-72 36.50-49Q62-26 71-2Q70-3 62-3Q42-3 27.50 11.50Q13 26 13 49Q13 77 34.50 97.50Q56 118 83 118Q109 118 127 100.50Q145 83 145 52M154 361Q129 361 112 378Q95 395 95 420Q95 448 115.50 469Q136 490 165 490Q190 490 207 472.50Q224 455 224 431Q224 402 203.50 381.50Q183 361 154 361Z"  horiz-adv-x="239" vert-adv-y="1000"  />

      
      <glyph glyph-name="uni3c" unicode="&#x3c;" d="M332 158L41 301L56 368L410 511L393 434L122 331L348 228L332 158Z"  horiz-adv-x="381" vert-adv-y="1000"  />

      
      <glyph glyph-name="uni3d" unicode="&#x3d;" d="M386 399L63 399L77 461L399 461L386 399M343 207L20 207L34 269L357 269L343 207Z"  horiz-adv-x="381" vert-adv-y="1000"  />

      
      <glyph glyph-name="uni3e" unicode="&#x3e;" d="M364 301L9 158L27 235L299 337L73 441L88 511L379 368L364 301Z"  horiz-adv-x="381" vert-adv-y="1000"  />

      
      <glyph glyph-name="uni3f" unicode="&#x3f;" d="M199 223L114 192Q103 219 103 254Q103 293 119 326Q135 359 158 383Q181 407 204 428.50Q227 450 243 476Q259 502 259 530Q259 554 244.50 571.50Q230 589 204 589Q170 589 143 565L113 635Q169 678 234 678Q292 678 329.50 643Q367 608 367 557Q367 516 349 480Q331 444 305.50 417.50Q280 391 254 367Q228 343 210 316Q192 289 192 263Q192 237 199 223M114-11Q90-11 73 6Q56 23 56 48Q56 76 77 97Q98 118 126 118Q151 118 168 100.50Q185 83 185 59Q185 30 164 9.50Q143-11 114-11Z"  horiz-adv-x="320" vert-adv-y="1000"  />

      
      <glyph glyph-name="uni40" unicode="&#x40;" d="M287-70Q179-70 117 6.50Q55 83 55 215Q55 322 101 420Q147 518 226 578.50Q305 639 396 639Q489 639 547 573.50Q605 508 605 396Q605 268 557 176.50Q509 85 445 85Q412 85 390.50 103.50Q369 122 365 153L364 161Q315 85 253 85Q214 85 187 114.50Q160 144 160 211Q160 280 182.50 345.50Q205 411 249 455Q293 499 347 499Q403 499 419 430L430 483L514 483L458 220Q455 205 455 192Q455 151 484 151Q495 151 509 167.50Q523 184 536 213.50Q549 243 558 291.50Q567 340 567 395Q567 494 520 548.50Q473 603 394 603Q314 603 243.50 546Q173 489 133 400Q93 311 93 216Q93 103 145 34Q197-35 292-35Q364-35 435 21L453-7Q373-70 287-70M292 153Q318 153 336.50 171.50Q355 190 374 223L406 371Q394 430 359 430Q325 430 298.50 394.50Q272 359 260 313Q248 267 248 224Q248 153 292 153Z"  horiz-adv-x="620" vert-adv-y="1000"  />

      
      <glyph glyph-name="uni41" unicode="&#x41;" d="M341 0L237 0L244 136L111 136L59 0L-51 0L232 667L352 667L341 0M251 228L268 548L144 228L251 228Z"  horiz-adv-x="398" vert-adv-y="1000"  />

      
      <glyph glyph-name="uni42" unicode="&#x42;" d="M201 0L3 0L150 667L295 667Q365 667 404 627.50Q443 588 443 527Q443 459 406.50 402Q370 345 311 335Q347 324 365 290.50Q383 257 383 216Q383 131 335 65.50Q287 0 201 0M245 386Q285 386 308.50 425.50Q332 465 332 508Q332 575 265 575L234 575L192 386L245 386M183 92Q224 92 251 131.50Q278 171 278 224Q278 294 210 294L172 294L127 92L183 92Z"  horiz-adv-x="431" vert-adv-y="1000"  />

      
      <glyph glyph-name="uni43" unicode="&#x43;" d="M191-12Q116-12 75 40.50Q34 93 34 190Q34 239 43 299Q52 359 73.50 426.50Q95 494 125 549.50Q155 605 202.50 641.50Q250 678 306 678Q379 678 414.50 628.50Q450 579 454 503L357 484Q350 585 299 585Q263 585 231.50 538Q200 491 181.50 424.50Q163 358 152 294Q141 230 141 187Q141 81 197 81Q241 81 285 164L368 128Q300-12 191-12Z"  horiz-adv-x="412" vert-adv-y="1000"  />

      
      <glyph glyph-name="uni44" unicode="&#x44;" d="M153 0L3 0L150 667L296 667Q361 667 407 613Q453 559 453 457Q453 424 447 381Q441 338 428 285Q415 232 391.50 183Q368 134 336.50 92Q305 50 257.50 25Q210 0 153 0M127 92L171 92Q216 92 252 136.50Q288 181 307 244.50Q326 308 336 364Q346 420 346 456Q346 516 326 545.50Q306 575 276 575L234 575L127 92Z"  horiz-adv-x="455" vert-adv-y="1000"  />

      
      <glyph glyph-name="uni45" unicode="&#x45;" d="M276 0L3 0L150 667L423 667L403 575L234 575L192 386L354 386L333 294L172 294L127 92L296 92L276 0Z"  horiz-adv-x="367" vert-adv-y="1000"  />

      
      <glyph glyph-name="uni46" unicode="&#x46;" d="M107 0L3 0L150 667L423 667L403 575L234 575L192 386L354 386L333 294L172 294L107 0Z"  horiz-adv-x="365" vert-adv-y="1000"  />

      
      <glyph glyph-name="uni47" unicode="&#x47;" d="M191-12Q115-12 74.50 40.50Q34 93 34 190Q34 257 50.50 337Q67 417 98.50 495Q130 573 184.50 625.50Q239 678 306 678Q378 678 412 631.50Q446 585 449 515L360 494Q354 585 299 585Q253 585 215 508.50Q177 432 159 342.50Q141 253 141 187Q141 130 154.50 105.50Q168 81 197 81Q232 81 270 130L298 261L217 261L238 353L412 353L354 93Q286-12 191-12Z"  horiz-adv-x="435" vert-adv-y="1000"  />

      
      <glyph glyph-name="uni48" unicode="&#x48;" d="M353 0L248 0L314 297L172 297L107 0L3 0L150 667L254 667L193 389L334 389L395 667L500 667L353 0Z"  horiz-adv-x="463" vert-adv-y="1000"  />

      
      <glyph glyph-name="uni49" unicode="&#x49;" d="M107 0L3 0L150 667L254 667L107 0Z"  horiz-adv-x="218" vert-adv-y="1000"  />

      
      <glyph glyph-name="uni4a" unicode="&#x4a;" d="M82-12Q3-12-37 34L8 116Q31 81 74 81Q140 81 157 161L270 667L374 667L261 156Q241 68 198.50 28Q156-12 82-12Z"  horiz-adv-x="337" vert-adv-y="1000"  />

      
      <glyph glyph-name="uni4b" unicode="&#x4b;" d="M388 0L277 0L210 272L147 184L107 0L3 0L150 667L254 667L186 357L401 667L522 667L288 352L388 0Z"  horiz-adv-x="448" vert-adv-y="1000"  />

      
      <glyph glyph-name="uni4c" unicode="&#x4c;" d="M276 0L3 0L150 667L254 667L127 92L296 92L276 0Z"  horiz-adv-x="351" vert-adv-y="1000"  />

      
      <glyph glyph-name="uni4d" unicode="&#x4d;" d="M481 0L378 0L476 445L260 0L223 0L206 445L107 0L3 0L150 667L283 667L299 274L492 667L628 667L481 0Z"  horiz-adv-x="591" vert-adv-y="1000"  />

      
      <glyph glyph-name="uni4e" unicode="&#x4e;" d="M353 0L254 0L197 409L107 0L3 0L150 667L254 667L307 271L395 667L500 667L353 0Z"  horiz-adv-x="463" vert-adv-y="1000"  />

      
      <glyph glyph-name="uni4f" unicode="&#x4f;" d="M191-12Q112-12 73 44Q34 100 34 190Q34 252 50 330.50Q66 409 96.50 489Q127 569 182.50 623.50Q238 678 306 678Q384 678 423.50 621Q463 564 463 474Q463 427 453.50 366.50Q444 306 422.50 239Q401 172 371 116.50Q341 61 293.50 24.50Q246-12 191-12M197 81Q243 81 281.50 158Q320 235 338 324.50Q356 414 356 477Q356 585 299 585Q253 585 214.50 507.50Q176 430 158.50 340.50Q141 251 141 187Q141 81 197 81Z"  horiz-adv-x="459" vert-adv-y="1000"  />

      
      <glyph glyph-name="uni50" unicode="&#x50;" d="M107 0L3 0L150 667L298 667Q364 667 404.50 622Q445 577 445 505Q445 404 385.50 329.50Q326 255 219 255L163 255L107 0M183 347L227 347Q278 347 307 392.50Q336 438 336 496Q336 534 319 554.50Q302 575 274 575L234 575L183 347Z"  horiz-adv-x="418" vert-adv-y="1000"  />

      
      <glyph glyph-name="uni51" unicode="&#x51;" d="M191-12Q112-12 73 44Q34 100 34 190Q34 252 50 330.50Q66 409 96.50 489Q127 569 182.50 623.50Q238 678 306 678Q384 678 423.50 621Q463 564 463 474Q463 364 418.50 224.50Q374 85 293 23L300-21L221-35L217-10Q199-12 191-12M197 81L202 81L181 215L260 229L274 143Q310 206 333 307.50Q356 409 356 477Q356 585 299 585Q253 585 214.50 507.50Q176 430 158.50 340.50Q141 251 141 187Q141 81 197 81Z"  horiz-adv-x="459" vert-adv-y="1000"  />

      
      <glyph glyph-name="uni52" unicode="&#x52;" d="M346 0L237 0L216 255L163 255L107 0L3 0L150 667L297 667Q362 667 404 621Q446 575 446 506Q446 424 406 358Q366 292 313 274L346 0M183 347L229 347Q278 347 307 392.50Q336 438 336 497Q336 575 275 575L234 575L183 347Z"  horiz-adv-x="438" vert-adv-y="1000"  />

      
      <glyph glyph-name="uni53" unicode="&#x53;" d="M140-12Q90-12 46.50 8Q3 28-20 61L42 138Q58 113 85 97Q112 81 140 81Q176 81 203 111Q230 141 230 190Q230 221 207 254Q184 287 156.50 313.50Q129 340 106 382.50Q83 425 83 472Q83 558 140 618Q197 678 276 678Q366 678 417 618L360 541Q327 585 275 585Q239 585 216 557Q193 529 193 490Q193 467 208 442Q223 417 244.50 393Q266 369 287 343Q308 317 323 281.50Q338 246 338 207Q338 115 282 51.50Q226-12 140-12Z"  horiz-adv-x="378" vert-adv-y="1000"  />

      
      <glyph glyph-name="uni54" unicode="&#x54;" d="M171 0L67 0L194 575L91 575L111 667L421 667L401 575L298 575L171 0Z"  horiz-adv-x="346" vert-adv-y="1000"  />

      
      <glyph glyph-name="uni55" unicode="&#x55;" d="M197-12Q128-12 83.50 30Q39 72 39 143Q39 165 44 188L150 667L254 667L146 179Q143 158 143 147Q143 115 160 97.50Q177 80 205 80Q237 80 257 103Q277 126 289 179L396 667L500 667L394 184Q350-12 197-12Z"  horiz-adv-x="464" vert-adv-y="1000"  />

      
      <glyph glyph-name="uni56" unicode="&#x56;" d="M205 0L85 0L96 667L200 667L172 135L378 667L488 667L205 0Z"  horiz-adv-x="398" vert-adv-y="1000"  />

      
      <glyph glyph-name="uni57" unicode="&#x57;" d="M408 0L301 0L343 466L178 0L71 0L107 667L212 667L167 184L343 667L427 667L390 184L558 667L666 667L408 0Z"  horiz-adv-x="587" vert-adv-y="1000"  />

      
      <glyph glyph-name="uni58" unicode="&#x58;" d="M354 0L244 0L206 241L67 0L-53 0L168 345L102 667L212 667L243 437L372 667L493 667L282 335L354 0Z"  horiz-adv-x="408" vert-adv-y="1000"  />

      
      <glyph glyph-name="uni59" unicode="&#x59;" d="M201 0L97 0L158 279L90 667L197 667L228 382L386 667L501 667L262 279L201 0Z"  horiz-adv-x="405" vert-adv-y="1000"  />

      
      <glyph glyph-name="uni5a" unicode="&#x5a;" d="M276 0L-23 0L-4 89L273 575L104 575L124 667L416 667L397 582L117 92L296 92L276 0Z"  horiz-adv-x="360" vert-adv-y="1000"  />

      
      <glyph glyph-name="uni5b" unicode="&#x5b;" d="M80-190L-61-190L131 678L273 678L259 612L187 612L23-124L95-124L80-190Z"  horiz-adv-x="195" vert-adv-y="1000"  />

      
      <glyph glyph-name="uni5c" unicode="&#x5c;" d="M89-20L89 687L157 687L157-20L89-20Z"  horiz-adv-x="216" vert-adv-y="1000"  />

      
      <glyph glyph-name="uni5d" unicode="&#x5d;" d="M63-190L-79-190L-64-124L8-124L171 612L99 612L113 678L256 678L63-190Z"  horiz-adv-x="195" vert-adv-y="1000"  />

      
      <glyph glyph-name="uni5e" unicode="&#x5e;" d="M334 333L266 333L245 590L111 333L38 333L225 667L295 667L334 333Z"  horiz-adv-x="334" vert-adv-y="1000"  />

      
      <glyph glyph-name="uni5f" unicode="&#x5f;" d="M204-106L-80-106L-65-40L219-40L204-106Z"  horiz-adv-x="279" vert-adv-y="1000"  />

      
      <glyph glyph-name="uni60" unicode="&#x60;" d="M233 556L172 556L101 700L186 700L233 556Z"  horiz-adv-x="164" vert-adv-y="1000"  />

      
      <glyph glyph-name="uni61" unicode="&#x61;" d="M209 495Q281 495 301 418L316 483L409 483L302 0L208 0L222 60Q177-12 120-12Q70-12 44 26Q18 64 18 137Q18 186 30 245.50Q42 305 64.50 362Q87 419 125 457Q163 495 209 495M229 412Q194 412 166 360.50Q138 309 126.50 250.50Q115 192 115 148Q115 71 166 71Q185 71 205.50 90.50Q226 110 239 138L285 344Q282 373 266 392.50Q250 412 229 412Z"  horiz-adv-x="406" vert-adv-y="1000"  />

      
      <glyph glyph-name="uni62" unicode="&#x62;" d="M196-12Q125-12 104 65L90 0L-3 0L143 667L237 667L183 423Q228 495 285 495Q335 495 361 457Q387 419 387 346Q387 297 375 237.50Q363 178 340.50 121Q318 64 280 26Q242-12 196-12M177 71Q212 71 239.50 122.50Q267 174 278.50 232.50Q290 291 290 335Q290 412 239 412Q220 412 199.50 392.50Q179 373 166 345L120 139Q123 110 139 90.50Q155 71 177 71Z"  horiz-adv-x="406" vert-adv-y="1000"  />

      
      <glyph glyph-name="uni63" unicode="&#x63;" d="M170-12Q100-12 60.50 32.50Q21 77 21 162Q21 236 45.50 310.50Q70 385 122.50 440Q175 495 242 495Q316 495 355 446L308 376Q288 412 248 412Q209 412 178 369Q147 326 132.50 271.50Q118 217 118 169Q118 71 190 71Q223 71 250 100L269 26Q227-12 170-12Z"  horiz-adv-x="333" vert-adv-y="1000"  />

      
      <glyph glyph-name="uni64" unicode="&#x64;" d="M209 495Q281 495 301 418L356 667L450 667L302 0L208 0L222 60Q177-12 120-12Q70-12 44 26Q18 64 18 137Q18 186 30 245.50Q42 305 64.50 362Q87 419 125 457Q163 495 209 495M229 412Q194 412 166 360.50Q138 309 126.50 250.50Q115 192 115 148Q115 71 166 71Q185 71 205.50 90.50Q226 110 239 138L285 344Q282 373 266 392.50Q250 412 229 412Z"  horiz-adv-x="406" vert-adv-y="1000"  />

      
      <glyph glyph-name="uni65" unicode="&#x65;" d="M174-12Q101-12 60.50 33Q20 78 20 163Q20 197 27.50 239Q35 281 52.50 326.50Q70 372 94.50 409.50Q119 447 156 471Q193 495 236 495Q374 495 374 337Q374 287 355 211L114 211Q108 188 108 158Q108 118 127.50 91.50Q147 65 190 65Q235 65 275 112L311 54Q253-12 174-12M127 278L280 278Q288 310 288 338Q288 373 272.50 395.50Q257 418 229 418Q188 418 162 374.50Q136 331 127 278Z"  horiz-adv-x="391" vert-adv-y="1000"  />

      
      <glyph glyph-name="uni66" unicode="&#x66;" d="M105 0L11 0L100 401L54 401L72 483L118 483L131 546Q159 677 264 677Q323 677 349 648L308 576Q296 594 274 594Q237 594 225 546L212 483L275 483L256 401L194 401L105 0Z"  horiz-adv-x="239" vert-adv-y="1000"  />

      
      <glyph glyph-name="uni67" unicode="&#x67;" d="M111-196Q13-196-35-137L16-64Q48-113 109-113Q183-113 207-3L226 73Q183 1 123 1Q74 1 46.50 37Q19 73 19 144Q19 192 30 249Q41 306 63 363Q85 420 123.50 457.50Q162 495 210 495Q239 495 267 474.50Q295 454 302 418L316 483L409 483L304 9Q278-104 230-150Q182-196 111-196M168 84Q188 84 208 103.50Q228 123 242 151L285 344Q281 371 264.50 391.50Q248 412 227 412Q193 412 166 364.50Q139 317 127.50 261Q116 205 116 161Q116 84 168 84Z"  horiz-adv-x="406" vert-adv-y="1000"  />

      
      <glyph glyph-name="uni68" unicode="&#x68;" d="M298 0L204 0L283 355Q286 367 286 377Q286 412 252 412Q207 412 164 340L90 0L-4 0L143 667L237 667L183 421Q237 495 303 495Q343 495 365 473.50Q387 452 387 417Q387 407 383 387L298 0Z"  horiz-adv-x="402" vert-adv-y="1000"  />

      
      <glyph glyph-name="uni69" unicode="&#x69;" d="M169 546Q146 546 130.50 561Q115 576 115 597Q115 627 136.50 646Q158 665 183 665Q206 665 221.50 649.50Q237 634 237 613Q237 583 216 564.50Q195 546 169 546M90 0L-4 0L103 483L197 483L90 0Z"  horiz-adv-x="194" vert-adv-y="1000"  />

      
      <glyph glyph-name="uni6a" unicode="&#x6a;" d="M-56-196Q-106-196-126-166L-85-97Q-79-113-60-113Q-29-113-17-54L103 483L197 483L77-54Q60-130 30-163Q0-196-56-196M169 546Q146 546 130.50 561Q115 576 115 597Q115 627 136.50 646Q158 665 183 665Q206 665 221.50 649.50Q237 634 237 613Q237 583 216 564.50Q195 546 169 546Z"  horiz-adv-x="194" vert-adv-y="1000"  />

      
      <glyph glyph-name="uni6b" unicode="&#x6b;" d="M321 0L221 0L185 207L115 117L90 0L-4 0L143 667L237 667L144 247L321 483L426 483L260 268L321 0Z"  horiz-adv-x="385" vert-adv-y="1000"  />

      
      <glyph glyph-name="uni6c" unicode="&#x6c;" d="M90 0L-4 0L143 667L237 667L90 0Z"  horiz-adv-x="194" vert-adv-y="1000"  />

      
      <glyph glyph-name="uni6d" unicode="&#x6d;" d="M506 0L412 0L490 355Q494 367 494 377Q494 412 460 412Q437 412 413 390.50Q389 369 372 340L298 0L204 0L283 355Q286 373 286 378Q286 412 252 412Q208 412 164 340L90 0L-4 0L103 483L197 483L183 421Q206 454 238 474.50Q270 495 303 495Q340 495 363.50 474.50Q387 454 387 425Q387 420 386 415Q441 495 510 495Q549 495 572 474.50Q595 454 595 418Q595 403 591 387L506 0Z"  horiz-adv-x="610" vert-adv-y="1000"  />

      
      <glyph glyph-name="uni6e" unicode="&#x6e;" d="M298 0L204 0L283 355Q286 370 286 377Q286 412 252 412Q207 412 164 340L90 0L-4 0L103 483L197 483L183 421Q237 495 303 495Q342 495 364.50 474Q387 453 387 417Q387 399 383 387L298 0Z"  horiz-adv-x="402" vert-adv-y="1000"  />

      
      <glyph glyph-name="uni6f" unicode="&#x6f;" d="M163-12Q94-12 57 31.50Q20 75 20 156Q20 230 43.50 305.50Q67 381 118.50 438Q170 495 237 495Q306 495 343 452Q380 409 380 327Q380 253 356.50 177.50Q333 102 281.50 45Q230-12 163-12M169 71Q204 71 232 120.50Q260 170 272.50 227.50Q285 285 285 328Q285 412 232 412Q197 412 168.50 362.50Q140 313 127.50 255Q115 197 115 154Q115 71 169 71Z"  horiz-adv-x="402" vert-adv-y="1000"  />

      
      <glyph glyph-name="uni70" unicode="&#x70;" d="M196-12Q125-12 104 65L49-184L-44-184L103 483L197 483L183 423Q228 495 285 495Q335 495 361 457Q387 419 387 346Q387 297 375 237.50Q363 178 340.50 121Q318 64 280 26Q242-12 196-12M177 71Q212 71 239.50 122.50Q267 174 278.50 232.50Q290 291 290 335Q290 412 239 412Q220 412 199.50 392.50Q179 373 166 345L120 139Q123 110 139 90.50Q155 71 177 71Z"  horiz-adv-x="406" vert-adv-y="1000"  />

      
      <glyph glyph-name="uni71" unicode="&#x71;" d="M209 495Q281 495 301 418L315 483L409 483L261-184L167-184L222 60Q177-12 120-12Q70-12 44 26Q18 64 18 137Q18 186 30 245.50Q42 305 64.50 362Q87 419 125 457Q163 495 209 495M229 412Q194 412 166 360.50Q138 309 126.50 250.50Q115 192 115 148Q115 71 166 71Q185 71 205.50 90.50Q226 110 239 138L285 344Q282 373 266 392.50Q250 412 229 412Z"  horiz-adv-x="406" vert-adv-y="1000"  />

      
      <glyph glyph-name="uni72" unicode="&#x72;" d="M90 0L-4 0L103 483L197 483L183 418Q227 494 310 494L288 400Q276 404 263 404Q207 404 163 332L90 0Z"  horiz-adv-x="268" vert-adv-y="1000"  />

      
      <glyph glyph-name="uni73" unicode="&#x73;" d="M123-12Q75-12 36 7Q-3 26-21 57L32 118Q64 63 125 63Q154 63 174 83.50Q194 104 194 132Q194 156 172 179.50Q150 203 124 220.50Q98 238 76 270.50Q54 303 54 342Q54 405 95.50 450Q137 495 209 495Q247 495 283 478Q319 461 341 432L290 373Q280 392 256.50 406Q233 420 207 420Q179 420 162 403Q145 386 145 359Q145 338 167.50 315.50Q190 293 216.50 274.50Q243 256 265.50 223Q288 190 288 150Q288 83 242 35.50Q196-12 123-12Z"  horiz-adv-x="330" vert-adv-y="1000"  />

      
      <glyph glyph-name="uni74" unicode="&#x74;" d="M128-12Q29-12 29 68Q29 87 34 107L100 401L53 401L71 483L118 483L147 615L241 615L212 483L275 483L256 401L194 401L132 123Q128 107 128 98Q128 71 156 71Q170 71 183 80L189 5Q164-12 128-12Z"  horiz-adv-x="247" vert-adv-y="1000"  />

      
      <glyph glyph-name="uni75" unicode="&#x75;" d="M103 483L197 483L118 128Q115 114 115 106Q115 71 149 71Q194 71 235 140L311 483L405 483L298 0L204 0L218 62Q164-12 98-12Q59-12 36.50 9Q14 30 14 66Q14 84 18 96L103 483Z"  horiz-adv-x="402" vert-adv-y="1000"  />

      
      <glyph glyph-name="uni76" unicode="&#x76;" d="M175 0L73 0L58 483L155 483L147 117L303 483L405 483L175 0Z"  horiz-adv-x="357" vert-adv-y="1000"  />

      
      <glyph glyph-name="uni77" unicode="&#x77;" d="M408 0L310 0L313 355L161 0L63 0L62 483L156 483L144 129L292 483L383 483L378 129L523 483L624 483L408 0Z"  horiz-adv-x="579" vert-adv-y="1000"  />

      
      <glyph glyph-name="uni78" unicode="&#x78;" d="M291 0L193 0L163 173L56 0L-47 0L117 244L65 483L162 483L188 315L290 483L392 483L233 244L291 0Z"  horiz-adv-x="352" vert-adv-y="1000"  />

      
      <glyph glyph-name="uni79" unicode="&#x79;" d="M-57-185L-26-107Q-20-113-3-113Q21-113 41-74L72-10L58 483L155 483L147 119L303 483L405 483L129-94Q100-152 72-174Q44-196 4-196Q-31-196-57-185Z"  horiz-adv-x="357" vert-adv-y="1000"  />

      
      <glyph glyph-name="uni7a" unicode="&#x7a;" d="M237 0L-24 0L-9 72L208 401L65 401L83 483L340 483L325 414L107 82L255 82L237 0Z"  horiz-adv-x="321" vert-adv-y="1000"  />

      
      <glyph glyph-name="uni7b" unicode="&#x7b;" d="M98-190L76-190Q39-190 11-165.50Q-17-141-18-102Q-18-87-14-75L35 147Q37 157 37 166Q37 215-2 215L11 273Q63 273 78 341L128 565Q153 678 262 678L291 678L276 612L247 612Q208 612 198 565L145 325Q137 289 122.50 268Q108 247 80 236Q109 222 109 181Q109 163 105 147L57-72L54-90Q54-106 63-115.50Q72-125 84-125L113-125L98-190Z"  horiz-adv-x="212" vert-adv-y="1000"  />

      
      <glyph glyph-name="uni7c" unicode="&#x7c;" d="M142-20L77-20L77 687L142 687L142-20Z"  horiz-adv-x="179" vert-adv-y="1000"  />

      
      <glyph glyph-name="uni7d" unicode="&#x7d;" d="M113 678L135 678Q172 678 200.50 653Q229 628 229 589Q229 575 225 563L176 341Q174 331 174 321Q174 273 213 273L200 215Q148 215 133 147L83-77Q58-190-51-190L-80-190L-65-124L-36-124Q3-124 13-77L66 163Q74 199 88.50 220Q103 241 131 252Q102 266 102 307Q102 325 106 341L154 560L157 578Q157 594 148.50 603.50Q140 613 127 613L98 613L113 678Z"  horiz-adv-x="212" vert-adv-y="1000"  />

      
      <glyph glyph-name="uni7e" unicode="&#x7e;" d="M406 667L472 661Q423 419 313 419Q280 419 263 438Q246 457 242.50 484.50Q239 512 238.50 539Q238 566 233.50 585Q229 604 214 604Q174 604 132 418L66 425Q115 666 226 666Q266 666 283 637Q300 608 298.50 573Q297 538 301.50 509Q306 480 324 480Q364 480 406 667Z"  horiz-adv-x="407" vert-adv-y="1000"  />

      
      <glyph glyph-name="unia1" unicode="&#xa1;" d="M89 285L169 285L83-184L-32-184L89 285M168 494Q192 494 209 477Q226 460 226 435Q226 406 205 385.50Q184 365 156 365Q131 365 114 382.50Q97 400 97 424Q97 453 118 473.50Q139 494 168 494Z"  horiz-adv-x="239" vert-adv-y="1000"  />

      
      <glyph glyph-name="unia2" unicode="&#xa2;" d="M98-100L119-5Q21 24 21 162Q21 234 44 306.50Q67 379 116.50 434Q166 489 230 494L246 565L317 565L299 485Q334 471 355 446L308 376Q297 394 281 404L207 73Q230 79 250 100L269 26Q234-5 188-11L169-100L98-100M118 169Q118 116 140 91L209 400Q168 373 143 302.50Q118 232 118 169Z"  horiz-adv-x="333" vert-adv-y="1000"  />

      
      <glyph glyph-name="unia3" unicode="&#xa3;" d="M36 274L50 337L110 337Q93 392 93 437Q93 537 156 607Q219 677 297 677Q359 677 400.50 642.50Q442 608 444 544L354 517Q349 591 298 591Q261 591 232.50 541.50Q204 492 204 424Q204 409 206.50 395Q209 381 214 361.50Q219 342 220 337L293 337L279 274L224 274Q218 219 191.50 171.50Q165 124 129 100Q148 109 164 109Q187 109 218 95Q249 81 266 81Q304 81 334 113L346 29Q307-12 247-12Q208-12 167 8.50Q126 29 103 29Q68 29 21-7L4 66Q55 96 89.50 149.50Q124 203 124 258Q124 269 123 274L36 274Z"  horiz-adv-x="405" vert-adv-y="1000"  />

      
      <glyph glyph-name="unia4" unicode="&#xa4;" d="M199 100Q145 100 109 128L29 63L-21 127L63 195Q53 230 53 267Q53 401 122 490L68 560L133 613L185 544Q222 565 263 565Q316 565 353 538L435 605L486 541L399 471Q410 435 410 397Q410 267 340 176L395 105L330 52L277 121Q238 100 199 100M145 269Q145 183 207 183Q254 183 286 250Q318 317 318 394Q318 482 257 482Q209 482 177 414Q145 346 145 269Z"  horiz-adv-x="419" vert-adv-y="1000"  />

      
      <glyph glyph-name="unia5" unicode="&#xa5;" d="M202 0L98 0L124 120L-5 120L9 182L137 182L159 279L31 279L44 341L148 341L91 667L198 667L229 382L387 667L502 667L301 341L401 341L388 279L263 279L241 182L366 182L352 120L228 120L202 0Z"  horiz-adv-x="405" vert-adv-y="1000"  />

      
      <glyph glyph-name="unia6" unicode="&#xa6;" d="M142-20L77-20L77 296L142 296L142-20M142 371L77 371L77 687L142 687L142 371Z"  horiz-adv-x="179" vert-adv-y="1000"  />

      
      <glyph glyph-name="unia7" unicode="&#xa7;" d="M325 331Q325 281 299 242.50Q273 204 223 184Q270 143 270 85Q270 16 224.50-32.50Q179-81 110-81Q-1-81-42-16L12 44Q42-10 104-10Q135-10 156.50 14Q178 38 178 72Q178 94 164 112Q150 130 130 145Q110 160 89.50 177Q69 194 55 221Q41 248 41 281Q41 331 70.50 369Q100 407 151 418Q96 463 96 527Q96 591 140 634Q184 677 245 677Q340 677 386 615L334 563Q305 609 250 609Q222 609 204 588Q186 567 186 538Q186 517 200.50 498Q215 479 235.50 463.50Q256 448 276 430.50Q296 413 310.50 387.50Q325 362 325 331M237 309Q237 349 204 382Q128 369 128 299Q128 251 175 219Q237 244 237 309Z"  horiz-adv-x="331" vert-adv-y="1000"  />

      
      <glyph glyph-name="unia8" unicode="&#xa8;" d="M347 612Q347 589 328.50 571Q310 553 286 553Q266 553 252 566.50Q238 580 238 601Q238 624 256.50 642Q275 660 299 660Q319 660 333 646.50Q347 633 347 612M194 612Q194 589 175.50 571Q157 553 133 553Q113 553 99 566.50Q85 580 85 601Q85 624 103.50 642Q122 660 146 660Q166 660 180 646.50Q194 633 194 612Z"  horiz-adv-x="272" vert-adv-y="1000"  />

      
      <glyph glyph-name="unia9" unicode="&#xa9;" d="M652.50 577.50Q652.50 577.50 703.25 526.75Q754 476 754 334Q754 192 652.50 90.50Q551-11 408-11Q266-11 165 90Q64 191 64 334Q64 477 165 578Q266 679 408 679Q551 679 652.50 577.50M628.50 114Q628.50 114 674.75 160Q721 206 721 334Q721 462 628.50 554Q536 646 408 646Q280 646 188.50 554Q97 462 97 334Q97 206 188.50 114Q280 22 408 22Q536 22 628.50 114M506 205L527 175Q465 122 391 122Q304 122 251.50 174.50Q199 227 199 307Q199 407 270.50 477Q342 547 434 547Q542 547 591 467L558 443Q521 512 433 512Q359 512 299 452.50Q239 393 239 308Q239 245 281 201Q323 157 391 157Q456 157 506 205Z"  horiz-adv-x="778" vert-adv-y="1000"  />

      
      <glyph glyph-name="uniaa" unicode="&#xaa;" d="M221 592Q188 592 165.50 537.50Q143 483 143 431Q143 374 180 374Q207 374 232 419L260 551Q258 568 247 580Q236 592 221 592M280 640L350 640L281 326L211 326L220 367Q189 318 147 318Q71 318 71 426Q71 474 86 523.50Q101 573 132.50 610.50Q164 648 204 648Q225 648 243.50 635.50Q262 623 271 600L280 640Z"  horiz-adv-x="304" vert-adv-y="1000"  />

      
      <glyph glyph-name="uniab" unicode="&#xab;" d="M152 63L79 63L29 243L159 420L236 420L103 239L152 63M286 63L213 63L163 243L293 420L370 420L237 239L286 63Z"  horiz-adv-x="359" vert-adv-y="1000"  />

      
      <glyph glyph-name="uniac" unicode="&#xac;" d="M399 461L343 207L279 207L321 399L63 399L77 461L399 461Z"  horiz-adv-x="381" vert-adv-y="1000"  />

      
      <glyph glyph-name="uniad" unicode="&#xad;" d="M199 201L20 201L38 282L216 282L199 201Z"  horiz-adv-x="238" vert-adv-y="1000"  />

      
      <glyph glyph-name="uniae" unicode="&#xae;" d="M508 465Q508 377 445.50 315Q383 253 295 253Q207 253 145.50 315Q84 377 84 465Q84 553 146 615Q208 677 296 677Q384 677 446 615.50Q508 554 508 465M478 465Q478 541 424.50 594Q371 647 295 647Q219 647 166.50 594Q114 541 114 465Q114 390 167 336.50Q220 283 295 283Q371 283 424.50 336.50Q478 390 478 465M368 343L329 343L287 439L242 439L221 343L188 343L241 586L333 586Q364 586 384 568.50Q404 551 404 522Q404 487 379 463.50Q354 440 324 440L368 343M369 518Q369 537 357.50 547Q346 557 327 557L268 557L248 469L315 469Q337 469 353 483Q369 497 369 518Z"  horiz-adv-x="494" vert-adv-y="1000"  />

      
      <glyph glyph-name="uniaf" unicode="&#xaf;" d="M325 568L72 568L84 625L337 625L325 568Z"  horiz-adv-x="254" vert-adv-y="1000"  />

      
      <glyph glyph-name="unib0" unicode="&#xb0;" d="M305.50 639.50Q305.50 639.50 324.25 620.75Q343 602 343 550Q343 498 306 461Q269 424 216 424Q164 424 127 461Q90 498 90 550Q90 603 127 640Q164 677 216 677Q268 677 305.50 639.50M266.50 500.50Q266.50 500.50 277.25 510.75Q288 521 288 550Q288 579 266.50 600Q245 621 216 621Q187 621 166.50 600Q146 579 146 550Q146 521 166 500.50Q186 480 215 480Q245 480 266.50 500.50Z"  horiz-adv-x="298" vert-adv-y="1000"  />

      
      <glyph glyph-name="unib1" unicode="&#xb1;" d="M365 306L238 306L204 157L137 157L170 306L43 306L56 368L184 368L215 511L283 511L252 368L379 368L365 306M305 34L-18 34L-4 96L318 96L305 34Z"  horiz-adv-x="381" vert-adv-y="1000"  />

      
      <glyph glyph-name="unib2" unicode="&#xb2;" d="M300 421L68 421L81 479Q211 596 251 642Q291 688 291 723Q291 744 278.50 756Q266 768 245 768Q203 768 168 721L131 768Q183 827 250 827Q299 827 332 801.50Q365 776 365 730Q365 704 355.50 680Q346 656 315 621.50Q284 587 259.50 563Q235 539 171 480L313 480L300 421Z"  horiz-adv-x="281" vert-adv-y="1000"  />

      
      <glyph glyph-name="unib3" unicode="&#xb3;" d="M326 542Q326 494 290.50 454Q255 414 197 414Q153 414 120 432.50Q87 451 74 484L129 524Q145 473 194 473Q223 473 239 498Q255 523 255 552Q255 574 242 585.50Q229 597 209 597Q187 597 181 596L194 655Q199 654 226 654Q254 654 272 673Q290 692 290 724Q290 744 277.50 756Q265 768 243 768Q202 768 170 726L132 767Q181 827 249 827Q302 827 332.50 802.50Q363 778 363 734Q363 696 338.50 662Q314 628 272 622Q326 606 326 542Z"  horiz-adv-x="281" vert-adv-y="1000"  />

      
      <glyph glyph-name="unib4" unicode="&#xb4;" d="M265 700L130 556L67 556L178 700L265 700Z"  horiz-adv-x="164" vert-adv-y="1000"  />

      
      <glyph glyph-name="unib5" unicode="&#xb5;" d="M92 7L50-184L-44-184L103 483L197 483L118 126Q106 70 149 70Q194 70 235 139L311 483L405 483L323 115Q314 71 341 71Q346 71 356 73L346-6Q326-12 300-12Q257-12 241.50 8Q226 28 230 73Q212 34 185.50 11Q159-12 132-12Q106-12 92 7Z"  horiz-adv-x="413" vert-adv-y="1000"  />

      
      <glyph glyph-name="unib6" unicode="&#xb6;" d="M310-100L258-100L418 616L333 616L173-100L122-100L216 323Q159 323 119 367.50Q79 412 79 479Q79 552 135.50 609.50Q192 667 273 667L480 667L310-100Z"  horiz-adv-x="449" vert-adv-y="1000"  />

      
      <glyph glyph-name="unib7" unicode="&#xb7;" d="M113 180Q89 180 72 197Q55 214 55 239Q55 268 75.50 288.50Q96 309 125 309Q150 309 167 291.50Q184 274 184 250Q184 221 163 200.50Q142 180 113 180Z"  horiz-adv-x="239" vert-adv-y="1000"  />

      
      <glyph glyph-name="unib8" unicode="&#xb8;" d="M-1-193Q-56-193-89-155L-61-116Q-37-148 0-148Q20-148 32.50-135Q45-122 45-104Q45-80 22-80Q7-80-4-93L-37-72L13 11L64 11L23-54Q33-44 47-44Q69-44 83-60Q97-76 97-101Q97-140 68.50-166.50Q40-193-1-193Z"  horiz-adv-x="175" vert-adv-y="1000"  />

      
      <glyph glyph-name="unib9" unicode="&#xb9;" d="M223 421L150 421L216 723L149 666L114 710L248 821L311 821L223 421Z"  horiz-adv-x="232" vert-adv-y="1000"  />

      
      <glyph glyph-name="uniba" unicode="&#xba;" d="M180 318Q128 318 101 349.50Q74 381 74 435Q74 481 90 528Q106 575 142 611.50Q178 648 225 648Q277 648 304 616.50Q331 585 331 531Q331 485 315 438Q299 391 263 354.50Q227 318 180 318M183 375Q208 375 226.50 407.50Q245 440 252.50 474.50Q260 509 260 534Q260 590 221 590Q196 590 177.50 558Q159 526 151.50 491Q144 456 144 431Q144 375 183 375Z"  horiz-adv-x="300" vert-adv-y="1000"  />

      
      <glyph glyph-name="unibb" unicode="&#xbb;" d="M73 420L146 420L196 240L66 63L-11 63L122 244L73 420M207 420L280 420L330 240L200 63L123 63L256 244L207 420Z"  horiz-adv-x="359" vert-adv-y="1000"  />

      
      <glyph glyph-name="unibc" unicode="&#xbc;" d="M189 267L116 267L182 569L115 512L80 556L214 667L277 667L189 267M570 95L535 95L514 0L442 0L462 95L318 95L330 153L514 400L602 400L548 153L582 153L570 95M475 153L511 315L393 153L475 153M562 667L138 0L92 0L515 667L562 667Z"  horiz-adv-x="617" vert-adv-y="1000"  />

      
      <glyph glyph-name="unibd" unicode="&#xbd;" d="M189 267L116 267L182 569L115 512L80 556L214 667L277 667L189 267M577 0L345 0L358 58Q488 175 528 221Q568 267 568 302Q568 323 555.50 335Q543 347 522 347Q480 347 445 300L408 347Q460 406 527 406Q576 406 609 380.50Q642 355 642 309Q642 283 632.50 259Q623 235 592 200.50Q561 166 536.50 142Q512 118 448 59L590 59L577 0M562 667L138 0L92 0L515 667L562 667Z"  horiz-adv-x="651" vert-adv-y="1000"  />

      
      <glyph glyph-name="unibe" unicode="&#xbe;" d="M606 95L571 95L550 0L478 0L498 95L354 95L366 153L550 400L638 400L584 153L618 153L606 95M511 153L547 315L429 153L511 153M598 667L174 0L128 0L551 667L598 667M292 388Q292 340 256.50 300Q221 260 163 260Q119 260 86 278.50Q53 297 40 330L95 370Q111 319 160 319Q189 319 205 344Q221 369 221 398Q221 420 208 431.50Q195 443 175 443Q153 443 147 442L160 501Q165 500 192 500Q220 500 238 519Q256 538 256 570Q256 590 243.50 602Q231 614 209 614Q168 614 136 572L98 613Q147 673 215 673Q268 673 298.50 648.50Q329 624 329 580Q329 542 304.50 508Q280 474 238 468Q292 452 292 388Z"  horiz-adv-x="653" vert-adv-y="1000"  />

      
      <glyph glyph-name="unibf" unicode="&#xbf;" d="M119 260L205 290Q215 266 215 229Q215 190 199 157Q183 124 160.50 100Q138 76 115 54.50Q92 33 76 7Q60-19 60-47Q60-72 74-89Q88-106 114-106Q148-106 175-83L205-152Q151-195 85-195Q26-195-11.50-160Q-49-125-49-74Q-49-24-21.50 20Q6 64 38.50 91.50Q71 119 98.50 153.50Q126 188 126 220Q126 245 119 260M204 493Q229 493 245.50 476Q262 459 262 434Q262 406 241.50 385.50Q221 365 192 365Q167 365 150 382Q133 399 133 424Q133 452 154 472.50Q175 493 204 493Z"  horiz-adv-x="280" vert-adv-y="1000"  />

      
      <glyph glyph-name="unic0" unicode="&#xc0;" d="M341 0L237 0L244 136L111 136L59 0L-51 0L232 667L352 667L341 0M251 228L268 548L144 228L251 228M346 723L285 723L214 867L299 867L346 723Z"  horiz-adv-x="398" vert-adv-y="1000"  />

      
      <glyph glyph-name="unic1" unicode="&#xc1;" d="M341 0L237 0L244 136L111 136L59 0L-51 0L232 667L352 667L341 0M251 228L268 548L144 228L251 228M460 867L325 723L262 723L373 867L460 867Z"  horiz-adv-x="398" vert-adv-y="1000"  />

      
      <glyph glyph-name="unic2" unicode="&#xc2;" d="M414 723L363 723L327 821L253 723L197 723L293 867L380 867L414 723M341 0L237 0L244 136L111 136L59 0L-51 0L232 667L352 667L341 0M251 228L268 548L144 228L251 228Z"  horiz-adv-x="398" vert-adv-y="1000"  />

      
      <glyph glyph-name="unic3" unicode="&#xc3;" d="M341 0L237 0L244 136L111 136L59 0L-51 0L232 667L352 667L341 0M251 228L268 548L144 228L251 228M356 721Q335 721 322.50 734Q310 747 306 762.50Q302 778 295 791Q288 804 277 804Q253 804 236 727L185 727Q215 861 284 861Q305 861 318 848Q331 835 335 819.50Q339 804 346 791Q353 778 364 778Q388 778 405 855L456 855Q428 721 356 721Z"  horiz-adv-x="398" vert-adv-y="1000"  />

      
      <glyph glyph-name="unic4" unicode="&#xc4;" d="M447 779Q447 756 428.50 738Q410 720 386 720Q366 720 352 733.50Q338 747 338 768Q338 791 356.50 809Q375 827 399 827Q419 827 433 813.50Q447 800 447 779M294 779Q294 756 275.50 738Q257 720 233 720Q213 720 199 733.50Q185 747 185 768Q185 791 203.50 809Q222 827 246 827Q266 827 280 813.50Q294 800 294 779M341 0L237 0L244 136L111 136L59 0L-51 0L232 667L352 667L341 0M251 228L268 548L144 228L251 228Z"  horiz-adv-x="398" vert-adv-y="1000"  />

      
      <glyph glyph-name="unic5" unicode="&#xc5;" d="M341 0L237 0L244 136L111 136L59 0L-51 0L232 667L352 667L341 0M251 228L268 548L144 228L251 228M307 693Q273 693 251.50 715Q230 737 230 772Q230 810 259 839Q288 868 326 868Q360 868 381.50 846Q403 824 403 789Q403 751 374 722Q345 693 307 693M311 737Q331 737 345.50 751.50Q360 766 360 785Q360 802 349.50 813Q339 824 323 824Q303 824 288.50 809.50Q274 795 274 776Q274 759 284.50 748Q295 737 311 737Z"  horiz-adv-x="398" vert-adv-y="1000"  />

      
      <glyph glyph-name="unic6" unicode="&#xc6;" d="M494 0L221 0L251 136L135 136L65 0L-45 0L323 667L641 667L621 575L453 575L411 386L573 386L552 294L390 294L346 92L514 92L494 0M272 228L340 537L181 228L272 228Z"  horiz-adv-x="584" vert-adv-y="1000"  />

      
      <glyph glyph-name="unic7" unicode="&#xc7;" d="M142-193Q87-193 54-155L82-116Q106-148 143-148Q163-148 175.50-135Q188-122 188-104Q188-80 165-80Q150-80 139-93L106-72L145-6Q34 24 34 190Q34 239 43 299Q52 359 73.50 426.50Q95 494 125 549.50Q155 605 202.50 641.50Q250 678 306 678Q379 678 414.50 628.50Q450 579 454 503L357 484Q350 585 299 585Q263 585 231.50 538Q200 491 181.50 424.50Q163 358 152 294Q141 230 141 187Q141 81 197 81Q241 81 285 164L368 128Q300-11 192-12L166-54Q176-44 190-44Q212-44 226-60Q240-76 240-101Q240-140 211.50-166.50Q183-193 142-193Z"  horiz-adv-x="412" vert-adv-y="1000"  />

      
      <glyph glyph-name="unic8" unicode="&#xc8;" d="M276 0L3 0L150 667L423 667L403 575L234 575L192 386L354 386L333 294L172 294L127 92L296 92L276 0M340 723L279 723L208 867L293 867L340 723Z"  horiz-adv-x="367" vert-adv-y="1000"  />

      
      <glyph glyph-name="unic9" unicode="&#xc9;" d="M454 867L319 723L256 723L367 867L454 867M276 0L3 0L150 667L423 667L403 575L234 575L192 386L354 386L333 294L172 294L127 92L296 92L276 0Z"  horiz-adv-x="367" vert-adv-y="1000"  />

      
      <glyph glyph-name="unica" unicode="&#xca;" d="M409 723L358 723L322 821L248 723L192 723L288 867L375 867L409 723M276 0L3 0L150 667L423 667L403 575L234 575L192 386L354 386L333 294L172 294L127 92L296 92L276 0Z"  horiz-adv-x="367" vert-adv-y="1000"  />

      
      <glyph glyph-name="unicb" unicode="&#xcb;" d="M441 779Q441 756 422.50 738Q404 720 380 720Q360 720 346 733.50Q332 747 332 768Q332 791 350.50 809Q369 827 393 827Q413 827 427 813.50Q441 800 441 779M288 779Q288 756 269.50 738Q251 720 227 720Q207 720 193 733.50Q179 747 179 768Q179 791 197.50 809Q216 827 240 827Q260 827 274 813.50Q288 800 288 779M276 0L3 0L150 667L423 667L403 575L234 575L192 386L354 386L333 294L172 294L127 92L296 92L276 0Z"  horiz-adv-x="367" vert-adv-y="1000"  />

      
      <glyph glyph-name="unicc" unicode="&#xcc;" d="M107 0L3 0L150 667L254 667L107 0M254 723L193 723L122 867L207 867L254 723Z"  horiz-adv-x="218" vert-adv-y="1000"  />

      
      <glyph glyph-name="unicd" unicode="&#xcd;" d="M107 0L3 0L150 667L254 667L107 0M369 867L234 723L171 723L282 867L369 867Z"  horiz-adv-x="218" vert-adv-y="1000"  />

      
      <glyph glyph-name="unice" unicode="&#xce;" d="M324 723L273 723L237 821L163 723L107 723L203 867L290 867L324 723M107 0L3 0L150 667L254 667L107 0Z"  horiz-adv-x="218" vert-adv-y="1000"  />

      
      <glyph glyph-name="unicf" unicode="&#xcf;" d="M356 779Q356 756 337.50 738Q319 720 295 720Q275 720 261 733.50Q247 747 247 768Q247 791 265.50 809Q284 827 308 827Q328 827 342 813.50Q356 800 356 779M203 779Q203 756 184.50 738Q166 720 142 720Q122 720 108 733.50Q94 747 94 768Q94 791 112.50 809Q131 827 155 827Q175 827 189 813.50Q203 800 203 779M107 0L3 0L150 667L254 667L107 0Z"  horiz-adv-x="218" vert-adv-y="1000"  />

      
      <glyph glyph-name="unid0" unicode="&#xd0;" d="M174 0L24 0L88 291L28 291L47 376L107 376L171 667L317 667Q382 667 428 613Q474 559 474 457Q474 424 468 381Q462 338 449 285Q436 232 412.50 183Q389 134 357.50 92Q326 50 278.50 25Q231 0 174 0M268 291L192 291L148 92L192 92Q237 92 273 136.50Q309 181 328 244.50Q347 308 357 364Q367 420 367 456Q367 516 347 545.50Q327 575 297 575L255 575L211 376L287 376L268 291Z"  horiz-adv-x="476" vert-adv-y="1000"  />

      
      <glyph glyph-name="unid1" unicode="&#xd1;" d="M389 721Q368 721 355.50 734Q343 747 339 762.50Q335 778 328 791Q321 804 310 804Q286 804 269 727L218 727Q248 861 317 861Q338 861 351 848Q364 835 368 819.50Q372 804 379 791Q386 778 397 778Q421 778 438 855L489 855Q461 721 389 721M353 0L254 0L197 409L107 0L3 0L150 667L254 667L307 271L395 667L500 667L353 0Z"  horiz-adv-x="463" vert-adv-y="1000"  />

      
      <glyph glyph-name="unid2" unicode="&#xd2;" d="M375 723L314 723L243 867L328 867L375 723M191-12Q112-12 73 44Q34 100 34 190Q34 252 50 330.50Q66 409 96.50 489Q127 569 182.50 623.50Q238 678 306 678Q384 678 423.50 621Q463 564 463 474Q463 427 453.50 366.50Q444 306 422.50 239Q401 172 371 116.50Q341 61 293.50 24.50Q246-12 191-12M197 81Q243 81 281.50 158Q320 235 338 324.50Q356 414 356 477Q356 585 299 585Q253 585 214.50 507.50Q176 430 158.50 340.50Q141 251 141 187Q141 81 197 81Z"  horiz-adv-x="459" vert-adv-y="1000"  />

      
      <glyph glyph-name="unid3" unicode="&#xd3;" d="M491 867L356 723L293 723L404 867L491 867M191-12Q112-12 73 44Q34 100 34 190Q34 252 50 330.50Q66 409 96.50 489Q127 569 182.50 623.50Q238 678 306 678Q384 678 423.50 621Q463 564 463 474Q463 427 453.50 366.50Q444 306 422.50 239Q401 172 371 116.50Q341 61 293.50 24.50Q246-12 191-12M197 81Q243 81 281.50 158Q320 235 338 324.50Q356 414 356 477Q356 585 299 585Q253 585 214.50 507.50Q176 430 158.50 340.50Q141 251 141 187Q141 81 197 81Z"  horiz-adv-x="459" vert-adv-y="1000"  />

      
      <glyph glyph-name="unid4" unicode="&#xd4;" d="M444 723L393 723L357 821L283 723L227 723L323 867L410 867L444 723M191-12Q112-12 73 44Q34 100 34 190Q34 252 50 330.50Q66 409 96.50 489Q127 569 182.50 623.50Q238 678 306 678Q384 678 423.50 621Q463 564 463 474Q463 427 453.50 366.50Q444 306 422.50 239Q401 172 371 116.50Q341 61 293.50 24.50Q246-12 191-12M197 81Q243 81 281.50 158Q320 235 338 324.50Q356 414 356 477Q356 585 299 585Q253 585 214.50 507.50Q176 430 158.50 340.50Q141 251 141 187Q141 81 197 81Z"  horiz-adv-x="459" vert-adv-y="1000"  />

      
      <glyph glyph-name="unid5" unicode="&#xd5;" d="M191-12Q112-12 73 44Q34 100 34 190Q34 252 50 330.50Q66 409 96.50 489Q127 569 182.50 623.50Q238 678 306 678Q384 678 423.50 621Q463 564 463 474Q463 427 453.50 366.50Q444 306 422.50 239Q401 172 371 116.50Q341 61 293.50 24.50Q246-12 191-12M197 81Q243 81 281.50 158Q320 235 338 324.50Q356 414 356 477Q356 585 299 585Q253 585 214.50 507.50Q176 430 158.50 340.50Q141 251 141 187Q141 81 197 81M386 721Q365 721 352.50 734Q340 747 336 762.50Q332 778 325 791Q318 804 307 804Q283 804 266 727L215 727Q245 861 314 861Q335 861 348 848Q361 835 365 819.50Q369 804 376 791Q383 778 394 778Q418 778 435 855L486 855Q458 721 386 721Z"  horiz-adv-x="459" vert-adv-y="1000"  />

      
      <glyph glyph-name="unid6" unicode="&#xd6;" d="M477 779Q477 756 458.50 738Q440 720 416 720Q396 720 382 733.50Q368 747 368 768Q368 791 386.50 809Q405 827 429 827Q449 827 463 813.50Q477 800 477 779M324 779Q324 756 305.50 738Q287 720 263 720Q243 720 229 733.50Q215 747 215 768Q215 791 233.50 809Q252 827 276 827Q296 827 310 813.50Q324 800 324 779M191-12Q112-12 73 44Q34 100 34 190Q34 252 50 330.50Q66 409 96.50 489Q127 569 182.50 623.50Q238 678 306 678Q384 678 423.50 621Q463 564 463 474Q463 427 453.50 366.50Q444 306 422.50 239Q401 172 371 116.50Q341 61 293.50 24.50Q246-12 191-12M197 81Q243 81 281.50 158Q320 235 338 324.50Q356 414 356 477Q356 585 299 585Q253 585 214.50 507.50Q176 430 158.50 340.50Q141 251 141 187Q141 81 197 81Z"  horiz-adv-x="459" vert-adv-y="1000"  />

      
      <glyph glyph-name="unid7" unicode="&#xd7;" d="M283 189L204 290L76 185L38 233L167 338L88 439L137 479L215 378L344 483L382 435L254 330L332 229L283 189Z"  horiz-adv-x="381" vert-adv-y="1000"  />

      
      <glyph glyph-name="unid8" unicode="&#xd8;" d="M191-12Q121-12 80 35L57 0L-7 0L51 86Q34 128 34 190Q34 252 50 330.50Q66 409 96.50 489Q127 569 182.50 623.50Q238 678 306 678Q375 678 417 629L442 667L506 667L446 578Q463 530 463 474Q463 427 453.50 366.50Q444 306 422.50 239Q401 172 371 116.50Q341 61 293.50 24.50Q246-12 191-12M299 585Q267 585 238 546.50Q209 508 190 450Q171 392 158.50 332.50Q146 273 142 221L351 531Q338 585 299 585M197 81Q239 81 275 146.50Q311 212 329.50 291Q348 370 354 441L146 132Q157 81 197 81Z"  horiz-adv-x="459" vert-adv-y="1000"  />

      
      <glyph glyph-name="unid9" unicode="&#xd9;" d="M197-12Q128-12 83.50 30Q39 72 39 143Q39 165 44 188L150 667L254 667L146 179Q143 158 143 147Q143 115 160 97.50Q177 80 205 80Q237 80 257 103Q277 126 289 179L396 667L500 667L394 184Q350-12 197-12M376 723L315 723L244 867L329 867L376 723Z"  horiz-adv-x="464" vert-adv-y="1000"  />

      
      <glyph glyph-name="unida" unicode="&#xda;" d="M492 867L357 723L294 723L405 867L492 867M197-12Q128-12 83.50 30Q39 72 39 143Q39 165 44 188L150 667L254 667L146 179Q143 158 143 147Q143 115 160 97.50Q177 80 205 80Q237 80 257 103Q277 126 289 179L396 667L500 667L394 184Q350-12 197-12Z"  horiz-adv-x="464" vert-adv-y="1000"  />

      
      <glyph glyph-name="unidb" unicode="&#xdb;" d="M446 723L395 723L359 821L285 723L229 723L325 867L412 867L446 723M197-12Q128-12 83.50 30Q39 72 39 143Q39 165 44 188L150 667L254 667L146 179Q143 158 143 147Q143 115 160 97.50Q177 80 205 80Q237 80 257 103Q277 126 289 179L396 667L500 667L394 184Q350-12 197-12Z"  horiz-adv-x="464" vert-adv-y="1000"  />

      
      <glyph glyph-name="unidc" unicode="&#xdc;" d="M478 779Q478 756 459.50 738Q441 720 417 720Q397 720 383 733.50Q369 747 369 768Q369 791 387.50 809Q406 827 430 827Q450 827 464 813.50Q478 800 478 779M325 779Q325 756 306.50 738Q288 720 264 720Q244 720 230 733.50Q216 747 216 768Q216 791 234.50 809Q253 827 277 827Q297 827 311 813.50Q325 800 325 779M197-12Q128-12 83.50 30Q39 72 39 143Q39 165 44 188L150 667L254 667L146 179Q143 158 143 147Q143 115 160 97.50Q177 80 205 80Q237 80 257 103Q277 126 289 179L396 667L500 667L394 184Q350-12 197-12Z"  horiz-adv-x="464" vert-adv-y="1000"  />

      
      <glyph glyph-name="unidd" unicode="&#xdd;" d="M201 0L97 0L158 279L90 667L197 667L228 382L386 667L501 667L262 279L201 0M465 867L330 723L267 723L378 867L465 867Z"  horiz-adv-x="405" vert-adv-y="1000"  />

      
      <glyph glyph-name="unide" unicode="&#xde;" d="M107 0L3 0L150 667L254 667L229 552L272 552Q337 552 378 507Q419 462 419 391Q419 347 405.50 304Q392 261 366 223.50Q340 186 295 163Q250 140 193 140L138 140L107 0M202 232Q251 232 280.50 277Q310 322 310 381Q310 418 293.50 439Q277 460 248 460L208 460L158 232L202 232Z"  horiz-adv-x="418" vert-adv-y="1000"  />

      
      <glyph glyph-name="unidf" unicode="&#xdf;" d="M453 149Q453 87 409 37.50Q365-12 295-12Q199-12 152 55L202 116Q235 64 285 64Q311 64 331 84Q351 104 351 135Q351 153 338.50 170Q326 187 308 201.50Q290 216 271.50 232.50Q253 249 240.50 273.50Q228 298 228 328Q228 363 242.50 390Q257 417 277.50 433.50Q298 450 318 464Q338 478 352.50 496Q367 514 367 537Q367 563 348.50 578.50Q330 594 298 594Q229 594 208 502L97 0L4 0L114 502Q132 582 181.50 629.50Q231 677 306 677Q373 677 418.50 640.50Q464 604 464 547Q464 506 442 474.50Q420 443 394 427.50Q368 412 346 390.50Q324 369 324 345Q324 327 337.50 310.50Q351 294 369.50 280Q388 266 407 249.50Q426 233 439.50 207Q453 181 453 149Z"  horiz-adv-x="489" vert-adv-y="1000"  />

      
      <glyph glyph-name="unie0" unicode="&#xe0;" d="M209 495Q281 495 301 418L316 483L409 483L302 0L208 0L222 60Q177-12 120-12Q70-12 44 26Q18 64 18 137Q18 186 30 245.50Q42 305 64.50 362Q87 419 125 457Q163 495 209 495M229 412Q194 412 166 360.50Q138 309 126.50 250.50Q115 192 115 148Q115 71 166 71Q185 71 205.50 90.50Q226 110 239 138L285 344Q282 373 266 392.50Q250 412 229 412M310 556L249 556L178 700L263 700L310 556Z"  horiz-adv-x="406" vert-adv-y="1000"  />

      
      <glyph glyph-name="unie1" unicode="&#xe1;" d="M209 495Q281 495 301 418L316 483L409 483L302 0L208 0L222 60Q177-12 120-12Q70-12 44 26Q18 64 18 137Q18 186 30 245.50Q42 305 64.50 362Q87 419 125 457Q163 495 209 495M229 412Q194 412 166 360.50Q138 309 126.50 250.50Q115 192 115 148Q115 71 166 71Q185 71 205.50 90.50Q226 110 239 138L285 344Q282 373 266 392.50Q250 412 229 412M424 700L289 556L226 556L337 700L424 700Z"  horiz-adv-x="406" vert-adv-y="1000"  />

      
      <glyph glyph-name="unie2" unicode="&#xe2;" d="M209 495Q281 495 301 418L316 483L409 483L302 0L208 0L222 60Q177-12 120-12Q70-12 44 26Q18 64 18 137Q18 186 30 245.50Q42 305 64.50 362Q87 419 125 457Q163 495 209 495M229 412Q194 412 166 360.50Q138 309 126.50 250.50Q115 192 115 148Q115 71 166 71Q185 71 205.50 90.50Q226 110 239 138L285 344Q282 373 266 392.50Q250 412 229 412M378 556L327 556L291 654L217 556L161 556L257 700L344 700L378 556Z"  horiz-adv-x="406" vert-adv-y="1000"  />

      
      <glyph glyph-name="unie3" unicode="&#xe3;" d="M209 495Q281 495 301 418L316 483L409 483L302 0L208 0L222 60Q177-12 120-12Q70-12 44 26Q18 64 18 137Q18 186 30 245.50Q42 305 64.50 362Q87 419 125 457Q163 495 209 495M229 412Q194 412 166 360.50Q138 309 126.50 250.50Q115 192 115 148Q115 71 166 71Q185 71 205.50 90.50Q226 110 239 138L285 344Q282 373 266 392.50Q250 412 229 412M320 554Q299 554 286.50 567Q274 580 270 595.50Q266 611 259 624Q252 637 241 637Q217 637 200 560L149 560Q179 694 248 694Q269 694 282 681Q295 668 299 652.50Q303 637 310 624Q317 611 328 611Q352 611 369 688L420 688Q392 554 320 554Z"  horiz-adv-x="406" vert-adv-y="1000"  />

      
      <glyph glyph-name="unie4" unicode="&#xe4;" d="M209 495Q281 495 301 418L316 483L409 483L302 0L208 0L222 60Q177-12 120-12Q70-12 44 26Q18 64 18 137Q18 186 30 245.50Q42 305 64.50 362Q87 419 125 457Q163 495 209 495M229 412Q194 412 166 360.50Q138 309 126.50 250.50Q115 192 115 148Q115 71 166 71Q185 71 205.50 90.50Q226 110 239 138L285 344Q282 373 266 392.50Q250 412 229 412M411 612Q411 589 392.50 571Q374 553 350 553Q330 553 316 566.50Q302 580 302 601Q302 624 320.50 642Q339 660 363 660Q383 660 397 646.50Q411 633 411 612M258 612Q258 589 239.50 571Q221 553 197 553Q177 553 163 566.50Q149 580 149 601Q149 624 167.50 642Q186 660 210 660Q230 660 244 646.50Q258 633 258 612Z"  horiz-adv-x="406" vert-adv-y="1000"  />

      
      <glyph glyph-name="unie5" unicode="&#xe5;" d="M209 495Q281 495 301 418L316 483L409 483L302 0L208 0L222 60Q177-12 120-12Q70-12 44 26Q18 64 18 137Q18 186 30 245.50Q42 305 64.50 362Q87 419 125 457Q163 495 209 495M229 412Q194 412 166 360.50Q138 309 126.50 250.50Q115 192 115 148Q115 71 166 71Q185 71 205.50 90.50Q226 110 239 138L285 344Q282 373 266 392.50Q250 412 229 412M275 533Q241 533 219.50 555Q198 577 198 612Q198 650 227 679Q256 708 294 708Q328 708 349.50 686Q371 664 371 629Q371 591 342 562Q313 533 275 533M279 577Q299 577 313.50 591.50Q328 606 328 625Q328 642 317.50 653Q307 664 291 664Q271 664 256.50 649.50Q242 635 242 616Q242 599 252.50 588Q263 577 279 577Z"  horiz-adv-x="406" vert-adv-y="1000"  />

      
      <glyph glyph-name="unie6" unicode="&#xe6;" d="M229 412Q194 412 166 360.50Q138 309 126.50 250.50Q115 192 115 148Q115 71 166 71Q185 71 205.50 90.50Q226 110 239 138L285 344Q282 373 266 392.50Q250 412 229 412M322 87L302 0L208 0L222 60Q177-12 120-12Q70-12 44 26Q18 64 18 137Q18 186 30 245.50Q42 305 64.50 362Q87 419 125 457Q163 495 209 495Q281 495 301 418L316 483L409 483L396 424Q441 495 502 495Q609 493 609 344Q609 283 590 211L350 211Q345 187 345 158Q345 118 365.50 92Q386 66 428 66Q469 66 512 114L547 49Q494-12 430-12Q337-12 322 87M364 278L515 278Q523 312 523 338Q523 374 508.50 396Q494 418 467 418Q426 418 399.50 374.50Q373 331 364 278Z"  horiz-adv-x="626" vert-adv-y="1000"  />

      
      <glyph glyph-name="unie7" unicode="&#xe7;" d="M120-193Q65-193 32-155L60-116Q84-148 121-148Q141-148 153.50-135Q166-122 166-104Q166-80 143-80Q128-80 117-93L84-72L123-6Q21 22 21 162Q21 236 45.50 310.50Q70 385 122.50 440Q175 495 242 495Q316 495 355 446L308 376Q288 412 248 412Q209 412 178 369Q147 326 132.50 271.50Q118 217 118 169Q118 71 190 71Q223 71 250 100L269 26Q227-12 170-12L144-54Q154-44 168-44Q190-44 204-60Q218-76 218-101Q218-140 189.50-166.50Q161-193 120-193Z"  horiz-adv-x="333" vert-adv-y="1000"  />

      
      <glyph glyph-name="unie8" unicode="&#xe8;" d="M174-12Q101-12 60.50 33Q20 78 20 163Q20 197 27.50 239Q35 281 52.50 326.50Q70 372 94.50 409.50Q119 447 156 471Q193 495 236 495Q374 495 374 337Q374 287 355 211L114 211Q108 188 108 158Q108 118 127.50 91.50Q147 65 190 65Q235 65 275 112L311 54Q253-12 174-12M127 278L280 278Q288 310 288 338Q288 373 272.50 395.50Q257 418 229 418Q188 418 162 374.50Q136 331 127 278M314 556L253 556L182 700L267 700L314 556Z"  horiz-adv-x="391" vert-adv-y="1000"  />

      
      <glyph glyph-name="unie9" unicode="&#xe9;" d="M430 700L295 556L232 556L343 700L430 700M174-12Q101-12 60.50 33Q20 78 20 163Q20 197 27.50 239Q35 281 52.50 326.50Q70 372 94.50 409.50Q119 447 156 471Q193 495 236 495Q374 495 374 337Q374 287 355 211L114 211Q108 188 108 158Q108 118 127.50 91.50Q147 65 190 65Q235 65 275 112L311 54Q253-12 174-12M127 278L280 278Q288 310 288 338Q288 373 272.50 395.50Q257 418 229 418Q188 418 162 374.50Q136 331 127 278Z"  horiz-adv-x="391" vert-adv-y="1000"  />

      
      <glyph glyph-name="uniea" unicode="&#xea;" d="M383 556L332 556L296 654L222 556L166 556L262 700L349 700L383 556M174-12Q101-12 60.50 33Q20 78 20 163Q20 197 27.50 239Q35 281 52.50 326.50Q70 372 94.50 409.50Q119 447 156 471Q193 495 236 495Q374 495 374 337Q374 287 355 211L114 211Q108 188 108 158Q108 118 127.50 91.50Q147 65 190 65Q235 65 275 112L311 54Q253-12 174-12M127 278L280 278Q288 310 288 338Q288 373 272.50 395.50Q257 418 229 418Q188 418 162 374.50Q136 331 127 278Z"  horiz-adv-x="391" vert-adv-y="1000"  />

      
      <glyph glyph-name="unieb" unicode="&#xeb;" d="M416 612Q416 589 397.50 571Q379 553 355 553Q335 553 321 566.50Q307 580 307 601Q307 624 325.50 642Q344 660 368 660Q388 660 402 646.50Q416 633 416 612M263 612Q263 589 244.50 571Q226 553 202 553Q182 553 168 566.50Q154 580 154 601Q154 624 172.50 642Q191 660 215 660Q235 660 249 646.50Q263 633 263 612M174-12Q101-12 60.50 33Q20 78 20 163Q20 197 27.50 239Q35 281 52.50 326.50Q70 372 94.50 409.50Q119 447 156 471Q193 495 236 495Q374 495 374 337Q374 287 355 211L114 211Q108 188 108 158Q108 118 127.50 91.50Q147 65 190 65Q235 65 275 112L311 54Q253-12 174-12M127 278L280 278Q288 310 288 338Q288 373 272.50 395.50Q257 418 229 418Q188 418 162 374.50Q136 331 127 278Z"  horiz-adv-x="391" vert-adv-y="1000"  />

      
      <glyph glyph-name="uniec" unicode="&#xec;" d="M90 0L-4 0L103 483L197 483L90 0M206 556L145 556L74 700L159 700L206 556Z"  horiz-adv-x="194" vert-adv-y="1000"  />

      
      <glyph glyph-name="unied" unicode="&#xed;" d="M320 700L185 556L122 556L233 700L320 700M90 0L-4 0L103 483L197 483L90 0Z"  horiz-adv-x="194" vert-adv-y="1000"  />

      
      <glyph glyph-name="uniee" unicode="&#xee;" d="M276 556L225 556L189 654L115 556L59 556L155 700L242 700L276 556M90 0L-4 0L103 483L197 483L90 0Z"  horiz-adv-x="194" vert-adv-y="1000"  />

      
      <glyph glyph-name="unief" unicode="&#xef;" d="M308 612Q308 589 289.50 571Q271 553 247 553Q227 553 213 566.50Q199 580 199 601Q199 624 217.50 642Q236 660 260 660Q280 660 294 646.50Q308 633 308 612M155 612Q155 589 136.50 571Q118 553 94 553Q74 553 60 566.50Q46 580 46 601Q46 624 64.50 642Q83 660 107 660Q127 660 141 646.50Q155 633 155 612M90 0L-4 0L103 483L197 483L90 0Z"  horiz-adv-x="194" vert-adv-y="1000"  />

      
      <glyph glyph-name="unif0" unicode="&#xf0;" d="M186 507L175 555L280 586Q270 638 258 667L351 696Q364 656 374 614L444 635L455 588L384 566Q394 506 394 424Q394 355 381.50 283Q369 211 343.50 143Q318 75 272 31.50Q226-12 167-12Q93-12 56 32Q19 76 19 155Q19 222 41 293Q63 364 109 418Q155 472 213 472Q248 472 271 451.50Q294 431 301 396Q299 465 289 538L186 507M169 71Q194 71 216.50 97.50Q239 124 252.50 162.50Q266 201 273.50 240Q281 279 281 309Q281 341 268 365Q255 389 226 389Q192 389 165.50 343.50Q139 298 127 245.50Q115 193 115 154Q115 71 169 71Z"  horiz-adv-x="402" vert-adv-y="1000"  />

      
      <glyph glyph-name="unif1" unicode="&#xf1;" d="M298 0L204 0L283 355Q286 370 286 377Q286 412 252 412Q207 412 164 340L90 0L-4 0L103 483L197 483L183 421Q237 495 303 495Q342 495 364.50 474Q387 453 387 417Q387 399 383 387L298 0M322 554Q301 554 288.50 567Q276 580 272 595.50Q268 611 261 624Q254 637 243 637Q219 637 202 560L151 560Q181 694 250 694Q271 694 284 681Q297 668 301 652.50Q305 637 312 624Q319 611 330 611Q354 611 371 688L422 688Q394 554 322 554Z"  horiz-adv-x="402" vert-adv-y="1000"  />

      
      <glyph glyph-name="unif2" unicode="&#xf2;" d="M163-12Q94-12 57 31.50Q20 75 20 156Q20 230 43.50 305.50Q67 381 118.50 438Q170 495 237 495Q306 495 343 452Q380 409 380 327Q380 253 356.50 177.50Q333 102 281.50 45Q230-12 163-12M169 71Q204 71 232 120.50Q260 170 272.50 227.50Q285 285 285 328Q285 412 232 412Q197 412 168.50 362.50Q140 313 127.50 255Q115 197 115 154Q115 71 169 71M311 556L250 556L179 700L264 700L311 556Z"  horiz-adv-x="402" vert-adv-y="1000"  />

      
      <glyph glyph-name="unif3" unicode="&#xf3;" d="M426 700L291 556L228 556L339 700L426 700M163-12Q94-12 57 31.50Q20 75 20 156Q20 230 43.50 305.50Q67 381 118.50 438Q170 495 237 495Q306 495 343 452Q380 409 380 327Q380 253 356.50 177.50Q333 102 281.50 45Q230-12 163-12M169 71Q204 71 232 120.50Q260 170 272.50 227.50Q285 285 285 328Q285 412 232 412Q197 412 168.50 362.50Q140 313 127.50 255Q115 197 115 154Q115 71 169 71Z"  horiz-adv-x="402" vert-adv-y="1000"  />

      
      <glyph glyph-name="unif4" unicode="&#xf4;" d="M380 556L329 556L293 654L219 556L163 556L259 700L346 700L380 556M163-12Q94-12 57 31.50Q20 75 20 156Q20 230 43.50 305.50Q67 381 118.50 438Q170 495 237 495Q306 495 343 452Q380 409 380 327Q380 253 356.50 177.50Q333 102 281.50 45Q230-12 163-12M169 71Q204 71 232 120.50Q260 170 272.50 227.50Q285 285 285 328Q285 412 232 412Q197 412 168.50 362.50Q140 313 127.50 255Q115 197 115 154Q115 71 169 71Z"  horiz-adv-x="402" vert-adv-y="1000"  />

      
      <glyph glyph-name="unif5" unicode="&#xf5;" d="M163-12Q94-12 57 31.50Q20 75 20 156Q20 230 43.50 305.50Q67 381 118.50 438Q170 495 237 495Q306 495 343 452Q380 409 380 327Q380 253 356.50 177.50Q333 102 281.50 45Q230-12 163-12M169 71Q204 71 232 120.50Q260 170 272.50 227.50Q285 285 285 328Q285 412 232 412Q197 412 168.50 362.50Q140 313 127.50 255Q115 197 115 154Q115 71 169 71M322 554Q301 554 288.50 567Q276 580 272 595.50Q268 611 261 624Q254 637 243 637Q219 637 202 560L151 560Q181 694 250 694Q271 694 284 681Q297 668 301 652.50Q305 637 312 624Q319 611 330 611Q354 611 371 688L422 688Q394 554 322 554Z"  horiz-adv-x="402" vert-adv-y="1000"  />

      
      <glyph glyph-name="unif6" unicode="&#xf6;" d="M413 612Q413 589 394.50 571Q376 553 352 553Q332 553 318 566.50Q304 580 304 601Q304 624 322.50 642Q341 660 365 660Q385 660 399 646.50Q413 633 413 612M260 612Q260 589 241.50 571Q223 553 199 553Q179 553 165 566.50Q151 580 151 601Q151 624 169.50 642Q188 660 212 660Q232 660 246 646.50Q260 633 260 612M163-12Q94-12 57 31.50Q20 75 20 156Q20 230 43.50 305.50Q67 381 118.50 438Q170 495 237 495Q306 495 343 452Q380 409 380 327Q380 253 356.50 177.50Q333 102 281.50 45Q230-12 163-12M169 71Q204 71 232 120.50Q260 170 272.50 227.50Q285 285 285 328Q285 412 232 412Q197 412 168.50 362.50Q140 313 127.50 255Q115 197 115 154Q115 71 169 71Z"  horiz-adv-x="402" vert-adv-y="1000"  />

      
      <glyph glyph-name="unif7" unicode="&#xf7;" d="M359 306L43 306L56 368L372 368L359 306M171 141Q151 141 137.50 154.50Q124 168 124 187Q124 210 140.50 226.50Q157 243 180 243Q199 243 213 229Q227 215 227 196Q227 173 210.50 157Q194 141 171 141M235 429Q216 429 202.50 442.50Q189 456 189 476Q189 499 205.50 515Q222 531 245 531Q264 531 277.50 517.50Q291 504 291 484Q291 461 274.50 445Q258 429 235 429Z"  horiz-adv-x="374" vert-adv-y="1000"  />

      
      <glyph glyph-name="unif8" unicode="&#xf8;" d="M42 0L-16 0L35 66Q20 104 20 156Q20 230 43.50 305.50Q67 381 118.50 438Q170 495 237 495Q302 495 338 457L359 483L417 483L364 415Q380 377 380 327Q380 253 356.50 177.50Q333 102 281.50 45Q230-12 163-12Q98-12 62 26L42 0M232 412Q184 412 152 330.50Q120 249 115 169L278 378Q266 412 232 412M169 71Q216 71 248 153Q280 235 284 312L122 103Q134 71 169 71Z"  horiz-adv-x="402" vert-adv-y="1000"  />

      
      <glyph glyph-name="unif9" unicode="&#xf9;" d="M103 483L197 483L118 128Q115 114 115 106Q115 71 149 71Q194 71 235 140L311 483L405 483L298 0L204 0L218 62Q164-12 98-12Q59-12 36.50 9Q14 30 14 66Q14 84 18 96L103 483M312 556L251 556L180 700L265 700L312 556Z"  horiz-adv-x="402" vert-adv-y="1000"  />

      
      <glyph glyph-name="unifa" unicode="&#xfa;" d="M426 700L291 556L228 556L339 700L426 700M103 483L197 483L118 128Q115 114 115 106Q115 71 149 71Q194 71 235 140L311 483L405 483L298 0L204 0L218 62Q164-12 98-12Q59-12 36.50 9Q14 30 14 66Q14 84 18 96L103 483Z"  horiz-adv-x="402" vert-adv-y="1000"  />

      
      <glyph glyph-name="unifb" unicode="&#xfb;" d="M380 556L329 556L293 654L219 556L163 556L259 700L346 700L380 556M103 483L197 483L118 128Q115 114 115 106Q115 71 149 71Q194 71 235 140L311 483L405 483L298 0L204 0L218 62Q164-12 98-12Q59-12 36.50 9Q14 30 14 66Q14 84 18 96L103 483Z"  horiz-adv-x="402" vert-adv-y="1000"  />

      
      <glyph glyph-name="unifc" unicode="&#xfc;" d="M413 612Q413 589 394.50 571Q376 553 352 553Q332 553 318 566.50Q304 580 304 601Q304 624 322.50 642Q341 660 365 660Q385 660 399 646.50Q413 633 413 612M260 612Q260 589 241.50 571Q223 553 199 553Q179 553 165 566.50Q151 580 151 601Q151 624 169.50 642Q188 660 212 660Q232 660 246 646.50Q260 633 260 612M103 483L197 483L118 128Q115 114 115 106Q115 71 149 71Q194 71 235 140L311 483L405 483L298 0L204 0L218 62Q164-12 98-12Q59-12 36.50 9Q14 30 14 66Q14 84 18 96L103 483Z"  horiz-adv-x="402" vert-adv-y="1000"  />

      
      <glyph glyph-name="unifd" unicode="&#xfd;" d="M-57-185L-26-107Q-20-113-3-113Q21-113 41-74L72-10L58 483L155 483L147 119L303 483L405 483L129-94Q100-152 72-174Q44-196 4-196Q-31-196-57-185M399 700L264 556L201 556L312 700L399 700Z"  horiz-adv-x="357" vert-adv-y="1000"  />

      
      <glyph glyph-name="unife" unicode="&#xfe;" d="M196-12Q125-12 104 65L49-184L-44-184L143 667L237 667L183 423Q228 495 285 495Q335 495 361 457Q387 419 387 346Q387 297 375 237.50Q363 178 340.50 121Q318 64 280 26Q242-12 196-12M177 71Q212 71 239.50 122.50Q267 174 278.50 232.50Q290 291 290 335Q290 412 239 412Q220 412 199.50 392.50Q179 373 166 345L120 139Q123 110 139 90.50Q155 71 177 71Z"  horiz-adv-x="406" vert-adv-y="1000"  />

      
      <glyph glyph-name="uniff" unicode="&#xff;" d="M-57-185L-26-107Q-20-113-3-113Q21-113 41-74L72-10L58 483L155 483L147 119L303 483L405 483L129-94Q100-152 72-174Q44-196 4-196Q-31-196-57-185M387 612Q387 589 368.50 571Q350 553 326 553Q306 553 292 566.50Q278 580 278 601Q278 624 296.50 642Q315 660 339 660Q359 660 373 646.50Q387 633 387 612M234 612Q234 589 215.50 571Q197 553 173 553Q153 553 139 566.50Q125 580 125 601Q125 624 143.50 642Q162 660 186 660Q206 660 220 646.50Q234 633 234 612Z"  horiz-adv-x="357" vert-adv-y="1000"  />

      
      <glyph glyph-name="uni0100" unicode="&#x0100;" d="M341 0L237 0L244 136L111 136L59 0L-51 0L232 667L352 667L341 0M251 228L268 548L144 228L251 228M435 735L182 735L194 792L447 792L435 735Z"  horiz-adv-x="398" vert-adv-y="1000"  />

      
      <glyph glyph-name="uni0101" unicode="&#x0101;" d="M209 495Q281 495 301 418L316 483L409 483L302 0L208 0L222 60Q177-12 120-12Q70-12 44 26Q18 64 18 137Q18 186 30 245.50Q42 305 64.50 362Q87 419 125 457Q163 495 209 495M229 412Q194 412 166 360.50Q138 309 126.50 250.50Q115 192 115 148Q115 71 166 71Q185 71 205.50 90.50Q226 110 239 138L285 344Q282 373 266 392.50Q250 412 229 412M399 568L146 568L158 625L411 625L399 568Z"  horiz-adv-x="406" vert-adv-y="1000"  />

      
      <glyph glyph-name="uni0102" unicode="&#x0102;" d="M341 0L237 0L244 136L111 136L59 0L-51 0L232 667L352 667L341 0M251 228L268 548L144 228L251 228M436 777Q377 715 301 715Q225 715 192 777L242 812Q260 772 310 772Q360 772 394 812L436 777Z"  horiz-adv-x="398" vert-adv-y="1000"  />

      
      <glyph glyph-name="uni0103" unicode="&#x0103;" d="M209 495Q281 495 301 418L316 483L409 483L302 0L208 0L222 60Q177-12 120-12Q70-12 44 26Q18 64 18 137Q18 186 30 245.50Q42 305 64.50 362Q87 419 125 457Q163 495 209 495M229 412Q194 412 166 360.50Q138 309 126.50 250.50Q115 192 115 148Q115 71 166 71Q185 71 205.50 90.50Q226 110 239 138L285 344Q282 373 266 392.50Q250 412 229 412M400 610Q341 548 265 548Q189 548 156 610L206 645Q224 605 274 605Q324 605 358 645L400 610Z"  horiz-adv-x="406" vert-adv-y="1000"  />

      
      <glyph glyph-name="uni0104" unicode="&#x0104;" d="M310-112L347-138Q319-186 272-186Q241-186 222.50-170.50Q204-155 204-124Q204-57 273 0L237 0L244 136L111 136L59 0L-51 0L232 667L352 667L341 0Q254-55 254-119Q254-142 277-142Q299-142 310-112M251 228L268 548L144 228L251 228Z"  horiz-adv-x="398" vert-adv-y="1000"  />

      
      <glyph glyph-name="uni0105" unicode="&#x0105;" d="M271-112L308-138Q280-186 233-186Q202-186 183.50-170.50Q165-155 165-124Q165-57 234 0L208 0L222 60Q177-12 120-12Q70-12 44 26Q18 64 18 137Q18 186 30 245.50Q42 305 64.50 362Q87 419 125 457Q163 495 209 495Q281 495 301 418L316 483L409 483L302 0Q215-55 215-119Q215-142 238-142Q260-142 271-112M229 412Q194 412 166 360.50Q138 309 126.50 250.50Q115 192 115 148Q115 71 166 71Q185 71 205.50 90.50Q226 110 239 138L285 344Q282 373 266 392.50Q250 412 229 412Z"  horiz-adv-x="406" vert-adv-y="1000"  />

      
      <glyph glyph-name="uni0106" unicode="&#x0106;" d="M490 872L355 728L292 728L403 872L490 872M191-12Q116-12 75 40.50Q34 93 34 190Q34 239 43 299Q52 359 73.50 426.50Q95 494 125 549.50Q155 605 202.50 641.50Q250 678 306 678Q379 678 414.50 628.50Q450 579 454 503L357 484Q350 585 299 585Q263 585 231.50 538Q200 491 181.50 424.50Q163 358 152 294Q141 230 141 187Q141 81 197 81Q241 81 285 164L368 128Q300-12 191-12Z"  horiz-adv-x="412" vert-adv-y="1000"  />

      
      <glyph glyph-name="uni0107" unicode="&#x0107;" d="M433 700L298 556L235 556L346 700L433 700M170-12Q100-12 60.50 32.50Q21 77 21 162Q21 236 45.50 310.50Q70 385 122.50 440Q175 495 242 495Q316 495 355 446L308 376Q288 412 248 412Q209 412 178 369Q147 326 132.50 271.50Q118 217 118 169Q118 71 190 71Q223 71 250 100L269 26Q227-12 170-12Z"  horiz-adv-x="333" vert-adv-y="1000"  />

      
      <glyph glyph-name="uni0108" unicode="&#x0108;" d="M444 723L393 723L357 821L283 723L227 723L323 867L410 867L444 723M191-12Q116-12 75 40.50Q34 93 34 190Q34 239 43 299Q52 359 73.50 426.50Q95 494 125 549.50Q155 605 202.50 641.50Q250 678 306 678Q379 678 414.50 628.50Q450 579 454 503L357 484Q350 585 299 585Q263 585 231.50 538Q200 491 181.50 424.50Q163 358 152 294Q141 230 141 187Q141 81 197 81Q241 81 285 164L368 128Q300-12 191-12Z"  horiz-adv-x="412" vert-adv-y="1000"  />

      
      <glyph glyph-name="uni0109" unicode="&#x0109;" d="M387 556L336 556L300 654L226 556L170 556L266 700L353 700L387 556M170-12Q100-12 60.50 32.50Q21 77 21 162Q21 236 45.50 310.50Q70 385 122.50 440Q175 495 242 495Q316 495 355 446L308 376Q288 412 248 412Q209 412 178 369Q147 326 132.50 271.50Q118 217 118 169Q118 71 190 71Q223 71 250 100L269 26Q227-12 170-12Z"  horiz-adv-x="333" vert-adv-y="1000"  />

      
      <glyph glyph-name="uni010A" unicode="&#x010A;" d="M191-12Q116-12 75 40.50Q34 93 34 190Q34 239 43 299Q52 359 73.50 426.50Q95 494 125 549.50Q155 605 202.50 641.50Q250 678 306 678Q379 678 414.50 628.50Q450 579 454 503L357 484Q350 585 299 585Q263 585 231.50 538Q200 491 181.50 424.50Q163 358 152 294Q141 230 141 187Q141 81 197 81Q241 81 285 164L368 128Q300-12 191-12M400 779Q400 754 381.50 736Q363 718 339 718Q318 718 304 732Q290 746 290 767Q290 791 308.50 809Q327 827 352 827Q373 827 386.50 813Q400 799 400 779Z"  horiz-adv-x="412" vert-adv-y="1000"  />

      
      <glyph glyph-name="uni010B" unicode="&#x010B;" d="M170-12Q100-12 60.50 32.50Q21 77 21 162Q21 236 45.50 310.50Q70 385 122.50 440Q175 495 242 495Q316 495 355 446L308 376Q288 412 248 412Q209 412 178 369Q147 326 132.50 271.50Q118 217 118 169Q118 71 190 71Q223 71 250 100L269 26Q227-12 170-12M344 612Q344 587 325.50 569Q307 551 283 551Q262 551 248 565Q234 579 234 600Q234 624 252.50 642Q271 660 296 660Q317 660 330.50 646Q344 632 344 612Z"  horiz-adv-x="333" vert-adv-y="1000"  />

      
      <glyph glyph-name="uni010C" unicode="&#x010C;" d="M382 723L295 723L260 867L312 867L346 769L422 867L477 867L382 723M191-12Q116-12 75 40.50Q34 93 34 190Q34 239 43 299Q52 359 73.50 426.50Q95 494 125 549.50Q155 605 202.50 641.50Q250 678 306 678Q379 678 414.50 628.50Q450 579 454 503L357 484Q350 585 299 585Q263 585 231.50 538Q200 491 181.50 424.50Q163 358 152 294Q141 230 141 187Q141 81 197 81Q241 81 285 164L368 128Q300-12 191-12Z"  horiz-adv-x="412" vert-adv-y="1000"  />

      
      <glyph glyph-name="uni010D" unicode="&#x010D;" d="M322 556L235 556L200 700L252 700L286 602L362 700L417 700L322 556M170-12Q100-12 60.50 32.50Q21 77 21 162Q21 236 45.50 310.50Q70 385 122.50 440Q175 495 242 495Q316 495 355 446L308 376Q288 412 248 412Q209 412 178 369Q147 326 132.50 271.50Q118 217 118 169Q118 71 190 71Q223 71 250 100L269 26Q227-12 170-12Z"  horiz-adv-x="333" vert-adv-y="1000"  />

      
      <glyph glyph-name="uni010E" unicode="&#x010E;" d="M387 723L300 723L265 867L317 867L351 769L427 867L482 867L387 723M153 0L3 0L150 667L296 667Q361 667 407 613Q453 559 453 457Q453 424 447 381Q441 338 428 285Q415 232 391.50 183Q368 134 336.50 92Q305 50 257.50 25Q210 0 153 0M127 92L171 92Q216 92 252 136.50Q288 181 307 244.50Q326 308 336 364Q346 420 346 456Q346 516 326 545.50Q306 575 276 575L234 575L127 92Z"  horiz-adv-x="455" vert-adv-y="1000"  />

      
      <glyph glyph-name="uni010F" unicode="&#x010F;" d="M591 624Q591 581 559.50 538.50Q528 496 483 473L454 505Q480 518 501.50 538.50Q523 559 531 580Q530 579 523 579Q507 579 495 591Q483 603 483 622Q483 645 500.50 662Q518 679 540 679Q562 679 576.50 664.50Q591 650 591 624M209 495Q281 495 301 418L356 667L450 667L302 0L208 0L222 60Q177-12 120-12Q70-12 44 26Q18 64 18 137Q18 186 30 245.50Q42 305 64.50 362Q87 419 125 457Q163 495 209 495M229 412Q194 412 166 360.50Q138 309 126.50 250.50Q115 192 115 148Q115 71 166 71Q185 71 205.50 90.50Q226 110 239 138L285 344Q282 373 266 392.50Q250 412 229 412Z"  horiz-adv-x="506" vert-adv-y="1000"  />

      
      <glyph glyph-name="uni0110" unicode="&#x0110;" d="M174 0L24 0L88 291L28 291L47 376L107 376L171 667L317 667Q382 667 428 613Q474 559 474 457Q474 424 468 381Q462 338 449 285Q436 232 412.50 183Q389 134 357.50 92Q326 50 278.50 25Q231 0 174 0M268 291L192 291L148 92L192 92Q237 92 273 136.50Q309 181 328 244.50Q347 308 357 364Q367 420 367 456Q367 516 347 545.50Q327 575 297 575L255 575L211 376L287 376L268 291Z"  horiz-adv-x="476" vert-adv-y="1000"  />

      
      <glyph glyph-name="uni0111" unicode="&#x0111;" d="M209 495Q281 495 301 418L326 533L207 533L219 590L339 590L356 667L450 667L433 590L472 590L460 533L420 533L302 0L208 0L222 60Q177-12 120-12Q70-12 44 26Q18 64 18 137Q18 186 30 245.50Q42 305 64.50 362Q87 419 125 457Q163 495 209 495M229 412Q194 412 166 360.50Q138 309 126.50 250.50Q115 192 115 148Q115 71 166 71Q185 71 205.50 90.50Q226 110 239 138L285 344Q282 373 266 392.50Q250 412 229 412Z"  horiz-adv-x="406" vert-adv-y="1000"  />

      
      <glyph glyph-name="uni0112" unicode="&#x0112;" d="M276 0L3 0L150 667L423 667L403 575L234 575L192 386L354 386L333 294L172 294L127 92L296 92L276 0M428 735L175 735L187 792L440 792L428 735Z"  horiz-adv-x="367" vert-adv-y="1000"  />

      
      <glyph glyph-name="uni0113" unicode="&#x0113;" d="M174-12Q101-12 60.50 33Q20 78 20 163Q20 197 27.50 239Q35 281 52.50 326.50Q70 372 94.50 409.50Q119 447 156 471Q193 495 236 495Q374 495 374 337Q374 287 355 211L114 211Q108 188 108 158Q108 118 127.50 91.50Q147 65 190 65Q235 65 275 112L311 54Q253-12 174-12M127 278L280 278Q288 310 288 338Q288 373 272.50 395.50Q257 418 229 418Q188 418 162 374.50Q136 331 127 278M405 568L152 568L164 625L417 625L405 568Z"  horiz-adv-x="391" vert-adv-y="1000"  />

      
      <glyph glyph-name="uni0114" unicode="&#x0114;" d="M276 0L3 0L150 667L423 667L403 575L234 575L192 386L354 386L333 294L172 294L127 92L296 92L276 0M429 777Q370 715 294 715Q218 715 185 777L235 812Q253 772 303 772Q353 772 387 812L429 777Z"  horiz-adv-x="367" vert-adv-y="1000"  />

      
      <glyph glyph-name="uni0115" unicode="&#x0115;" d="M174-12Q101-12 60.50 33Q20 78 20 163Q20 197 27.50 239Q35 281 52.50 326.50Q70 372 94.50 409.50Q119 447 156 471Q193 495 236 495Q374 495 374 337Q374 287 355 211L114 211Q108 188 108 158Q108 118 127.50 91.50Q147 65 190 65Q235 65 275 112L311 54Q253-12 174-12M127 278L280 278Q288 310 288 338Q288 373 272.50 395.50Q257 418 229 418Q188 418 162 374.50Q136 331 127 278M406 610Q347 548 271 548Q195 548 162 610L212 645Q230 605 280 605Q330 605 364 645L406 610Z"  horiz-adv-x="391" vert-adv-y="1000"  />

      
      <glyph glyph-name="uni0116" unicode="&#x0116;" d="M276 0L3 0L150 667L423 667L403 575L234 575L192 386L354 386L333 294L172 294L127 92L296 92L276 0M365 782Q365 757 346.50 739Q328 721 304 721Q283 721 269 735Q255 749 255 770Q255 794 273.50 812Q292 830 317 830Q338 830 351.50 816Q365 802 365 782Z"  horiz-adv-x="367" vert-adv-y="1000"  />

      
      <glyph glyph-name="uni0117" unicode="&#x0117;" d="M174-12Q101-12 60.50 33Q20 78 20 163Q20 197 27.50 239Q35 281 52.50 326.50Q70 372 94.50 409.50Q119 447 156 471Q193 495 236 495Q374 495 374 337Q374 287 355 211L114 211Q108 188 108 158Q108 118 127.50 91.50Q147 65 190 65Q235 65 275 112L311 54Q253-12 174-12M127 278L280 278Q288 310 288 338Q288 373 272.50 395.50Q257 418 229 418Q188 418 162 374.50Q136 331 127 278M340 612Q340 587 321.50 569Q303 551 279 551Q258 551 244 565Q230 579 230 600Q230 624 248.50 642Q267 660 292 660Q313 660 326.50 646Q340 632 340 612Z"  horiz-adv-x="391" vert-adv-y="1000"  />

      
      <glyph glyph-name="uni0118" unicode="&#x0118;" d="M276 0Q189-55 189-119Q189-142 212-142Q234-142 245-112L282-138Q254-186 207-186Q176-186 157.50-170.50Q139-155 139-124Q139-57 208 0L3 0L150 667L423 667L403 575L234 575L192 386L354 386L333 294L172 294L127 92L296 92L276 0Z"  horiz-adv-x="367" vert-adv-y="1000"  />

      
      <glyph glyph-name="uni0119" unicode="&#x0119;" d="M205-112L242-138Q214-186 167-186Q136-186 117.50-170.50Q99-155 99-124Q99-63 155-11Q90-5 55 39.50Q20 84 20 163Q20 197 27.50 239Q35 281 52.50 326.50Q70 372 94.50 409.50Q119 447 156 471Q193 495 236 495Q374 495 374 337Q374 287 355 211L114 211Q108 188 108 158Q108 118 127.50 91.50Q147 65 190 65Q235 65 275 112L311 54Q279 17 236 0Q149-55 149-119Q149-142 172-142Q194-142 205-112M127 278L280 278Q288 310 288 338Q288 373 272.50 395.50Q257 418 229 418Q188 418 162 374.50Q136 331 127 278Z"  horiz-adv-x="391" vert-adv-y="1000"  />

      
      <glyph glyph-name="uni011A" unicode="&#x011A;" d="M344 723L257 723L222 867L274 867L308 769L384 867L439 867L344 723M276 0L3 0L150 667L423 667L403 575L234 575L192 386L354 386L333 294L172 294L127 92L296 92L276 0Z"  horiz-adv-x="367" vert-adv-y="1000"  />

      
      <glyph glyph-name="uni011B" unicode="&#x011B;" d="M321 556L234 556L199 700L251 700L285 602L361 700L416 700L321 556M174-12Q101-12 60.50 33Q20 78 20 163Q20 197 27.50 239Q35 281 52.50 326.50Q70 372 94.50 409.50Q119 447 156 471Q193 495 236 495Q374 495 374 337Q374 287 355 211L114 211Q108 188 108 158Q108 118 127.50 91.50Q147 65 190 65Q235 65 275 112L311 54Q253-12 174-12M127 278L280 278Q288 310 288 338Q288 373 272.50 395.50Q257 418 229 418Q188 418 162 374.50Q136 331 127 278Z"  horiz-adv-x="391" vert-adv-y="1000"  />

      
      <glyph glyph-name="uni011C" unicode="&#x011C;" d="M445 723L394 723L358 821L284 723L228 723L324 867L411 867L445 723M191-12Q115-12 74.50 40.50Q34 93 34 190Q34 257 50.50 337Q67 417 98.50 495Q130 573 184.50 625.50Q239 678 306 678Q378 678 412 631.50Q446 585 449 515L360 494Q354 585 299 585Q253 585 215 508.50Q177 432 159 342.50Q141 253 141 187Q141 130 154.50 105.50Q168 81 197 81Q232 81 270 130L298 261L217 261L238 353L412 353L354 93Q286-12 191-12Z"  horiz-adv-x="435" vert-adv-y="1000"  />

      
      <glyph glyph-name="uni011D" unicode="&#x011D;" d="M371 549L320 549L284 647L210 549L154 549L250 693L337 693L371 549M111-196Q13-196-35-137L16-64Q48-113 109-113Q183-113 207-3L226 73Q183 1 123 1Q74 1 46.50 37Q19 73 19 144Q19 192 30 249Q41 306 63 363Q85 420 123.50 457.50Q162 495 210 495Q239 495 267 474.50Q295 454 302 418L316 483L409 483L304 9Q278-104 230-150Q182-196 111-196M168 84Q188 84 208 103.50Q228 123 242 151L285 344Q281 371 264.50 391.50Q248 412 227 412Q193 412 166 364.50Q139 317 127.50 261Q116 205 116 161Q116 84 168 84Z"  horiz-adv-x="406" vert-adv-y="1000"  />

      
      <glyph glyph-name="uni011E" unicode="&#x011E;" d="M191-12Q115-12 74.50 40.50Q34 93 34 190Q34 257 50.50 337Q67 417 98.50 495Q130 573 184.50 625.50Q239 678 306 678Q378 678 412 631.50Q446 585 449 515L360 494Q354 585 299 585Q253 585 215 508.50Q177 432 159 342.50Q141 253 141 187Q141 130 154.50 105.50Q168 81 197 81Q232 81 270 130L298 261L217 261L238 353L412 353L354 93Q286-12 191-12M465 777Q406 715 330 715Q254 715 221 777L271 812Q289 772 339 772Q389 772 423 812L465 777Z"  horiz-adv-x="435" vert-adv-y="1000"  />

      
      <glyph glyph-name="uni011F" unicode="&#x011F;" d="M111-196Q13-196-35-137L16-64Q48-113 109-113Q183-113 207-3L226 73Q183 1 123 1Q74 1 46.50 37Q19 73 19 144Q19 192 30 249Q41 306 63 363Q85 420 123.50 457.50Q162 495 210 495Q239 495 267 474.50Q295 454 302 418L316 483L409 483L304 9Q278-104 230-150Q182-196 111-196M168 84Q188 84 208 103.50Q228 123 242 151L285 344Q281 371 264.50 391.50Q248 412 227 412Q193 412 166 364.50Q139 317 127.50 261Q116 205 116 161Q116 84 168 84M397 610Q338 548 262 548Q186 548 153 610L203 645Q221 605 271 605Q321 605 355 645L397 610Z"  horiz-adv-x="406" vert-adv-y="1000"  />

      
      <glyph glyph-name="uni0120" unicode="&#x0120;" d="M191-12Q115-12 74.50 40.50Q34 93 34 190Q34 257 50.50 337Q67 417 98.50 495Q130 573 184.50 625.50Q239 678 306 678Q378 678 412 631.50Q446 585 449 515L360 494Q354 585 299 585Q253 585 215 508.50Q177 432 159 342.50Q141 253 141 187Q141 130 154.50 105.50Q168 81 197 81Q232 81 270 130L298 261L217 261L238 353L412 353L354 93Q286-12 191-12M400 779Q400 754 381.50 736Q363 718 339 718Q318 718 304 732Q290 746 290 767Q290 791 308.50 809Q327 827 352 827Q373 827 386.50 813Q400 799 400 779Z"  horiz-adv-x="435" vert-adv-y="1000"  />

      
      <glyph glyph-name="uni0121" unicode="&#x0121;" d="M111-196Q13-196-35-137L16-64Q48-113 109-113Q183-113 207-3L226 73Q183 1 123 1Q74 1 46.50 37Q19 73 19 144Q19 192 30 249Q41 306 63 363Q85 420 123.50 457.50Q162 495 210 495Q239 495 267 474.50Q295 454 302 418L316 483L409 483L304 9Q278-104 230-150Q182-196 111-196M168 84Q188 84 208 103.50Q228 123 242 151L285 344Q281 371 264.50 391.50Q248 412 227 412Q193 412 166 364.50Q139 317 127.50 261Q116 205 116 161Q116 84 168 84M332 612Q332 587 313.50 569Q295 551 271 551Q250 551 236 565Q222 579 222 600Q222 624 240.50 642Q259 660 284 660Q305 660 318.50 646Q332 632 332 612Z"  horiz-adv-x="406" vert-adv-y="1000"  />

      
      <glyph glyph-name="uni0122" unicode="&#x0122;" d="M198-121Q198-164 166.50-206.50Q135-249 90-272L61-240Q87-227 108.50-206.50Q130-186 138-165Q137-166 130-166Q114-166 102-154Q90-142 90-123Q90-100 107.50-83Q125-66 147-66Q169-66 183.50-80.50Q198-95 198-121M191-12Q115-12 74.50 40.50Q34 93 34 190Q34 257 50.50 337Q67 417 98.50 495Q130 573 184.50 625.50Q239 678 306 678Q378 678 412 631.50Q446 585 449 515L360 494Q354 585 299 585Q253 585 215 508.50Q177 432 159 342.50Q141 253 141 187Q141 130 154.50 105.50Q168 81 197 81Q232 81 270 130L298 261L217 261L238 353L412 353L354 93Q286-12 191-12Z"  horiz-adv-x="435" vert-adv-y="1000"  />

      
      <glyph glyph-name="uni0123" unicode="&#x0123;" d="M224 607Q224 650 256 693Q288 736 333 759L362 727Q336 714 314 693.50Q292 673 285 652L292 652Q309 652 321.50 640Q334 628 334 608Q334 585 316 568Q298 551 275 551Q253 551 238.50 565.50Q224 580 224 607M111-196Q13-196-35-137L16-64Q48-113 109-113Q183-113 207-3L226 73Q183 1 123 1Q74 1 46.50 37Q19 73 19 144Q19 192 30 249Q41 306 63 363Q85 420 123.50 457.50Q162 495 210 495Q239 495 267 474.50Q295 454 302 418L316 483L409 483L304 9Q278-104 230-150Q182-196 111-196M168 84Q188 84 208 103.50Q228 123 242 151L285 344Q281 371 264.50 391.50Q248 412 227 412Q193 412 166 364.50Q139 317 127.50 261Q116 205 116 161Q116 84 168 84Z"  horiz-adv-x="406" vert-adv-y="1000"  />

      
      <glyph glyph-name="uni0124" unicode="&#x0124;" d="M446 723L395 723L359 821L285 723L229 723L325 867L412 867L446 723M353 0L248 0L314 297L172 297L107 0L3 0L150 667L254 667L193 389L334 389L395 667L500 667L353 0Z"  horiz-adv-x="463" vert-adv-y="1000"  />

      
      <glyph glyph-name="uni0125" unicode="&#x0125;" d="M417 723L366 723L330 821L256 723L200 723L296 867L383 867L417 723M298 0L204 0L283 355Q286 367 286 377Q286 412 252 412Q207 412 164 340L90 0L-4 0L143 667L237 667L183 421Q237 495 303 495Q343 495 365 473.50Q387 452 387 417Q387 407 383 387L298 0Z"  horiz-adv-x="402" vert-adv-y="1000"  />

      
      <glyph glyph-name="uni0126" unicode="&#x0126;" d="M371 0L266 0L332 297L190 297L125 0L21 0L131 501L75 501L88 558L144 558L168 667L272 667L248 558L389 558L413 667L518 667L494 558L548 558L535 501L481 501L371 0M211 389L352 389L376 501L235 501L211 389Z"  horiz-adv-x="499" vert-adv-y="1000"  />

      
      <glyph glyph-name="uni0127" unicode="&#x0127;" d="M298 0L204 0L283 355Q286 367 286 377Q286 412 252 412Q207 412 164 340L90 0L-4 0L113 532L69 532L82 589L125 589L143 667L237 667L220 589L337 589L325 532L207 532L183 421Q237 495 303 495Q343 495 365 473.50Q387 452 387 417Q387 407 383 387L298 0Z"  horiz-adv-x="402" vert-adv-y="1000"  />

      
      <glyph glyph-name="uni0128" unicode="&#x0128;" d="M107 0L3 0L150 667L254 667L107 0M266 721Q245 721 232.50 734Q220 747 216 762.50Q212 778 205 791Q198 804 187 804Q163 804 146 727L95 727Q125 861 194 861Q215 861 228 848Q241 835 245 819.50Q249 804 256 791Q263 778 274 778Q298 778 315 855L366 855Q338 721 266 721Z"  horiz-adv-x="218" vert-adv-y="1000"  />

      
      <glyph glyph-name="uni0129" unicode="&#x0129;" d="M90 0L-4 0L103 483L197 483L90 0M217 554Q196 554 183.50 567Q171 580 167 595.50Q163 611 156 624Q149 637 138 637Q114 637 97 560L46 560Q76 694 145 694Q166 694 179 681Q192 668 196 652.50Q200 637 207 624Q214 611 225 611Q249 611 266 688L317 688Q289 554 217 554Z"  horiz-adv-x="194" vert-adv-y="1000"  />

      
      <glyph glyph-name="uni012A" unicode="&#x012A;" d="M107 0L3 0L150 667L254 667L107 0M344 735L91 735L103 792L356 792L344 735Z"  horiz-adv-x="218" vert-adv-y="1000"  />

      
      <glyph glyph-name="uni012B" unicode="&#x012B;" d="M90 0L-4 0L103 483L197 483L90 0M296 568L43 568L55 625L308 625L296 568Z"  horiz-adv-x="194" vert-adv-y="1000"  />

      
      <glyph glyph-name="uni012C" unicode="&#x012C;" d="M107 0L3 0L150 667L254 667L107 0M345 777Q286 715 210 715Q134 715 101 777L151 812Q169 772 219 772Q269 772 303 812L345 777Z"  horiz-adv-x="218" vert-adv-y="1000"  />

      
      <glyph glyph-name="uni012D" unicode="&#x012D;" d="M90 0L-4 0L103 483L197 483L90 0M297 610Q238 548 162 548Q86 548 53 610L103 645Q121 605 171 605Q221 605 255 645L297 610Z"  horiz-adv-x="194" vert-adv-y="1000"  />

      
      <glyph glyph-name="uni012E" unicode="&#x012E;" d="M76-112L113-138Q85-186 38-186Q7-186-11.50-170.50Q-30-155-30-124Q-30-58 39 0L3 0L150 667L254 667L107 0Q20-55 20-119Q20-142 43-142Q65-142 76-112Z"  horiz-adv-x="218" vert-adv-y="1000"  />

      
      <glyph glyph-name="uni012F" unicode="&#x012F;" d="M59-112L96-138Q68-186 21-186Q-10-186-28.50-170.50Q-47-155-47-124Q-47-58 22 0L-4 0L103 483L197 483L90 0Q3-55 3-119Q3-142 26-142Q48-142 59-112M169 546Q146 546 130.50 561Q115 576 115 597Q115 627 136.50 646Q158 665 183 665Q206 665 221.50 649.50Q237 634 237 613Q237 583 216 564.50Q195 546 169 546Z"  horiz-adv-x="194" vert-adv-y="1000"  />

      
      <glyph glyph-name="uni0130" unicode="&#x0130;" d="M107 0L3 0L150 667L254 667L107 0M280 779Q280 754 261.50 736Q243 718 219 718Q198 718 184 732Q170 746 170 767Q170 791 188.50 809Q207 827 232 827Q253 827 266.50 813Q280 799 280 779Z"  horiz-adv-x="218" vert-adv-y="1000"  />

      
      <glyph glyph-name="uni0131" unicode="&#x0131;" d="M90 0L-4 0L103 483L197 483L90 0Z"  horiz-adv-x="194" vert-adv-y="1000"  />

      
      <glyph glyph-name="uni0132" unicode="&#x0132;" d="M107 0L3 0L150 667L254 667L107 0M300-12Q221-12 181 34L226 116Q249 81 292 81Q358 81 375 161L488 667L592 667L479 156Q459 68 416.50 28Q374-12 300-12Z"  horiz-adv-x="554" vert-adv-y="1000"  />

      
      <glyph glyph-name="uni0133" unicode="&#x0133;" d="M169 546Q146 546 130.50 561Q115 576 115 597Q115 627 136.50 646Q158 665 183 665Q206 665 221.50 649.50Q237 634 237 613Q237 583 216 564.50Q195 546 169 546M90 0L-4 0L103 483L197 483L90 0M138-196Q88-196 68-166L109-97Q115-113 134-113Q165-113 177-54L297 483L391 483L271-54Q254-130 224-163Q194-196 138-196M363 546Q340 546 324.50 561Q309 576 309 597Q309 627 330.50 646Q352 665 377 665Q400 665 415.50 649.50Q431 634 431 613Q431 583 410 564.50Q389 546 363 546Z"  horiz-adv-x="388" vert-adv-y="1000"  />

      
      <glyph glyph-name="uni0134" unicode="&#x0134;" d="M442 723L391 723L355 821L281 723L225 723L321 867L408 867L442 723M82-12Q3-12-37 34L8 116Q31 81 74 81Q140 81 157 161L270 667L374 667L261 156Q241 68 198.50 28Q156-12 82-12Z"  horiz-adv-x="337" vert-adv-y="1000"  />

      
      <glyph glyph-name="uni0135" unicode="&#x0135;" d="M276 556L225 556L189 654L115 556L59 556L155 700L242 700L276 556M-56-196Q-106-196-126-166L-85-97Q-79-113-60-113Q-29-113-17-54L103 483L197 483L77-54Q60-130 30-163Q0-196-56-196Z"  horiz-adv-x="194" vert-adv-y="1000"  />

      
      <glyph glyph-name="uni0136" unicode="&#x0136;" d="M217-121Q217-164 185.50-206.50Q154-249 109-272L80-240Q106-227 127.50-206.50Q149-186 157-165Q156-166 149-166Q133-166 121-154Q109-142 109-123Q109-100 126.50-83Q144-66 166-66Q188-66 202.50-80.50Q217-95 217-121M388 0L277 0L210 272L147 184L107 0L3 0L150 667L254 667L186 357L401 667L522 667L288 352L388 0Z"  horiz-adv-x="448" vert-adv-y="1000"  />

      
      <glyph glyph-name="uni0137" unicode="&#x0137;" d="M178-121Q178-164 146.50-206.50Q115-249 70-272L41-240Q67-227 88.50-206.50Q110-186 118-165Q117-166 110-166Q94-166 82-154Q70-142 70-123Q70-100 87.50-83Q105-66 127-66Q149-66 163.50-80.50Q178-95 178-121M321 0L221 0L185 207L115 117L90 0L-4 0L143 667L237 667L144 247L321 483L426 483L260 268L321 0Z"  horiz-adv-x="385" vert-adv-y="1000"  />

      
      <glyph glyph-name="uni0138" unicode="&#x0138;" d="M321 0L221 0L185 207L115 117L90 0L-4 0L103 483L197 483L144 247L321 483L426 483L260 268L321 0Z"  horiz-adv-x="385" vert-adv-y="1000"  />

      
      <glyph glyph-name="uni0139" unicode="&#x0139;" d="M454 867L319 723L256 723L367 867L454 867M276 0L3 0L150 667L254 667L127 92L296 92L276 0Z"  horiz-adv-x="351" vert-adv-y="1000"  />

      
      <glyph glyph-name="uni013A" unicode="&#x013A;" d="M358 867L223 723L160 723L271 867L358 867M90 0L-4 0L143 667L237 667L90 0Z"  horiz-adv-x="194" vert-adv-y="1000"  />

      
      <glyph glyph-name="uni013B" unicode="&#x013B;" d="M174-121Q174-164 142.50-206.50Q111-249 66-272L37-240Q63-227 84.50-206.50Q106-186 114-165Q113-166 106-166Q90-166 78-154Q66-142 66-123Q66-100 83.50-83Q101-66 123-66Q145-66 159.50-80.50Q174-95 174-121M276 0L3 0L150 667L254 667L127 92L296 92L276 0Z"  horiz-adv-x="351" vert-adv-y="1000"  />

      
      <glyph glyph-name="uni013C" unicode="&#x013C;" d="M65-121Q65-164 33.50-206.50Q2-249-43-272L-72-240Q-46-227-24.50-206.50Q-3-186 5-165Q4-166-3-166Q-19-166-31-154Q-43-142-43-123Q-43-100-25.50-83Q-8-66 14-66Q36-66 50.50-80.50Q65-95 65-121M90 0L-4 0L143 667L237 667L90 0Z"  horiz-adv-x="194" vert-adv-y="1000"  />

      
      <glyph glyph-name="uni013D" unicode="&#x013D;" d="M402 625Q402 582 370.50 539.50Q339 497 294 474L265 506Q291 519 312.50 539.50Q334 560 342 581Q341 580 334 580Q318 580 306 592Q294 604 294 623Q294 646 311.50 663Q329 680 351 680Q373 680 387.50 665.50Q402 651 402 625M276 0L3 0L150 667L254 667L127 92L296 92L276 0Z"  horiz-adv-x="351" vert-adv-y="1000"  />

      
      <glyph glyph-name="uni013E" unicode="&#x013E;" d="M392 625Q392 582 360.50 539.50Q329 497 284 474L255 506Q281 519 302.50 539.50Q324 560 332 581Q331 580 324 580Q308 580 296 592Q284 604 284 623Q284 646 301.50 663Q319 680 341 680Q363 680 377.50 665.50Q392 651 392 625M90 0L-4 0L143 667L237 667L90 0Z"  horiz-adv-x="293" vert-adv-y="1000"  />

      
      <glyph glyph-name="uni013F" unicode="&#x013F;" d="M276 0L3 0L150 667L254 667L127 92L296 92L276 0M324 277Q300 277 283 294Q266 311 266 336Q266 364 287 385Q308 406 336 406Q361 406 378 388.50Q395 371 395 347Q395 318 374 297.50Q353 277 324 277Z"  horiz-adv-x="400" vert-adv-y="1000"  />

      
      <glyph glyph-name="uni0140" unicode="&#x0140;" d="M90 0L-4 0L143 667L237 667L90 0M254 180Q230 180 213 197Q196 214 196 239Q196 268 217 288.50Q238 309 266 309Q291 309 308 291.50Q325 274 325 250Q325 221 304 200.50Q283 180 254 180Z"  horiz-adv-x="327" vert-adv-y="1000"  />

      
      <glyph glyph-name="uni0141" unicode="&#x0141;" d="M15 231L34 319L90 348L161 667L265 667L207 407L275 442L256 354L188 319L138 92L307 92L287 0L14 0L71 259L15 231Z"  horiz-adv-x="362" vert-adv-y="1000"  />

      
      <glyph glyph-name="uni0142" unicode="&#x0142;" d="M18 246L34 318L93 347L163 667L257 667L198 400L256 430L240 359L182 330L110 0L16 0L77 276L18 246Z"  horiz-adv-x="233" vert-adv-y="1000"  />

      
      <glyph glyph-name="uni0143" unicode="&#x0143;" d="M494 867L359 723L296 723L407 867L494 867M353 0L254 0L197 409L107 0L3 0L150 667L254 667L307 271L395 667L500 667L353 0Z"  horiz-adv-x="463" vert-adv-y="1000"  />

      
      <glyph glyph-name="uni0144" unicode="&#x0144;" d="M426 700L291 556L228 556L339 700L426 700M298 0L204 0L283 355Q286 370 286 377Q286 412 252 412Q207 412 164 340L90 0L-4 0L103 483L197 483L183 421Q237 495 303 495Q342 495 364.50 474Q387 453 387 417Q387 399 383 387L298 0Z"  horiz-adv-x="402" vert-adv-y="1000"  />

      
      <glyph glyph-name="uni0145" unicode="&#x0145;" d="M204-121Q204-164 172.50-206.50Q141-249 96-272L67-240Q93-227 114.50-206.50Q136-186 144-165Q143-166 136-166Q120-166 108-154Q96-142 96-123Q96-100 113.50-83Q131-66 153-66Q175-66 189.50-80.50Q204-95 204-121M353 0L254 0L197 409L107 0L3 0L150 667L254 667L307 271L395 667L500 667L353 0Z"  horiz-adv-x="463" vert-adv-y="1000"  />

      
      <glyph glyph-name="uni0146" unicode="&#x0146;" d="M170-121Q170-164 138.50-206.50Q107-249 62-272L33-240Q59-227 80.50-206.50Q102-186 110-165Q109-166 102-166Q86-166 74-154Q62-142 62-123Q62-100 79.50-83Q97-66 119-66Q141-66 155.50-80.50Q170-95 170-121M298 0L204 0L283 355Q286 370 286 377Q286 412 252 412Q207 412 164 340L90 0L-4 0L103 483L197 483L183 421Q237 495 303 495Q342 495 364.50 474Q387 453 387 417Q387 399 383 387L298 0Z"  horiz-adv-x="402" vert-adv-y="1000"  />

      
      <glyph glyph-name="uni0147" unicode="&#x0147;" d="M384 723L297 723L262 867L314 867L348 769L424 867L479 867L384 723M353 0L254 0L197 409L107 0L3 0L150 667L254 667L307 271L395 667L500 667L353 0Z"  horiz-adv-x="463" vert-adv-y="1000"  />

      
      <glyph glyph-name="uni0148" unicode="&#x0148;" d="M315 556L228 556L193 700L245 700L279 602L355 700L410 700L315 556M298 0L204 0L283 355Q286 370 286 377Q286 412 252 412Q207 412 164 340L90 0L-4 0L103 483L197 483L183 421Q237 495 303 495Q342 495 364.50 474Q387 453 387 417Q387 399 383 387L298 0Z"  horiz-adv-x="402" vert-adv-y="1000"  />

      
      <glyph glyph-name="uni0149" unicode="&#x0149;" d="M241 696Q241 653 209.50 610.50Q178 568 133 545L104 577Q130 590 151.50 610.50Q173 631 181 652Q180 651 173 651Q157 651 145 663Q133 675 133 694Q133 717 150.50 734Q168 751 190 751Q212 751 226.50 736.50Q241 722 241 696M298 0L204 0L283 355Q286 370 286 377Q286 412 252 412Q207 412 164 340L90 0L-4 0L103 483L197 483L183 421Q237 495 303 495Q342 495 364.50 474Q387 453 387 417Q387 399 383 387L298 0Z"  horiz-adv-x="402" vert-adv-y="1000"  />

      
      <glyph glyph-name="uni014A" unicode="&#x014A;" d="M168-196Q91-196 49-150L92-72Q115-105 159-105Q226-105 243-25L252 18L197 409L107 0L3 0L150 667L254 667L307 271L395 667L500 667L346-28Q326-116 284-156Q242-196 168-196Z"  horiz-adv-x="463" vert-adv-y="1000"  />

      
      <glyph glyph-name="uni014B" unicode="&#x014B;" d="M383 387L286-53Q268-132 237-164Q206-196 152-196Q105-196 82-166L123-97Q129-113 147-113Q178-113 192-53L283 355Q286 376 286 377Q286 412 252 412Q230 412 205.50 391Q181 370 164 340L90 0L-4 0L103 483L197 483L182 418Q236 495 303 495Q342 495 364.50 474Q387 453 387 417Q387 405 383 387Z"  horiz-adv-x="402" vert-adv-y="1000"  />

      
      <glyph glyph-name="uni014C" unicode="&#x014C;" d="M465 735L212 735L224 792L477 792L465 735M191-12Q112-12 73 44Q34 100 34 190Q34 252 50 330.50Q66 409 96.50 489Q127 569 182.50 623.50Q238 678 306 678Q384 678 423.50 621Q463 564 463 474Q463 427 453.50 366.50Q444 306 422.50 239Q401 172 371 116.50Q341 61 293.50 24.50Q246-12 191-12M197 81Q243 81 281.50 158Q320 235 338 324.50Q356 414 356 477Q356 585 299 585Q253 585 214.50 507.50Q176 430 158.50 340.50Q141 251 141 187Q141 81 197 81Z"  horiz-adv-x="459" vert-adv-y="1000"  />

      
      <glyph glyph-name="uni014D" unicode="&#x014D;" d="M401 568L148 568L160 625L413 625L401 568M163-12Q94-12 57 31.50Q20 75 20 156Q20 230 43.50 305.50Q67 381 118.50 438Q170 495 237 495Q306 495 343 452Q380 409 380 327Q380 253 356.50 177.50Q333 102 281.50 45Q230-12 163-12M169 71Q204 71 232 120.50Q260 170 272.50 227.50Q285 285 285 328Q285 412 232 412Q197 412 168.50 362.50Q140 313 127.50 255Q115 197 115 154Q115 71 169 71Z"  horiz-adv-x="402" vert-adv-y="1000"  />

      
      </font>
</defs>
</svg>
